<svg xmlns="http://www.w3.org/2000/svg" viewBox="650 800 2400 450" style="shape-rendering:geometricPrecision; text-rendering:geometricPrecision; image-rendering:optimizeQuality; fill-rule:evenodd; clip-rule:evenodd" xmlns:xlink="http://www.w3.org/1999/xlink">
<g><path style="opacity:1" fill="#000000" d="M 2797.5,812.5 C 2798.55,812.351 2799.55,812.517 2800.5,813C 2811.33,823.167 2822.17,833.333 2833,843.5C 2833.67,844.167 2833.67,844.833 2833,845.5C 2730.17,954.333 2627.33,1063.17 2524.5,1172C 2523.83,1172.67 2523.17,1172.67 2522.5,1172C 2486.6,1132.19 2450.93,1092.19 2415.5,1052C 2427.35,1041.31 2439.35,1030.81 2451.5,1020.5C 2475.29,1047.46 2499.29,1074.29 2523.5,1101C 2524.17,1101.67 2524.83,1101.67 2525.5,1101C 2616.37,1004.96 2707.04,908.797 2797.5,812.5 Z"/></g>
<g><path style="opacity:1" fill="#000000" d="M 2977.5,812.5 C 2979.6,813.412 2981.6,814.579 2983.5,816C 2992.7,825.53 3002.2,834.697 3012,843.5C 3012.32,844.908 3011.98,846.241 3011,847.5C 2908.13,955.364 2805.63,1063.53 2703.5,1172C 2702.83,1172.67 2702.17,1172.67 2701.5,1172C 2681.7,1149.2 2661.54,1126.7 2641,1104.5C 2640.33,1103.83 2640.33,1103.17 2641,1102.5C 2651.68,1090.99 2662.51,1079.66 2673.5,1068.5C 2682.85,1078.68 2692.02,1089.02 2701,1099.5C 2701.84,1101.01 2703,1101.51 2704.5,1101C 2795.34,1004.66 2886.34,908.495 2977.5,812.5 Z"/></g>
<g><path style="opacity:1" fill="#000000" d="M 920.5,817.5 C 936.5,817.5 952.5,817.5 968.5,817.5C 968.5,935.167 968.5,1052.83 968.5,1170.5C 952.5,1170.5 936.5,1170.5 920.5,1170.5C 920.5,1052.83 920.5,935.167 920.5,817.5 Z"/></g>
<g><path style="opacity:1" fill="#000000" d="M 1022.5,817.5 C 1038.5,817.5 1054.5,817.5 1070.5,817.5C 1070.5,935.167 1070.5,1052.83 1070.5,1170.5C 1054.5,1170.5 1038.5,1170.5 1022.5,1170.5C 1022.5,1052.83 1022.5,935.167 1022.5,817.5 Z"/></g>
<g><path style="opacity:1" fill="#000000" d="M 1867.5,817.5 C 1883.5,817.5 1899.5,817.5 1915.5,817.5C 1915.33,867.834 1915.5,918.168 1916,968.5C 1936.17,938.509 1964.33,926.009 2000.5,931C 2038.97,936.797 2062.8,958.63 2072,996.5C 2073.39,1002.44 2074.39,1008.44 2075,1014.5C 2075.5,1066.5 2075.67,1118.5 2075.5,1170.5C 2059.5,1170.5 2043.5,1170.5 2027.5,1170.5C 2027.67,1122.83 2027.5,1075.17 2027,1027.5C 2020.65,984.578 1996.15,967.078 1953.5,975C 1935.43,981.404 1923.93,993.904 1919,1012.5C 1917.52,1017.41 1916.52,1022.41 1916,1027.5C 1915.5,1075.17 1915.33,1122.83 1915.5,1170.5C 1899.5,1170.5 1883.5,1170.5 1867.5,1170.5C 1867.5,1052.83 1867.5,935.167 1867.5,817.5 Z"/></g>
<g><path style="opacity:1" fill="#000000" d="M 2143.5,821.5 C 2167.46,818.484 2180.79,828.817 2183.5,852.5C 2182.55,872.615 2172.05,883.282 2152,884.5C 2137.28,884.147 2127.28,877.147 2122,863.5C 2117.33,843.172 2124.49,829.172 2143.5,821.5 Z"/></g>
<g><path style="opacity:1" fill="#000000" d="M 754.5,930.5 C 779.257,928.261 803.257,931.428 826.5,940C 850.722,949.884 864.889,967.718 869,993.5C 869.5,1052.5 869.667,1111.5 869.5,1170.5C 853.833,1170.5 838.167,1170.5 822.5,1170.5C 822.667,1158.5 822.5,1146.5 822,1134.5C 807.135,1159.03 785.302,1172.53 756.5,1175C 731.147,1178.07 707.814,1172.73 686.5,1159C 667.939,1142.66 660.439,1122.16 664,1097.5C 667.471,1073.35 680.637,1056.85 703.5,1048C 709.363,1045.6 715.363,1043.6 721.5,1042C 742.717,1037.68 764.05,1034.02 785.5,1031C 795.946,1029.3 805.613,1025.63 814.5,1020C 821.551,1012.36 823.384,1003.53 820,993.5C 814.66,982.725 806.16,975.558 794.5,972C 777.606,966.99 760.939,967.657 744.5,974C 728.442,982.602 720.442,996.102 720.5,1014.5C 703.833,1014.5 687.167,1014.5 670.5,1014.5C 671.38,972.576 692.046,946.076 732.5,935C 739.931,933.281 747.265,931.781 754.5,930.5 Z M 821.5,1057.5 C 827.349,1094.97 812.349,1119.81 776.5,1132C 761.818,1136.5 747.151,1136.5 732.5,1132C 717.754,1126.59 711.254,1116.09 713,1100.5C 714.738,1093.52 718.571,1088.02 724.5,1084C 730.859,1080.55 737.526,1077.88 744.5,1076C 761.783,1072.41 779.116,1069.08 796.5,1066C 805.382,1064.43 813.716,1061.6 821.5,1057.5 Z"/></g>
<g><path style="opacity:1" fill="#000000" d="M 1190.5,930.5 C 1220.28,927.285 1247.62,933.785 1272.5,950C 1291.91,964.248 1301.91,983.415 1302.5,1007.5C 1285.83,1007.5 1269.17,1007.5 1252.5,1007.5C 1251.33,989.817 1242.33,977.984 1225.5,972C 1207.22,966.286 1189.88,968.286 1173.5,978C 1163.82,987.503 1161.99,998.336 1168,1010.5C 1176.18,1018.68 1186.02,1023.84 1197.5,1026C 1219.82,1030.06 1241.82,1035.4 1263.5,1042C 1298.08,1055.98 1312.24,1081.48 1306,1118.5C 1299.65,1141.86 1285.15,1158.02 1262.5,1167C 1229.17,1178.31 1195.84,1178.31 1162.5,1167C 1129.45,1154.12 1112.12,1129.95 1110.5,1094.5C 1127.17,1094.5 1143.83,1094.5 1160.5,1094.5C 1160.83,1112.02 1168.83,1124.52 1184.5,1132C 1205.16,1139.87 1225.49,1139.2 1245.5,1130C 1256.98,1120.9 1260.48,1109.4 1256,1095.5C 1251.25,1087.52 1244.41,1082.02 1235.5,1079C 1213.33,1073.03 1191,1067.7 1168.5,1063C 1123.28,1050.06 1107.11,1020.9 1120,975.5C 1130.34,954.566 1146.84,941.066 1169.5,935C 1176.59,933.269 1183.59,931.769 1190.5,930.5 Z"/></g>
<g><path style="opacity:1" fill="#000000" d="M 1426.5,930.5 C 1456.11,927.377 1484.11,932.544 1510.5,946C 1527.81,956.782 1537.98,972.282 1541,992.5C 1541.5,1051.83 1541.67,1111.17 1541.5,1170.5C 1525.83,1170.5 1510.17,1170.5 1494.5,1170.5C 1494.67,1158.83 1494.5,1147.16 1494,1135.5C 1478.8,1159.31 1456.97,1172.48 1428.5,1175C 1403.15,1178.07 1379.81,1172.73 1358.5,1159C 1340.16,1142.98 1332.66,1122.81 1336,1098.5C 1339.04,1073.79 1352.21,1056.96 1375.5,1048C 1381.36,1045.6 1387.36,1043.6 1393.5,1042C 1414.72,1037.69 1436.05,1034.02 1457.5,1031C 1467.98,1029.29 1477.64,1025.62 1486.5,1020C 1493.62,1012.38 1495.45,1003.55 1492,993.5C 1486.99,982.239 1478.49,975.072 1466.5,972C 1446.65,966.19 1427.65,968.19 1409.5,978C 1398.03,987.44 1392.36,999.607 1392.5,1014.5C 1375.83,1014.5 1359.17,1014.5 1342.5,1014.5C 1343.38,972.581 1364.04,946.081 1404.5,935C 1411.93,933.281 1419.26,931.781 1426.5,930.5 Z M 1491.5,1058.5 C 1492.5,1058.5 1493.5,1058.5 1494.5,1058.5C 1497.32,1107.03 1474.32,1132.7 1425.5,1135.5C 1412.5,1135.56 1401,1131.56 1391,1123.5C 1379.34,1103.99 1383.84,1089.49 1404.5,1080C 1408.5,1078.67 1412.5,1077.33 1416.5,1076C 1433.79,1072.45 1451.12,1069.12 1468.5,1066C 1476.63,1064.56 1484.3,1062.06 1491.5,1058.5 Z"/></g>
<g><path style="opacity:1" fill="#000000" d="M 1703.5,930.5 C 1744.89,926.791 1778.72,940.791 1805,972.5C 1821.91,996.564 1830.41,1023.4 1830.5,1053C 1830.59,1090.79 1817.26,1122.79 1790.5,1149C 1755.95,1176.41 1717.95,1182.41 1676.5,1167C 1662.6,1160.1 1650.76,1150.6 1641,1138.5C 1640.5,1169.83 1640.33,1201.16 1640.5,1232.5C 1624.5,1232.5 1608.5,1232.5 1592.5,1232.5C 1592.5,1133.17 1592.5,1033.83 1592.5,934.5C 1608.5,934.5 1624.5,934.5 1640.5,934.5C 1640.33,945.505 1640.5,956.505 1641,967.5C 1657.05,947.058 1677.89,934.725 1703.5,930.5 Z M 1702.5,974.5 C 1743.71,973.348 1769.54,992.681 1780,1032.5C 1785.71,1059.95 1780.37,1084.95 1764,1107.5C 1744.31,1128.17 1720.48,1135.34 1692.5,1129C 1662.2,1118.68 1645.03,1097.51 1641,1065.5C 1637,1036.51 1645.16,1011.68 1665.5,991C 1676.45,982.189 1688.78,976.689 1702.5,974.5 Z"/></g>
<g><path style="opacity:1" fill="#000000" d="M 2128.5,934.5 C 2144.5,934.5 2160.5,934.5 2176.5,934.5C 2176.5,1013.17 2176.5,1091.83 2176.5,1170.5C 2160.5,1170.5 2144.5,1170.5 2128.5,1170.5C 2128.5,1091.83 2128.5,1013.17 2128.5,934.5 Z"/></g>
</svg>
