<svg xmlns="http://www.w3.org/2000/svg" viewBox="0 0 1112 128"><path fill="var(--main)" d="M48.719 99.529c.694-1.457.952-4.545.961-6.562q.03-9.565 0-18.977-.005-.679.476-1.155l8.624-8.619a.302.302 0 0 0 0-.426l-8.723-8.723a1.274 1.274 0 0 1-.367-.882q-.005-8.539.02-17.029.025-6.567.629-9.655C54.666 5.392 79.412-6.528 99.549 3.756c9.783 5.001 17.535 15.374 18.422 26.51q.367 4.644.357 12.574-.04 25.712-.03 51.42 0 9.897-5.992 18.804c-10.676 15.884-32.022 19.438-47.802 8.886a.258.248 38.4 0 1-.05-.382q6.443-6.988 9.154-16.103a.178.178 0 0 1 .282-.089c6.061 4.926 14.056 5.12 19.983.164 3.261-2.726 5.561-7.097 5.561-11.488q.03-47.252-.05-60.381c-.04-7.132-5.799-13.218-12.445-14.556-7.33-1.477-15.191 2.974-17.565 10.14q-.763 2.295-.773 7.662-.015 8.416.01 16.826 0 .952-.649 1.596-4.133 4.124-8.391 8.401-.258.258.005.515l8.673 8.663a1.185 1.189 22.1 0 1 .347.828q.03 10.586-.02 21.133-.015 2.721-.729 6.002c-4.188 19.195-23.294 30.797-42.117 26.059-13.3-3.344-23.262-14.629-25.314-28.15-.446-2.939-.292-6.309-.302-9.486Q.025 61.614 0 33.919C-.015 14.625 16.672-.992 36.135.049q9.526.51 17.619 6.051a.238.243 38.1 0 1 .04.362q-6.408 6.953-9.124 16.028-.089.302-.332.104c-8.762-7.038-20.95-3.539-24.815 6.894a11.35 11.35 0 0 0-.62 3.449q0 30.971-.01 61.942 0 3.722 2.889 7.697 3.34 4.594 8.366 6.017c7.732 2.181 15.136-1.873 18.571-9.065zM330.764 0c-23.124.002-43.557 12.578-52.157 35.878-4.308 11.648-5.422 24.552-4.468 36.923 1.436 18.678 8.585 36.563 24.802 46.755 13.426 8.435 30.618 10.133 46.163 6.759 38.229-8.284 46.865-51.927 39.002-84.402-4.9-20.244-19.4-36.471-40.277-40.608C339.421.43 335.047 0 330.764 0zm-.069 14.243c1.105.005 2.235.044 3.393.116 35.899 2.229 41.374 44.676 34.003 71.458-5.915 21.52-24.362 30.808-45.822 27.213-19.802-3.314-30.135-19.702-31.993-38.49-2.831-28.639 6.165-60.436 40.418-60.296zm90.597 17.528c-1.797 13.285 6.015 19.009 17.784 21.71q11.598 2.661 23.237 5.111c8.546 1.797 16.599 4.097 23.458 9.359 10.192 7.823 11.397 22.102 8.305 33.469-7.039 25.848-39.304 29.553-61.315 24.402q-27.886-6.527-33.299-34.755a.54.54 0 0 1 .382-.633l13.787-4.127q.462-.141.542.341 3.886 23.699 27.846 27.384c16.308 2.5 39.093-1.466 38.189-23.166-.492-11.829-9.038-15.314-19.15-17.483-11.799-2.52-24.221-4.408-35.307-8.475-16.157-5.935-22.514-20.556-18.989-36.833 5.252-24.211 31.863-30.778 52.81-27.133 18.858 3.284 29.432 15.404 34.263 33.439q.201.733-.532.904l-13.084 3.163a.82.82 0 0 1-.639-.11.81.81 0 0 1-.355-.542c-1.988-11.126-9.369-20.505-20.646-23.357-13.958-3.515-34.865-.542-37.285 17.332zM237.548 54.003V2.619a.38.38 0 0 1 .382-.382h14.661a.38.38 0 0 1 .382.382V125.38a.38.38 0 0 1-.382.382l-14.661-.02a.38.38 0 0 1-.382-.382l.01-57.409a.38.38 0 0 0-.382-.382l-67.18.01a.38.38 0 0 0-.382.382l.01 57.419a.38.38 0 0 1-.382.382l-14.792-.02a.38.38 0 0 1-.382-.382V2.619a.38.38 0 0 1 .382-.382h14.792a.38.38 0 0 1 .382.382l-.01 51.384a.38.38 0 0 0 .382.382h67.17a.38.38 0 0 0 .382-.382zm320.243-38.309l.01 109.646a.4.4 0 0 1-.402.402h-14.53a.4.4 0 0 1-.402-.402l.01-109.646a.4.4 0 0 0-.402-.402l-41.754.01a.4.4 0 0 1-.402-.402l-.02-12.261a.4.4 0 0 1 .402-.402h99.685a.4.4 0 0 1 .402.402l.01 12.261a.4.4 0 0 1-.402.402l-41.804-.01a.4.4 0 0 0-.402.402zm72.742.03v39.384a.43.43 0 0 0 .432.432l60.12-.01a.43.43 0 0 1 .432.432l.01 11.839a.43.43 0 0 1-.432.432l-60.13-.01a.43.43 0 0 0-.432.432v43.571a.43.43 0 0 0 .432.432l67.511-.01a.43.43 0 0 1 .432.432l-.04 12.241a.43.43 0 0 1-.432.432l-82.955-.01a.43.43 0 0 1-.432-.432l-.01-122.64a.43.43 0 0 1 .432-.432h79.842a.43.43 0 0 1 .432.432l-.02 12.201a.43.43 0 0 1-.432.432l-64.328-.01a.43.43 0 0 0-.432.432zm171.474 97.355l-.01 12.241a.42.42 0 0 1-.422.422h-82.041a.42.42 0 0 1-.422-.422l.01-122.66a.42.42 0 0 1 .422-.422h14.721a.42.42 0 0 1 .422.422l-.01 109.566a.42.42 0 0 0 .422.422l66.487.01a.42.42 0 0 1 .422.422zm39.554-97.476l.01 109.837a.31.31 0 0 1-.311.311h-14.852a.31.31 0 0 1-.311-.311V15.603a.31.31 0 0 0-.311-.311h-41.804a.31.31 0 0 1-.311-.311l-.03-12.432a.31.31 0 0 1 .311-.311h99.856a.31.31 0 0 1 .311.311l-.02 12.442a.31.31 0 0 1-.311.311l-41.914-.01a.31.31 0 0 0-.311.311zM942.763 127.72c-27.876-2.31-43.822-18.045-43.933-46.524q-.161-39.354-.11-78.647a.3.3 0 0 1 .301-.301l14.651-.01q.522 0 .522.512 0 38.922 0 77.814 0 1.848.683 6.758c3.143 22.494 23.267 29.001 42.989 25.466 17.312-3.103 24.231-16.79 24.271-33.228q.1-38.4.131-76.8 0-.512.512-.512l14.239-.01q.502 0 .502.502.08 39.685-.04 79.33-.01 6.527-2.199 13.918c-7.351 24.924-28.127 33.76-52.519 31.732zm78.608-125.472c-.123 0-.241.049-.327.138a.48.48 0 0 0-.135.335V125.25a.5.5 0 0 0 .502.502h14.3a.73.73 0 0 0 .519-.218.75.75 0 0 0 .215-.526l-.022-49.083c0-.355.179-.533.533-.533l28.89.171c12.03.141 17.572 3.948 20.284 16.018 2.551 11.377 4.63 22.553 8.435 33.689a.64.64 0 0 0 .663.473l16.318.01a.45.45 0 0 0 .422-.622 204.61 204.61 0 0 1-10.171-30.971c-2.962-12.231-7.07-21.97-20.907-24.812-1.064-.221-1.058-.412.02-.573 16.689-2.5 30.075-14.038 30.718-31.571.633-17.001-8.154-29.252-24.944-33.209-4.907-1.158-8.673-1.738-11.297-1.738l-54.014-.01zm15.524 12.633l32.195.1c10.885.01 23.337 3.867 26.028 15.696 4.619 20.315-8.516 32.134-28.027 32.475l-30.296.2c-.254 0-.382-.126-.382-.38l.031-47.64c0-.301.15-.451.451-.451z"/></svg>