<svg xmlns="http://www.w3.org/2000/svg" viewBox="0 0 1500 565"><path fill="#e4c598" d="M280.3 53.54q.02.19-.03.36-.08.26-.33.35l-9.39 3.17q-5.78 1.43-11.44 3.22c-46.94 14.88-91.63 40.63-127.22 74.75q-4.96 4.75-9.84 9.5c-18.7-7.26-30.11-23.36-29.42-43.65 1-29.65 20.74-57.27 37.67-80.18q5.63-2.24 12.17-3.66c24.67-5.39 50.79-6.12 75.7-2.3 23.09 3.54 49.55 15.34 61.71 36.51q.3.51.42 1.93z"/><path fill="#ad834f" d="M130.3 21.06c-16.93 22.91-36.67 50.53-37.67 80.18-.69 20.29 10.72 36.39 29.42 43.65q-5.92 6.32-11.42 12.92-.33.4-.19.85a.38.38 0 0 0 .64.14q2.65-2.77 5.66-5.32 39.35-33.27 82.94-60.73 20.38-12.83 42.08-23.29 13.96-6.72 29.54-11.11a.53.52 31.8 0 0-.24-1.02l-.51.09 9.39-3.17q.25-.09.33-.35.05-.17.03-.36l.16.24q.11.15.28.08c22.93-9.61 47.45-16.87 72.26-19.27 17.94-1.73 36.25-.08 51.58 9.32q22.8 13.98 36.06 37.75 1.57 3.28 3.15 6.73c9.95 21.8 11.3 46.04 3.96 69.1-4.59 14.41-13.07 24.56-24.21 34.82-10.34 9.53-23 15.15-36.83 18.11l-15.33 2.15q-1.75-.35-3.59.12a1.72 1.72 0 0 1-2.11-1.39q-.54-3.22-1.23-6.02c-6.82-27.39-17.71-51.71-34.81-74.86 14.61-7.98 28.22-21.02 34.03-36.75 6.77-18.34 2.96-39.93-6.71-56.7-.79-1.37-1.5-1.37-2.96-1.18-16.55 2.08-31.09 10.04-44.93 18.56q-25.51 15.71-49.33 33.9-.21.15-.17.41.02.14.11.3-.94-.27-2.13 1.94-1.03.02-2.51 1.14-15.26 11.61-30.55 23.17-24.82 18.79-52.8 32.4c-17.7 8.61-39.28 15.86-59.19 13.67q-.68-.08-2.19-.74-.45-.2-.79.16c-4.46 4.71-8.47 10.99-12.19 16.34-10.48 15.09-18.57 31.62-31.71 44.77q.05-.31 0-.52-.13-.56-.65-.32c-5.5 2.49-16.3-5.79-19.55-9.67q-10.19-12.17-15.66-28.08-5.6-16.27-8.34-28.86 1.23-26.63 12.88-48.54 6.61-12.44 18.37-28.38c19.88-26.93 45.98-45.26 77.63-56.38z"/><path fill="#8c642d" d="M329.64 130.42q-1.87-1.39-3.67-2.91c-15.71-13.32-32.44-26.76-51.73-33.95q-5.29-1.97-14.56-4.6-.09-.16-.11-.3-.04-.26.17-.41 23.82-18.19 49.33-33.9c13.84-8.52 28.38-16.48 44.93-18.56 1.46-.19 2.17-.19 2.96 1.18 9.67 16.77 13.48 38.36 6.71 56.7-5.81 15.73-19.42 28.77-34.03 36.75z"/><path d="M1093.08 186.61q.51-9.6.57-12.86 1.15-62.63-.65-124.8-.02-.87.84-1c24.91-3.53 50.23-2.57 75.11.28q.55.06.56.61c1.42 87.71 2.1 175.44 0 263.16q-.13 5.41 1.19 10.64c1.69 6.68 5.91 6.93 12.56 8.01q5.4.88 10.62 1.27.71.06.8.77c2.73 21.47 2.98 43.81-2.37 64.28q-.13.49-.62.59-6.82 1.4-13.69 2c-19.11 1.69-39.15 4.49-56.28-6.06-13.56-8.36-15.99-21.28-16.52-36.28q-.07-2.08-1.11-.28-14.57 25.44-42.01 36.93c-24.63 10.31-53.65 11.02-78.92 2.58-74.15-24.76-96.71-113.06-71.9-180.19 9.98-27.02 28.06-49.47 53.5-63.11 41.29-22.15 95.02-12.97 123.05 25.97 1.45 2.02 3.09 5.15 4.83 7.61q.4.57.44-.12zm-108.73 61.63c-6.83 20.32-4.69 44.46 6.64 62.54 8.75 13.97 22.35 23.03 38.62 25.96 25.99 4.67 50.98-9.02 62.82-32.11q1.04-2.04 1.04-4.5.01-23.38.03-46.77 0-3-1.05-5.53c-10.1-24.4-35.08-44.55-62.62-40.75-21.7 3-38.65 20.83-45.48 41.16zm-640.56 88.91q2.36-3.83 4.8-7.76 19.75-31.84 24.15-69.15.74-6.27 1.06-14.98l12.91-34.84c13.83-2.96 26.49-8.58 36.83-18.11 11.14-10.26 19.62-20.41 24.21-34.82 7.34-23.06 5.99-47.3-3.96-69.1q-1.58-3.45-3.15-6.73l9.75-20.5a2.61 2.57 7.9 0 1 1.92-1.43c14.57-2.33 29.7-2.59 44.44-2.47q10.55.08 21 1.44 1.67.22 3.23.82.47.19.71.64c9.85 19.03 18.09 39.23 25.95 59.15 16 40.55 30.79 81.55 45.09 122.72q25.44 73.2 49.11 146.99 1.62 5.07 3.68 10.1a.33.32-14.8 0 1-.26.44q-39.78 5.29-79.56.04-.4-.05-.53-.44l-25.91-75.06a.88.87-9.3 0 0-.83-.59H433.75q-.61 0-.82.56c-9.48 24.61-17.81 49.66-25.44 74.92q-.15.51-.68.55-39.95 3.02-79.91.04a.24.24 0 0 1-.21-.3l17.1-62.13zm132.7-167.07c-9.66 27.1-17.99 54.81-25.9 82.46q-2.37 8.3-5.08 16.47a.31.31 0 0 0 .29.4l79.48-.01q.55 0 .41-.53-13.01-47.91-26.84-90.95-3.5-10.87-8.71-23.38c-.75-1.8-1.77-3.32-2.89-4.83a.86.86 0 0 0-1.37-.02c-4.21 5.37-7.08 13.91-9.39 20.39z" fill="#009993"/><path fill="#8c642d" d="M270.55 57.42l.51-.09a.53.52 31.8 0 1 .24 1.02q-15.58 4.39-29.54 11.11-21.7 10.46-42.08 23.29-43.59 27.46-82.94 60.73-3.01 2.55-5.66 5.32a.38.38 0 0 1-.64-.14q-.14-.45.19-.85 5.5-6.6 11.42-12.92 4.88-4.75 9.84-9.5c35.59-34.12 80.28-59.87 127.22-74.75q5.66-1.79 11.44-3.22z"/><path fill="#959392" d="M259.68 88.96q9.27 2.63 14.56 4.6c19.29 7.19 36.02 20.63 51.73 33.95q1.8 1.52 3.67 2.91c17.1 23.15 27.99 47.47 34.81 74.86q.69 2.8 1.23 6.02a1.72 1.72 0 0 0 2.11 1.39q1.84-.47 3.59-.12 2.88 15.66 2.42 32.69-.32 8.71-1.06 14.98-4.4 37.31-24.15 69.15-2.44 3.93-4.8 7.76-35.64 49.54-94.09 66.1c-4.44 1.26-9.29 2-13.98 2.88q-30.44 5.72-60.87-.03C90.52 390.18 31.04 313.85 38.16 227.66l8.24.06q-.51 7.87-.56 11.52c-1.24 109.01 105.2 187.07 208.98 153.67 41.79-13.44 77.31-44.56 95.87-84.37 40.12-86-3.9-186.64-93.14-217.64q1.19-2.21 2.13-1.94z"/><path fill="#fff" d="M257.55 90.9c89.24 31 133.26 131.64 93.14 217.64-18.56 39.81-54.08 70.93-95.87 84.37-103.78 33.4-210.22-44.66-208.98-153.67q.05-3.65.56-11.52c7.07-.21 14.16-.97 19.22-5.91 13.14-13.15 21.23-29.68 31.71-44.77 3.72-5.35 7.73-11.63 12.19-16.34q.34-.36.79-.16 1.51.66 2.19.74c19.91 2.19 41.49-5.06 59.19-13.67q27.98-13.61 52.8-32.4 15.29-11.56 30.55-23.17 1.48-1.12 2.51-1.14z"/><path d="M721.27 189.11c1.07-1.15 1.75-2.93 2.61-4.11 23.12-31.72 60.98-43.24 98.88-42.05q11.76.36 19.8 2.52c30.28 8.1 46.24 35.25 49.61 64.78q1.98 17.31 2.2 34.75c.64 50.96 1.41 101.97-.29 152.82q-.04 1.09-1.12 1.29c-25.27 4.58-49.62 3.38-74.83-.24q-.67-.1-.66-.78 1.81-72.28-.2-144.96c-.35-12.38-2.6-27.14-13.05-35.75-11.71-9.63-27.37-8.7-40.29-2.16q-23.99 12.15-34.31 36.63-1.07 2.55-1.1 5.56-.67 70.19-.04 141.03a.48.47 85.8 0 1-.4.47c-25.23 3.63-49.7 2.75-74.99.07q-1.11-.12-1.11-1.24V148.03q0-.43.43-.5 33.95-5.7 67.9-.04a.79.79 0 0 1 .66.78l-.06 40.7q0 .52.36.14zm610.89 116.92c17.51-50.97 27.17-105.16 31.38-158.8a.44.44 0 0 1 .36-.39c24.44-4.15 49.35-3.81 73.76.12q.5.08.47.58-1.98 38.27-8.53 76.01-.25 1.48-.53 2.96c-19.62 105.22-63.99 210.07-152.32 275.45-21.71 16.08-44.85 28.51-70.51 36.96q-15.85 5.22-35.77 8.86c-21.37 3.91-38.05 6.89-56.96 5.85-18.6-1.02-36.53-3.26-54.86-6.55a.77.77 0 0 1-.63-.72c-.77-15.84 1.28-30.69 4.85-46.1q1.49-6.45 4.35-13.41.18-.45.66-.38c48.23 7.26 100.13 2.32 144.52-17.75 41.16-18.61 72.67-53.67 92.01-93.92a.36.36 0 0 0-.21-.49c-47.38-16.21-75.78-62.32-93.22-106.27-15.3-38.57-24.86-79.39-30.42-120.61q-.06-.39.33-.45c24.16-3.53 49.03-3.91 73.24-.17q.58.09.68.66 7.44 43.72 22.6 85.62c6.98 19.27 15.79 38.1 28.44 54.33 6.5 8.33 15.12 16.25 25.57 19q.56.15.74-.39zM281.55 223.77a72.9 72.9 0 1 1-145.8 0 72.9 72.9 0 1 1 145.8 0z" fill="#009993"/><path stroke="gray" stroke-width="2" fill="none" vector-effect="non-scaling-stroke" d="M180.4 206.01c9.76 11.51 26.01-2.81 15.06-12.21"/><path fill="#8c642d" d="M21.42 154.36q2.74 12.59 8.34 28.86 5.47 15.91 15.66 28.08c3.25 3.88 14.05 12.16 19.55 9.67q.52-.24.65.32.05.21 0 .52c-5.06 4.94-12.15 5.7-19.22 5.91l-8.24-.06-6.56.48q-.55.04-.72-.49-9.52-30.75-10.27-62.89-.12-5.21.81-10.4z"/><path d="M180.4 206.01c9.76 11.51 26.01-2.81 15.06-12.21q17.59-6.67 32.54 3.39c17.4 11.7 17.83 36.98.57 49.19-14.14 10-34.67 8.03-45.83-5.72-7.13-8.78-8.91-20.78-3.95-31.15q.82-1.72 1.61-3.5z"/><path fill="#fff" d="M195.46 193.8c10.95 9.4-5.3 23.72-15.06 12.21q-4.09-8.47 3.35-13.05 5.94-3.67 11.71.84z"/><path d="M201.13 361.52c-11.27-1.57-24.54-9.07-29.72-19.75a1.81 1.8 46.8 0 1 .05-1.67q1.22-2.14 4.27-1.11c18.03 6.11 40.36 6.44 58.58.36 5.03-1.68 6.69 1.96 4.18 5.92-7.14 11.26-24.11 18.09-37.36 16.25z"/><path fill="#2b281e" d="M173.58 339.94q.22-.15.67-.04c5.32 1.31 10.63 3.74 16.19 4 2.53.11 4.97.98 7.28 1.05q3.53.12 7.07.02c3.04-.09 7.18.31 10.83-.23q5.55-.83 6.32-.91c5.46-.57 9.62-2.67 14.52-3.64a1.54 1.53-5.7 0 1 1.84 1.5q.01 1.98-1.41 3.93c-4.61 6.31-10.72 9.98-18.19 12.59q-15.33 5.36-30.61-2.23c-5.27-2.62-13.63-8.73-15.21-14.73q-.11-.41.07-.64a1.51.15-52.4 0 1 .63-.67z"/></svg>