<svg xmlns="http://www.w3.org/2000/svg" viewBox="0 0 426 426" fill="#f5a801"><path d="M187.72 30.77l-1.704-9.952a.629.618 79 0 1 .48-.721l2.116-.469q.423-.092.492.343l4.633 26.492q.137.812-.652 1.052-1.029.32-2.048.126-.675-.137-.686-.812l-.057-1.704a.309.309 0 0 0-.572-.137c-4.93 8.956-16.06 4.53-17.547-4.427-1.407-8.419 7.767-15.442 15.042-9.505q.641.515.503-.286zm-4.019 15.828a7.527 6.92 78.9 0 0 5.342-8.718 7.527 6.92 78.9 0 0-8.24-6.053 7.527 6.92 78.9 0 0-5.342 8.718 7.527 6.92 78.9 0 0 8.24 6.053z"/><rect x="248.605" y="-26.756" transform="rotate(11.1)" width="3.226" height="28.139" rx=".458"/><path d="M212.897 38.228c.412 5.948 7.801 7.572 11.885 3.901q1.018-.915 1.876.16l.24.309q.663.812-.046 1.579c-2.871 3.1-8.453 3.626-12.033 1.739-9.597-5.067-5.227-21.505 5.571-19.709 5.857.972 8.625 5.754 7.938 11.416q-.057.526-.583.503l-14.298-.469q-.583-.011-.549.572zm.332-3.123l11.69.229a.172.172 0 0 0 .172-.172v-.046a6.017 6.074 1.1 0 0-5.902-6.188h0a6.017 6.074 1.1 0 0-6.131 5.96v.046a.172.172 0 0 0 .172.172zm62.523 21.425q-6.017 2.059-10.352-2.208c-2.7-2.665-1.956-7.275 1.087-9.368 3.352-2.299 9.208-.229 12.125 1.91q1.418 1.041 1.659-.698l.091-.652a3.809 3.809 0 0 0-1.247-3.363q-3.512-3.134-8.247-2.414a.686.698 86.8 0 1-.789-.698l.034-1.35q.023-.652.663-.755c6.417-1.018 15.03 2.848 12.125 10.981q-2.093 5.857-4.026 11.153-.252.698-.949.446l-1.864-.698q-.446-.16-.297-.618l.4-1.281q.183-.595-.412-.389zm2.654-6.68c-2.402-1.773-7.286-4.438-10.169-2.288-5.319 3.992 6.509 12.319 10.421 3.26q.263-.595-.252-.972zm-125.688 6.497q-2.894 4.667-7.344 4.45c-7.218-.332-9.117-9.265-2.791-12.468q2.974-1.51 5.811-2.082a.549.549 0 0 0 .263-.938l-.698-.629q-.972-.892-2.242-.526-3.477 1.007-6.108 3.5a.355.355 0 0 1-.515-.034l-3.02-3.843a.458.458 0 0 1 .046-.618c3.775-3.546 11.85-7.744 16.758-4.232 3.294 2.356 5.925 11.176 7.435 15.156q.229.629-.389.881l-5.536 2.253q-.572.229-.949-.252-.217-.275-.297-.56-.149-.492-.423-.057zm-2.677-6.6q-2.505-.08-4.038 1.75a1.99 1.979 28.2 0 0 .961 3.18c2.482.732 4.747-1.67 4.015-4.209q-.206-.698-.938-.721zm159.192 4.61q5.205-.583 7.904 2.917c7.504 9.723-7.95 25.302-16.334 14.241-.412-.549-.629-1.521-1.075-2.196q-.4-.618-.789 0l-3.66 5.868q-.16.24-.389.092l-5.982-3.832q-.206-.137-.08-.343l14.047-22.054q.366-.572.938-.217l5.113 3.226q.526.332.4.949-.103.492-.377.869-.4.56.286.48zm-4.358 13.008a4.084 4.575 32 0 0 5.888-1.716 4.084 4.575 32 0 0-1.038-6.044 4.084 4.575 32 0 0-5.888 1.716 4.084 4.575 32 0 0 1.038 6.044zm-183.327-.46a.572.56 77.9 0 0-.755-.492c-4.553 1.567-11.645 4.004-13.349-3.02-1.659-6.886 7.321-10.878 12.628-10.89q.32 0 .332.309l.309 4.827q.011.194-.194.217-2.905.229-5.548 1.476-.846.4-1.007 1.327l-.057.377a.515.526 84.7 0 0 .698.572c4.255-1.601 10.546-3.386 12.8 1.132 4.289 8.59-6.589 12.994-13.109 13.234q-.309.011-.32-.297l-.114-5.022q0-.32.309-.332 7.595-.366 7.378-3.42z"/><rect x="295.57" y="-181.683" transform="rotate(42.6)" width="7.938" height="5.674" rx=".297"/><rect x="296.383" y="-173.458" transform="rotate(42.4)" width="7.618" height="21.001" rx=".538"/><path d="M98.968 90.903c-1.064 5.605-7.79 9.368-12.274 4.564-4.278-4.564.149-10.306 4.804-12.914a.56.56 0 0 0-.046-1.007l-.812-.355a2.07 2.059 39.4 0 0-2.013.194q-3.226 2.208-4.793 5.777a.355.366 26.5 0 1-.503.172l-4.301-2.436q-.252-.137-.149-.4c2.574-6.2 10.089-14.012 16.895-8.968q2.459 1.819 9.551 9.723.377.423 0 .835c-1.213 1.327-2.494 2.459-3.626 3.775q-.846.984-2.128.663-.503-.137-.606.377zm-6.566-.606c3.054.549 5.33-2.768 2.677-5.01q-.458-.389-.984-.103-1.796.972-2.894 2.665a1.693 1.579 20.9 0 0 1.201 2.448zm256.226 16.483l5.044 6.326a.377.377 0 0 1-.057.538l-4.141 3.374a.377.377 0 0 1-.538-.057l-11.759-14.641a.377.377 0 0 1 .057-.538l3.5-2.791a.377.377 0 0 1 .263-.08l12.537 1.029a.377.377 0 0 0 .32-.618l-4.861-6.051a.377.377 0 0 1 .057-.538l4.164-3.386a.377.377 0 0 1 .538.057l11.519 14.401a.377.377 0 0 1-.057.538l-3.5 2.768a.377.377 0 0 1-.263.08l-12.502-1.029a.377.377 0 0 0-.32.618zm-282.237 5.479c2.94 4.381 9.78 1.647 7.721-3.512q-.126-.286.172-.4l5.456-1.99q.355-.126.458.229c2.116 6.692-1.853 13.932-8.876 14.859-15.614 2.059-16.403-21.459-2.482-22.054q1.235-.057 1.27 1.19l.092 4.278q.034 1.11-1.087 1.213c-3.146.286-4.45 3.603-2.722 6.188zm111.584-9.002a1.018 1.018 0 0 0 .252 1.956c1.716.229 4.244.435 5.319 1.75 3.821 4.69-5.136 8.522-8.602 3.752q-.4-.549.16-.927l.881-.595a.732.732 0 0 1 .984.16q1.739 2.219 4.415.904a1.247 1.235 34.8 0 0-.423-2.345c-1.887-.194-4.404-.435-5.365-2.185-.778-1.407-.469-3.249.938-4.198q2.894-1.956 6.531.229 1.007.595.446 1.636l-.183.343a.675.675 0 0 1-1.018.194q-2.002-1.624-4.335-.675zm55.866 7.034h5.925q.572 0 .56.583l-.034 1.155q-.011.549-.56.549h-6.852q-2.379 0-1.807-2.322l.458-1.819q.641-2.608 3.317-2.414 1.144.08 2.311-.206a.984.984 0 0 0 .56-1.533l-.641-.892a1.041 1.041 0 0 0-1.521-.194q-1.716 1.464-2.082 1.476-3.981.034-1.132-2.734c5.342-5.193 13.475 6.383 2.368 6.406a1.247 1.235 4.4 0 0-1.212 1.029l-.069.423a.423.423 0 0 0 .412.492zm20.736-1.868a4.415 4.415 0 0 1-4.454 4.377l-.755-.007a4.415 4.415 0 0 1-4.377-4.454l.027-3.065a4.415 4.415 0 0 1 4.454-4.377l.755.007a4.415 4.415 0 0 1 4.377 4.454zm-4.738 2.235a3.786 2.688 89.9 0 0 2.681-3.791 3.786 2.688 89.9 0 0-2.695-3.781 3.786 2.688 89.9 0 0-2.681 3.791 3.786 2.688 89.9 0 0 2.695 3.781zm19.35-2.171a4.324 4.324 0 0 1-4.316 4.331l-.732.001a4.324 4.324 0 0 1-4.331-4.316l-.006-3.271a4.324 4.324 0 0 1 4.316-4.331l.732-.001a4.324 4.324 0 0 1 4.331 4.316zm-2.316-3.039a2.253 2.253 0 0 0-2.257-2.25h-.275a2.253 2.253 0 0 0-2.249 2.257l.005 2.814a2.253 2.253 0 0 0 2.257 2.25h.275a2.253 2.253 0 0 0 2.249-2.257zm13.271 2.567c-5.376 2.791-8.545-4.793-3.5-6.886 2.677-1.11 5.971.137 6.703 3.249 1.132 4.907-.526 9.849-6.737 8.099q-2.105-.595-2.391-2.791-.069-.526.469-.526l.778-.011q.526 0 .881.4 1.613 1.796 3.878.721.663-.309.709-1.029l.046-.686q.069-1.018-.835-.538zm.903-3.173a2.311 1.716 1.3 0 0-2.271-1.768 2.311 1.716 1.3 0 0-2.349 1.663 2.311 1.716 1.3 0 0 2.271 1.768 2.311 1.716 1.3 0 0 2.349-1.663zm-133.979-3.095a.618.618 0 0 1 .618-.618h4.038a5.113 5.353 0 0 1 5.113 5.353v.778a5.113 5.353 0 0 1-5.113 5.353h-4.038a.618.618 0 0 1-.618-.618zm2.299 2.025v6.154a.377.377 0 0 0 .389.377h1.716a3.249 3.077 89.9 0 0 3.066-3.249v-.412a3.249 3.077 89.9 0 0-3.088-3.249h-1.716a.377.377 0 0 0-.366.377zm14.893.125v1.338a.48.48 0 0 0 .48.48h4.747a.48.48 0 0 1 .48.469l.011 1.327a.48.48 0 0 1-.48.492l-4.747-.011a.48.48 0 0 0-.48.48l-.023 1.338a.48.48 0 0 0 .48.48h5.056a.48.48 0 0 1 .48.48l-.011 1.327a.48.48 0 0 1-.48.48h-7.321a.48.48 0 0 1-.48-.48v-10.478a.48.48 0 0 1 .48-.48h7.344a.48.48 0 0 1 .48.48l-.023 1.327a.48.48 0 0 1-.48.48l-5.033-.011a.48.48 0 0 0-.48.48zm31.731-2.322a.435.435 0 0 1 .435-.435l4.69-.011a5.41 4.873 89.9 0 1 4.884 5.399v.641a5.41 4.873 89.9 0 1-4.861 5.422l-4.69.011a.435.435 0 0 1-.435-.435zm2.299 2.185l-.023 6.154a.389.389 0 0 0 .377.389l1.842.011a3.214 3.306.3 0 0 3.237-3.294v-.32a3.214 3.306.3 0 0-3.191-3.317l-1.842-.011a.389.389 0 0 0-.4.389zm15.156.137v1.338a.48.48 0 0 0 .48.48h4.736a.48.48 0 0 1 .48.48l.023 1.315a.48.48 0 0 1-.492.492l-4.747-.011a.48.48 0 0 0-.48.469l-.011 1.338a.48.48 0 0 0 .48.492h5.056a.48.48 0 0 1 .48.48l-.011 1.327a.48.48 0 0 1-.48.48h-7.607a.48.48 0 0 1-.48-.48v-10.478a.48.48 0 0 1 .48-.48h7.63a.48.48 0 0 1 .48.48l-.023 1.327a.48.48 0 0 1-.48.48l-5.033-.011a.48.48 0 0 0-.48.48zm153.094 30.507l3.809 7.183a.366.366 0 0 1-.149.492l-4.713 2.562a.366.366 0 0 1-.492-.149l-8.831-16.54a.366.366 0 0 1 .149-.492l3.923-2.128a.366.366 0 0 1 .263-.034l12.159 3.317a.366.366 0 0 0 .423-.526l-3.615-6.875a.366.366 0 0 1 .149-.492l4.724-2.505a.366.366 0 0 1 .492.149l8.648 16.22a.366.366 0 0 1-.149.492l-3.946 2.15a.366.366 0 0 1-.263.034l-12.159-3.386a.366.366 0 0 0-.423.526zm-304.656 6.337q1.315 5.902-2.574 9.631c-2.402 2.288-5.674 2.528-8.213.446-4.289-3.523-1.373-10.055 1.132-13.543q1.27-1.773-.915-1.819l-.915-.011q-2.265-.046-3.603 1.784-2.208 3.066-2.105 6.863a.949.938 1.3 0 1-1.007.961l-.972-.069q-.812-.069-.858-.869c-.458-7.332 4.736-14.859 13.04-10.924q5.01 2.368 9.814 4.587a.606.595 25.8 0 1 .286.812l-.961 1.956a.572.56 27.8 0 1-.789.24l-.812-.458q-.744-.423-.549.412zm-5.593-3.294q-.709-.297-1.19.32c-1.659 2.105-4.953 7.79-2.494 10.077 5.079 4.701 11.542-7.103 3.683-10.398zm184.905 27.567l-.011-3.992a.4.4 0 0 1 .4-.4h17.501a.4.4 0 0 1 .4.4v18.382a.4.4 0 0 0 .16.32l38.571 28.928a.4.4 0 0 1 .16.32v58.2a.4.4 0 0 1-.4.4h-13.212a.4.4 0 0 1-.4-.4v-51.245a.4.4 0 0 0-.16-.32l-70.062-52.618a.4.4 0 0 0-.48 0l-71.549 54.345a.4.4 0 0 0-.16.32v49.518a.4.4 0 0 1-.4.4h-13.212a.4.4 0 0 1-.4-.4v-56.415a.4.4 0 0 1 .16-.32l85.492-64.96a.4.4 0 0 1 .48 0l26.48 19.857a.4.4 0 0 0 .641-.32zm144.012-.858q.034 1.247.915.377l.755-.732q1.007-.984.686-2.345-.778-3.271-2.757-5.96-.412-.56.172-.927l3.672-2.333q.492-.32.846.137c4.518 5.593 7.744 16.975-1.693 19.697q-5.674 1.647-11.393 3.237-.595.16-.766-.423l-1.762-5.651q-.206-.641.32-1.075l.377-.32q.469-.389-.046-.721c-4.278-2.711-4.758-9.78-.297-12.422 6.772-4.004 10.81 4.118 10.97 9.46zm-3.729.858q.435-2.734-1.762-3.969a2.002 2.013 19.8 0 0-2.951 1.396c-.309 1.75 1.281 4.175 3.214 3.981q1.293-.126 1.498-1.407z"/><rect x="68.098" y="148.848" transform="rotate(15.4)" width="28.139" height="3.249" rx=".377"/><circle cx="35.495" cy="212.713" r="4.919"/><circle cx="391.214" cy="212.713" r="4.93"/><path d="M51.418 260.549q4.553 3.42 3.317 8.43c-1.224 4.987-7.469 6.806-10.912 2.894q-3.02-3.432-2.619-7.618.275-2.848-1.693-.766c-2.173 2.299.263 6.703 1.739 8.853q.286.423-.149.709l-3.901 2.414q-.4.252-.675-.114c-3.935-5.125-7.755-16.128.824-19.045q6.463-2.196 12.617-3.821.606-.16.766.435l1.601 5.776a.744.778 61.6 0 1-.252.778q-.252.217-.538.32-.789.252-.126.755zm-6.451 4.667a2.414 2.425 73.9 0 0 2.711 1.487c3.454-.652 1.304-6.234-2.654-5.285q-.572.149-.583.732-.046 1.624.526 3.066z"/><rect x="426.841" y="149.242" transform="rotate(14.8)" width="28.139" height="3.226" rx=".503"/><path d="M365.385 284.971q-1.293-4.873 1.293-8.465c2.551-3.569 7.458-4.678 10.306-.835 2.86 3.843.217 9.917-2.425 13.154q-.377.469.137.789c5.353 3.249 7.927-5.182 7.996-8.625q.011-.412.423-.458l1.876-.16q.435-.046.446.4c.229 6.417-3.294 15.053-11.507 11.816q-5.799-2.299-11.13-4.575-.618-.263-.412-.904l.549-1.716q.206-.652.846-.423l1.167.4q.606.217.435-.4zm6.76 2.734c1.51-1.796 3.066-4.575 3.203-6.943.286-5.113-4.919-5.308-7.126-1.464q-2.951 5.147 2.082 8.648a1.373 1.373 0 0 0 1.842-.24zM53.339 299.807l3.512 6.36q.366.675-.297 1.041l-3.981 2.219q-.698.389-1.075-.309l-8.568-15.385q-.297-.549.194-.915c1.796-1.361 3.294-2.311 5.696-1.704q5.262 1.35 10.375 2.722.961.252.48-.618l-3.992-7.195q-.103-.194.092-.297l4.941-2.768q.16-.091.252.069l9.105 16.289q.309.56-.252.869l-3.397 1.876q-.492.263-1.029.126l-11.576-3.008q-.972-.252-.48.629zm193.816-5.377l.206-.286a.858.858 0 0 0-.435-1.327c-1.979-.629-4.255-.732-5.513-2.025-3.775-3.901 3.729-7.55 7.755-3.866q.503.469-.069.846l-.904.606a.744.744 0 0 1-.938-.08q-1.178-1.155-2.905-.915-1.224.172-1.373 1.327a.766.766 0 0 0 .515.835c1.773.583 4.049.492 5.285 1.842 1.716 1.853 1.041 4.575-1.258 5.571q-3.157 1.384-7.309-1.041a1.052 1.052 0 0 1 .503-1.956q.435-.011.675-.137.56-.275.961.206 1.087 1.315 2.894 1.361 1.212.023 1.91-.961zm-65.474.035l.046 2.105q.011.709-.709.721l-1.029.011q-.572.011-.572-.56v-10.569q0-.572.572-.572c2.093-.023 5.067-.355 6.76.503 2.551 1.281 2.78 5.433.377 7.092-1.338.915-3.226.698-4.85.675q-.606 0-.595.595zm.034-6.314l-.046 3.111a.309.309 0 0 0 .309.309l2.299.034a2.242 1.659.8 0 0 2.265-1.624v-.412a2.242 1.659.8 0 0-2.219-1.693l-2.299-.034a.309.309 0 0 0-.309.309z"/><rect x="193.428" y="285.577" width="2.288" height="11.736" rx=".515"/><path d="M204.581 295.014l4.289.011q.572 0 .572.572v1.144q0 .572-.572.572h-6.817a1.27 1.27 0 0 1-1.052-1.99l4.575-6.714q.515-.755-.4-.744l-3.74.023q-.572 0-.572-.583v-1.144q0-.572.572-.572h6.817q2.07 0 .904 1.716l-4.873 7.149q-.389.56.297.56zm13.715-7.149l-4.267.011q-.286 0-.286-.275l-.011-1.441q0-.572.572-.572h7.435a.801.801 0 0 1 .663 1.235l-5.033 7.538q-.435.652.355.663h3.74q.858 0 .858.869v.549q0 .869-.858.869h-6.817a1.029 1.029 0 0 1-.858-1.59l4.816-7.275q.389-.583-.309-.583zm11.461.423l-.011 1.453a.423.423 0 0 0 .423.423h4.85a.423.423 0 0 1 .423.412l.057 1.43a.423.423 0 0 1-.412.435l-4.93.011a.423.423 0 0 0-.423.423l.011 1.441a.423.423 0 0 0 .423.423h5.147a.423.423 0 0 1 .423.423l.011 1.727a.423.423 0 0 1-.423.423h-7.447a.423.423 0 0 1-.423-.423v-10.878a.423.423 0 0 1 .423-.423h7.447a.423.423 0 0 1 .423.435l-.023 1.453a.423.423 0 0 1-.423.412l-5.125-.023a.423.423 0 0 0-.423.423zm130.87 30.244c6.062-6.005-9.528-12.148-7.447-1.441q.046.275-.217.366l-5.353 1.876a.32.309 72.8 0 1-.4-.217c-2.745-10.443 7.63-19.549 16.929-12.994 8.133 5.719 4.804 18.851-5.525 20.121q-.984.114-1.052-.869l-.355-4.873q-.069-.972.892-.881 1.315.114 2.528-1.087zm-147.25-11.736q-4.656 1.796.16 3.146c2.482.686 5.205.206 5.388 3.866.309 5.857-8.247 6.074-10.546 1.91q-.32-.583.252-.938l1.075-.652q.446-.275.766.149 1.796 2.402 4.747 1.441.515-.16.778-.641 1.041-1.899-.629-2.253-1.807-.389-3.626-.744c-7.046-1.384-.515-12.216 6.589-5.777q.583.538-.034 1.018l-.949.755a.709.721 47.3 0 1-.927-.034q-1.864-1.704-3.043-1.247zm68.575 8.19q.435-1.052-.343-1.784c-2.128-1.99-7.069.309-7.138-4.724-.069-5.125 7.149-4.678 9.677-2.036a.606.606 0 0 1-.091.915l-1.121.778q-.469.332-.892-.057-2.15-2.002-3.535-1.178-3.512 2.116.515 2.894c2.94.572 6.234.938 5.708 4.964-.572 4.45-5.857 4.072-9.151 2.837a2.105 2.116 25.5 0 1-1.075-3.054q.172-.297 1.098-.194.515.057.892.412 1.979 1.842 4.701.938a1.258 1.258 0 0 0 .755-.709zm-129.085.629h-5.205q-.618 0-.675.606-.263 2.688-3.111 1.865-.4-.114-.24-.503l4.964-11.679a1.956 1.956 0 0 1 3.603 0l4.953 11.656q.172.412-.252.538-2.711.755-3.134-1.716-.126-.766-.904-.766zm-.732-3.283l-1.418-3.363q-.343-.789-.652.011l-1.373 3.432q-.252.641.435.641h2.539a.515.515 0 0 0 .469-.721zm18.359 1.876l2.78 3.157q.709.812-.366.824h-.984q-1.27.011-2.105-.961l-2.814-3.26a1.075 1.075 0 0 0-1.887.698l-.011 2.951q0 .572-.56.572h-1.716q-.572 0-.572-.572v-12.011q0-.606.606-.595c3.923.023 11.118-1.224 9.974 5.491q-.297 1.762-2.196 2.86-.595.332-.149.846zm-5.433-6.28l.023 3.134a.309.309 0 0 0 .309.309l3.214-.034a1.659 1.693 89.5 0 0 1.681-1.67v-.435a1.659 1.693 89.5 0 0-1.704-1.647l-3.214.034a.309.309 0 0 0-.309.309zm19.216-.137v9.929a.48.48 0 0 1-.48.48l-1.613-.023a.48.48 0 0 1-.48-.48v-9.894a.48.48 0 0 0-.48-.48h-3.054a.48.48 0 0 1-.48-.492l.023-1.327a.48.48 0 0 1 .48-.469h9.597a.48.48 0 0 1 .48.469l.034 1.338a.48.48 0 0 1-.48.492l-3.066-.023a.48.48 0 0 0-.48.48zm11.725 5.433l-.011 1.647a.469.469 0 0 0 .469.469l5.937-.011a.469.469 0 0 1 .48.48l-.034 1.91a.469.469 0 0 1-.469.469h-8.476a.469.469 0 0 1-.469-.469v-12.216a.469.469 0 0 1 .469-.469h8.487a.469.469 0 0 1 .469.469l.023 1.636a.469.469 0 0 1-.469.469l-6.062.011a.469.469 0 0 0-.469.503l.126 1.624a.469.469 0 0 0 .469.435h5.925a.469.469 0 0 1 .469.469l-.011 1.636a.469.469 0 0 1-.469.469h-5.914a.469.469 0 0 0-.469.469zm36.638 2.391h-4.93q-.492 0-.698.458l-.721 1.567a.938.927 12.6 0 1-.869.549l-1.624-.011q-.526-.011-.32-.492l4.919-11.656a2.025 2.036 45 0 1 3.74 0l4.884 11.553q.252.595-.4.606h-1.716a.755.744 78.4 0 1-.686-.458l-.652-1.51q-.263-.606-.927-.606zm-4.209-3.077a.343.343 0 0 0 .309.48l2.951.057a.343.343 0 0 0 .32-.458l-1.396-3.695a.343.343 0 0 0-.629-.023zm21.904-.927v-6.005q0-.56.572-.56l1.43-.011q.572-.011.572.572v10.249q0 4.736-2.802.927l-4.415-6.005q-.789-1.075-.789.263v6.589q0 .572-.583.572l-1.418-.023q-.572 0-.572-.572v-11.679q0-.492.446-.698 1.51-.721 2.219.32 2.196 3.294 4.793 6.268.549.629.549-.206zm11.908 3.729l5.925-.011a.469.469 0 0 1 .469.469l-.011 1.922a.469.469 0 0 1-.469.469h-8.487a.469.469 0 0 1-.469-.469v-12.216a.469.469 0 0 1 .469-.469h8.487a.469.469 0 0 1 .469.446l.069 1.636a.469.469 0 0 1-.469.492h-6.017a.469.469 0 0 0-.469.48l.034 1.647a.469.469 0 0 0 .469.458l5.639-.011a.469.469 0 0 1 .469.469l-.023 1.636a.469.469 0 0 1-.469.469l-5.605-.011a.469.469 0 0 0-.469.469l-.011 1.659a.469.469 0 0 0 .469.469zm-189.035 12.8l5.01 5.891a.377.377 0 0 1-.046.526l-4.118 3.477a.377.377 0 0 1-.526-.046l-11.85-14.07a.377.377 0 0 1 .034-.526l3.329-2.894a.377.377 0 0 1 .263-.091l12.663.744a.377.377 0 0 0 .309-.629l-5.216-6.245a.377.377 0 0 1 .046-.526l4.072-3.443a.377.377 0 0 1 .526.046l12.091 14.321a.377.377 0 0 1-.034.526l-3.306 2.883a.377.377 0 0 1-.263.091l-12.685-.652a.377.377 0 0 0-.297.618zm255.116 7.184c2.539-12.354 18.851-6.577 13.154 2.848q-1.876 3.111-5.491 5.147a.48.469 38.4 0 0 .103.869l1.052.309a2.528 2.516 34.8 0 0 2.242-.4q2.974-2.231 4.392-5.662a.275.275 0 0 1 .389-.137l4.324 2.448q.32.194.183.538c-2.093 4.953-8.27 12.251-14.298 10.306-3.729-1.212-9.345-8.007-12.194-10.935q-.446-.458 0-.915l4.095-4.118q.469-.469 1.087-.24.16.069.297.172a.412.412 0 0 0 .663-.229zm3.866 4.793q.641.755 1.521.297 1.887-.984 2.711-2.928a1.327 1.338 11.7 0 0-1.212-1.853l-2.002-.011q-.663 0-1.075.515-1.636 1.99.057 3.981z"/><rect x="295.427" y="185.804" transform="rotate(41.2)" width="7.618" height="21.001" rx=".377"/><path d="M313.534 365.156l.046-.343a.515.526 84.9 0 0-.686-.572q-9.105 3.203-11.599.503c-7.652-8.282 4.964-14.927 12.251-14.79q.275 0 .275.286l-.011 4.701q0 .172-.172.206l-5.719 1.247q-1.224.263-1.716 1.418l-.309.709q-.492 1.144.721.846c3.34-.824 7.366-2.768 10.604-.961 3.798 2.116 4.026 7.321 1.155 10.409q-4.038 4.335-10.455 4.587-.56.023-.606-.526l-.4-4.301q-.057-.595.538-.629 2.619-.206 4.987-1.327a1.956 1.967 81.6 0 0 1.098-1.464zm-195.349 6.874q-3.34.721-5.822-1.064c-8.876-6.36-.904-21.665 9.334-19.469q4.392.949 6.2 5.696.229.606.572.057l3.615-5.799q.297-.469.766-.183l5.559 3.409q.446.275.172.732l-13.703 22.008q-.355.572-.915.217l-5.01-3.157q-.583-.366-.515-1.041.046-.389.24-.732.492-.892-.492-.675zm-.097-5.096a4.084 4.541 29.5 0 0 5.79-1.941 4.084 4.541 29.5 0 0-1.318-5.963 4.084 4.541 29.5 0 0-5.79 1.941 4.084 4.541 29.5 0 0 1.318 5.963z"/><rect x="295.276" y="208.306" transform="rotate(41.2)" width="7.893" height="5.696" rx=".56"/><path d="M275.123 369.376c3.489-5.296 12.159-6.337 13.681 1.293 1.075 5.41-4.827 8.259-9.803 9.048a.515.515 0 0 0-.206.938l1.121.755q.949.641 2.07.332 3.432-.949 5.971-3.466.355-.355.675.046l2.86 3.626q.332.423-.046.812c-4.758 4.736-15.19 9.231-19.343.915q-1.281-2.562-4.713-11.805-.206-.549.332-.801 2.722-1.224 5.41-2.231.629-.229 1.007-.011.286.16.423.492.229.549.56.057zm1.418 4.656a1.75 1.75 0 0 0 2.025 2.116q1.864-.355 3.1-1.647a1.967 1.967 0 0 0-1.132-3.317q-3.237-.469-3.992 2.848zm-124.326-4.438q5.548-1.579 9.654 1.876c2.951 2.471 2.734 7.366-.309 9.666-3.901 2.928-9.471-.069-13.063-1.956q-.469-.252-.698.24c-2.425 5.491 5.376 7.733 9.517 7.355a.32.32 0 0 1 .355.32v2.276q0 .229-.229.24c-6.486.503-15.614-2.7-12.674-11.13q2.082-5.948 4.129-11.393.206-.526.732-.355l1.693.549q.549.172.56.744.011.515-.183.984-.366.835.515.583zm8.144 7.847c2.585-5.513-9.883-9.265-11.153-1.739q-.091.503.309.824c2.391 1.922 8.899 5.056 10.844.915zm79.75 17.958l1.796 9.883q.114.675-.56.778l-1.945.32a.606.606 0 0 1-.686-.492l-4.758-26.206q-.149-.881.709-1.041l1.453-.286a.881.869 74.7 0 1 .995.572q.32.904.297 1.876-.023.824.549.229c.709-.744 1.075-1.796 1.819-2.391 4.209-3.42 9.734-2.951 13.269 1.087 7.607 8.693-2.299 23.129-12.434 15.362q-.652-.503-.503.309zm6.86-1.141a7.515 6.909 78.7 0 0 5.302-8.723 7.515 6.909 78.7 0 0-8.248-6.016 7.515 6.909 78.7 0 0-5.302 8.723 7.515 6.909 78.7 0 0 8.248 6.016z"/><rect x="250.558" y="334.108" transform="rotate(11.2)" width="3.226" height="28.185" rx=".423"/><path d="M214.304 388.559q1.155.034.732-1.041c-2.253-5.651-7.767-7.218-12.537-3.18q-.56.48-1.075-.046l-.835-.846q-.48-.48-.046-.995c3.1-3.672 9.345-4.038 13.109-1.613 10.329 6.657 1.739 24.582-9.711 18.13-3.798-2.139-4.404-5.822-4.644-9.997a.744.744 0 0 1 .766-.789zm.252 2.494l-11.702-.229a.286.286 0 0 0-.297.286v.126a5.994 6.04 1.1 0 0 5.879 6.154h.297a5.994 6.04 1.1 0 0 6.108-5.925v-.126a.286.286 0 0 0-.286-.286z"/></svg>