<svg xmlns="http://www.w3.org/2000/svg" viewBox="0 0 1024 1024" fill="#003b75" fill-rule="evenodd"><path d="M792.164 127.579a.175.175 0 0 1 .175-.175l3.592-.013a3.592 4.817 89.8 0 1 4.83 3.579v.363a3.592 4.817 89.8 0 1-4.804 3.605l-3.592.013a.175.175 0 0 1-.175-.175zm10.542 9.453c4.467 2.217 4.279 8.221 5.848 12.358q.078.207-.143.207l-6.347-.026a.298.298 0 0 1-.279-.195q-.726-2.016-1.997-6.944c-.849-3.3-4.856-3.268-7.534-3.041q-.246.019-.246.272v9.745a.175.175 0 0 1-.175.175l-5.842-.019a.162.169 0 0 1-.162-.169l-.013-25.377a.37.363 85.2 0 1 .305-.363c5.945-1.031 21.947-3.456 21.15 7.268q-.272 3.689-4.564 5.744-.37.175 0 .363zm-6.14 19.586a20.566 19.743 88.5 0 1-20.274-20.042A20.566 19.743 88.5 0 1 795.49 115.5a20.566 19.743 88.5 0 1 20.274 20.042 20.566 19.743 88.5 0 1-19.198 21.076zm26.061-20.852a26.051 26.589 89.2 0 1-26.223 26.42 26.051 26.589 89.2 0 1-26.951-25.677 26.051 26.589 89.2 0 1 26.223-26.42 26.051 26.589 89.2 0 1 26.951 25.677zm-442.971 348.99c18.828 9.304 40.114 12.351 60.363 6.166q35.491-10.834 59.286-39.064a.35.344 47.4 0 1 .545.026c14.685 20.592 25.37 43.907 33.047 67.916a.512.519 59.8 0 1-.149.545c-23.737 20.767-55.727 41.236-88.307 40.114-43.136-1.485-65.459-39.991-70.14-78.245a.207.207 0 0 1 .311-.201q2.477 1.472 5.044 2.743zm83.801-64.181q12.773 5.569 22.582 15.489a.331.344 41.8 0 1 .019.441q-19.12 24.262-48.413 34.441-20.728 7.203-41.249-.622-11.32-4.318-20.981-11.132-.532-.376-.344-.992c6.801-22.187 24.839-37.268 47.629-41.262 12.928-2.263 28.463-1.725 40.756 3.637zm-33.858-92.768c30.849-4.363 60.752 15.976 72.15 44.29 6.14 15.269 2.289 32.295-4.675 46.546a.253.253 0 0 1-.402.078c-12.727-11.612-28.1-19.613-45.256-21.882-39.207-5.18-76.935 10.607-92.93 48.407q-.143.331-.415.091c-8.169-7.177-15.658-16.06-22.116-24.774q-.169-.22-.026-.467c12.941-22.375 25.273-45.95 43.44-64.292 13.317-13.447 31.05-25.286 50.229-27.996zm-98.117-25.721c26.408-70.367 107.563-98.195 174.948-70.568 36.795 15.081 64.428 44.134 79.645 80.663q13.317 31.958 13.188 65.284-.149 38.967-16.092 76.818-12.073 28.664-34.123 50.397-.227.22-.331-.078c-8.785-24.988-20.774-49.198-37.151-70.133q-.201-.259-.039-.551c11.074-19.548 17.473-44.115 9.79-66.023-9.479-27.024-32.613-49.243-60.181-57.244-40.095-11.632-77.966 9.408-103.278 39.2-12.293 14.459-22.582 31.108-31.861 47.674a.233.246 3.5 0 1-.11.104l-.182.097a.188.188 0 0 1-.266-.117c-8.565-31.523-5.336-65.199 6.043-95.523zm232.762-56.544c-34.674-33.112-82.537-48.575-130.146-43.226-53.548 6.023-100.788 39.822-120.2 89.935-15.632 40.374-18.867 87.062-1.517 127.546q.143.337-.071.629c-3.585 4.973-6.574 9.492-9.901 13.376-19.652 22.926-56.505 23.685-74.756-1.608q-6.159-8.539-9.421-19.081c-10.925-35.336-11.32-72.221-3.008-108.27q9.388-40.724 29.74-74.199 18.414-30.285 46.274-55.448c43.991-39.732 100.419-61.601 160.042-61.128 43.654.35 86.777 11.333 124.881 32.703C656.48 191.806 699.363 280.84 692.594 371.63c-2.153 28.917-9.025 58.061-21.182 84.449q-3.365 7.307-7.515 14.193-15.049 24.981-34.94 46.293c-9.285 9.959-22.972 21.675-36.315 24.132q-8.422 1.55-18.783-1.135-11.599-3.002-17.817-13.194-.136-.227.052-.415 8.027-7.852 15.515-16.326c27.847-31.491 43.343-73.576 46.903-115.136 4.688-54.722-14.335-110.812-54.268-148.949zm-23.218 294.143a.207.214 52.9 0 0-.311-.039c-25.805 21.701-57.944 40.017-92.515 40.626-62.009 1.096-94.512-57.147-94.57-112.05q0-.337-.259-.545-16.008-13.136-28.865-29.371a.227.227 0 0 0-.363.006c-13.992 19.736-32.788 31.679-57.341 32.561-22.427.804-42.585-9.356-55.656-27.536-5.654-7.871-9.492-16.455-12.455-26.168-18.679-61.173-7.158-128.201 22.064-183.999 17.422-33.274 43.058-62.703 72.72-85.597 41.664-32.146 90.823-50.598 143.528-52.991 86.758-3.936 174.209 32.042 226.324 103.258 53.782 73.492 64.156 172.828 30.415 256.778q-5.271 13.123-12.533 25.247c-14.757 24.644-33.404 49.554-56.2 66.95-10.692 8.15-23.445 13.668-36.924 14.134-18.491.635-36.315-5.654-47.058-21.266zM781.57 736.69c-1.407-3.683-.72-9.298 4.104-9.972 8.156-1.141 8.844 12.299 2.217 12.669-2.425.136-5.31-.045-6.322-2.697zm-526.14-6.218q1.167-3.793 5.569-3.689c8.215.188 7.242 16.378-3.436 11.988-2.885-1.187-2.872-5.907-2.133-8.299zm529.343-13.084c14.439-2.029 18.465 14.426 13.181 24.586-2.982 5.725-9.875 7.346-15.684 6.153-6.847-1.413-9.965-9.012-9.524-15.36.499-7.074 4.409-14.303 12.027-15.379zM272.741 740.6c-2.931 7.126-11.236 9.343-18.076 7.061-4.363-1.452-7.048-6.568-7.67-11.171-1.29-9.583 4.137-19.853 15.262-19.179 11.515.694 14.005 14.705 10.484 23.289zm430.701-102.04c.817-2.328 1.926-4.091 4.727-3.572 3.897.726 4.759 4.979 4.545 8.306-.428 6.769-.421 13.434-.609 20.203q-.655 23.704-.519 48.031a.48.48 0 0 1-.48.486l-11.191-.006a.298.298 0 0 1-.298-.305q.694-25.831 1.751-51.61l.447-14.698q.162-2.632 1.627-6.834zm-12.462 83.717q-22.271-.091-44.543-.195-3.196-.013-5.362-1.42c-3.164-2.055-1.53-6.698 1.478-7.787q2.451-.888 5.991-.882 21.552.006 42.954.019.331 0 .337-.324l1.472-67.041c.298-6.095.266-11.457 2.392-17.084 2.276-6.017 9.2-8.124 15.081-7.074 6.782 1.219 10.529 9.888 10.834 16.002.117 2.334.551 4.992.454 7.566q-1.089 29.857-1.199 40.568-.175 17.778-.616 27.05-.019.324.311.324 21.234.026 42.409-.019c2.302-.006 5.304.123 7.372 1.206 4.033 2.107 3.021 6.801-.843 8.319q-1.809.707-3.443.707-22.939.032-45.761.013a.246.253.8 0 0-.246.246l-.836 29.053q-.233 14.374-.823 28.742c-.48 11.833-.311 23.568-.318 35.329-.006 6.646 1.193 14.368 4.474 19.885 4.707 7.917 14.037 13.013 23.419 11.606 17.389-2.619 27.004-19.665 26.706-36.03q-.24-13.116.577-20.261c.694-6.108 2.191-14.348 7.456-18.076 4.539-3.216 11.923-2.73 13.849 3.514q1.588 5.129 1.848 10.51.603 12.637.707 25.286c.104 12.073 3.819 30.92 17.882 34.123 11.891 2.704 23.678-1.796 30.402-11.995 6.069-9.207 7.21-18.024 7.054-28.891-.045-3.572.272-6.231 4.597-5.79 1.848.188 2.671 1.07 2.697 2.982q.091 5.997-.026 9.077c-.804 22.103-13.499 42.572-37.242 43.94-9.103.525-18.303-1.725-24.223-9.038-6.484-8.007-8.96-19.399-9.045-29.488-.065-8.033-.383-16.021-.681-24.041q-.169-4.487-1.044-7.138c-.83-2.529-3.443-2.289-5.154-.921-1.809 1.439-1.887 6.957-2.094 10.238-.434 7.009.318 18.251-1.588 27.815-3.923 19.691-20.482 34.921-41.353 32.794-7.352-.746-14.595-4.13-19.243-9.978-9.712-12.202-8.727-26.408-8.422-40.983q.486-23.257.661-46.52l.765-35.686q.006-.298-.292-.298h-11.307q-.324 0-.337.324-.986 25.708-1.057 35.329-.279 39.466-.609 53.821c-.532 22.978-14.659 43.713-39.174 44.231-9.336.195-18.414-2.14-24.1-9.933-5.453-7.469-7.08-17.428-7.547-26.414q-.538-10.549-2.101-21.013-.947-6.36-4.234-10.964c-1.828-2.561-5.971-3.456-8.999-3.294-7.813.415-10.698 7.093-10.717 14.037q-.032 13.81-.045 27.614c-.006 7.839-.778 19.665-5.952 25.863-3.741 4.48-10.601 5.615-15.418 2.14q-2.82-2.036-3.676-5.381-2.094-8.208-2.12-19.542-.032-14.912-.052-29.825-.006-2.542-1.089-7.365c-1.738-7.683-10.491-6.548-14.718-1.965-3.119 3.378-3.248 10.173-3.248 14.549.006 17.376-3.281 33.144-17.713 44.076-9.103 6.892-20.3 8.416-31.121 5.894-17.357-4.046-21.83-24.262-21.928-39.194-.045-6.963-.272-12.222-.428-18.342-.065-2.736.032-11.392-2.717-12.851q-1.42-.752-2.918.512c-2.023 1.712-2.405 5.958-2.568 8.526-.538 8.396-.091 16.41-1.264 25.118-2.308 17.175-13.933 34.979-33.06 35.342-21.61.408-29.105-19.276-28.126-37.378q.778-14.407 9.81-26.816c9.901-13.596 25.053-18.608 41.366-15.768q1.945.337 2.97 1.4c2.263 2.367 2.042 7.106-1.225 8.682-2.146 1.044-6.101.752-8.714.772q-10.212.065-18.433 5.142c-14.471 8.941-21.201 29.248-11.716 44.355 5.783 9.207 19.406 12.137 28.158 5.291 8.474-6.626 11.418-17.337 12.17-28.301.7-10.134.084-19.704 2.496-30.11q2.509-10.808 13.415-9.933c7.56.609 7.897 12.254 8.163 18.154q.473 10.776.454 21.558c-.026 10.432 2.438 24.061 10.004 31.485q3.508 3.443 9.706 4.389c19.269 2.931 32.282-10.847 35.148-28.671q.428-2.639.558-8.928c.136-6.607.13-13.026 1.802-19.347 2.704-10.27 10.912-17.24 22.038-15.081 8.578 1.673 10.439 14.465 10.503 21.565q.058 6.899.026 31.874c-.006 4.402.739 9.22 2.769 13.181 1.88 3.663 4.843-.182 5.725-2.399 1.874-4.72 2.334-10.568 2.341-15.6q.026-13.856.013-27.705 0-1.783.519-4.791c2.211-12.74 12.449-17.778 24.612-16.229 11.087 1.407 14.964 11.774 16.708 21.273q1.264 6.866 1.413 10.607c.499 12.274 1.219 35.88 16.721 39.777 23.03 5.796 37.955-14.232 38.15-34.759q.117-12.267.318-24.547l.24-26.991q.383-18.524.681-37.047.006-.35-.344-.35zM164.217 803.75v-3.592q.305-7.352.324-14.705c.097-36.075.947-72.221 2.068-108.283.383-12.312.311-28.145.953-37.119q.292-4.072 1.984-10.523c1.919-7.327 8.059-10.413 15.262-9.058 5.719 1.076 9.641 7.761 10.503 13.103.635 3.91.888 7.826.785 12.105l-4.02 168.775c-.117 10.367 2.029 21.318 10.646 27.782 5.725 4.292 11.346 5.92 18.524 4.655 16.747-2.95 25.455-19.885 25.364-35.511q-.058-9.732.648-19.444c.609-8.383 3.547-22.881 15.502-20.994q4.26.668 5.822 4.941 1.958 5.375 2.191 13.544.266 9.187.298 18.381c.045 11.722 1.245 24.275 9.265 33.481 3.171 3.637 8.915 5.317 13.544 5.563 17.253.914 28.69-11.709 31.757-27.581q.739-3.838.817-12.922.071-8.662.065-17.337c-.013-9.401 4.435-22.738 16.306-21.383 8.552.973 12.053 18.109 13.311 24.761q4.065 21.422 8.318 42.811c.532 2.652 2.016 8.124 5.239 8.714 11.269 2.055 24.657-46.766 26.304-55.072q1.199-6.075 1.433-12.306.136-3.585 1.284-7.599c.817-2.853 3.449-4.169 5.926-2.341 2.626 1.952 2.425 6.237 1.971 9.064-3.579 22.284-9.233 43.058-19.418 62.872-2.73 5.323-6.698 11.418-11.314 15.438-5.77 5.031-14.057 3.968-17.843-2.866-1.537-2.781-2.347-5.368-2.976-8.779q-4.999-27.056-9.952-54.125c-.441-2.425-1.926-5.939-4.299-6.918-3.151-1.303-5.673 2.055-6.25 4.973q-.603 3.028-.272 13.454c.039 1.277-.408 2.535-.37 3.786.35 11.126-1.297 24.502-7.151 33.631-9.46 14.757-24.865 21.428-42.111 17.175-16.527-4.078-21.305-23.769-21.454-38.377-.097-9.356-.084-17.869-.934-26.751-.791-8.325-7.087-6.056-7.566.577q-.519 7.138-.499 19.846.006 7.255-2.334 16.358c-5.667 22.012-28.703 37.015-51.026 26.823-14.471-6.607-17.512-23.801-17.285-37.845q1.187-73.259 2.535-146.517.201-10.905.558-21.804c.136-4.13.37-6.386-.953-9.323-1.07-2.36-5.446-3.449-7.08-.992q-2.671 4.033-2.781 9.907-.104 5.621-.207 11.243c-.389 21.545-2.101 43.064-2.431 64.622q-.609 39.57-1.517 79.139c-.078 3.449-.603 6.678-4.882 5.933q-2.166-.376-2.58-3.391zm439.176 107.946a6.756 7.482.4 0 1-6.704-7.529 6.756 7.482.4 0 1 6.808-7.435 6.756 7.482.4 0 1 6.704 7.529 6.756 7.482.4 0 1-6.808 7.435zm-47.966-4.013c-2.23 4.947-8.234 5.394-11.282.966-2.717-3.949-1.297-9.395 2.982-11.463 3.209-1.55 6.996.37 8.286 3.482a.596.603 78.4 0 0 .551.363h6.84q.156 0 .156.156l-.006 5.965a.162.162 0 0 1-.162.162l-6.821.019q-.389 0-.545.35zm-92.326 4.026a7.495 6.743 89.4 0 1-6.821-7.424 7.495 6.743 89.4 0 1 6.664-7.565 7.495 6.743 89.4 0 1 6.821 7.424 7.495 6.743 89.4 0 1-6.664 7.565zm-90.914-.013a7.482 6.743 89.3 0 1-6.834-7.399 7.482 6.743 89.3 0 1 6.651-7.564 7.482 6.743 89.3 0 1 6.834 7.399 7.482 6.743 89.3 0 1-6.651 7.564zm-64.189.13a7.592 6.756 90 0 1-6.756-7.592 7.592 6.756 90 0 1 6.756-7.592 7.592 6.756 90 0 1 6.756 7.592 7.592 6.756 90 0 1-6.756 7.592zm116.234-.039a7.592 6.73 89.5 0 1-6.796-7.533 7.592 6.73 89.5 0 1 6.663-7.651 7.592 6.73 89.5 0 1 6.796 7.533 7.592 6.73 89.5 0 1-6.663 7.651zm-93.891-11.897c2.73-4.325 8.312-4.623 11.1-.045a.227.233 74.5 0 1-.201.35h-10.73a.201.201 0 0 1-.169-.305zm251.747-9.414h6.639c.093 0 .169.075.169.169v27.089c0 .093-.075.169-.169.169h-6.639c-.093 0-.169-.075-.169-.169v-27.089c0-.093.075-.169.169-.169zm-53.976 0h6.652c.093 0 .169.075.169.169v27.089c0 .093-.075.169-.169.169h-6.652c-.093 0-.169-.075-.169-.169v-27.089c0-.093.075-.169.169-.169zm-48.938-.006h6.626c.104 0 .188.084.188.188v27.05c0 .104-.084.188-.188.188h-6.626c-.104 0-.188-.084-.188-.188v-27.05c0-.104.084-.188.188-.188zm130.989 25.96c-14.523 8.902-27.491-11.307-16.384-22.479 4.506-4.539 10.737-5.42 16.267-2.081q.376.227.383-.214l.013-.856q.006-.337.344-.337l6.153.006q.337 0 .337.337v26.758a.35.35 0 0 1-.35.35l-6.179-.045q-.344 0-.331-.35l.039-.914q.019-.363-.292-.175zm-47.791-16.948q.584 2.107.59-.084V890.8q0-.331.331-.331l6.296.006q.35 0 .35.35l.006 26.719q0 .337-.337.337l-6.315.006q-.337 0-.337-.331l.006-8.273q0-2.405-.532-.136-.817 3.495-3.741 6.023c-4.273 3.676-10.743 4.467-15.632 1.705-7.748-4.37-9.589-14.42-4.292-21.714 6.393-8.818 20.65-6.27 23.607 4.318zM378.84 916.501c-10.893 6.315-22.55-3.307-20.294-14.997q1.634-8.429 9.784-11.003 4.681-1.478 10.471 1.232.37.175.357-.233l-.019-.687q-.013-.344.331-.344l6.322-.006a.169.169 0 0 1 .169.169l.006 26.933a.344.344 0 0 1-.344.344l-6.153-.026q-.337 0-.324-.337l.032-.843q.013-.408-.337-.201zm-47.694-9.784q-2.379 0-.83 1.809l1.277 1.498a5.297 5.291 69.9 0 0 3.981 1.854c3.981.032 5.206-1.355 6.821-4.214q.195-.337.577-.337l6.192-.006q.765 0 .538.726-2.846 9.161-11.294 10.309c-8.033 1.089-15.554-4.312-16.021-12.63q-.519-9.181 6.056-13.525c10.918-7.216 22.226 2.606 21.331 14.245a.279.272 2.2 0 1-.279.253zm-20.151 22.991h-6.717q-8.26-2.049-9.933-10.283-.084-.434.357-.434l6.471.006q.324 0 .428.311.713 2.153 2.833 3.047c4.791 2.016 9.7-.24 10.231-5.654a.149.143 75.6 0 0-.227-.136c-5.025 3.423-11.82 2.217-15.963-1.822-6.341-6.192-5.55-17.097 1.647-22.375q6.386-4.694 14.452-.642.383.195.389-.233v-.694q.006-.331.331-.331l6.101-.013q.344 0 .344.344.13 11.152.032 22.271-.052 5.861-1.063 8.487-2.431 6.276-9.712 8.15zm100.231-19.594q-2.172 6.309-7.741 7.897c-6.192 1.764-13.065-.947-14.977-7.456q-.622-2.114-.609-7.78.026-8.649-.006-17.266 0-.246.24-.246l6.425.026q.337 0 .337.337l-.019 4.526q0 .318.318.318h15.891q.344 0 .344.337l-.013 6.159a.324.331 90 0 1-.331.324h-15.878q-.305 0-.305.305c-.026 3.021-.648 9.051.603 11.58 1.29 2.6 4.908 3.177 7.145 1.537 2.276-1.66 2.075-4.837 1.867-7.339a.396.396 0 0 1 .396-.428l5.18.006q.305 0 .337-.305c1.446-12.773 17.629-17.862 24.981-6.775 6.957 10.503-1.187 25.027-14.296 22.356q-6.529-1.336-9.563-8.13-.182-.395-.324.019zM582.12 882.04h6.561a.22.22 0 0 1 .22.22v7.197a.22.22 0 0 1-.22.22h-6.561a.22.22 0 0 1-.22-.22v-7.197a.22.22 0 0 1 .22-.22zm-18.964-.012l6.6.011c.108 0 .194.087.194.195l-.013 7.262c0 .108-.087.194-.195.194l-6.6-.011c-.108 0-.194-.087-.194-.195l.013-7.262c0-.108.087-.194.195-.194zm-34.992.006h6.561a.22.22 0 0 1 .22.22v7.21a.22.22 0 0 1-.22.22h-6.561a.22.22 0 0 1-.22-.22v-7.21a.22.22 0 0 1 .22-.22zm-48.945-.006l6.536.011a.24.24 0 0 1 .239.24l-.012 7.171a.24.24 0 0 1-.24.239l-6.536-.011a.24.24 0 0 1-.239-.24l.012-7.171a.24.24 0 0 1 .24-.239zm40.711 24.092c-.759-4.953-17.661-1.563-19.684-11.91-1.893-9.654 6.594-13.642 14.705-12.941 7.281.635 11.573 5.271 11.223 12.961a.175.182 2.3 0 1-.175.169h-6.626a.175.175 0 0 1-.175-.175q-.039-4.668-2.736-5.608c-2.743-.953-9.875-1.057-9.447 3.365.195 1.945 2.088 2.775 3.767 3.164 4.843 1.115 11.826 1.783 14.75 6.263 1.919 2.937 1.906 7.327.571 10.4-3.819 8.818-19.431 8.623-24.729 1.64q-2.71-3.566-2.373-8.617.019-.266.292-.266h6.276q.454 0 .46.454.006 5.148 4.597 6.27c3.838.94 10.134.292 9.304-5.167zm52.926-26.505h6.639c.093 0 .169.075.169.169v37.942c0 .093-.075.169-.169.169h-6.639c-.093 0-.169-.075-.169-.169v-37.942c0-.093.075-.169.169-.169zm-103.284 36.911c-6.536 4.065-14.984 1.595-18.465-4.915-2.269-4.24-2.503-9.589-.408-13.933 2.892-6.004 9.7-9.336 16.138-7.145.817.279 1.796.862 2.71 1.329q.37.182.37-.227l-.013-11.69q0-.337.344-.337l6.322-.006q.35 0 .35.35l-.026 37.612q0 .337-.337.337l-6.328-.026q-.344 0-.331-.344l.032-.791q.019-.447-.357-.214zm-118.955-36.918h6.652c.093 0 .169.075.169.169v37.955c0 .093-.075.169-.169.169h-6.652c-.093 0-.169-.075-.169-.169v-37.955c0-.093.075-.169.169-.169z"/></svg>