<svg xmlns="http://www.w3.org/2000/svg" viewBox="0 0 1257 256"><path fill="#21409a" d="M223.67 63.34l-106.577 65.54a.219.159 68.9 0 1-.248-.169L83.896 25.582q-.169-.507.119-.964C93.385 9.773 107.386.582 125.152.025c24.513-.765 50.526 15.759 55.534 41.007.974 4.869 2.991 8.337 8.138 8.684 13.245.894 25.487 2.901 34.966 12.718a.586.586 0 0 1-.119.904z"/><path fill="#ed403d" d="M63.279 30.063c.984.566 2.136.616 3.199 1.292q.447.288.616.795l32.303 100.824q.189.566-.407.566H29.217q-.487 0-.874-.308C5.598 115.316-9.187 88.17 7.198 59.782Q19.648 38.221 44.32 30.54c2.872-.894 5.852-.924 8.893-1.252 3.219-.348 6.131.308 9.35.546q.368.02.715.229z"/><path fill="#00acad" d="M120.452 147.48l111.406-68.56a.288.288 0 0 1 .437.199q.864 6.141 1.004 12.311c.437 19.803-9.231 34.767-28.428 40.56-3.378 1.013-12.033 1.312-14.288 6.27q-.874 1.918-.884 6.339-.159 47.178-.268 94.365 0 .517-.517.586-11.953 1.729-15.868 2.176c-38.324 4.442-76.639 4.64-114.993.159q-7.929-.934-15.709-2.047-.407-.06-.149-.378 36.744-43.908 73.499-87.857 2.047-2.454 4.759-4.124z"/><path fill="#f8a51a" d="M92.899 151.375l-58.257 69.673q-.477.556-.477-.179l-.01-69.266a.467.457 0 0 1 .467-.457h58.167q.308 0 .109.229z"/><g fill="#333"><path d="M367.396 134.668q22.695 32.422 45.449 64.983 1.272 1.828 2.126 3.885c4.481 10.821-10.473 17.657-17.041 8.277q-26.987-38.573-53.974-77.135-.268-.378-.735-.378l-3.488-.02q-.546-.01-.546.537.02 36.725-.01 73.429c0 9.916-16.325 10.87-18.879 2.683q-.457-1.471-.457-5.385-.06-69.902 0-139.794 0-.517.517-.517 28.626-.07 57.164-.02 12.768.02 17.538 1.451 8.943 2.683 15.093 10.224c6.538 8.009 5.535 16.951 5.554 26.699.03 10.96-2.285 19.257-11.546 25.347-10.672 7.015-24.354 5.445-36.576 5.366a.238.229 72.7 0 0-.189.368zm-28.229-49.691l.06 29.65a.328.328 0 0 0 .328.328l46.552-.079a8.108 10.294 89.9 0 0 10.274-8.128l-.02-14.09a8.108 10.294 89.9 0 0-10.314-8.088l-46.552.079a.328.328 0 0 0-.328.328z"/><rect x="769.418" y="65.223" width="28.08" height="26.331" rx="7.432"/><path d="M1184.04 154.491q0 .715.556.258 22.764-19.127 45.349-38.195 4.163-3.508 6.379-4.332c9.489-3.527 16.772 9.3 9.141 15.66q-19.535 16.246-39.07 32.372a.149.149 0 0 0 0 .238q22.804 18.929 45.588 37.907c3.527 2.941 5.674 5.982 4.412 10.831-1.322 5.097-6.349 8.267-11.516 6.677q-2.494-.765-5.962-3.686-23.261-19.584-46.572-39.119-.388-.318-.755.01l-7.124 6.339a1.302 1.302 0 0 0-.447 1.004q.129 11.437-.01 22.734-.079 5.773-1.004 8.009c-2.951 7.114-14.288 6.955-16.653-.696q-.984-3.19-.974-6.965.129-60.234.169-120.478 0-3.11 1.58-5.793c3.259-5.584 11.973-5.594 15.302-.079q1.59 2.633 1.6 5.624.08 36.019.01 71.68zM480.759 178.12c-.407 7.77.874 8.823 5.654 14.149 3.984 4.442 6.965 5.346 12.977 5.366q20.866.06 41.732-.02c6.906-.03 13.613 2.872 12.172 11.149-1.083 6.19-6.757 7.492-12.172 7.512q-23.847.119-47.694.05c-6.131-.01-9.161-1.272-14.08-5.316-8.674-7.114-17.011-13.513-17.11-24.861q-.189-21.482.079-42.965c.159-13.007 10.085-19.515 18.939-26.54q5.773-4.581 13.166-4.769 12.798-.328 25.576-.02 7.929.199 14.149 5.018c9.569 7.403 18.551 12.629 19.098 26.301q.477 12.043.159 24.096c-.238 8.784-5.236 10.264-13.026 10.224q-29.501-.149-59.002.03-.586.01-.616.596zm43.362-46.184c-1.411-1.103-3.1-1.441-4.859-1.481q-10.93-.258-21.86-.02c-5.276.119-8.555 3.537-13.583 7.383-4.412 3.378-3.1 12.927-2.981 20.568q.01.437.447.437h53.1q.437 0 .437-.437c.03-3.806.964-16.017-1.431-18.67q-1.808-1.997-9.271-7.78zm123.816 84.488c-6.727.01-12.639-1.172-17.985-5.366q-8.257-6.469-16.276-13.245c-6.945-5.862-11.298-11.377-11.407-21.105q-.139-12.42-.069-24.851.069-11.914 9.797-20.27 7.82-6.717 15.838-13.205c8.595-6.965 14.249-6.727 26.51-6.767q14.676-.05 29.362.04c12.897.079 13.672 18.173-.745 18.362q-18.263.248-36.516.248c-2.643 0-6.727 2.603-9.211 4.63q-6.647 5.425-13.106 11.059c-2.822 2.474-3.329 4.213-3.329 8.168q-.01 11.178.01 22.347.01 2.862 3.19 5.574 9.877 8.396 14.487 12.023c3.468 2.732 6.806 3.617 11.516 3.607q22.605-.05 32.213.03c5.594.04 11.308 2.573 11.298 9.3-.01 7.581-6.28 9.28-12.54 9.31q-16.514.079-33.038.109zm130.99-19.346l-.01-66.215q0-.576-.566-.576-7.671-.079-15.143-.079c-6.23 0-12.321-2.474-11.953-9.897.308-6.101 5.376-8.565 10.821-8.645q16.365-.248 25.973.06c8.943.288 9.41 6.369 9.43 14.06q.06 35.761.01 71.442 0 .507.517.497 9.032-.308 18.064.477 7.273.626 8.197 7.035c1.172 8.158-5.187 11.059-12.132 11.079q-24.483.07-48.966-.03c-16.137-.07-15.928-18.76-.219-18.621q7.711.06 15.411-.02.566 0 .566-.566zm121.73-71.909q-.298 1.6.884.477c5.276-5.008 13.891-13.941 21.602-14.02 5.068-.06 11.665-.845 16.256 1.222q3.041 1.371 5.743 3.388 8.168 6.091 16.186 12.381c6.727 5.276 11.596 10.691 11.874 19.773q.527 17.508.03 35.025c-.238 8.664-4.75 14.1-11.188 19.257q-12.44 9.976-18.541 14.477c-2.931 2.166-6.16 3.06-10.075 3.07-7.78.01-15.461 1.371-21.88-4.551q-5.276-4.879-10.393-9.817a.238.238 0 0 0-.397.179q.179 18.054 0 36.158-.06 6.498-.954 8.595c-2.882 6.767-13.702 7.134-16.494.02q-1.083-2.752-1.083-7.025-.04-59.002-.04-117.994c0-5.982.358-12.887 7.681-14.119 8.386-1.421 12.033 6.608 10.791 13.503zm53.994 26.828c-.06-2.673-1.292-4.769-3.299-6.449q-8.227-6.926-16.643-13.603c-2.951-2.345-10.056-2.603-12.877-.06q-4.799 4.322-16.405 15.53c-2.415 2.345-4.581 5.127-4.601 8.168q-.04 9.529.03 19.038c.02 2.683.606 6.3 2.315 7.919q8.982 8.535 18.193 16.812c3.667 3.289 10.503 3.11 14.149.119q8.098-6.667 16.027-13.523 3.349-2.901 3.368-6.508.05-13.732-.258-27.444zm90.599 59.846c-9.4-6.469-19.525-14.229-19.634-26.937q-.179-20.618-.238-41.236-.04-11.317 8.963-18.988c8.128-6.936 14.477-12.768 25.954-12.967q10.682-.189 21.363-.04c7.055.099 12.192 2.126 18.213 6.389 9.38 6.637 16.971 13.633 16.981 25.606q.02 18.819-.069 37.649c-.04 7.85-1.401 14.447-7.154 20.141-7.492 7.403-15.719 14.398-26.48 14.736q-9.688.298-19.376.248c-6.906-.04-12.868-.705-18.521-4.601zm52.931-65.44c.02-6.896-10.344-15.848-17.269-16.087q-4.392-.149-17.637-.109-4.153.01-6.896 1.361c-4.879 2.395-12.311 8.376-12.311 14.835q-.01 17.369.04 34.737c.01 2.643.546 4.789 2.067 6.717 3.349 4.253 9.469 9.479 15.113 9.738q3.925.189 16.643.238 4.71.02 7.621-1.322c3.368-1.56 12.52-8.545 12.53-13.096q.05-18.501.099-37.013z"/></g></svg>