<svg xmlns="http://www.w3.org/2000/svg" viewBox="0 0 448 448"><circle cx="224" cy="224" r="222.412" fill-rule="evenodd"/><g fill="none" stroke-width="1.833"><path stroke="#f8cbbd" vector-effect="non-scaling-stroke" d="M202.813 83.601q-3.364 1.622-5.82.477"/><path vector-effect="non-scaling-stroke" d="M215.141 85.975q-2.759-.302-4.051.559-.385.257-.843.302l-17.269 1.632q-.394.037-.697.293a1.43 1.43 0 0 1-1.017.385q-1.412 0-2.851 0-.101 0-.101.101 0 .128 0 .247 0 .183-.183.211-3.052.403-6.114.623-2.961.211-7.644 2.447a.247.238 61.4 0 1-.321-.101l-.119-.202q-.055-.101.037-.174.88-.587 1.375-1.393m23.501 4.712q-.88-.742-2.841.266m17.085-.623q.449 1.815-2.851 2.062-1.852.137-3.153.715-1.824.807-3.694 1.522-.431.165-.889.119-1.228-.137-2.163.669-.339.293-.788.257-4.079-.302-8.057 1.797-.99.522-2.566.651-.44.037-.752.367-1.787 1.852-3.767 2.686-9.01 3.776-14.106 11.962m29.78-7.702q-.238-.128-.513-.147-.275-.009-.449.183-.229.257-.247.614" stroke="#db806a"/><path stroke="#e3b4ac" vector-effect="non-scaling-stroke" d="M226.333 118.101q.238-.568 1.164-1.036"/><path stroke="#f8cbbd" vector-effect="non-scaling-stroke" d="M236.196 113.986q.367-.312.403.293"/><path stroke="#e3b4ac" vector-effect="non-scaling-stroke" d="M219.724 86.726q-.467.669-1.714 1.393"/><path vector-effect="non-scaling-stroke" d="M242.108 99.247l-.477-.028a.348.348 0 0 0-.174.669l1.054.513a.376.385 30.2 0 1 .147.568q-.715.999.092 1.045m-45.803 107.335q-3.786-2.438-5.912-5.94-2.438-4.006-3.868-6.535c-1.338-2.365-3.19-4.308-4.785-6.517a1.082 1.091 83.5 0 0-.477-.376q-.697-.284-.706-1.063-.009-.522-.431-.816-.385-.275-.477-.779-.073-.467-.422-.779-1.76-1.595-4.116-2.31m68.765 19.56q.962-.972 1.237-2.484a1.265 1.256 75.7 0 1 .44-.752q2.026-1.705 3.336-3.978m69.094-1.979q.22-.275-.192-.486m-4.629 3.95q-6.627 3.556-9.413 12.447m1.924-6.993l1.237-1.696m-98.451 24.913l.559-2.181" stroke="#db806a"/></g><path d="M282.877 25.716a.28.28 0 0 0-.183.048c-7.149 4.418-11.842 7.852-14.078 10.303a101.16 101.16 0 0 1-8.607 8.368c-.66.568-.794 1.411-.403 2.53a.51.51 0 0 1-.267.696c-4.039 2.127-8.317 4.006-12.832 5.637a.05.05 0 0 0-.036.073l.073.229a.238.247 75.2 0 0 .294.165 56.34 56.34 0 0 0 12.594-5.095.84.84 0 0 0 .265-.22c.116-.147.181-.245.193-.294.147-.526.379-.56.696-.102l13.702 19.607a.944.953 51.7 0 1-.156 1.266l-7.497 6.563c-.183.159-.194.329-.029.512l.202.22c.067.079.144.085.229.018l7.847-6.434a.816.816 0 0 1 1.099.055l3.181 3.235a1.522 1.522 0 0 0 2.098.064l5.041-4.565a.642.623 50.2 0 1 .926.093l4.812 6.443c.764 1.02 1.737 1.293 2.916.816.672-.269 1.529-.939 2.574-2.009l11.624-11.998a13.74 13.74 0 0 0 1.778-2.254c.134-.208.186-.388.156-.541-.086-.373-.271-.432-.559-.175l-14.988 13.328a1.448 1.448 0 0 1-2.189-.311c-7.314-11.613-15.904-21.851-23.769-32.704a.99.99 0 0 1 .166-1.339l13.473-11.284a.431.431 0 0 0 .038-.623l-.22-.229c-.052-.055-.108-.085-.166-.093zm-.514 37.695a2.53 1.778 45.2 0 1 1.908.933l.1.1a.66.66 0 0 1 0 .934l-1.713 1.706a.66.66 0 0 1-.936 0l-.109-.111a2.53 1.778 45.2 0 1-.514-3.043l.129-.127a2.53 1.778 45.2 0 1 1.135-.392zm-79.55 20.19q-3.364 1.622-5.82.477 1.448-.816 2.786-.403a1.448 1.448 0 0 0 1.696-.687c4.363-7.965 8.249-18.543 17.058-21.989q12.64-4.959 26.022-7.828a.238.247 77.4 0 1 .284.174l.064.266q.055.22-.165.284c-9.285 2.612-18.763 5.105-27.69 8.689-1.677.669-3.382 3.666-5.124 5.087q-1.485 1.21-2.007 2.337-3.181 6.783-7.104 13.593z" fill="#fff"/><path d="M214.866 66.03q.495-.33 1.1-.202a.495.495 0 0 1 .092.935q-.467.211-.999.128a.477.477 0 0 1-.192-.862z" fill="#f0967b"/><path d="M266.745 80.696a.229.229 0 0 0-.256.192c-1.247 7.892-3.272 24.675-9.193 29.46a85.43 85.43 0 0 0-11.807 11.604 1.59 1.59 0 0 1-.807.523l-5.215 1.448a.504.504 0 0 1-.632-.514c.284-5.289-10.999-.247-9.028 4.042.134.293.066.531-.202.714l-2.007 1.375c-.208.141-.336.086-.385-.165a30.39 30.39 0 0 1-.102-10.596 1.558 1.567 84.2 0 1 .981-1.199l8.507-3.301c-.024-.403-.16-.5-.405-.292-3.074.483-5.973 1.509-8.699 3.079-.617.312-1.005.658-1.164 1.037-1.332 4.528-1.341 8.991-.027 13.391a.458.467 65.3 0 0 .696.256c4.244-2.777 8.168-4.436 12.805-6.416 1.815-.77 3.684-1.007 5.544-1.484a2.73 2.73 0 0 0 1.404-.852 133.52 133.52 0 0 1 9.624-9.927c3.932-3.657 6.012-6.179 7.157-10.972 1.662-6.972 2.799-14.024 3.41-21.155.018-.147-.047-.229-.193-.247zm-30.454 41.508a.724.724 0 0 1 .802.564l.44 1.96a.724.724 0 0 1-.449.834l-5.39 2.08a.724.724 0 0 1-.888-1.044l1.448-2.456a.724.724 0 0 1 .329-.285l3.502-1.595a.724.724 0 0 1 .206-.059zm-43.936-41.546a.156.156 0 0 1 .22-.046l.046.037a1.916 2.035 33 0 1 .495 2.75l-.092.137a1.916 2.035 33 0 1-2.713.66l-.046-.028a.156.156 0 0 1-.046-.22zm27.369 6.068q-.467.669-1.714 1.393-.99-.247.697-1.852c2.154-2.062 4.94-4.766 8.176-4.464 10.321.962 15.078 8.552 17.424 17.754q.073.293-.211.376l-.229.064q-.073.018-.092-.055-2.2-8.359-6.352-12.457c-4.83-4.775-13.144-6.92-17.699-.761z" fill="#fff"/><path d="M215.141 85.975q-2.759-.302-4.051.559-.385.257-.843.302l-17.269 1.632q-.394.037-.697.293a1.43 1.43 0 0 1-1.017.385q-1.412 0-2.851 0-.101 0-.101.101 0 .128 0 .247 0 .183-.183.211-3.052.403-6.114.623-2.961.211-7.644 2.447a.247.238 61.4 0 1-.321-.101l-.119-.202q-.055-.101.037-.174.88-.587 1.375-1.393 6.609-4.07 14.216-5.692.44-.101.614.321.504 1.237 1.705.577 3.089-1.677 5.115-2.035 2.456 1.146 5.82-.477 7.186-1.54 12.328 2.374z" fill="#f0967b"/><path d="M215.141 85.975q1.439 2.191 1.329 6.865a1.357 1.357 0 0 1-1.274 1.311l-15.857.972q-.229.018-.257.257-.028.385-.238.238-.88-.742-2.841.266-1.586-1.622-5.041-1.879-8.863-.669-16.517.101-2.154.22-4.519 1.439c-3.208 1.659-6.654 2.851-9.615 5.408q-.092.082-.165-.009h-.009q-.073-.092.009-.165c2.392-2.301 4.061-3.41 7.076-4.766 3.245-1.476 5.325-3.281 8.121-5.105q-.495.807-1.375 1.393-.092.073-.037.174l.119.202a.247.238 61.4 0 0 .321.101q4.684-2.236 7.644-2.447 3.061-.22 6.114-.623.183-.028.183-.211 0-.119 0-.247 0-.101.101-.101 1.439 0 2.851 0c.44 0 .706-.128 1.017-.385q.302-.257.697-.293l17.269-1.632q.458-.046.843-.302 1.292-.862 4.051-.559zm4.583.751l5.738 2.493a.99.972 4.8 0 1 .559.651q.522 1.943-.046 3.896a.541.541 0 0 1-.568.394l-6.315-.495q-.504-.037-.477-.541.147-2.667-.605-5.005 1.247-.724 1.714-1.393zm22.384 12.521l-.477-.028a.348.348 0 0 0-.174.669l1.054.513a.376.385 30.2 0 1 .147.568q-.715.999.092 1.045l-1.503 3.85q-.183.458-.513.092-.147-.165-.165-.412-.037-.385-.357-.605c-3.272-2.282-2.951-5.316-4.794-8.332q-.247-.412-.678-.623-3.052-1.476-6.435-1.842-.247-.028-.293-.266l-.935-4.904q-.046-.211.174-.165c3.465.816 8.35 2.961 9.395 6.59 1.017 3.538 2.502 2.988 5.463 3.85zm-27.517-4.335c2.136-.706 6.948-.183 9.166.321q.422.101.467.541l.495 4.895q.192 1.879-1.641 2.365l-4.665 1.237q-1.549.412-1.622-1.192c-.073-1.879-.22-3.639-1.384-5.435q-.678-1.045-1.063-2.255-.119-.357.247-.477z" fill="#c66958"/><path d="M213.088 95.26q.449 1.815-2.851 2.062-1.852.137-3.153.715-1.824.807-3.694 1.522-.431.165-.889.119-1.228-.137-2.163.669-.339.293-.788.257-4.079-.302-8.057 1.797-.99.522-2.566.651-.44.037-.752.367-1.787 1.852-3.767 2.686-9.01 3.776-14.106 11.962l-11.952 8.863q-.064.055-.073.046l-.101-.284q-.083-.229.092-.394 3.804-3.639 8.524-5.949.981-.477 2.163-2.154c2.576-3.648 6.325-7.938 9.899-10.614 1.558-1.164 3.556-1.311 5.362-2.383a1.467 1.448 87.1 0 0 .605-.678c1.668-3.841 6.902-5.353 10.788-6.783q.422-.156.412-.605l-.018-1.247q1.962-1.008 2.841-.266l-.449.697q-.293.44.22.302 7.03-1.971 14.473-1.357z" fill="#f0967b"/><path d="M213.088 95.26c2.722 2.814 2.191 5.527 1.604 9.074a1.201 1.182 75.4 0 1-.422.733q-1.292 1.072-2.658 2.026c-2.246 1.586-5.83 1.925-8.524 2.539q-.422.092-.742.376-.431.367-.981.147-.504-.192-.651-.192-.568-.018-.632.403-.238-.128-.513-.147-.275-.009-.449.183-.229.257-.247.614l-.211-.651q-.147-.422-.596-.403c-7.122.312-13.611 1.604-20.266 4.656q-3.639 1.668-7.498 3.446 5.096-8.185 14.106-11.962 1.98-.834 3.767-2.686.312-.33.752-.367 1.577-.128 2.566-.651 3.978-2.099 8.057-1.797.449.037.788-.257.935-.807 2.163-.669.458.046.889-.119 1.87-.715 3.694-1.522 1.302-.577 3.153-.715 3.3-.247 2.851-2.062zm12.594.156c3.63-.532 5.472.605 8.9 1.604a.871.862 6.6 0 1 .623.779l.192 3.346q.046.669-.623.614-3.566-.293-6.865.926a1.329 1.329 0 0 1-1.787-1.256c.018-2.007-.788-3.501-.907-5.435q-.037-.504.467-.577zm13.97 2.186a1.045.706 70.5 0 1-1.014-.749 1.045.706 70.5 0 1 .317-1.221 1.045.706 70.5 0 1 1.014.749 1.045.706 70.5 0 1-.317 1.221z" fill="#c66958"/><path d="M242.108 99.247q.367.312.742.669.422.412.412.843-.009.614-.513 1.256-.807-.046-.092-1.045a.376.385 30.2 0 0-.147-.568l-1.054-.513a.348.348 0 0 1 .174-.669zm-5.509 15.032q-.037-.605-.403-.293c5.151-1.778 9.56-7.461 8.066-13.291q-.046-.174.128-.238h.009q.174-.055.247.11c2.301 5.683-2.951 11.952-8.048 13.712z" fill="#f0967b"/><path d="M183.778 104.283a1.907 1.228 37.4 0 1-2.261-.183 1.907 1.228 37.4 0 1-.769-2.134 1.907 1.228 37.4 0 1 2.261.183 1.907 1.228 37.4 0 1 .769 2.134z" fill="#fff"/><path d="M227.497 117.066q-.926.467-1.164 1.036l-10.807 3.144a.44.449 3.1 0 1-.532-.596q3.025-7.443-3.456-11.604a.862.862 0 0 1-.028-1.43c3.758-2.585 8.048-3.456 10.559 1.164q2.401 4.427.257 8.882a.458.458 0 0 0 .486.651q1.632-.284 3.08-1.182.486-.293-.028-.541-.156-.073-.302-.147-.147-.082-.174-.257c-.742-4.931-.321-7.709-4.876-10.697a.541.541 0 0 1 .156-.981c6.425-1.742 9.12-1.201 10.394 5.83q.028.165.202.147.165-.018.183-.147.495-4.006-2.319-6.535a.532.532 0 0 1 .266-.917c4.381-.761 9.047-1.027 10.816 4.061q.147.431-.119.797c-2.805 3.877-6.572 4.95-10.468 7.269q-.605.357-1.357.568-2.97.843-.77 1.485zm-40.092 13.877c.449-2.337-.953-3.465.797-5.472 5.995-6.829 12.576-12.567 20.495-16.086q.431-.192.797.11c3.327 2.786 5.435 6.059 4.271 10.541-.284 1.118.073 2.2-1.476 2.741-8.497 2.979-16.948 6.618-22.86 12.851q-5.885 6.196-12.062 14.143-.422.55-.183-.101c2.017-5.49 2.621-11.43 5.775-16.728q.202-.339.577-.44l3.199-.834a.907.907 0 0 0 .669-.724z" fill="#c66958"/><path d="M200.082 110.365q.403.614 1.21 1.137a.495.495 0 0 1 .073.779q-.44.394-1.008.559-.357.11-.495-.247-.321-.862-.99-1.577.018-.357.247-.614.174-.192.449-.183.275.018.513.147z" fill="#f0967b"/><path d="M261.173 125.563l-5.353 2.521a3.126 3.126 0 0 1-2.97-.174l-1.806-1.109a3.126 3.126 0 0 1-.532-4.904l5.93-5.729a3.126 3.126 0 0 1 5.179 1.393l1.228 4.317a3.126 3.126 0 0 1-1.677 3.685zm-2.191 6.865l-3.382-.477q-.532-.073-.852-.513l-.211-.293q-.33-.458.147-.779c2.649-1.769 6.05-3.025 8.314-5.17a.871.871 0 0 1 1.467.614q.11 4.244.165 8.369c.037 2.521-2.246 3.043-4.161 3.822q-.422.174-.477.632-.119 1.045.522 1.925a2.007 1.998 41.5 0 1 .137 2.172q-2.356 4.143-6.7 5.692c-2.181.779-6.242.66-7.021-2.163-.614-2.237.642-3.538-1.549-5.408a1.879 1.879 0 0 1 .192-3.006c3.694-2.392 7.864.302 11.613 1.632a.651.651 0 0 0 .871-.559q.018-.165-.037-.587-.037-.284-.211-.532-1.118-1.494-2.447-3.171-1.384-1.742.779-1.237 1.063.238 2.896-.587.642-.284-.055-.376z" fill="#c66958"/><path fill="#fff" d="M185.141 130.274c-1.375.247-2.383-1.072-2.722-2.236q-.137-.477.312-.697 1.109-.541 2.374-.202a.724.715 6.5 0 1 .541.669l.055 1.787q.018.577-.559.678z"/><path d="M150.741 133.555q2.108-2.805 5.454-5.078a.137.137 0 0 1 .165.211l-5.949 5.252q-.33.293-.128-.064.046-.101.183-.137.174-.046.275-.183zm-1.83 1.746c.098.053.135.175.082.273l-5.223 9.7a.2.2 0 0 1-.273.082c-.098-.053-.135-.175-.082-.273l5.223-9.7a.2.2 0 0 1 .273-.082z" fill="#f0967b"/><path d="M175.829 151.319q-1.888 2.291-3.538 4.748-.147.22-.339.092l-.183-.137q-.018 0-.009-.018l3.694-4.922q.073-.092.165-.018l.202.147a.073.073 0 0 1 .009.11zm-7.454 12.486a.183 1.512 18.8 0 1 .314-1.49.183 1.512 18.8 0 1 .661-1.372.183 1.512 18.8 0 1-.314 1.49.183 1.512 18.8 0 1-.661 1.372z" fill="#c66958"/><path d="M196.947 209.349q-3.786-2.438-5.912-5.94-2.438-4.006-3.868-6.535c-1.338-2.365-3.19-4.308-4.785-6.517a1.082 1.091 83.5 0 0-.477-.376q-.697-.284-.706-1.063-.009-.522-.431-.816-.385-.275-.477-.779-.073-.467-.422-.779-1.76-1.595-4.116-2.31-1.494-.935-2.255-1.787-.779-.852.211-.257c1.522.935 3.428 1.375 4.895 2.209q5.61 3.199 10.092 7.883.284.312.706.312l2.695.018a.486.477 11.9 0 1 .44.669q-.495 1.155-1.751 1.173-.779.009-.202.532 4.061 3.648 6.352 8.57 1.329 2.841.009 5.793z" fill="#f0967b"/><path d="M175.755 184.234q2.356.715 4.116 2.31.348.312.422.779.092.504.477.779.422.293.431.816.009.779.706 1.063a1.082 1.091 83.5 0 1 .477.376c1.595 2.209 3.446 4.152 4.785 6.517q1.43 2.53 3.868 6.535 2.126 3.501 5.912 5.94-2.64 2.035-6.48 2.209a2.053 2.053 0 0 1-1.907-1.1c-2.346-4.464-5.692-8.534-7.278-13.355q-1.045-3.153-2.117-6.288-.037-.092-.11-.128-.128-.055-.174-.156zm68.763 19.56q.962-.972 1.237-2.484a1.265 1.256 75.7 0 1 .44-.752q2.026-1.705 3.336-3.978 1.283-1.833 4.354-3.263a.22.22 0 0 0-.028-.412q-1.045-.339-1.476-1.292-.229-.513.293-.715 2.062-.788 2.594 1.008a.458.467 61 0 0 .752.211q5.316-4.693 11.98-5.06 2.117-.119 3.446-.651 1.641-.66 3.245-1.467.11-.046.156.055l.101.22q.101.202-.11.302c-5.811 2.731-10.422 4.986-13.547 10.953-2.346 4.473-7.259 6.893-11.027 10.073-2.392 2.026-4.895-.788-5.747-2.75zm-35.481-6.893q5.683-5.105 12.952-7.259 1.375-.412 2.264-.99 1.036-.678 2.017-1.467.174-.137.312.046l.128.192q.073.092-.028.156-4.895 2.823-8.387 7.149c-1.476 1.815-2.42 4.262-3.52 6.444-1.604 3.171-4.262 5.426-6.38 8.414q-.752 1.054-2.97 1.027a1.072 1.082 61 0 1-.559-.156l-2.722-1.677a1.943 1.952 27.7 0 1-.761-2.447q1.879-4.29 5.298-7.489.312-.293.156-.697l-.917-2.466a.486.477 85.2 0 1 .541-.642q1.384.275 1.916 1.696.211.568.66.165zm114.116-3.877q1.155-.403 2.328-.137.632.147-.009.266-1.155.211-2.301.046-.385-.046-.018-.174zm-4.528 1.577q.22-.275-.192-.486 1.494-.834 3.263-.843.577-.009.037.192zm-185.867-.875a.174 4.207 73.5 0 1-3.984 1.362.174 4.207 73.5 0 1-4.083 1.028.174 4.207 73.5 0 1 3.984-1.362.174 4.207 73.5 0 1 4.083-1.028z" fill="#c66958"/><path d="M318.433 194.115q.412.211.192.486l-4.821 3.465q-6.627 3.556-9.413 12.447-2.127-2.181 1.925-6.994l1.237-1.696q4.72-4.519 10.88-7.709z" fill="#f0967b"/><path d="M165.993 200.155q-.33-1.137.651-1.879.422-.321.761.083.706.834.275 1.824a.559.55 25.4 0 0 .257.706c3.089 1.604 18.479 8.497 11.091 14.116-1.632 1.237-2.823 1.714-4.711.422q-4.555-3.107-9.578-5.38c-.852-.385-2.383-1.366-3.061-2.053-3.749-3.813-8.387-8.753-13.538-10.605q-2.328-.825-4.629-1.714c-1.797-.697-3.346-.467-5.215-.532q-.22-.009-.22-.229v-.009q.009-.211.22-.22c3.886-.119 6.966 1.219 10.752 1.173q7.773-.083 13.492 3.016 1.934 1.045 3.116 1.577.495.229.339-.293zm189.489-3.235l-3.74-1.347q-.009-.009-.046.137 0 .009 0 .018-.009.009.009.009 2.557-.431 3.932.926.513.504-.156.257zm-30.065 6.324q5.032-3.492 10.944-5.078c2.383-.642 4.876-2.337 7.745-2.456a.093.093 0 0 1 .037.183c-6.783 2.539-10.752 6.086-14.739 11.687-2.447 3.446-4.574 5.61-7.369 8.314q-1.998 1.934-3.941-.046l-1.155-1.173q-1.98-2.007.055-3.951l6.884-6.581q.385-.367.174-.843l-.467-1.036a.321.321 0 0 1 .458-.403q.669.412.825 1.173.119.513.55.211z" fill="#c66958"/><path d="M249.532 196.58q-1.311 2.273-3.336 3.978a1.265 1.256 75.7 0 0-.44.752q-.275 1.512-1.237 2.484c-.852-3.107 2.832-5.976 5.014-7.214z" fill="#f0967b"/><path d="M313.804 198.065c-1.888 4.638-3.052 9.487-6.325 13.272q-.293.339-.724.247-2.007-.431-2.365-1.072 2.786-8.891 9.413-12.447zm-172.504 3.08c3.804.33 17.626 1.916 13.474 8.955a1.402 1.393 17.2 0 1-1.311.687q-10.403-.687-19.569-5.307-3.969-2.007-9.725-2.786c-1.861-.257-4.106.192-6.068-.257q-1.137-.266.018-.403c3.758-.44 7.571-1.897 10.999-2.072q4.931-.257 9.78.761.532.119.752-.376.321-.706.037-1.43-.275-.697.412-.385l1.045.486a.55.55 0 0 1 .174.871q-.284.312-.385.742-.11.467.367.513zm157.133-.11q-.449.229-.385-.596a.577.577 0 0 1 .614-.532q.202.009.431.11a.44.44 0 0 1 .101.733q-.229.192-.541.22-.119.009-.22.064zm-10.55 3.034q-.183.614-.926.312-1.54.376-3.061.788c-2.786.742-5.875 3.052-8.066 3.41q-5.71.935-11.247 2.227a.761.77 67 0 1-.825-.33c-4.354-6.755 7.681-7.754 11.127-8.451q.504-.101.706-.385.183-.257.238-.577.073-.467.477-.724.431-.275.962-.192.486.083.605.568.266 1.173 1.531 1.091 4.015-.275 7.525.257c4.61.706 8.369 1.146 12.457 2.255q.192.046.147.238v.009q-.046.192-.238.156c-3.941-.779-7.36-1.586-11.412-.651zm19.67-2.246l-1.237 1.696-.935-.238a.55.55 0 0 1-.357-.293q-.082-.202-.073-.412.027-.247.247-.348.981-.477 2.356-.403zm-90.578 11.256q1.338-.715 1.696-2.227.11-.486.559-.697c2.392-1.137 6.609-1.182 9.083-1.182q1.943 0 4.51-.559 3.941-.852 8.323.009a.385.385 0 0 1 .293.504l-.852 2.53q-.275.816-1.137.816c-3.694.037-9.349-.596-12.53.339q-.532.165-.917.156-3.813-.064-7.562.614-.825.156-1.457-.165a.082.073 42.1 0 1-.009-.137zm43.657 1.668c-1.567-.192-2.777-.944-4.299-.99-2.86-.092-5.775-.843-8.35-.972q-2.832-.137-5.866-.284-1.192-.055-.742-1.164l.321-.779a1.962 1.971 10 0 1 1.751-1.237q8.405-.312 15.921 3.291.302.156.742.477.669.495.944 1.192.22.568.816.394c6.059-1.769 11.714-1.485 17.791-2.603q4.07-.752 7.993-.037c2.401.431 4.693.11 6.7.367q2.291.293 4.592.504c1.375.119 3.373.77 5.087.797 4.253.073 9.432 1.751 13.639 3.089q1.641.522.348 1.659-.156.137-1.265.028-5.729-.559-11.457-1.201a.687.669 81.4 0 1-.541-.412l-.862-2.044a.247.247 0 0 0-.229-.156q-.247 0-.293.238-.156.834-.064 1.256.238 1.054-.834.972c-4.418-.321-8.158-.917-12.768-.623-4.555.284-9.074-.467-13.419.055q-7.049.862-14.116 1.586c-5.353.55-10.138 1.567-15.234 2.695a.532.541 89.3 0 1-.642-.623q.137-.715.907-.944c4.629-1.402 8.534-3.245 13.401-4.134q.165-.028.156-.247 0-.128-.128-.147zm-43.795-3.299c-.486 1.192-.889 2.53-2.521 2.686q-2.786.247-6.929.651a.367.367 0 0 1-.385-.449l.092-.367a1.045 1.036 4.2 0 1 .926-.788q4.281-.348 7.947-2.493a.614.605 86 0 1 .871.761zm-94.052 5.939a.623.623 0 0 0-1.118.302c-.312 2.585-5.49 3.786-7.635 4.372a.449.449 0 0 1-.559-.504q.055-.357.495-.752 6.709-6.141 15.454-8.359c2.191-.55 4.629-.752 7.003-1.063 3.566-.467 6.92.211 10.523.367q3.822.156 14.51 3.859.678.238.623.944l-.018.33q-.037.449-.467.321c-4.977-1.476-11.127-.77-16.343-1.118q-4.418-.293-8.02.247-6.673.99-13.776 2.392a.238.238 0 0 1-.275-.229q-.018-.605-.394-1.109z" fill="#c66958"/><path d="M142.464 213.629q.073.431-.083.834-.174.44-.458.064-.321-.422.092-.999.348-.477.449.101z"/><path d="M189.193 216.801l-.147-2.475a.788.779 82.8 0 1 .632-.825c4.931-.917 23.126 1.439 26.059 6.774q.348.632-.339.422-8.479-2.557-17.296-3.318a.321.321 0 0 1-.293-.367q.037-.293.458-.394.889-.22 1.87-.596.211-.083.128-.293l-.083-.229q-.064-.165-.229-.119-1.897.458-3.501 1.577a.495.559 28.7 0 1-.275.101l-6.251.394a.697.697 0 0 1-.733-.651zm-.945-.541a.367.367 0 0 1-.22.467l-.083.028a1.742 13.492 69.7 0 1-13.254 3.052l-.009-.018a1.742 13.492 69.7 0 1 12.053-6.315l.083-.028a.367.367 0 0 1 .467.211zm129.616 6.398q-3.016.907-8.873 3.006-1.063.376-2.154-.211-.495-.266.009-.513 5.115-2.521 10.275-4.812c7.461-3.3 19.725-4.253 27.7-2.557 3.456.733 13.318 3.529 15.151 6.7a.357.357 0 0 1-.385.522c-13.602-2.97-28.992-5.94-41.723-2.136zm-149.387-2.173q-1.705-.632-2.759.697-.321.403-.825.449-4.006.394-7.919-.174-2.548-.367-4.427.101-3.346.834-6.7 2.099a.541.541 0 0 0-.238.834q.247.312.898.486c4.62 1.274 10 2.832 13.831 5.793q2.126 1.641-.477 1.008c-.724-.174-1.852.614-3.226.009q-.935-.412-1.677-.477c-3.456-.293-7.159-.596-10.44-1.714-.935-.321-1.98.009-2.851-.092-5.646-.678-11.292-1.925-16.82-1.806q-11.338.238-22.585 1.705-1.091.137-1.302.11-1.879-.257-.229-1.182c6.068-3.401 12.072-5.426 19.624-5.995 6.169-.477 14.281-.137 19.533.614q1.137.165 2.631 1.668.467.467.715-.137l.266-.623q.202-.467.651-.715c12.567-6.984 28.543-7.214 38.79 3.886a.88.871 54 0 1-.211 1.357c-2.493 1.393-5.518-1.32-7.562-2.585-2.631-1.641-5.188-2.466-8.094-3.428a.797.797 0 0 1 .312-1.549l1.008.064a.211.211 0 0 0 .083-.403zm40.624 6.251l.559-2.181q2.301-2.786 5.353-2.686.504.009.77-.376.247-.367.687-.312 1.632.229 2.924-.871a.669.669 0 0 1 1.1.623q-.156.862-.852 1.357-.22.156-.22.412 0 .174.119.266.055.046.119.018c2.649-1.201 2.264-2.915 5.665-2.887 3.621.018 6.544.202 10.083.092q2.869-.092 5.041.422 7.094 1.687 14.216 3.272 1.769.394 3.428 1.118.467.202.202.642-.073.137-.238.229-.156.083-.403.073-13.226-.761-26.471-.651-.532 0-.871-.403-.385-.449-.715.101a.843.852 13.6 0 1-.678.422z" fill="#c66958"/><path d="M209.66 224.555l-.559 2.182q-1.815.339-3.611.522c-1.87.202-3.96 1.201-5.848 1.1q-1.393-.073-.192-.77 4.088-2.365 8.909-3.584 1.008-.257 1.302.55z" fill="#f0967b"/><path d="M286.425 228.606c-5.71 1.063-11.027.128-16.554.642q-4.409.422-8.836.422-3.052 0-6.755.614c-3.657.605-7.186.449-10.715 1.366q-5.417 1.412-11.962 2.566a1.952 1.98 52.3 0 1-1.127-.137l-.422-.183a.385.385 0 0 1 .037-.724q8.286-2.64 13.566-3.831c1.613-.367 3.446-.028 4.986-.742 3.346-1.558 7.223-1.412 10.825-1.164q.871.064 1.687-1.045a1.1 1.1 0 0 1 .761-.44l10.128-1.1a.999 1.017 58.5 0 1 .642.147q2.411 1.577 4.785.073.376-.238.825-.257c5.6-.183 11.65.495 16.71.669 11.283.403 20.339 2.777 32.209 6.911q1.1.385 1.503 1.485l.101.257a.532.532 0 0 1-.596.706q-16.013-2.878-20.174-3.446-7.709-1.054-21.082-2.117-.321-.018-.339-.339-.009-.156-.064-.266-.046-.083-.137-.064zm-96.087 4.812l.568 1.815a.412.403 79.8 0 1-.367.532q-6.636.422-13.107-1.054a.037.88 75.5 0 0-.807.174q-.385.092-.605.458a.752.752 0 0 1-.678.367q-19.661-.761-38.488 4.821-.614.183-.623-.467l-.009-.348a.302.293 79.3 0 1 .183-.275l4.491-1.723q12.796-3.465 17.534-4.546c9.423-2.145 20-1.861 30-1.852q.458 0 .862.211c.935.495 1.65-.055 2.521-.009 3.556.22 6.691.495 10.403 1.347q3.043.706 6.123 1.182 4.565.715 14.226 4.18 9.514 3.41 12.255 4.821a.22.22 0 0 1 .083.312l-.165.247q0 .009-.009.009-3.602-1.146-7.186-2.374c-5.362-1.842-10.871-2.255-16.416-3.309q-2.328-.449-3.63-1.375-.522-.376-.596.257-.018.147-.009.302a.312.312 0 0 1-.357.312q-5.839-.898-11.687-1.558-2.502-.284-4.198-2.612-.642-.871-.312.156z" fill="#c66958"/><path d="M274.491 316.16l8.552-42.585a.302.302 0 0 1 .587 0l8.552 42.585a.302.302 0 0 1-.293.367h-17.104a.302.302 0 0 1-.293-.367zm-123.649-42.668a.513.513 0 0 1 .522-.513l9.267.027a7.69 7.938.2 0 1 7.663 7.965l-.055 13.841a7.69 7.938.2 0 1-7.718 7.91l-9.267-.027a.513.513 0 0 1-.504-.513zm229.087-1.185l1.87.006a8.34 8.34 0 0 1 8.33 8.388l-.147 42.072a8.34 8.34 0 0 1-8.388 8.33l-1.87-.006a8.34 8.34 0 0 1-8.33-8.388l.147-42.072a8.34 8.34 0 0 1 8.388-8.33zm-106.474 50.324l-2.411 12.603q-.183.944-1.137.926l-4.455-.092q-.889-.018-.715-.898l13.391-67.196q.11-.522.632-.513l10.238.165a.632.632 0 0 1 .614.55l.513 4.326q5.564 28.075 12.603 62.961.137.706-.587.715l-5.637.027q-.697 0-.807-.678l-2.035-12.475a.944.944 0 0 0-.917-.788l-18.735-.101a.568.568 0 0 0-.559.467zm50.66-50.23l.312-4.629a.449.449 0 0 1 .449-.422l33.217-.073a.449.449 0 0 1 .449.477l-.257 4.748a.449.449 0 0 1-.449.422l-12.649.137a.449.449 0 0 0-.449.458l.055 62.237a.449.449 0 0 1-.458.449l-5.93-.064a.449.449 0 0 1-.44-.449l.046-62.173a.449.449 0 0 0-.44-.449l-13.007-.192a.449.449 0 0 1-.449-.477zm-12.805-5.005h5.866c.269 0 .486.217.486.486v67.736c0 .269-.217.486-.486.486h-5.866c-.269 0-.486-.217-.486-.486v-67.736c0-.269.217-.486.486-.486zm-60.156 52.402l-.22-52.209q0-.275.275-.275l5.775.046a.147.147 0 0 1 .147.147l-.22 68.094a.44.44 0 0 1-.422.44l-5.06.257a2.099 2.09 79 0 1-2.09-1.412q-9.404-27.425-18.149-54.483-.449-1.402-.88-2.273-.761-1.549-.752.174l.128 56.985q0 .834-.834.834l-4.088-.027q-1.054-.009-1.054-1.054v-66.82a.724.733 88.9 0 1 .706-.724l7.617-.247a1.155 1.164 79.8 0 1 1.137.788l17.36 51.861q.632 1.888.623-.101zm-59.249 8.57c3.025 3.181 8.24 3.41 12.09 1.448 3.419-1.742 3.804-5.82 3.813-9.798q.092-25.857.229-51.76a.962.962 0 0 1 .999-.953l4.354.165q.871.037.871.907.055 25.876.064 51.412c0 8.405-3.171 15.325-12.182 16.875-8.295 1.43-16.618-2.044-18.488-10.926q-1.137-5.353-1.1-11.448.11-23.355.202-46.471 0-.202.192-.211l6.645-.385q.257-.009.257.238-.055 25.72-.055 51.494c0 4.143-.211 6.984 2.108 9.413zm-41.054-19.789l-.11 27.113a.458.458 0 0 1-.458.458l-5.82-.018q-.495 0-.495-.504l-.092-68.021a.275.275 0 0 1 .275-.275q7.186-.064 14.491.046c7.269.11 14.271 1.907 15.857 10.018 1.311 6.728 1.989 20.257-2.392 25.958-4.785 6.242-13.749 4.821-20.798 4.766q-.458 0-.458.458zm-30.229 22.374l-.11 4.684a.614.614 0 0 1-.614.605l-26.801-.064a.614.614 0 0 1-.614-.614v-67.672a.614.614 0 0 1 .623-.614l5.793.11a.614.614 0 0 1 .605.614l-.128 61.76a.614.614 0 0 0 .614.614l20.009-.055a.614.614 0 0 1 .623.632zm-58.516-.449l21.421-.183a.403.403 0 0 1 .403.403l.009 4.913a.403.403 0 0 1-.403.403l-28.075.238a.403.403 0 0 1-.403-.403l.037-68.158a.403.403 0 0 1 .403-.403l28.066.147a.403.403 0 0 1 .403.412l-.101 4.711a.403.403 0 0 1-.403.394l-21.164-.009a.403.403 0 0 0-.403.403l-.192 24.546a.403.403 0 0 0 .403.403l17.26.082a.403.403 0 0 1 .394.412l-.165 4.766a.403.403 0 0 1-.403.385l-17.049-.018a.403.403 0 0 0-.403.403l-.037 25.747a.403.403 0 0 0 .403.403zm313.76-63.465c14.427-2.851 21.256 5.032 21.32 18.607q.073 14.088.037 28.185-.009 7.553-1.036 12.502c-2.612 12.603-22.942 14.198-28.983 3.941q-2.53-4.299-2.603-10.715-.211-18.561.009-37.122c.082-6.975 3.951-13.96 11.256-15.399zm-132.439-10.092c2.695.917 4.464-.871 6.673-1.934a1.237 1.237 0 0 1 1.742.816c.66 2.667-3.098 5.041-4.995 5.701-2.017.706-8.442-2.53-9.826-2.896-2.576-.669-4.546 1.549-7.094 1.613a1.21 1.21 0 0 1-1.1-1.787c3.804-7.012 9.083-3.382 14.601-1.512zm79.432-3.355l-8.02 8.35a.293.293 0 0 1-.202.082l-3.483.119a.293.293 0 0 1-.247-.458l5.903-8.433a.293.293 0 0 1 .247-.128l5.582-.028a.293.293 0 0 1 .22.495zm-89.037 113.026l5.967-.339a.843.843 0 0 1 .889.834v2.741a.843.843 0 0 1-.889.843l-5.61-.312a.843.843 0 0 1-.779-.697l-.367-2.081a.843.843 0 0 1 .788-.99zm51.724-2.017l.302-1.008a.513.513 0 0 1 .953-.082l1.256 2.511q.275.559-.348.559l-2.42.009q-.632.009-.449-.596.092-.321.293-.587.275-.367.412-.807zm47.177-.797l.788 2.236q.22.632-.449.651l-1.916.055q-.779.027-.687-.742.156-1.375 1.137-2.429a.669.669 0 0 1 1.127.229zm-147.105.293l.257-.788a.568.568 0 0 1 1.054-.073q.752 1.512.614 3.226-.037.422-.44.293-.761-.229-1.531-.156-.559.055-.697-.495-.284-1.137.605-1.806a.403.44 77 0 0 .137-.202zm-63.208 1.219q.092-1.237 1.036-2.117.357-.339.678.037 1.173 1.357 1.192 3.171.009.403-.385.394l-2.328-.055q-.513-.009-.385-.504l.119-.495q.055-.211.073-.431zm146.481-.587l-3.712-.046q-1.577-.018-1.577-1.595v-.697q0-1.393 1.393-1.375l11.173.11q1.732.018.642 1.366l-5.5 6.783q-.962 1.192-2.493 1.173l-4.18-.073q-.953-.018-1.045-.962l-.192-1.897a.862.862 0 0 1 .852-.944q2.456 0 4.372-.147.587-.046.852-.339.312-.339.183-.779-.165-.577-.77-.577zm-103.814-2.411a1.082 1.082 0 0 1 .953-1.192l.101-.018a2.236 4.152 83.4 0 1 4.381 1.751l.037.357a2.236 4.152 83.4 0 1-3.868 2.704l-.101.009a1.082 1.082 0 0 1-1.192-.953zm75.308 2.319a.486.486 0 0 1-.504.477l-4.106-.101a2.539 1.256 1.4 0 1-2.502-1.32l.037-1.677a2.539 1.256 1.4 0 1 2.576-1.201l4.097.101a.486.486 0 0 1 .477.504zm-85.702 1.641q-.293.797.275 1.302c.917.807 2.933.046 3.749-.55a.339.33 85.3 0 1 .495.422l-.788 1.622a2.484 2.493 6.3 0 1-1.641 1.32c-7.159 1.769-7.901-11.036-.467-9.45q2.805.605 4.051 4.116a.715.715 0 0 1-.917.917q-2.09-.724-4.198-.202-.412.11-.559.504zm75.069 2.136q-2.007 3.868-5.72 3.978c-6.691.202-9.698-8.552-4.033-12.172 1.622-1.036 5.463-1.201 7.214-.339q2.878 1.421 2.484 4.913-.073.678-.522.165c-1.008-1.146-1.778-2.649-3.043-3.327-4.73-2.521-8.378 3.016-5.811 6.902q2.282 3.456 5.82 1.357c1.256-.742 2.062-2.31 3.043-3.483q.394-.467.697.055.467.807-.128 1.952zm43.694 2.136l6.398.156q.596.009.843-.532l4.097-9.028q1.742-3.841 3.355.046l4.418 10.605q.165.403-.266.394l-1.219-.027q-.357-.009-.532-.321l-1.54-2.86a.807.816 75.9 0 0-.715-.422l-3.786.009q-.477 0-.697.431l-1.1 2.127a1.998 1.998 0 0 1-1.778 1.082l-18.598.055a1.228 1.228 0 0 1-1.228-1.265l.293-9.102q.018-.587-.541-.394l-.312.101a.935.962 2.2 0 0-.577.55l-3.795 9.468a1.32 1.311 45.8 0 1-2.456-.037l-2.53-6.939q-.587-1.604-1.265-.037-.587 1.393-1.833 2.319-1.045.77-.211 1.76l2.337 2.768q.422.495-.192.697c-2.75.889-5.692-4.29-6.636-6.242a.266.275 79.5 0 1 .266-.385l2.484.174q.449.027.742-.302 1.017-1.127 1.182-2.64a1.274 1.283 6.5 0 0-1.109-1.402l-3.181-.403a1.137 1.137 0 0 0-1.274 1.127l.028 9.698a.449.449 0 0 1-.44.449l-9.945.009q-.715 0-.715-.724l-.028-11.036q0-.605.577-.788 1.329-.412 2.64-.403 7.919.064 15.83.403.467.018.788.357c1.549 1.622 2.429 4.931 2.915 6.957q.623 2.594 1.632.128l2.75-6.774q.357-.88 1.32-.889l20.449-.101q.697-.009.339.587-3.199 5.362-7.47 9.899-.632.669.284.697zm-68.671-6.471l3.061-4.336q.357-.513.962-.669l.623-.156a.486.486 0 0 1 .532.733c-2.392 3.795-5.096 6.865-4.445 11.467q.165 1.155-.981 1.357l-.275.046q-1.146.202-1.146-.962c0-1.943.284-3.731-.706-5.536q-1.732-3.19-3.932-6.306a.44.44 0 0 1 .495-.669l1.146.367q.981.312 1.549 1.173l2.291 3.474q.403.623.825.018zm-55.931.642c.467-2.722 2.062-5.307 5.151-5.353 1.962-.037 4.226-.284 5.866.825 2.227 1.512 2.521 7.214 1.366 9.368-2.264 4.216-11.888 3.914-12.31-2.255a.99.999 87.5 0 0-1.017-.926l-5.289.082q-.962.009-.953.981l.018 2.273q.009.669.669.678l5.655.055a.486.486 0 0 1 .486.504l-.009.376a.953.953 0 0 1-.953.926l-19.789-.073a.596.577 83.8 0 1-.568-.467l-.504-2.365a.898.907 89.6 0 0-.724-.706q-2.108-.394-4.235-.027a.816.816 0 0 0-.587.44l-1.338 2.75a1.072 1.072 0 0 1-1.118.596l-.422-.055a.669.669 0 0 1-.522-.917l4.895-11.833a1.082 1.082 0 0 1 1.934-.137q3.052 5.142 4.418 11.027.11.467.55.669.412.183.779-.055.394-.247.394-.715v-10.321q0-.733.742-.733h.312q.687.009.697.697l.055 10.156q0 .238.238.238l6.81.055q.192 0 .192-.192l.22-10.348a.532.532 0 0 1 .532-.522l6.911.009q.834 0 .843.834v.284a.504.495 0 0 1-.513.504l-5.435-.082q-.623-.009-.614.614l.037 2.521q.009.513.522.541l6.215.394q.339.018.394-.312zm174.382-2.979q-.202 3.657-.202 7.314 0 1.292 1.787 2.007 1.54.614 1.98-.99 1.577-5.756 4.61-10.889a.862.862 0 0 1 1.54.11l4.94 11.907q.495 1.201-.797 1.072l-.385-.037q-1.091-.11-1.357-1.173l-.504-2.007a.715.706 83 0 0-.669-.532l-4.161-.073q-.614-.018-.77.577l-.605 2.337q-.229.88-1.137.88l-10.779.009a1.265 1.228 63.9 0 1-.788-.284q-2.988-2.429-4.546-5.93a.486.486 0 0 1 .532-.669l1.613.312q.513.101.935-.211 1.76-1.329 1.347-3.593-.082-.449-.522-.541-2.209-.467-4.427-.11-.467.073-.44.541l.422 9.863q.027.587-.559.605l-1.164.037q-.559.018-.568-.541l-.064-10.092q-.009-.513-.522-.522l-5.38-.082q-1.017-.018-.981.999l.055 1.76q.027.871.898.871l3.721.018q1.017 0 .834.999l-.082.449a.495.504 5.1 0 1-.486.412l-4.326.037a.559.55 88.6 0 0-.541.577l.183 4.638q.018.467-.449.467h-1.457a.596.596 0 0 1-.596-.596l-.009-11.797q0-.467.467-.467l16.279.037a1.815 1.824 78.6 0 1 1.677 1.109q1.659 3.951-1.677 6.224a1.072 1.1 75.7 0 0-.477.779c-.312 2.53 2.658 3.547 4.647 2.951a.907.898 82.7 0 0 .651-.843l.165-7.819q.018-.898-.862-.752-1.054.165-1.888-.467a.495.486 60.4 0 1 .238-.88l2.273-.257q.55-.064.77-.559.302-.678.183-1.476-.064-.412.211-.742.779-.926 2.062-.724.449.073.33.513-.275.99-1.017 1.595a.752.752 0 0 0 .229 1.292l2.255.788a.275.275 0 0 1-.027.532l-2.117.458q-.467.101-.495.577zm-145.262-2.915q.825.504 1.806.614a.522.522 0 0 1 .403.77q-.495.935-1.641 1.027-.486.037-.513.532l-.44 7.855q-.037.541.486.706c1.531.477 2.521.055 3.08-1.467.788-2.127 3.043-8.891 4.803-10.055q.843-.559 1.219.385l4.885 12.356q.385.972-.632.752l-.834-.183q-1.017-.22-1.155-1.256c-.348-2.832-3.107-2.557-5.215-2.447q-.495.018-.706.477c-.66 1.467-1.091 3.584-3.327 3.529q-4.436-.119-8.9-.202a1.421 1.421 0 0 1-.77-.247c-2.31-1.577-2.887-3.859-4.766-5.316a.403.394 16.3 0 0-.642.348l.394 4.381a.623.623 0 0 1-.715.669l-.962-.147q-.669-.101-.669-.77l.009-10.257q0-1.173 1.155-1.402c2.86-.559 9.817-.587 8.469 4.537-.33 1.265-1.357 2.145-2.374 2.878q-.926.66-.357 1.65 1.577 2.741 4.821 2.035.495-.101.495-.605l.009-8.02q0-.44-.422-.55-1.082-.312-1.797-1.173a.33.33 0 0 1 .137-.522l2.777-1.017a.678.687 80 0 0 .44-.623c.028-1.512.862-2.612 2.548-2.227q.532.128.348.651-.376 1.072-1.421 1.586a.431.422 47.6 0 0-.028.752zm63.337 51.66q.064 1.127-.037 1.274-.596.917-.541-.073.037-.669.293-1.256a.147.147 0 0 1 .284.055zm-5.82-2.933a.275.275 0 0 1 .33.339q-.394 1.311-1.357 2.328-.247.266-.357-.092-.605-2.044 1.384-2.576zm-22.227 4.583l.678 1.118q.147.247-.137.302-.22.037-.403-.037-1.228-.477-2.301-1.659-.348-.376-.357-.88l-.092-4.372q-.028-1.237 1.091-.697l.394.192a1.907 1.916 13.4 0 1 1.082 1.769l-.092 3.74a.926.953 29.4 0 0 .137.522zm2.647-12.64h.073a.93.93 0 0 1 .928.941l-.074 10.632a.93.93 0 0 1-.941.928h-.073a.93.93 0 0 1-.928-.941l.074-10.632a.93.93 0 0 1 .941-.928zm-8.55 11.128a.082.082 0 0 1-.083.092h0a3.712 2.997 89.3 0 1-3.043-3.676l-.055-4.546a3.712 2.997 89.3 0 1 2.951-3.749h0a.082.082 0 0 1 .083.082zm36.737-11.861a.092.092 0 0 1 .092-.092h.009a4.235 2.924 89.7 0 1 2.942 4.216l.018 3.703a4.235 2.924 89.7 0 1-2.906 4.253h-.009a.092.092 0 0 1-.092-.092zm-7.525 7.626l3.034.257a.724.733 22.6 0 0 .632-.266l.275-.339q.275-.348.275.092l-.009 2.557a.99.981 71.8 0 1-.394.788q-1.595 1.228-1.338 3.116a.687.687 0 0 1-.458.742q-.587.202-1.219.064a.467.477 11.6 0 1-.357-.55l.926-4.95a.55.559 20.1 0 0-.257-.568l-.385-.238q-.302-.183-.385.156c-.504 1.943-1.879 3.263-1.687 5.472q.037.522-.477.541l-1.402.037q-.541.018-.651-.504-1.732-8.149-1.274-16.453a.312.312 0 0 1 .339-.293l.577.055q.513.055.522.577l.147 10.605a.431.422 50.4 0 0 .843.082q.706-3.575.229-7.14-.092-.733.642-.706l.733.027q.898.037.862.935l-.211 5.371q-.028.486.467.532zm-21.183 6.939c2.154-1.677 3.153-1.283 3.217-4.711q.119-6.059.046-11.842-.009-.724.706-.706l.44.009q.697.018.687.715c-.064 5.71.889 11.347-1.137 15.28a1.164 1.146 4.4 0 1-.697.587l-3.135.926q-.752.22-.128-.257zm29.175-17.36c5.6 1.109 5.353 6.599 5.041 11.118-.275 3.996-1.457 4.216-4.629 5.738a1.137 1.109 87.3 0 0-.587.66c-1.503 4.51-10.724 3.575-13.905 2.704-1.237-.33-1.732-1.595-1.787-2.869q-.229-5.408-.073-14.253c.037-2.365-1.751-3.63-1.897-5.665-.522-7.177 16.755-5.94 18.314-.357q.128.44-.211.742-.687.632-.742 1.558-.037.522.477.623zm-37.351-.632l-.77-2.236q-.165-.467.128-.852c2.686-3.584 8.121-3.85 12.099-3.593 2.841.183 4.684.275 5.371 3.263.788 3.419-1.467 4.29-1.43 7.159.073 4.94.385 9.863-.192 14.794-.477 4.042-10.229 3.025-12.741 2.429-2.429-.577-2.246-2.072-3.886-3.318-1.861-1.421-3.318-2.062-3.584-4.794q-.385-3.987-.018-7.965c.247-2.658 2.246-3.217 4.675-4.134a.596.596 0 0 0 .348-.752zm.147 15.289l-.147-11.797a.082.082 0 0 0-.083-.082h0a3.712 2.997 89.3 0 0-2.951 3.749l.055 4.546a3.712 2.997 89.3 0 0 3.043 3.676h0a.082.082 0 0 0 .083-.092z" fill="#fff" fill-rule="evenodd"/></svg>