<svg xmlns="http://www.w3.org/2000/svg" xmlns:xlink="http://www.w3.org/1999/xlink" viewBox="0 0 512 512"><defs><path id="icon-o" d="M142.812 235.109q6.985 0 13.065 2.716 6.08 2.587 10.607 7.114 4.527 4.527 7.114 10.607 2.716 6.08 2.716 12.935 0 6.856-2.716 12.935-2.587 6.08-7.114 10.607-4.527 4.527-10.607 7.244-6.08 2.587-13.065 2.587-6.985 0-13.065-2.587-6.08-2.716-10.607-7.244-4.527-4.527-7.244-10.607-2.587-6.08-2.587-12.935 0-6.856 2.587-12.935 2.716-6.08 7.244-10.607 4.527-4.527 10.607-7.114 6.08-2.716 13.065-2.716zm0 51.354q3.234 0 5.95-1.423 2.846-1.423 4.915-3.881 2.199-2.587 3.363-5.821 1.294-3.363 1.294-7.244 0-3.622-1.294-6.856-1.164-3.363-3.363-5.692-2.07-2.458-4.915-3.881-2.716-1.423-5.95-1.423-3.234 0-6.08 1.423-2.846 1.423-5.045 3.881-2.07 2.328-3.363 5.692-1.164 3.234-1.164 6.856 0 3.881 1.164 7.244 1.294 3.234 3.363 5.821 2.199 2.458 5.045 3.881 2.846 1.423 6.08 1.423z"/><path id="icon-b" fill="#00acc8" d="M181.889 208.527v93.912h21.344v-36.35h30.852a4.86 4.86 0 0 1 2.547.686l.025.014.023.014a9.47 9.47 0 0 1 2.545 1.992c.706.777 1.237 1.688 1.604 2.787l.021.063.025.063a7.76 7.76 0 0 1 .646 3.113c0 .976-.206 1.958-.646 2.986l-.02.045-.016.047a9.15 9.15 0 0 1-1.541 2.754c-.651.796-1.452 1.489-2.424 2.09-.794.46-1.601.68-2.533.68h-30.375l10.131 19.018h19.986c3.909 0 7.627-.733 11.105-2.197l.01-.004.008-.004c3.537-1.542 6.61-3.649 9.174-6.301 2.636-2.639 4.694-5.705 6.15-9.158 1.555-3.484 2.334-7.252 2.334-11.248 0-4.64-1.057-8.976-3.164-12.918-1.852-3.54-4.353-6.449-7.301-8.869 1.12-1.928 2.075-3.93 2.756-6.047l.002-.008.002-.008c.826-2.662 1.238-5.458 1.238-8.369 0-3.912-.78-7.636-2.332-11.113-1.454-3.536-3.516-6.611-6.164-9.174-2.56-2.646-5.634-4.706-9.166-6.16-3.48-1.554-7.206-2.334-11.121-2.334h-45.727zm21.344 19.016h24.383a4.87 4.87 0 0 1 2.549.686l.066.039.07.031a7.55 7.55 0 0 1 2.457 1.818c.706.777 1.235 1.688 1.602 2.787l.021.064.027.061c.43 1.002.645 2.067.645 3.244s-.216 2.301-.66 3.41l-.012.027-.01.029c-.357 1-.884 1.87-1.594 2.658a11.01 11.01 0 0 1-2.537 1.875c-.805.4-1.655.602-2.625.602h-24.383v-17.332z"/></defs><path d="M102.757 210.273v90.548H85.553l.129-32.468q0-3.622-1.552-6.856-1.423-3.234-3.881-5.562-2.328-2.458-5.692-3.751-3.234-1.423-6.985-1.423-3.751 0-6.985 1.423-3.234 1.294-5.692 3.751-2.328 2.458-3.751 5.692-1.423 3.234-1.423 6.985 0 3.751 1.423 6.985 1.423 3.234 3.751 5.692 2.458 2.328 5.692 3.751 3.234 1.423 6.985 1.423 1.811 0 3.622-.259 1.811-.259 3.363-1.035h.129.129l6.338 11.642-.129.129q-6.338 4.915-15.522 4.915-6.985 0-13.065-2.587-6.08-2.587-10.607-7.114-4.527-4.527-7.244-10.607Q32 275.468 32 268.612q0-6.856 2.587-12.935 2.716-6.08 7.244-10.607 4.527-4.527 10.607-7.114 6.08-2.587 13.065-2.587 13.194 0 20.179 9.831v-34.926z"/><use xlink:href="#icon-o"/><use xlink:href="#icon-b"/><use xlink:href="#icon-b" x="85"/><use xlink:href="#icon-o" x="241.023"/><path d="M411.442 300.821l17.333-23.542 15.781 7.244-12.03 16.299zm44.757-32.08L480 300.821h-21.214v-.129l-23.542-31.821-23.672-32.727h20.955l13.065 21.99 13.194-21.99H480l-.259.129z"/></svg>