<svg xmlns="http://www.w3.org/2000/svg" viewBox="0 0 1000 622"><path d="M497.27 0h5.57c11.96 1.3 22.84 5.93 34.18 9.63 14.08 4.59 27.75 3.2 42.23 3.02 18.93-.23 30.98 9.13 44.88 20.23q11.61 9.28 25.89 13.48c12.73 3.74 27.37 7.34 37.06 16.55 8.45 8.03 15.41 20.64 22.02 28.98 6.69 8.45 16.44 14.9 25.5 21.03 11.18 7.55 19.43 15.73 23.83 28.84q3.62 10.81 7.04 21.69c4.7 14.98 14.72 25.89 23.82 38.28q.76 1.04-.52 1.04l-26.05-.01a.73.73 0 0 1-.67-.44c-62.44-147-229.51-215.05-376.46-150.98-66.49 28.99-119.48 84.07-147.6 150.76q-.27.66-.99.66h-25.53q-1.65 0-.65-1.31 8.17-10.76 15.9-21.24c7.84-10.61 11-28.16 15.34-39.94 8.31-22.55 28.36-27.72 43.93-43.04 15.78-15.53 20.58-36.51 44.54-44.63q11.17-3.78 22.48-7.12c13.46-3.98 25.37-14.85 37.04-23.2q13.91-9.95 31.2-9.65 10.63.18 21.25.41c19.06.41 35.75-11.05 54.77-13.04zm30 34.96c101.01 9.85 187.89 74.55 227.94 167.42q.17.38-.25.38H245.18q-.59 0-.36-.55C293.15 91.2 405.62 23.08 527.27 34.96zm-52.81 134.53q.45-.63 1.11-1.08a1.48 1.48 0 0 0 .64-1.22l-.01-52.91q0-.42.3-.71c1.52-1.41 4.15-1.75 3.26-4.53q-.17-.53-.72-.53h-15.91q-.61 0-.62.61l-.02 1.57q-.01.53.42.83l2.99 2.06q.34.24.34.65v55.29q0 .55-.44.86c-1.72 1.26-4.72 2.16-3.96 4.87q.14.5.66.5l33.99-.01a.49.48 0 0 0 .49-.48l-.01-14.03q0-.5-.49-.5l-3.19-.01q-.52-.01-.7.49l-2.68 7.6q-.38 1.1-1.55 1.11l-13.63.07q-.63.01-.27-.5zm52.47-9.45l2.47 10.47q.34 1.43-1.06 1.87-2.08.65-1.81 2.76a.7.69-3.8 0 0 .69.6l14.42.01a.64.64 0 0 0 .64-.64l.01-1.55q0-.54-.46-.84l-2.2-1.43q-.48-.31-.61-.86l-13.54-54.93a.75.75 0 0 0-.73-.57l-8.11-.01a.7.7 0 0 0-.68.53q-6.71 27.39-13.11 55.1-.3 1.32-2.64 1.93a.92.91-7.1 0 0-.68.87l-.03 1.76q-.01.63.62.63l10.86.01q.45 0 .62-.42c1.01-2.56-1.23-2.81-2.74-3.76a.69.68-67 0 1-.29-.73l2.57-10.81a.65.65 0 0 1 .63-.5h14.51q.53 0 .65.51zm-14.48-6l6.21-27.19a.32.32 0 0 1 .62 0l6.21 27.19a.32.32 0 0 1-.32.39h-12.4a.32.32 0 0 1-.32-.39zM1000 206.82v.64q-11.63 42.61-22.81 85.26-.54 2.02.01 4.04 11.29 42.02 22.62 84.47.2.76-.58.76H.74a.61.6-82.6 0 1-.58-.76q11.44-42.58 22.63-84.7.54-2.02.01-4.04Q11.52 249.94 0 207.4q0-.29 0-.58h1000zm-39.78 26.67a2.27 2.27 0 0 0-2.27-2.27H38.85a2.27 2.27 0 0 0-2.27 2.27v.02a2.27 2.27 0 0 0 2.27 2.27h919.1a2.27 2.27 0 0 0 2.27-2.27v-.02zm-817.78 22.56l4.35 14.68a.72.71-8.1 0 0 .69.51h5.5q.47 0 .46-.47l-.55-23.15a.6.59 89 0 0-.59-.58l-54.28.01a.44.44 0 0 0-.44.43l-.48 23.18q-.01.58.56.58l5.23.01q.66 0 .84-.64l4-14.42q.17-.64.83-.64l9.07.01q.56 0 .56.57v76.84q0 .5-.41.79l-5.24 3.66a1.2 1.19-23.3 0 0-.49 1.21q.31 1.56-.03 3.12a.49.49 0 0 0 .48.59h25.51a.35.35 0 0 0 .35-.35v-3.63q0-.59-.48-.93l-5.07-3.59q-.47-.33-.47-.91v-76.69q0-.68.67-.68l8.76-.01a.7.7 0 0 1 .67.5zm384.938 21.343a22.02 22.02 0 0 0-21.982-22.058l-5.4-.009a22.02 22.02 0 0 0-22.058 21.981l-.077 44.08a22.02 22.02 0 0 0 21.981 22.058l5.4.009a22.02 22.02 0 0 0 22.058-21.982l.077-44.08zM802.68 260.01a.41.41 0 0 1-.67.22c-5.91-5.04-15.15-5.47-22.29-3.48-9.85 2.76-15.43 10.48-15.44 20.76q-.01 18.89 0 37.8.01 10.49 1.56 14.72c5.01 13.76 23.21 16.49 35.37 11.42 9.99-4.17 12.61-13.43 11.98-23.76q-.03-.45-.48-.45h-12.45q-.5 0-.5.51c-.04 9.42.11 18.36-12.5 17.4-8.27-.63-9.69-8.09-9.7-14.9q-.05-21.5.16-43c.08-8.31 4.54-14.66 13.78-12.68 7.01 1.51 7.89 9.23 7.58 15.26q-.02.49.46.49l12.38.01q.5 0 .5-.5l.01-22.98q0-.57-.58-.57h-7.65q-.7 0-.85.68l-.67 3.05zm-599.7 59.67a.4.4 0 0 1 .39-.31l21.39-.01a.4.4 0 0 1 .39.31l3.85 16.31a.4.4 0 0 1-.17.42l-3.89 2.58a.4.4 0 0 0-.18.33l-.01 2.63a.4.4 0 0 0 .4.4l21.43-.01a.4.4 0 0 0 .4-.4v-3.24a.4.4 0 0 0-.18-.33l-4.08-2.72a.4.4 0 0 1-.17-.24l-19.44-78.9a.4.4 0 0 0-.39-.3l-12.66.01a.4.4 0 0 0-.39.31l-18.84 79.33a.4.4 0 0 1-.2.26l-3.96 2.15a.4.4 0 0 0-.21.35l-.02 3.33a.4.4 0 0 0 .4.4h16.37a.4.4 0 0 0 .4-.4v-3.33a.4.4 0 0 0-.22-.36l-4.04-1.98a.4.4 0 0 1-.22-.45l3.85-16.14zm667.76.07a.5.5 0 0 1 .49-.38l21.24-.01a.5.5 0 0 1 .49.39l3.8 16.17a.5.5 0 0 1-.21.53l-3.74 2.47a.5.5 0 0 0-.22.41l-.05 2.5a.5.5 0 0 0 .5.51h21.21a.5.5 0 0 0 .5-.5l.02-3.12a.5.5 0 0 0-.23-.42l-4.02-2.63a.5.5 0 0 1-.21-.3l-19.39-78.78a.5.5 0 0 0-.48-.38l-12.51-.01a.5.5 0 0 0-.49.38l-18.8 79.2a.5.5 0 0 1-.24.32l-3.89 2.19a.5.5 0 0 0-.26.43l.01 3.12a.5.5 0 0 0 .5.5h16.17a.5.5 0 0 0 .5-.5l.02-3.1a.5.5 0 0 0-.27-.45l-3.96-2.02a.5.5 0 0 1-.26-.56l3.78-15.96zM293.23 264.2v70.2q0 .48-.4.76l-4.58 3.25q-.41.29-.42.79l-.02 2.5q0 .64.64.64l22.27-.01q.55 0 .55-.55l-.01-2.62q0-.42-.34-.68l-4.37-3.26q-.46-.35-.46-.93l-.01-22.57a.5.49-89.4 0 1 .5-.5c10.12.21 24.74.54 29.63-10.47q1.55-3.49 1.62-12.22c.05-6.09.65-14.23-1.02-19.27-3.16-9.56-13.05-12.64-22.31-12.67q-12.66-.04-25.34-.04-.47 0-.47.47l.01 2.74a.93.89 19.3 0 0 .35.69l3.77 2.91q.41.31.41.84zm108.52 31.07v-30.79a.28.27-90 0 1 .27-.28h15.25a.78.78 0 0 1 .76.56l3.16 10.47q.14.48.63.48l5.3.02q.6.01.6-.6v-18.12a.46.46 0 0 0-.46-.46l-42.84.01q-.52 0-.51.52l.05 2.21a1.12 1.12 0 0 0 .44.85l3.66 2.71q.41.31.41.83v70.83q0 .41-.33.64l-4.72 3.32a.86.85 66.9 0 0-.35.87q.25 1.19.02 2.37a.53.53 0 0 0 .52.63h45.4q.36 0 .36-.36v-18.19q0-.58-.58-.58h-4.56a.86.85-79.6 0 0-.8.56l-3.87 10.25a.92.9-78.9 0 1-.86.59q-9.51-.1-19.2.01-.36.01-.48-.35-.16-.52.36-.66c1.68-.46 2.37-1.4 2.36-3.2q-.02-13.16.02-26.37 0-.49.49-.49l10.1-.01a.89.88-14.1 0 1 .78.46l2.92 5.27a1.08 1.06 74.4 0 0 .97.56l2.69-.04q.48-.01.48-.5l.01-19.57q0-.48-.49-.48l-2.95-.01q-.44 0-.63.39l-2.96 5.79a.75.74-76.1 0 1-.66.4l-10.24-.01a.53.52-90 0 1-.52-.53zm204.55-30.33a.38.38 0 0 1 .38-.38l7.82-.01a.38.38 0 0 1 .36.27l4.18 13.2a.38.38 0 0 0 .36.27l5.45-.01a.38.38 0 0 0 .38-.39l-.58-20.97a.38.38 0 0 0-.38-.37l-49.49.01a.38.38 0 0 0-.38.37l-.35 20.95a.38.38 0 0 0 .38.39l5.38.01a.38.38 0 0 0 .36-.27l3.92-13.2a.38.38 0 0 1 .36-.27l8.04.02a.38.38 0 0 1 .38.38l-.01 68.98a.38.38 0 0 1-.15.3l-4.84 3.66a.38.38 0 0 0-.15.3l-.02 3.78a.38.38 0 0 0 .38.38h22.95a.38.38 0 0 0 .38-.38l-.03-3.74a.38.38 0 0 0-.14-.29l-4.8-3.78a.38.38 0 0 1-.14-.29v-68.92zm81.69 30.33v-30.79a.28.27 0 0 1 .28-.27l15.5-.02q.34 0 .44.33l3.2 10.6a.88.86-7.9 0 0 .84.62l5.35-.05a.38.38 0 0 0 .38-.38v-18.29q0-.46-.46-.46l-42.57-.01q-.57 0-.69.55c-.76 3.27 1.98 4.14 4.07 5.8a1.08 1.06-71 0 1 .4.84v70.64a.96.94 73 0 1-.4.78l-4.57 3.28q-.4.29-.39.78l.01 2.52q.01.6.61.6H715q.6 0 .6-.59l.01-17.96q0-.57-.57-.58h-4.55a.86.84-79.4 0 0-.79.55l-3.85 10.16a1.06 1.06 0 0 1-1.01.69q-9.72-.13-19.09.07-.49.01-.43-.52.05-.51.53-.66c1.51-.47 2.14-1.38 2.14-3.02q0-13.15 0-26.4 0-.53.52-.53l10.06-.01a1.04 1.02-13.9 0 1 .91.54l2.82 5.27a.89.88 75.9 0 0 .78.47l2.7-.01a.59.59 0 0 0 .59-.59l.01-19.54q0-.44-.44-.44h-2.8q-.62-.01-.89.55l-2.81 5.61a.74.73 12.9 0 1-.66.41l-10.26-.02q-.53 0-.53-.52zm-624.08 7.15a.34.34 0 0 1 .32 0l5.65 3.06a.34.34 0 0 0 .5-.37l-1.24-6.24a.34.34 0 0 1 .1-.31l4.67-4.4a.34.34 0 0 0-.19-.58l-6.31-.89a.34.34 0 0 1-.26-.19l-2.77-5.79a.34.34 0 0 0-.61 0l-2.7 5.76a.34.34 0 0 1-.26.2l-6.37.93a.34.34 0 0 0-.19.58l4.66 4.39a.34.34 0 0 1 .1.31l-1.22 6.22a.34.34 0 0 0 .5.37l5.62-3.05zm876.7-9.76a.35.35 0 0 1-.26-.2l-2.75-5.69a.35.35 0 0 0-.63.01l-2.65 5.68a.35.35 0 0 1-.27.2l-6.36.96a.35.35 0 0 0-.18.6l4.64 4.27a.35.35 0 0 1 .1.32l-1.24 6.27a.35.35 0 0 0 .52.37l5.6-3.07a.35.35 0 0 1 .34 0l5.66 3.13a.35.35 0 0 0 .51-.37l-1.27-6.28a.35.35 0 0 1 .1-.32l4.62-4.33a.35.35 0 0 0-.18-.6l-6.3-.95zm19.6 64.02a2.33 2.33 0 0 0-2.33-2.33H38.94a2.33 2.33 0 0 0-2.33 2.33v.02a2.33 2.33 0 0 0 2.33 2.33h918.94a2.33 2.33 0 0 0 2.33-2.33v-.02zM514.23 321.5c-.02 17.38-22.93 18.84-22.99.5q-.11-35.5.07-46.48.15-9.45 8-11.38c10.03-2.47 14.89 5.3 14.9 14.13q.04 21.61.02 43.23z"/><path d="M306.09 264.79a.37.37 0 0 1 .37-.37h8.37a10.06 9.74 90 0 1 9.74 10.06v19.32a10.06 9.74 90 0 1-9.74 10.06h-8.37a.37.37 0 0 1-.37-.37v-38.7zm-101.41 46.89l8.97-39.12a.32.32 0 0 1 .62 0l8.97 39.12a.32.32 0 0 1-.31.39h-17.94a.32.32 0 0 1-.31-.39zm676.6-38.45q.47-2.08.95 0l8.76 38.26q.13.58-.47.58l-17.74.02a.31.31 0 0 1-.3-.38l8.8-38.48zM502.74 622h-5.6c-19.38-2.09-36.15-13.61-55.64-13.03-15.62.46-32.04 2.1-46.13-5.83-9.21-5.18-18.4-13.47-26.69-19.07-18.9-12.77-44.6-10.21-60.48-30.04-10.08-12.58-17.86-28.06-31.44-37.07-12.95-8.58-25.23-16.2-31.7-28.51-5.32-10.16-8.13-23.94-11.6-33.44-4.02-11.03-13.7-23.01-20-30.99q-13-16.45-11.55-37.66.02-.3.32-.3h23.51a.88.87-7.9 0 1 .84.63c27.43 98.22 106.57 176.09 206.1 200.07 149.16 35.93 299.56-52.34 340.75-200.09a.83.83 0 0 1 .8-.61h23.51a.34.34 0 0 1 .34.32c1.06 15.29-3.2 26.75-12.81 39.17q-8.45 10.92-12.96 17.77c-8.5 12.92-9.73 28.51-16.64 43.62-6.06 13.28-18.99 20.78-32.3 29.93q-7.34 5.06-14.04 12.96c-9.86 11.64-16.81 28.6-32.68 36.57-10.16 5.09-23.39 7.78-33.16 11.4-19.8 7.33-32.54 27.31-53.97 30.73q-7.27 1.16-18.52.65c-11.54-.51-21.75-.54-32.48 2.66-10.47 3.13-23.02 8.81-35.78 10.16zm94.4-51.11c-151.95 57.14-319.98-29.33-363.99-184.35a.37.37 0 0 1 .35-.47h532.98a.49.48 8 0 1 .47.62c-24.92 84.88-87.02 153.07-169.81 184.2zM349.09 412l.04 23.4a.97.97 0 0 0 .97.97l5.73-.01a4.06 3.89-.1 0 0 4.06-3.9l-.04-17.56a4.06 3.89-.1 0 0-4.06-3.88l-5.73.01a.97.97 0 0 0-.97.97zm167.23 1.46a.53.53 0 0 1 .53.53l-.05 21.88a.53.53 0 0 0 .54.54l1.69-.02a.53.53 0 0 0 .53-.53l-.04-21.88a.53.53 0 0 1 .53-.53l3.43.03a.53.53 0 0 0 .53-.47l.15-1.29a.53.53 0 0 0-.52-.59l-10.83-.02a.53.53 0 0 0-.53.51l-.04 1.32a.53.53 0 0 0 .53.55l3.55-.03zm106.69 4.47l-3.73-.08a2.08 2.08 0 0 0-2.12 2.08l-.01 14.31a2.09 2.09 0 0 0 2.08 2.09l5.36.02q1.69.01 1.69-1.69l.01-22.73q0-.87-.86-.88l-.92-.01q-.96-.01-.94.95l.12 5.25a.67.67 0 0 1-.68.69zm-207.34-5.21a.44.44 0 0 0-.35-.75l-2.99.28a.44.44 0 0 0-.32.18l-2.44 3.42a.44.44 0 0 0 .34.7l1.65.08a.44.44 0 0 0 .33-.13l3.78-3.78zm-43.953 1.087a.67.67 0 0 0-.662-.678l-1.48-.018a.67.67 0 0 0-.678.662l-.034 2.78a.67.67 0 0 0 .662.678l1.48.018a.67.67 0 0 0 .678-.662l.034-2.78zm27.536-.135a.55.55 0 0 0-.549-.551l-1.64-.003a.55.55 0 0 0-.551.549l-.005 2.98a.55.55 0 0 0 .549.551l1.64.003a.55.55 0 0 0 .551-.549l.005-2.98zm43.937 19.808l-.03-12.51q0-.53.52-.59l.86-.11q.72-.08.71-.81l-.02-.94a.73.72.4 0 0-.71-.71l-.85-.01a.6.59 2.3 0 1-.59-.63l.17-2.94q.06-1.16-1.1-1.13l-.83.03q-1.02.03-.97 1.05l.16 3.03q.03.5-.47.55l-1.08.12a.74.73 88.2 0 0-.65.7l-.05 1.15a.51.5 3.6 0 0 .47.52l1.23.1q.51.04.51.55-.04 5.85-.04 11.75c0 2.88 1.59 4.34 4.41 3.68q.42-.1.63-.48.35-.63.12-1.24-.23-.6-.88-.6h-.98a.53.53 0 0 1-.54-.53zm30.79-13.05q.48-.18 1.01-.15.58.03.72-.52.16-.61.02-1.22-.12-.55-.68-.63l-.87-.14q-.72-.11-.67-.84l.18-2.67q.06-1-.93-1.1l-.75-.07q-1.27-.12-1.19 1.15l.19 2.98a.52.52 0 0 1-.48.55l-1.21.09q-.53.04-.54.57l-.01 1.32q-.01.48.48.52l1.13.08q.57.04.56.61-.06 6.01-.12 12.07-.04 4.09 4.57 3.28a.88.88 0 0 0 .73-.83l.03-.62q.03-.81-.79-.82l-1.11-.01a.66.66 0 0 1-.66-.66l-.02-12.36q0-.43.41-.58zm-89.52 9.09q-.44 2.07-.77-.02l-1.7-10.76a1.09 1.08 87.3 0 0-.99-.91l-.76-.06q-1.08-.08-.89.99l3.07 16.95a.78.78 0 0 0 .64.63q1.1.19 2.2-.05.45-.09.54-.55l3.05-16.98q.18-1.01-.84-.98l-.56.02a1.19 1.19 0 0 0-1.14 1.02q-.79 5.8-1.85 10.7zm26.76-1.76l5.53-.01q.5 0 .5-.5v-6.36a3.15 3.15 0 0 0-3.37-3.13l-2.71.2q-3.14.22-3.14 3.37v12.6a2.42 2.41-89.9 0 0 2.4 2.42l3.88.01a2.49 2.48-89.1 0 0 2.49-2.42l.1-3.73q.03-.98-.94-.98h-.91q-.96 0-.92.97l.13 2.94q.04.95-.9.93l-1.89-.03q-.81-.02-.8-.82l.02-4.94q0-.52.53-.52zm17.67-7.52l2 .01q.9 0 .89-.89v-.62a.9.89 2.4 0 0-.82-.89c-2.02-.17-5.19-.13-5.22 2.72q-.09 7.76-.14 15.24-.01.65.64.63l1.51-.05q.57-.02.57-.6l-.05-14.93q0-.62.62-.62zm26.52 8.31q0-.78.79-.79l5.27-.01a.48.48 0 0 0 .47-.48l-.1-6.48a3.06 3.06 0 0 0-3.05-3.01h-2.95q-3.12 0-3.12 3.13v12.91a2.55 2.55 0 0 0 2.59 2.55l3.67-.05a2.6 2.59-89.9 0 0 2.55-2.55l.07-3.59q.01-.92-.91-.94l-.93-.02q-1.04-.02-1.01 1.02l.11 3.07a.68.67-1.3 0 1-.67.69l-1.96.04q-.82.01-.82-.81v-4.68zm30.43.17q0-.95.94-.95l5.19-.02q.47 0 .47-.47l-.03-6.32a3.19 3.19 0 0 0-3.19-3.18h-2.74q-3.23.01-3.23 3.24l-.01 12.93a2.42 2.42 0 0 0 2.46 2.42l4.19-.07a2.22 2.22 0 0 0 2.18-2.19l.05-4.07a.82.81 0 0 0-.83-.82l-1.31.02a.74.74 0 0 0-.72.78l.17 3.29a.63.63 0 0 1-.6.66l-1.99.09q-1 .04-1-.97v-4.37zm48.91-4.23l-3.4.01a2.66 2.65-.1 0 0-2.65 2.65l.01 7a2.2 2.19 89.9 0 0 2.19 2.19h5.43q1.71 0 1.64-1.71-.26-5.83-.12-13.25c.03-1.57-.72-3.53-2.37-3.57-3.8-.11-7.59-.14-6.4 5.24q.15.68.84.6l1.29-.15q.64-.08.59-.71l-.14-1.73a.79.79 0 0 1 .79-.85l2.05.03q.75 0 .75.76v2.99q0 .49-.5.5zm15.03 11.87l3.18-.02a2.81 2.8-.2 0 0 2.79-2.8l-.01-14.29a1.3 1.29.5 0 0-1.28-1.29l-6.73-.1q-1.17-.02-1.17 1.16l-.01 22.03q0 .75.75.75l1.21.01q.82 0 .79-.82l-.11-4.02q-.02-.61.59-.61zm17.69-8.59l5.54-.02q.52 0 .52-.52l-.03-6.34a3.12 3.11 89.9 0 0-3.11-3.11h-2.9q-3.13.01-3.16 3.14-.05 5.87-.03 11.89c.02 4.45 3.53 3.52 6.47 3.51a2.43 2.43 0 0 0 2.43-2.41l.02-3.83q.01-.91-.89-.87l-1.33.06q-.7.03-.66.73l.19 2.98a1 1 0 0 1-1.01 1.06l-1.53-.01q-1.04 0-1.04-1.04v-4.71q0-.51.52-.51zm20.41-6.9l.01 2.95q0 .63-.63.65c-2.9.1-5.9-.59-5.92 3.55q-.02 2.8.15 6.24a2.18 2.18 0 0 0 2.19 2.08l5.18-.01q1.68 0 1.68-1.69l.02-14.34a2.52 2.52 0 0 0-2.57-2.52l-3.94.07a2.37 2.37 0 0 0-2.33 2.34l-.05 2.77a.72.71-2.5 0 0 .79.72l1.22-.12q.89-.09.78-.98l-.19-1.56q-.11-.81.71-.8l2.27.02q.63 0 .63.63zm17.85-.14l-.03 15.08q0 .62.62.62l1.44-.01q.69 0 .69-.69l-.01-15.24q0-2.7-2.7-2.71h-3.75q-2.73 0-2.73 2.73l-.02 15.5a.38.38 0 0 0 .39.38l1.91-.05q.37-.01.36-.38l-.06-15.15q-.01-.59.59-.59h2.8q.5 0 .5.51zm38.529-.048a2.89 2.89 0 0 0-2.895-2.885l-3.42.006a2.89 2.89 0 0 0-2.885 2.895l.022 12.78a2.89 2.89 0 0 0 2.895 2.885l3.42-.006a2.89 2.89 0 0 0 2.885-2.895l-.022-12.78zM371.68 418.54a.5.5 0 0 0-.5-.5h-1.78a.5.5 0 0 0-.5.5v17.34a.5.5 0 0 0 .5.5h1.78a.5.5 0 0 0 .5-.5v-17.34zm27.57.03a.55.55 0 0 0-.55-.55h-1.64a.55.55 0 0 0-.55.55v17.28a.55.55 0 0 0 .55.55h1.64a.55.55 0 0 0 .55-.55v-17.28zm91.21 54.47l-.32.32q-.34.35-.05.74 1.64 2.17 3.46 4.21c1.2 1.34 2.56 1.43 4.22 1.9a.86.86 0 0 1 .37 1.44l-8 7.97a.93.93 0 0 0 .07 1.38l.29.25a1.5 1.5 0 0 0 2.08-.17l6.91-7.84a.68.68 0 0 1 1.01-.01l7.59 8.23a1.39 1.38 47.2 0 0 1.97.08l.35-.33a.91.91 0 0 0 0-1.34l-8.76-8.07a.43.43 0 0 1 .23-.74q.78-.12 1.45-.72 3.63-3.22 6.48-7.18a1.32 1.31 38.9 0 0-.19-1.74l-.26-.23a.56.56 0 0 0-.78.02l-8.21 8.22a.88.88 0 0 1-1.36-.14q-.81-1.23-.87-2.72a1.23 1.23 0 0 0-.42-.88l-4.87-4.21q-.44-.38-.91-.05-.67.45-1.06 1.08-.18.29-.42.53zm-134.601 23.481a.53.53 0 0 0-.08-.745l-6.677-5.388a.53.53 0 0 0-.745.08l-.816 1.012a.53.53 0 0 0 .08.745l6.677 5.388a.53.53 0 0 0 .745-.08l.816-1.012zm295.776-5.775a.75.75 0 0 0-1.055-.111l-6.466 5.236a.75.75 0 0 0-.111 1.055l.541.668a.75.75 0 0 0 1.055.111l6.466-5.236a.75.75 0 0 0 .111-1.055l-.541-.668zM418.09 526.89l-6.51 15.49a.63.63 0 0 1-.85.32l-1.69-.8q-.86-.42-1.14.5l-.19.59q-.23.75.5 1.06l6.82 2.85a.75.74-67.3 0 0 .97-.4l.29-.66q.33-.79-.46-1.12l-1.7-.69q-.62-.25-.37-.87l9.34-22.44a.61.61 0 0 1 .85-.3l1.35.74q.56.3.8-.29l.44-1.09q.25-.62-.37-.87l-3.02-1.2a1.43 1.42-59.9 0 0-1.64.44l-14.09 17.41q-.66.8-.57-.23l1.93-22.34q.1-1.15-.95-1.61l-2.75-1.22a.86.85-68.8 0 0-1.15.51l-.26.75q-.24.68.44.91l1.38.48a.62.62 0 0 1 .37.83l-9.37 22.61q-.22.52-.72.26l-1.45-.77a.66.65-55 0 0-.81.15q-.48.56-.59 1.31-.08.49.38.69l6.05 2.54q.96.4 1.46-.51l.13-.22q.5-.91-.46-1.29l-1.43-.57q-.6-.24-.35-.83l5.93-14.46q1.68-4.1 1.17.3-.77 6.65-1.69 15.88-.17 1.67 1.16 2.13a.94.94 0 0 0 1.03-.3l11.23-14q1.47-1.84.56.33zm188.37 8.53a.4.39-40.3 0 1-.58-.04q-7.79-9.93-15.55-19.73-.63-.8-1.68-.24a.83.83 0 0 0-.43.87l3.85 24.76q.08.46-.34.67l-1.34.69q-.75.39-.47 1.19l.17.46a.79.78-21.7 0 0 1.06.45l5.39-2.38q.79-.34.49-1.15l-.1-.26q-.29-.79-1.11-.6l-.93.22q-.68.17-.78-.52l-.61-4.27a.56.55 73.9 0 1 .33-.6l5.97-2.67a.69.67-31.3 0 1 .79.18l2.9 3.45a.55.54-32.9 0 1-.19.84l-1.08.51a.83.83 0 0 0-.42 1.04l.22.57a.82.82 0 0 0 1.1.45l5.73-2.59q.56-.25.38-.84l-.19-.62q-.18-.58-.78-.57-1.04.02-1.8.73zm-50-6.11a.46.46 0 0 1 .54.33l5.65 21.11a.46.46 0 0 1-.35.56l-2.07.47a.46.46 0 0 0-.35.52l.22 1.35a.46.46 0 0 0 .57.37l7.48-1.99a.46.46 0 0 0 .33-.57l-.36-1.3a.46.46 0 0 0-.58-.32l-2.11.63a.46.46 0 0 1-.57-.32l-5.66-21.11a.46.46 0 0 1 .32-.56l2.06-.58a.46.46 0 0 0 .32-.55l-.3-1.31a.46.46 0 0 0-.57-.34l-7.06 1.92a.46.46 0 0 0-.33.53l.26 1.23a.46.46 0 0 0 .54.36l2.02-.43zm-95.88 3.83l1.34.15a.59.59 0 0 0 .64-.45l.19-.74q.21-.86-.65-1.03l-5.59-1.12q-.72-.15-.84.57l-.14.81q-.12.69.56.83l1.11.23q.66.13.51.79-1.94 8.73-3.96 17.45c-1.45 6.23-9.31 3.94-8.1-1.89q1.76-8.39 3.63-17.28.18-.86 1.02-.62l1.23.37a.61.61 0 0 0 .77-.48l.19-1.15a.54.53-79.9 0 0-.42-.61l-6.29-1.29q-.93-.19-1.14.73l-.06.27q-.19.82.61 1.07l1.33.42q.65.2.5.87-1.86 8.33-3.53 16.71c-1.48 7.46 6.96 12.5 11.32 6.24q1.13-1.61 2-5.88 1.48-7.24 3.1-14.49.12-.55.67-.48zm69.51-.17c-13.25-3.18-9.03 11.23-8.26 17.82.68 5.81 2.36 10.92 9.35 8.92 4.44-1.26 4.85-5.76 3.91-9.62q-.1-.43-.54-.38l-1.03.13q-.81.09-.7.89l.42 3.06q.52 3.78-3.29 3.92l-1.38.05q-3.26.12-3.79-3.1-1.21-7.48-1.82-13.81c-.76-7.92 7.71-8.68 8.44-.72q.08.93 1 .77l.32-.05q1.1-.19.97-1.3l-.82-7.06q-.06-.52-.55-.71-.54-.22-1.16.13-.19.11-.28.31-.1.19-.17.41-.15.46-.62.34zm-42.93 17.09c8.13-.9 4.38 12.75 11.43 11.32a.97.95-86 0 0 .71-.63q.27-.78.12-1.56-.09-.47-.57-.47-.25 0-.5.15-1.3.73-1.82-.66l-2.99-7.95q-.16-.44.26-.63 2.74-1.24 3.14-4.4c1.54-12.24-4.38-11.29-13.72-11.56q-.93-.02-.95.91v.39q-.02.75.73.81l1.22.09q.74.06.71.79l-.77 21.46q-.02.52-.54.52l-1.82-.01q-.82 0-.8.82v.57q.01.75.76.79l6.99.42q.5.03.52-.48l.03-1.22q.02-.53-.52-.59l-1.9-.21q-.53-.06-.51-.59l.35-7.6q.01-.43.44-.48z"/><rect x="351.89" y="413.47" width="5.24" height="20.54" rx=".81"/><rect x="-1.93" y="-2.63" transform="matrix(.999986 -.005236 .005236 .999986 412.58 422.87)" width="3.86" height="5.26" rx=".53"/><rect x="-1.94" y="-2.63" transform="matrix(.999994 -.003491 .003491 .999994 457.3 422.87)" width="3.88" height="5.26" rx=".49"/><rect x="-1.96" y="-2.63" transform="matrix(.999976 .006981 -.006981 .999976 487.78 422.87)" width="3.92" height="5.26" rx=".53"/><rect x="-1.91" y="-6.88" transform="matrix(.999998 -.001745 .001745 .999998 551.15 427.17)" width="3.82" height="13.76" rx=".55"/><rect x="-1.93" y="-2.63" transform="matrix(.999994 -.003491 .003491 .999994 568.87 422.87)" width="3.86" height="5.26" rx=".52"/><rect x="619.76" y="420.28" width="3.88" height="13.74" rx=".53"/><rect x="-1.9" y="-6.9" transform="matrix(.999998 .001745 -.001745 .999998 639.63 427.13)" width="3.8" height="13.8" rx=".59"/><rect x="531.39" y="426.76" width="3.86" height="7.26" rx=".43"/><rect x="-1.91" y="-3.63" transform="matrix(.999998 -.001745 .001745 .999998 585.93 430.39)" width="3.82" height="7.26" rx=".59"/><rect x="-1.19" y="-2.7" transform="matrix(.714473 -.699663 .699663 .714473 493.37 474.79)" width="2.38" height="5.4" rx=".66"/><path d="M593.03 532.43l-1.88-11.29a.33.33 0 0 1 .58-.25l6.97 9.07a.33.33 0 0 1-.13.5l-5.08 2.22a.33.33 0 0 1-.46-.25zm-105.84 4.28a.59.59 0 0 1 .61-.57l3.41.12a3.83 3.49 1.9 0 1 3.72 3.61l-.16 4.7a3.83 3.49 1.9 0 1-3.94 3.36l-3.42-.11a.59.59 0 0 1-.57-.61l.35-10.5z"/></svg>