<svg xmlns="http://www.w3.org/2000/svg" viewBox="0 0 100 100" fill="#253a8b"><path d="M57.814 7.633a.7.7 0 0 1-.33.93l-.11.05a2.88 2.98 64.2 0 1-3.93-1.29l-.08-.16a2.88 2.98 64.2 0 1 1.43-3.89l.11-.06a.7.7 0 0 1 .93.33z"/><ellipse cx="-25.337" cy="-38.389" transform="rotate(131.1)" rx="3.14" ry="2.1"/><path d="M33.754 45.003c-10-4.89-8.23-16.67-2.99-24.26 2.67-3.87 7.72-9.73 12.42-10.9a1.79 1.78 86.9 0 1 2.2 1.98q-1.47 10.49-.14 20.99c.71 5.66-1.31 11.04-7.65 12.45q-2.29.5-3.84-.26zm20.3-1.08c-7.9-5.76-1.64-18.6-1.47-26.23.06-2.22-.65-9.28 3.91-7.4q2.78 1.15 3.99 2.64c5.56 6.79 15.5 21.38 6.55 29.57-3.35 3.07-9.03 4.3-12.98 1.42zm-32.38-15.52a.53.53 0 0 1 .71-.21l.18.09a2.87 2.83 28.3 0 1 1.18 3.86l-.01.03a2.87 2.83 28.3 0 1-3.87 1.13l-.18-.09a.53.53 0 0 1-.21-.72zm55.57.97l1.45 2.93a1.17 1.17 0 0 1 .12.5l.02 1.52a1.17 1.17 0 0 1-1.69 1.06l-1.36-.68a1.17 1.17 0 0 1-.64-1.01l-.12-3.77a1.17 1.17 0 0 1 2.22-.55zm-54.16 43.27c-7.67-2.17-10.05-14.72-9.26-21.58q.3-2.53 1.78-6.31c1.23-3.12 2.01-7.02 4.42-9.48a.87.86 30.7 0 1 .88-.22q1.64.52 2.01 2.26 2.04 9.66 9.39 15.8 1.93 1.6 3.91 5.86c3.83 8.18-5.39 15.86-13.13 13.67zm46.73-23.35c3.14-3.02 4.71-7.62 5.43-12a1.86 1.87 24.9 0 1 3.05-1.12c5.61 4.79 7.72 12.9 8.01 19.93.4 9.81-7.05 16.02-16.74 15.55-4.78-.23-8.08-3.6-7.85-8.49.26-5.8 3.81-9.75 8.1-13.87zm-38.44 43.67c-3.89-4.11.8-9.24 3.77-12.99 2.19-2.76 2.71-5.49 3.38-8.78 1.7-8.26 10.42-9.5 16.27-4.81 3.89 3.12 4.7 9.93 8.37 14.03 2.16 2.4 4.63 4.34 3.68 8.18-1.08 4.37-5.37 6.31-9.79 7.16-6.44 1.24-20.62 2.54-25.68-2.79z"/></svg>