<svg xmlns="http://www.w3.org/2000/svg" viewBox="0 0 210 210"><path d="M37.87 130.475h6.907v5.742H37.87v9.237h-8.155v-24.382h15.311v5.825H37.87zm9.902-4.577c.25-.499.666-1.165 1.165-1.831s1.165-1.165 1.997-1.664 1.831-.999 2.829-1.331 2.413-.499 3.911-.499 2.746.166 3.911.499 2.08.832 2.829 1.331c.832.499 1.415 1.082 1.997 1.664.499.666.915 1.248 1.165 1.831v14.729c-.25.499-.666 1.165-1.165 1.831s-1.165 1.165-1.997 1.664-1.831.999-2.829 1.331c-1.165.333-2.413.499-3.911.499s-2.746-.166-3.911-.499-2.08-.832-2.829-1.331c-.832-.499-1.415-1.082-1.997-1.664-.499-.666-.915-1.248-1.165-1.831zm8.155 13.314c.083.25.333.416.666.499.333.166.666.25 1.165.25s.915-.083 1.165-.25c.333-.166.499-.333.666-.499v-11.816c-.083-.25-.333-.416-.666-.499-.333-.166-.666-.25-1.165-.25s-.915.083-1.165.25c-.333.166-.499.333-.666.499zm14.312-1.831h7.905v1.831c.25.499.915.832 1.831.832.832 0 1.415-.25 1.831-.832v-1.997c-.166-.333-.749-.666-1.581-.832l-1.165-.166c-1.415-.25-2.663-.499-3.661-.915-.999-.333-1.914-.749-2.496-1.165-.666-.416-1.248-.832-1.581-1.248s-.749-.832-.999-1.248v-6.324c.166-.333.499-.832.999-1.415.416-.499 1.082-1.082 1.914-1.498.832-.499 1.664-.915 2.829-1.248 1.082-.333 2.413-.499 3.828-.499 1.498 0 2.746.166 3.828.499s2.08.832 2.829 1.248a9.57 9.57 0 0 1 1.914 1.498c.416.499.832.999.999 1.415v3.745h-7.905v-1.581c-.25-.499-.832-.832-1.831-.832-.416 0-.915.083-1.165.25-.333.166-.499.333-.666.499v1.664c.083.166.25.333.499.499s.666.25 1.082.333l1.082.166c1.415.25 2.663.666 3.661.999s1.914.749 2.496 1.165c.666.416 1.248.832 1.581 1.248s.749.832.999 1.248v6.657c-.25.416-.666.915-1.082 1.415s-1.082 1.082-1.914 1.498c-.749.499-1.664.915-2.746 1.248s-2.413.499-3.828.499c-1.498 0-2.746-.166-3.828-.499s-2.08-.749-2.746-1.248c-.832-.499-1.331-.999-1.914-1.498l-1.082-1.415v-4.161h.083zm26.463-10.484h-4.826v-5.825h17.641v5.825h-4.66v18.557h-8.155zm15.477-5.825h15.727v5.825h-7.489v3.329h6.99v5.742h-6.99v3.661h7.656v5.825h-15.894zm27.627 16.309h-.832v7.988h-8.155v-24.298h11.733c1.581 0 3.162.333 4.494 1.082s2.413 1.831 3.245 3.079v7.988c-.749 1.248-1.664 2.164-2.829 2.996l3.245 5.076v4.244h-6.824zm.999-5.326c.999 0 1.581-.25 1.914-.832v-3.495c-.25-.499-.999-.832-1.914-.832h-1.831v5.076h1.831zm12.315-5.741v-5.242h5.659v5.242l-.832 4.41h-4.161zm7.988 11.067h7.905v1.831c.25.499.915.832 1.831.832.832 0 1.415-.25 1.831-.832v-1.997c-.166-.333-.749-.666-1.581-.832l-1.165-.166c-1.415-.25-2.663-.499-3.661-.915-.999-.333-1.914-.749-2.496-1.165-.666-.416-1.248-.832-1.581-1.248s-.749-.832-.999-1.248v-6.324c.166-.333.499-.832.999-1.415.416-.499 1.082-1.082 1.914-1.498.832-.499 1.664-.915 2.829-1.248s2.413-.499 3.828-.499c1.498 0 2.746.166 3.828.499s2.08.832 2.829 1.248a9.57 9.57 0 0 1 1.914 1.498c.416.499.832.999.999 1.415v3.745h-7.905v-1.581c-.25-.499-.832-.832-1.831-.832-.416 0-.915.083-1.165.25-.333.166-.499.333-.666.499v1.664c.083.166.25.333.499.499s.666.25 1.082.333l1.082.166c1.415.25 2.663.666 3.661.999s1.914.749 2.496 1.165c.666.416 1.248.832 1.581 1.248s.749.832.999 1.248v6.657c-.25.416-.666.915-1.082 1.415s-1.082 1.082-1.914 1.498c-.749.499-1.664.915-2.746 1.248s-2.413.499-3.828.499-2.746-.166-3.828-.499-2.08-.749-2.746-1.248c-.832-.499-1.331-.999-1.914-1.498l-1.082-1.415v-4.161h.083z" fill="#1d428a"/><path d="M29.669 148.232h5.076v9.57h4.826v-9.57h5.242v24.798h-5.242v-10.318h-4.826v10.318h-5.076zm17.891 4.91c.166-.499.416-1.165.915-1.831l1.415-1.831c.666-.499 1.248-.999 2.164-1.331.832-.333 1.831-.499 2.829-.499s2.08.166 2.829.499c.832.333 1.498.832 2.164 1.331s1.082 1.082 1.415 1.831l.915 1.831v14.978c-.166.499-.416 1.165-.915 1.831-.333.666-.915 1.248-1.415 1.831s-1.248.999-2.164 1.331c-.832.333-1.831.499-2.829.499s-2.08-.166-2.829-.499c-.832-.333-1.498-.832-2.164-1.331s-1.082-1.082-1.415-1.831l-.915-1.831zm9.486 1.248c-.166-.416-.333-.832-.832-1.082-.333-.25-.915-.416-1.415-.416-.666 0-1.082.166-1.415.416s-.666.749-.832 1.082v12.565c.166.416.333.832.832 1.082s.915.416 1.415.416c.666 0 1.082-.166 1.415-.416s.666-.749.832-1.082zm7.905-6.158h5.242v19.888h5.326v4.91H64.951zm12.899 0h5.242v19.888h5.326v4.91H77.85zm14.728 14.645l-4.577-10.984v-3.661h4.66l2.58 7.822h.582l2.58-7.822h4.161v3.661l-4.826 11.733v9.403h-5.159zm26.296-14.645l2.58 15.727h.499l1.831-15.727h4.91v3.661l-3.162 21.136h-6.657l-2.08-12.316h-.582l-2.164 12.316h-6.241l-3.079-21.136v-3.661h4.993l1.747 15.727h.582l2.413-15.727zm12.066 4.91c.166-.499.416-1.165.915-1.831.333-.666.915-1.248 1.415-1.831.666-.499 1.248-.999 2.164-1.331.832-.333 1.831-.499 2.829-.499s2.08.166 2.829.499c.832.333 1.498.832 2.164 1.331s1.082 1.082 1.415 1.831l.915 1.831v14.978c-.166.499-.416 1.165-.915 1.831-.333.666-.915 1.248-1.415 1.831-.666.499-1.248.999-2.164 1.331-.832.333-1.831.499-2.829.499s-2.08-.166-2.829-.499c-.832-.333-1.498-.832-2.164-1.331s-1.082-1.082-1.415-1.831l-.915-1.831zm9.57 1.248c-.166-.416-.333-.832-.832-1.082-.333-.25-.915-.416-1.415-.416-.666 0-1.082.166-1.415.416s-.666.749-.832 1.082v12.565c.166.416.333.832.832 1.082.333.25.915.416 1.415.416.666 0 1.082-.166 1.415-.416s.666-.749.832-1.082zm7.738-1.248c.166-.499.416-1.165.915-1.831.333-.666.915-1.248 1.415-1.831.666-.499 1.248-.999 2.164-1.331.832-.333 1.831-.499 2.829-.499 1.082 0 2.08.166 2.829.499s1.498.832 2.164 1.331 1.082 1.082 1.415 1.831l.915 1.831v14.978c-.166.499-.416 1.165-.915 1.831-.333.666-.915 1.248-1.415 1.831-.666.499-1.248.999-2.164 1.331-.832.333-1.831.499-2.829.499-1.082 0-2.08-.166-2.829-.499s-1.498-.832-2.164-1.331-1.082-1.082-1.415-1.831l-.915-1.831zm9.57 1.248c-.166-.416-.333-.832-.832-1.082-.333-.25-.915-.416-1.415-.416s-1.082.166-1.415.416-.666.749-.832 1.082v12.565c.166.416.333.832.832 1.082.333.25.915.416 1.415.416s1.082-.166 1.415-.416.666-.749.832-1.082zm7.739-6.158h8.321c.915 0 1.581.166 2.33.416s1.248.749 1.831 1.082c.499.416.999.999 1.248 1.581.333.499.666 1.165.832 1.831v14.978c-.166.499-.416 1.165-.832 1.831-.333.499-.832 1.082-1.248 1.581-.499.416-1.082.832-1.831 1.082s-1.415.416-2.33.416h-8.321zm7.323 19.888c.666 0 1.082-.166 1.415-.416s.666-.666.832-1.082v-11.9c-.166-.416-.333-.832-.832-1.082-.333-.25-.915-.416-1.415-.416h-2.164v14.978h2.164z" fill="#d50032"/><path fill="#fff" d="M103.539 41.779l6.574 19.139 21.469-2.58-17.392 14.396 6.574 19.139-17.225-10.235-17.392 14.396 6.574-20.72-17.308-10.235 21.469-2.58zm0-11.983L99.878 41.03l-5.825 18.141-18.806 2.33-11.65 1.415 9.32 5.575 15.145 8.904-5.825 18.141-3.578 11.4 9.32-7.739 15.145-12.565 15.145 8.904 9.32 5.575-3.661-10.402-5.242-17.059 15.145-12.565 9.486-7.739-11.65 1.415-18.806 2.247-5.659-16.809z"/><path fill="#d50032" d="M92.805 75.314L75.413 65.079l21.469-2.58 6.657-20.72 6.574 19.139 21.552-2.58-17.392 14.479 6.574 19.056-17.308-10.235-17.392 14.396z"/><g fill="#3a5dae"><path d="M118.684 73.65l5.825 16.726 3.661 10.402-9.32-5.575-15.145-8.904-15.145 12.565-9.32 7.739 3.661-11.234 5.825-18.141-15.228-9.07-9.32-5.575 11.65-1.415 18.806-2.33 5.659-18.141 3.661-11.234 3.661 10.402 5.825 16.726 18.224-1.914 11.65-1.415-9.32 7.739zm30.789-20.387l-1.581-4.41c-.416-.915-1.331-1.581-2.33-1.415l-13.98 1.664-14.646 1.831-4.494-13.065-4.161-12.066c-.25-.749-1.165-1.415-2.08-1.415h-5.076c-.915 0-1.831.666-2.08 1.415l-4.494 14.23-4.494 14.146-14.646 1.831-14.396 1.664c-.915.166-1.581.666-1.831 1.415l-1.664 5.076c-.25.915.166 1.914.915 2.33l11.234 6.574 11.816 6.99-4.494 14.146-4.41 13.564c-.25.915.166 1.914.915 2.33l3.911 2.33c.749.416 1.831.416 2.496-.25l11.567-9.57 11.65-9.819 11.816 6.99 11.4 6.74c.749.416 1.831.416 2.496-.25l4.41-3.661c.666-.499.915-1.415.666-2.33l-4.41-12.732-4.327-12.648 12.066-9.736 11.65-9.736c.582-.499.915-1.415.582-2.164z"/><path d="M99.129 25.802l-4.494 14.23-4.494 14.23 4.161 5.076 4.66-14.646 4.66-14.646-1.664-5.159c-.166-.25-.416-.416-.666-.416-.999-.25-1.914.416-2.164 1.331zM63.93 62.749l-5.575.666c-.25 0-.499.25-.499.416l-.166.25c-.25.915.166 1.914.915 2.33L81.82 79.974l6.574-2.829zm15.144 43.854l-1.664 5.326c-.166.25 0 .499.25.749h0a2.13 2.13 0 0 0 2.496-.166l23.383-19.306v-6.907zm55.254-5.908l-8.904-25.796-6.574-1.331 9.32 27.044 4.41 2.58a.62.62 0 0 0 .749 0l.416-.416c.582-.416.832-1.331.582-2.08zm11.317-53.257l-28.625 3.495-4.161 6.075 30.456-3.745 4.494-3.745c.25-.166.25-.416.166-.666-.416-.915-1.331-1.498-2.33-1.415z"/></g></svg>