<svg xmlns="http://www.w3.org/2000/svg" viewBox="0 0 1400 735"><circle cx="328.568" cy="406.848" r="328.152" fill="#00b3c1"/><path d="M418.832 87.009q-2.367.116-3.122 2.762l-36.148-.719q-.557-.012-1.091.162-.824.267-2.298.22-5.361-.186-22.246-.046-.081 0-1.335-.162c-1.659-.22-3.203.371-5.245.093-3.04-.418-5.895.325-9.04-.197-1.126-.186-1.822.464-2.971.429q-16.861-.418-33.723-.012c-4.27.104-9.191-.197-12.765-.116q-23.72.557-33.943.046-2.1-.104-3.4-.07c-8.262.255-16.107-.128-24.161.325q-1.52.081-2.866-.476-.534-.232-1.114-.174-5.199.534-10.421-.07a9.516 9.133 46.2 0 0-1.393-.058q-10.49.371-22.606.128c-1.52-.035-2.205.395-3.969-.279q-.348-.139-.766.07-.511.244-1.091.244l-44.701-.058q-5.396-7.508-8.448-14.935-3.307-8.065-4.12-18.834c-1.114-14.471 4.317-27.375 13.554-38.156q2.634-3.075 6.998-6.058c5.454-3.713 9.817-7.821 17.117-7.961q19.391-.383 27.561-2.158 5.988-1.311 9.551-.812c9.318 1.276 18.881.928 28.245.545 7.102-.302 10.595 1.01 16.223 4.63q11.43 7.346 19.136 17.082c3.307 4.166 6.324 9.864 9.539 14.807q1.532 2.367 3.296.174c3.261-4.062 6.348-8.495 10.85-11.071 15.771-9.017 33.885-.963 39.943 15.782q.302.859.812 1.056.557.209 1.242-.29.406-.302.453-.812c1.393-14.564 12.916-22.606 26.957-23.604q18.625-1.335 35.115 7.172 4.479 2.309 13.461 9.504c13.542 10.839 16.246 32.435 12.127 48.553q-.545 2.147.801 3.342z" fill="#c9f4fc"/><path d="M415.711 89.771c-8.692 18.509-24.903 30.009-45.293 30.474-8.448.197-16.374-.789-23.337-3.574a2.182 2.182 0 0 0-2.924 1.451l-4.398 16.037q-3.934-.65-5.663-.453-7.555.847-15.132.244-.511-.035-.87.325-.499.476-1.23.383-.789-.104-.917-.104-8.042.197-16.072.151-33.514-.22-67.028.325-4.212.07-8.402-.418-1.126-.128-2.727.197a1.88 1.787 50.1 0 1-1.114-.128q-.87-.395-1.648-.128-.638.209-1.288.104c-4.154-.65-8.692-.012-12.173-.116q-11.082-.348-14.123.209-1.683.302-2.948-.093c-2.855-.882-4.247-.975-6.974-.986-.337-5.733-1.543-18.544-9.307-18.695q-1.276-1.102-3.191-1.729-2.46-.801-3.331-1.242c-10.769-5.617-19.937-13.125-27.201-22.954l44.701.058q.58 0 1.091-.244.418-.209.766-.07c1.764.673 2.449.244 3.969.279q12.115.244 22.606-.128a9.516 9.133 46.2 0 1 1.393.058q5.222.603 10.421.07.58-.058 1.114.174 1.346.557 2.866.476c8.054-.453 15.898-.07 24.161-.325q1.3-.035 3.4.07 10.224.511 33.943-.046c3.574-.081 8.495.22 12.765.116q16.861-.406 33.723.012c1.149.035 1.845-.615 2.971-.429 3.145.522 6-.22 9.04.197 2.042.279 3.586-.313 5.245-.093q1.253.162 1.335.162 16.885-.139 22.246.046 1.474.046 2.298-.22.534-.174 1.091-.162z" fill="#93d8f2"/><path d="M181.45 133.671c2.727.012 4.12.104 6.974.986q1.265.395 2.948.093 3.04-.557 14.123-.209c3.481.104 8.019-.534 12.173.116q.65.104 1.288-.104.778-.267 1.648.128a1.88 1.787 50.1 0 0 1.114.128q1.601-.325 2.727-.197 4.189.487 8.402.418 33.514-.545 67.028-.325 8.03.046 16.072-.151.128 0 .917.104.731.093 1.23-.383.36-.36.87-.325 7.578.603 15.132-.244 1.729-.197 5.663.453l-3.771 17.894a1.543 1.543 0 0 0 1.207 1.822l20.598 4.131q1.648.325 1.775 2.008l1.207 16.188c-1.01 1.683-1.822 2.576-3.946 2.495q-7.729-.325-15.457-.302c-6.882.012-15.515-.917-23.36-.406q-.139 0-.174.139-.035.174-.093.337-.139.325-.487.325-11.686-.151-23.383-.244c-10.212-.07-26.54-.952-39.873-.441-2.53.104-5.361-.244-8.007-.151-16.304.569-32.794 0-49.11-.209q-21.271-.29-35.405-2.286.186-6.684 2.623-14.053c1.671-5.025 14.436-1.311 15.666-7.497q2.008-10.142 1.683-20.238z" fill="#c9f4fc"/><path d="M360.775 176.202q.244 17.395-2.216 34.291l-25.855-6.15c-17.059-3.249-34.187-6.812-51.35-8.216-19.902-1.636-37.227-2.089-56.711-.104-20.679 2.1-40.117 8.436-58.742 17.349-4.224-12.858-6-23.94-4.421-37.912q14.134 1.996 35.405 2.286c16.316.209 32.806.778 49.11.209 2.646-.093 5.477.255 8.007.151 13.334-.511 29.661.371 39.873.441q11.697.093 23.383.244.348 0 .487-.325.058-.162.093-.337.035-.139.174-.139c7.845-.511 16.478.418 23.36.406q7.729-.023 15.457.302c2.124.081 2.936-.812 3.946-2.495z" fill="#93d8f2"/><path fill="#8f3c10" d="M332.703 204.343q0 .186-.592.29c-4.839-1.172-10.444 2.576-15.248 3.795q-7.659 1.938-15.295 3.946-24.486 6.452-49.598 5.559c-18.068-.638-33.549-5.036-47.753-15.376q-1.381-1.01-2.495.29c-10.386 12.115-21.735 31.564-18.138 48.136a.603.615 75.7 0 1-.429.708q-.522.151-.928.174c-7.636.58-11.396 7.555-15.353 12.788l-1.555-16.618-.615-14.9 1.195-19.763c18.625-8.912 38.063-15.248 58.742-17.349 19.484-1.984 36.81-1.532 56.711.104 17.163 1.404 34.291 4.967 51.35 8.216z"/><path d="M332.112 204.633q8.204 10.398 9.551 14.529c1.984 6.069 4.236 12.22 5.118 18.37q1.752 12.289 1.102 24.602a.812.812 0 0 0 .743.847c6.58.545 12.301 7.543 15.631 13.032q.928 1.044.824 3.609c-.07 1.567.325 2.715.453 4.236-8.727 2.936-15.016 4.665-23.929 1.648q-3.829-1.3-9.992-5.791c-9.794-7.137-18.161-12.463-29.766-15.283q-4.468-3.249-8.924-6.661c-9.539-7.334-22.826-6.928-32.818-2.669-3.516 1.497-7.114 4.154-10.537 6.348-2.866 1.845-3.4 4.595-7.195 5.176q-9.852 1.636-16.56 6.452c-7.404 5.303-13.183 10.084-21.677 11.802-15.237 3.087-30.439-2.739-40.105-14.958q.116-.986.952-1.381.511-.244.719-.777l1.172-3.11c3.957-5.234 7.717-12.208 15.353-12.788q.406-.023.928-.174a.603.615 75.7 0 0 .429-.708c-3.597-16.571 7.752-36.02 18.138-48.136q1.114-1.3 2.495-.29c14.204 10.34 29.684 14.738 47.753 15.376q25.112.894 49.598-5.559 7.636-2.008 15.295-3.946c4.804-1.218 10.409-4.967 15.248-3.795z" fill="#fecf97"/><path d="M332.703 204.343l25.855 6.15 3.621 24.149 2.077 13.937c.766 8.97 1.892 18.405 0 27.433-3.331-5.489-9.052-12.486-15.631-13.032a.812.812 0 0 1-.743-.847q.65-12.312-1.102-24.602c-.882-6.15-3.133-12.301-5.118-18.37q-1.346-4.131-9.551-14.529.592-.104.592-.29z" fill="#612306"/><path d="M565.056 209.491c-18.193-.656-30.129 29.57-35.877 42.778-.34.789-.537.754-.592-.104-1.474-23.279-29.429-29.533-46.917-22.164-5.655 2.383-8.549 6.614-8.681 12.695a.487.487 0 0 1-.766.394c-3.18-2.147-6.939-5.094-11.036-3.783-3.203 1.033-5.942 2.367-8.101 5.129-11.755 15.039-13.913 35.522 1.881 48.891 3.563 3.017 5.895 3.794 7.16 8.366.449 1.632 1.036 3.227 1.763 4.782 18.602 6.359 37.054 11.603 54.716 19.413a140.06 140.06 0 0 0 7.23 2.949c8.889-16.478 20.355-29.187 35.092-40.269 6.742-5.083 14.679-9.19 22.373-13.275 2.414-1.269 5.519-2.584 9.318-3.946 4.735-1.706 11.245-4.2 11.895-8.935 1.091-7.926-5.255-15.537-12.056-18.706-7.52-3.505-15.68.708-22.735 3.481-3.667 1.427-6.521 3.644-9.689 5.895-.085.07-.165.06-.243-.025a.54.54 0 0 1-.141-.29c-.023-.116.032-.244.163-.383 6.545-7.114 12.637-13.717 17.534-22.049 2.681-4.561 3.574-13.564-1.543-16.999-3.799-2.544-7.381-3.725-10.75-3.846zm-66.207 43.302c.961.025 1.967.235 3.037.696 14.517 6.266 5.929 21.49-1.521 28.674-7.752 7.485-20.216 3.272-27.445-2.495-3.574-2.855-5.975-7.253-2.482-11.221 3.597-4.073 6.986-8.899 6.185-14.655-.031-.186.046-.286.231-.301.108-.015.209-.029.301-.036.132-.015.232.029.301.129 1.764 2.661 4.054 4.033 6.87 4.118 5.454.166 9.331-5.045 14.522-4.907z" fill="#fecf97"/><path d="M222.495 232.054q.22-1.265-.139-3.435a.65.661 12.3 0 1 1.01-.65l1.659 1.102a1.149 1.149 0 0 0 1.764-1.16l-.511-2.901a1.892 1.892 0 0 1 1.613-2.193l7.636-1.033a1.892 1.88 69.8 0 1 1.845.859l1.683 2.623a1.01 1.021 39 0 0 1.81-.197l1.033-2.762q.197-.499.719-.615c1.892-.418 4.062-.186 6.023-.197q1.601-.012 1.613 1.729.035 4.456-.766 8.17a2.228 2.216 1.8 0 1-1.834 1.717c-10.676 1.648-19.38 6.429-27.607 13.183a1.787 1.787 0 0 1-2.541-.267c-3.18-4.004-5.883-5.06-7.241-11.28q-.128-.557.209-1.021c2.042-2.75 7.694-5.93 10.432-1.381q1.195 1.973 1.59-.29zm97.223.859q.824-.905 1.775-1.996c2.379-2.75 7.322.87 8.947 2.634q.383.418.325.998c-.615 5.791-4.247 8.054-7.74 11.5a1.543 1.543 0 0 1-2.031.128c-8.378-6.441-17.465-12.046-28.373-13.02a1.149 1.16 1 0 1-1.044-1.091l-.511-9.226a.87.859 80 0 1 .603-.87c3.203-.975 7.682-1.311 8.495 3.052a.894.894 0 0 0 1.613.348l1.961-2.82q.348-.499.963-.534 4.932-.267 9.574 1.393a.754.754 0 0 1 .499.824l-.627 4.096q-.337 2.158 1.532 1.033l2.089-1.253a.418.418 0 0 1 .627.337l.209 4.062a.638.638 0 0 0 1.114.406z" fill="#612306"/><path d="M164.705 233.133l.615 14.9q-7.334-2.599-13.357-.836c-8.564 2.507-8.819 19.414-4.607 25.101q1.868 2.518 2.205 3.864.638 2.588.487 5.245-.035.58-.534.87l-.569.348q-1.485-1.056-1.95-1.787c-5.57-4.677-10.212-11.79-11.222-19.147-1.346-9.875-.162-18.416 6.765-26.064 1.636-1.81 7.473-4.41 10.212-4.723 4.363-.499 8.007 1.462 11.953 2.228zm227.901 33.445q-.232.151-.383.522a.36.36 0 0 1-.65.012l-4.479-9.748q-2.646-2.205-4.711-5.628c-2.924-4.816-5.315-6.116-10.873-5.524q-4.514.487-7.253 2.367l-2.077-13.937c3.18-1.068 6.313-2.808 9.052-3.423q6.266-1.393 11.523 1.671c12.44 7.253 12.927 21.213 9.852 33.688z" fill="#fecf97"/><path d="M240.448 257.211a6.684 6.266 88.6 0 1-6.428-6.529 6.684 6.266 88.6 0 1 6.101-6.835 6.684 6.266 88.6 0 1 6.428 6.529 6.684 6.266 88.6 0 1-6.101 6.835zm58.306.212a6.835 6.533 84.3 0 1-7.18-6.152 6.835 6.533 84.3 0 1 5.822-7.45 6.835 6.533 84.3 0 1 7.18 6.152 6.835 6.533 84.3 0 1-5.822 7.45z" fill="#612306"/><path d="M769.325 244.062a20.73 20.73 0 0 0-4.771.582c-3.636.89-6.109 1.798-7.416 2.727-3.783 2.681-9.016 7.95-9.028 12.72-.023 5.238-.289 10.038-.8 14.401-1.625 13.891-8.763 26.341-14.17 39.013-3.76 8.843-7.866 17.002-11.858 26.239-2.936 6.8-7.786 16.941-13.554 19.204-5.152 2.019-12.163 3.527-10.666 10.85.665 3.234 3.041 5.54 7.126 6.917a510.77 510.77 0 0 0 16.641 2.366c7.195.905 16.2-.973 22.327-2.296 4.038-.866 7.24-3.018 9.608-6.453 3.087-6.359-4.443-10.131-9.619-11.002-3.319-2.112-1.137-6.406-.313-9.075.789-2.553 3.329-3.84 5.684-3.932 11.21-.418 21.516-.407 30.915.034 2.87.139 5.81.796 8.819 1.972a1.717 1.717 0 0 1 .836.698c1.253 2.1 3.19 5.209 1.786 7.217-2.402 5.083-9.933 3.11-10.85 8.889-.681 4.356.866 7.591 4.642 9.703 2.205 1.292 4.132 2.007 5.78 2.146 11.071.905 22.953 2.633 33.315 2.169 7.821-.356 15.184-1.275 22.085-2.761 4.959-1.068 8.572-3.806 10.838-8.216 1.137-6.475-1.8-7.893-7.393-9.123-3.45-.758-5.813-2.634-7.09-5.628-4.862-11.465-10.489-22.477-15.619-33.803-8.947-19.786-18.418-40.107-30.405-58.256-5.767-8.732-15.834-17.366-26.851-17.305zm-4.463 52.286a3.713 3.713 0 0 1 .911.159l1.752.533a3.713 3.713 0 0 1 2.18 1.788l10.272 18.996a3.713 3.713 0 0 1-3.273 5.478l-19.612-.059a3.713 3.713 0 0 1-3.447-5.059l7.579-19.474a3.713 3.713 0 0 1 3.638-2.362zm457.109-12.909c-8.17-8.68-16.792-13.218-28.86-12.324-7.613.557-13.717 6.557-16.13 13.519-4.178 8.808-2.681 20.633.29 29.975q.731 2.286 4.758 10.537c9.086 18.579 28.478 22.339 47.091 17.604q5.617-1.439 8.576-3.864 4.677-3.829 10.061-6.591.499-.255 1.033-.093c7.067 2.228 8.564 10.549 5.999 16.571-1.369 5.976-6.835 17.117-13.496 18.625q-7.578 1.717-10.073 2.785-5.744 2.46-11.639 4.584c-6.278 2.263-12.927 3.029-19.472 4.12a13.74 13.775 44.9 0 1-4.456.012q-7.705-1.265-15.063-2.901-20.784-4.607-35.139-19.542c-10.467-11.895-15.701-24.103-17.662-39.038q-.835-6.359.023-12.603 1.358-9.759 3.69-15.782c5.756-14.877 18.045-28.037 32.702-35.661 4.189-2.17 8.228-4.549 12.765-5.744q8.529-2.251 17.279-3.354 5.187-.65 10.502.244c6.371 1.068 13.113 2.112 18.985 4.955 3.563 1.729 7.694 4.723 11.941 3.992 5.791-.986 10.502-2.298 14.819 2.924 7.787 9.434 13.809 27.549 6.916 38.84-5.965 9.783-18.184 13.229-26.157 3.319-3.4-4.224-6.058-10.258-9.284-15.109zm175.02 11.431c-4.874 8.854-16.281 13.218-24.509 5.779q-2.576-2.344-5.593-8.344c-4.154-8.239-7.972-12.881-16.003-17.488-5.245-3.006-9.4-3.435-15.318-3.586-12.498-.325-20.586 9.806-20.865 21.364q-.917 12.73 3.017 25.077 1.137 3.574 6.998 12.452c9.713 14.715 28.094 16.803 43.946 12.614 7.334-1.938 10.827-5.489 16.49-9.585 1.416-1.033 3.017-1.52 4.642-.476q9.365 6.058 4.201 17.697c-1.485 5.06-7.276 15.898-13.159 17.047-7.694 1.509-13.937 4.421-21.271 7.195-6.452 2.437-13.287 3.191-20.03 4.317a13.078 13.044 45.1 0 1-4.34-.012c-9.133-1.613-17.372-2.483-26.586-6.371-16.235-6.858-28.269-18.126-35.603-34.373q-7.45-15.515-6.556-29.65c1.218-19.287 12.974-39.711 30.357-51.164 11.987-7.891 22.617-11.535 36.995-13.102q5.535-.603 11.059.348 6.15 1.068 12.208 2.565c4.143 1.033 7.752 3.087 11.616 4.955 4.41 2.124 6.301 1.52 10.815.476 4.816-1.102 9.202 1.567 12.161 5.593 4.897 6.673 5.733 12.893 7.299 20.273 1.346 6.324.418 10.815-1.973 16.397z" fill="#012160"/><path d="M165.32 248.034l1.555 16.618-1.172 3.11q-.209.534-.719.777-.836.395-.952 1.381-4.595-5.338-5.814-11.5-.499-2.541-1.717-.255c-2.472 4.63-3.423 9.91-4.746 14.935-.812 3.098-.731 6.371-1.218 9.667q-.104.627-.696.383-.557-.232-.894-.522l.569-.348q.499-.29.534-.87.151-2.657-.487-5.245-.337-1.346-2.205-3.864c-4.212-5.686-3.957-22.594 4.607-25.101q6.023-1.764 13.357.836zm221.774 9.33q-1.137 2.321-1.845 4.665c-2.832 9.504-11.082 17.349-19.716 21.828-.128-1.52-.522-2.669-.453-4.236q.104-2.565-.824-3.609c1.892-9.028.766-18.463 0-27.433q2.739-1.88 7.253-2.367c5.559-.592 7.949.708 10.873 5.524q2.066 3.423 4.711 5.628z" fill="#fd8457"/><path d="M937.614 246.129l-4.456.129c-20.819 1.044-41.777.951-62.631.882-2.808-.015-5.036.519-6.684 1.602-4.015 2.634-5.094 8.007-1.961 11.79 4.131 5.025 14.749 4.166 15.086 11.419a221.66 221.66 0 0 1 .22 9.329l-.197 69.21c-.046 5.129-3.97 7.402-8.078 9.247-1.787.797-2.982 1.602-3.586 2.414-2.483 3.354-1.16 8.727 2.484 10.931 4.038 2.449 7.694 3.668 12.742 4.295 6.371.789 12.973 2.135 19.181 1.845 9.492-.441 21.189-1.299 29.335-6.301l1.845-1.219c6.8-7.81-1.31-11.21-6.439-15.26-2.522-1.988-3.862-4.606-4.016-7.856a332.42 332.42 0 0 1-.347-19.1 1.892 1.892 0 0 1 2.031-1.87l11.847.87c13.152.774 25.519-2.325 37.101-9.295l7.566-6.904 5.292-7.357c4.216-9.578 5.152-19.161 2.808-28.746-2.483-10.189-10.259-18.276-19.519-23.347-9.291-5.087-19.275-6.772-29.626-6.709zm-11.768 20.519h3.679a16.571 17.709.1 0 1 16.536 17.742v6.174a16.571 17.709.1 0 1-16.607 17.674h-3.679a4.955 4.955 0 0 1-4.943-4.966l.048-31.681a4.955 4.955 0 0 1 4.966-4.943zm143.813-20.313c-5.18.092-10.402.445-15.641.514a1586.62 1586.62 0 0 1-50.038-.163c-4.541-.085-7.992 1.665-10.351 5.247-5.837 8.854 9.573 12.788 14.227 15.294a1.799 1.822 8.4 0 1 .929 1.265 55.03 55.03 0 0 1 .963 10.746l-.256 68.467c0 2.913.046 6.557-2.228 8.703-4.34 4.085-13.427 4.038-10.421 12.799 2.982 5.152 10.271 7.346 15.818 8.089 9.817 1.3 18.231 2.879 29 1.219 7.048-1.099 11.124-1.799 12.23-2.101 4.92-1.362 8.986-3.918 12.196-7.67 2.147-10.316-11.36-9.284-12.114-17.094-.557-5.81-.774-11.664-.651-17.559l.093-6.07a.534.522 89.3 0 1 .499-.521c5.048-.313 9.505.499 14.46.963 13.809 1.288 29.429-4.19 40.058-13.021 4.387-4.951 6.987-8.223 7.799-9.816 2.808-5.501 5.209-15.956 4.293-22.071-1.891-12.614-5.487-20.844-16.303-28.259-1.563-1.068-4.601-2.64-9.111-4.721-8.297-3.822-16.817-4.394-25.451-4.241zm-11.253 20.242l3.388.012a17.604 18.811.2 0 1 17.545 18.869l-.023 4.062a17.604 18.811.2 0 1-17.663 18.753l-3.388-.023a4.421 4.421 0 0 1-4.408-4.433l.116-32.839a4.421 4.421 0 0 1 4.433-4.399z" fill="#012160"/><path d="M301.847 264.431q-.453-.093-.603-.023a.801.789 61.1 0 0-.325 1.149c3.795 5.837 3.771 12.069-.383 17.894-10.815 15.19-31.112 12.904-41.927-.975a.975.986 51.9 0 0-1.381-.162c-3.4 2.681-7.485 2.518-10.583-.615q-4.584-4.619-3.354-12.011.22-1.335.719-1.996.337-.453-.128-.789-.464-.337-1.509-.279c3.795-.58 4.328-3.33 7.195-5.176 3.423-2.193 7.021-4.851 10.537-6.348 9.992-4.259 23.279-4.665 32.818 2.669q4.456 3.412 8.924 6.661z" fill="#fd8457"/><path fill="#8f3c10" d="M164.031 269.92c9.667 12.22 24.869 18.045 40.105 14.958 8.495-1.717 14.274-6.499 21.677-11.802q6.707-4.816 16.56-6.452 1.044-.058 1.509.279.464.337.128.789-.499.661-.719 1.996-1.23 7.392 3.354 12.011c3.098 3.133 7.183 3.296 10.583.615a.975.986 51.9 0 1 1.381.162c10.815 13.879 31.112 16.165 41.927.975 4.154-5.825 4.178-12.057.383-17.894a.801.789 61.1 0 1 .325-1.149q.151-.07.603.023c11.605 2.82 19.971 8.146 29.766 15.283q6.162 4.491 9.992 5.791c8.912 3.017 15.202 1.288 23.929-1.648 8.634-4.479 16.885-12.324 19.716-21.828q.708-2.344 1.845-4.665l4.479 9.748a.36.36 0 0 0 .65-.012q.151-.371.383-.522l.685 8.843q.035.418.406.615.267.139.302.592c1.52 16.061-.441 32.667-11.094 45.409l-5.559 3.69q-.128.081-.162-.07-.046-.209.162-.313a.128.139 41.1 0 0-.012-.255q-1.88-.499-3.493.383-1.706.928-2.901-.209-.429-.418-.986-.615-2.959-1.056-5.512-2.924-.638-.453-.012-.917l4.363-3.272q.905-.673-.162-1.068l-2.251-.836a2.251 2.24 42.5 0 0-1.752.07q-5.419 2.565-14.146 4.201-13.241 2.495-24.752 1.01-8.471-1.079-16.803-2.89-2.077-.441-4.108-1.021-.847-.232-1.857-.986c-1.439-1.044-3.713-1.683-4.781-2.251q-6.789-3.597-13.682-5.35c-3.853-.986-6.406-2.402-10.212-1.764-1.079.186-1.915 1.033-3.133.894-5.582-.673-9.875.58-15.248 1.868-2.936.696-5.373 2.286-8.239 3.597-3.644 1.659-6.278 4.143-10.665 5.083q-6.046 1.288-12.15 2.333c-13.891 2.402-27.863 1.126-41.126-2.982-7.566-2.344-15.596-8.297-19.925-14.796a2.124 1.509 37.3 0 0-3.47-.116q-.07 1.335.627 1.59.522.186.65.731c.789 3.528 6.51 8.007 9.597 10.247a1.485 1.474 13.3 0 1 .569.917q.139.743-.348 1.149-.325.279-1.404.348-1.195.07-2.333.673-.522.29-1.114.151-2.715-.627-5.396-.128-.36.07-.267.429l.255.975q.395 1.497-.569.29l-4.12-5.187c-2.808-3.818-3.911-9.272-5.57-13.705q-1.021-2.739-1.16-6.034-.313-7.798-2.75-14.134.464.731 1.95 1.787.337.29.894.522.592.244.696-.383c.487-3.296.406-6.568 1.218-9.667 1.323-5.025 2.274-10.305 4.746-14.935q1.218-2.286 1.717.255 1.218 6.162 5.814 11.5z"/><path d="M275.795 273.239q-.905.139-1.311-.673c-1.137-2.216-1.218-5.338-.174-7.647 5.048-11.117 23.743-.035 19.031 3.737q-.453.36-1.033.313c-2.727-.22-5.454-.209-7.798 1.485-1.23.894-2.066 1.764-3.667 1.996q-2.565.395-5.048.789z" fill="#fecf97"/><path d="M382.905 322.036q-3.771 4.897-7.601 7.636-8.669 6.232-19.124 8.866c-6.452.94-12.719 2.019-19.043 1.857q-10.572-.267-20.273-2.147c-12.893-2.692-19.426-4.619-30.044-10.537l-6.754-5.953-6.348-8.065a2.135 2.135 0 0 0-3.435.104l-5.408 7.798q-4.038 1.625-6.452 5.094-9.249 6.278-16.722 8.1-10.444 2.565-21.898 5.21-2.657-.36-9.864.395c-5.315.545-13.171-.267-19.67-1.81q-2.646-.627-4.375-.638c-13.577-4.27-22.768-10.85-29.417-23.232l4.12 5.187q.963 1.207.569-.29l-.255-.975q-.093-.36.267-.429 2.681-.499 5.396.128.592.139 1.114-.151 1.137-.603 2.333-.673 1.079-.07 1.404-.348.487-.406.348-1.149a1.485 1.474 13.3 0 0-.569-.917c-3.087-2.24-8.808-6.719-9.597-10.247q-.128-.545-.65-.731-.696-.255-.627-1.59a2.124 1.509 37.3 0 1 3.47.116c4.328 6.499 12.359 12.452 19.925 14.796 13.264 4.108 27.236 5.385 41.126 2.982q6.104-1.044 12.15-2.333c4.387-.94 7.021-3.423 10.665-5.083 2.866-1.311 5.303-2.901 8.239-3.597 5.373-1.288 9.667-2.541 15.248-1.868 1.218.139 2.054-.708 3.133-.894 3.806-.638 6.359.777 10.212 1.764q6.893 1.752 13.682 5.35c1.068.569 3.342 1.207 4.781 2.251q1.01.754 1.857.986 2.031.58 4.108 1.021 8.332 1.81 16.803 2.89 11.512 1.485 24.752-1.01 8.727-1.636 14.146-4.201a2.251 2.24 42.5 0 1 1.752-.07l2.251.836q1.068.395.162 1.068l-4.363 3.272q-.627.464.012.917 2.553 1.868 5.512 2.924.557.197.986.615 1.195 1.137 2.901.209 1.613-.882 3.493-.383a.128.139 41.1 0 1 .012.255q-.209.104-.162.313.035.151.162.07z" fill="#612306"/><path d="M463.893 306.474c18.602 6.359 37.053 11.605 54.715 19.414q3.725 1.636 7.23 2.948l15.283 6.638q1.021.441.998 1.567c-.128 7.462-.499 14.378-2.611 21.457q-4.688 15.608-14.25 29.035-5.35-2.158-10.978-1.311c-3.249.487-6.731-.348-10.398.313-2.948.534-5.605.615-8.448.975q-6.069.754-12.115 1.717-.418.07-.615.441-.162.313-.638.302c-3.655-.081-7.206 1.114-10.467 1.172q-24.927.511-32.771 1.915-4.282.766-8.645.638a13.299 4.63.8 0 0-1.88-.023q-6.174.07-12.266.963c-4.027.592-8.112.65-12.15 1.195q-5.872.789-9.063.87c-3.551.093-8.947-.499-12.08.777a2.286 2.298 69.9 0 1-3.029-1.404q-3.04-9.063-7.079-18.161c-1.01-2.286-1.404-5.326-2.449-7.415q-3.76-7.601-7.102-15.364c-.673-1.567-.696-3.621 1.416-3.771 17.43 12.672 44.898 24.242 64.835 9.376 16.548-12.324 17.291-38.748 14.262-56.665a.685.685 0 0 1 .789-.789z" fill="#c9f4fc"/><path fill="#f30a04" d="M280.065 321.757q-7.891 2.205-15.19-.162l5.408-7.798a2.135 2.135 0 0 1 3.435-.104z"/><path d="M264.875 321.595q7.299 2.367 15.19.162l6.754 5.953q-14.297 8.46-28.396-1.021 2.414-3.47 6.452-5.094z" fill="#fd8457"/><path d="M258.423 326.689q14.1 9.481 28.396 1.021c10.618 5.918 17.152 7.845 30.044 10.537q-6.789 2.681-16.409 4.166-41.301 6.417-80.652-2.414 11.454-2.646 21.898-5.21 7.473-1.822 16.722-8.1z" fill="#fecf97"/><path fill="#759703" d="M185.894 337.946q1.729.012 4.375.638c6.499 1.543 14.355 2.356 19.67 1.81q7.206-.754 9.864-.395 39.351 8.831 80.652 2.414 9.62-1.485 16.409-4.166 9.701 1.88 20.273 2.147c6.324.162 12.591-.917 19.043-1.857q.267 1.509-1.613 4.387l-15.492 16.223c-2.681-1.369-4.874-.743-7.427-1.416q-1.532-.395-3.098-.615-.557-.081-.998-.418-.36-.267-.998-.406-6.545-1.369-14.111-4.328c-1.984-.777-4.328-.952-6.441-1.555q-2.669-.754-4.851-.661-3.644.151-7.288.186c-1.59.023-2.832.847-4.561.836q-3.876-.035-7.752.522-.545.07-.952.453-1.671 1.52-2.483 1.625c-8.645 1.068-16.699.023-24.66.313-2.414.081-4.804-1.276-7.392-1.207q-8.541.255-19.287-1.114-7.09-.894-14.436 2.158-.557.232-1.149.093-.975-.22-1.474.511-.348.522-.975.569l-22.664 1.648-4.653-5.524-2.797-3.586a3.052 3.064 44.9 0 1 0-3.748q2.367-3.04 7.264-5.535z"/><path d="M354.566 342.924l9.933 8.437c-2.112.151-2.089 2.205-1.416 3.771q3.342 7.763 7.102 15.364c1.044 2.089 1.439 5.129 2.449 7.415q4.038 9.098 7.079 18.161a2.286 2.298 69.9 0 0 3.029 1.404c3.133-1.276 8.529-.685 12.08-.777q3.191-.081 9.063-.87c4.038-.545 8.123-.603 12.15-1.195q6.092-.894 12.266-.963a13.299 4.63.8 0 1 1.88.023q4.363.128 8.645-.638 7.845-1.404 32.771-1.915c3.261-.058 6.812-1.253 10.467-1.172q.476.012.638-.302.197-.371.615-.441 6.046-.963 12.115-1.717c2.843-.36 5.501-.441 8.448-.975 3.667-.661 7.148.174 10.398-.313q5.628-.847 10.978 1.311-1.404 2.715-2.623 4.282c-17.79 22.803-42.798 43.436-73.062 47.312-15.713 2.008-32.945-.963-48.867-7.705-4.711-2.008-8.796-4.619-12.939-7.52q-1.102-.778-.824.545c2.89 13.96 5.454 26.458 6.15 42.206q.777 17.5.174 45.42c-.093 4.189-.975 9.075-.928 13.763a.894.905 77.3 0 1-.534.836l-12.649 5.721q-5.396 1.358-11.164 3.458c-16.281 5.93-33.433 8.657-50.422 11.744q-33.526 6.104-68.989 5.222l-1.149-8.1a.778.778 0 0 0-.661-.661q-.812-.116-1.393.046 8.692-1.601 17.43-3.632 6.719-1.555 13.218-4.305c10.363-4.387 17.581-8.112 24.497-15.039a2.646 2.646 0 0 0 .58-2.866q-2.286-5.651-2.75-12.057.708-.534 1.056.07c3.806 6.591 7.38 10.688 15.713 9.551 8.854-1.218 10.328-7.845 10.247-15.887a.905.928 76.7 0 1 .534-.847c5.709-2.634 11.929-5.002 16.989-7.972q12.324-7.195 22.501-17.244c9.516-9.411 11.094-24.625 9.945-37.761-.267-3.087-2.472-10.328-5.292-12.046q-2.112-1.276-4.247-2.541c-2.855-1.683-4.27-3.922-6.232-6.441-1.787-2.309-7.23-2.599-9.423-5.744-2.901-4.166-6.963-6.406-11.953-7.415a1.474 1.474 0 0 0-1.102.197c-3.33 2.135-6.185.209-9.365.139a2.657 2.657 0 0 0-2.727 2.483c-.731 11.187 3.4 20.656-6.951 28.779q-2.008 1.578-.998-.766c1.822-4.212 4.851-16.977-1.218-19.716-2.704-1.207-4.897.464-6.255 2.948q-4.503 8.274-10.85 15.248c-1.509 1.659-4.317 2.472-6.255 3.829q-3.946 2.762-9.585 5.895-3.493 1.938-3.783 5.907c-.766-1.485-.824-3.064-1.834-4.421-1.636-2.228-3.064-4.05-4.015-6.823q-1.636-4.781-4.421-8.994-.441-.673-.441-1.95-.012-.847-.267-1.265-.487-.754-1.253-.627l5.884-10.781a.894.894 0 0 1 1.416-.197q4.665 4.769 10.05 8.703c3.029 2.193 8.03 4.526 11.663 7.74a1.242 1.23 23.9 0 0 2.054-.789c1.775-16.478 4.004-30.59-4.236-45.525a1.207 1.207 0 0 1 .801-1.775c16.339-3.609 31.448-9.376 44.573-21.016z" fill="#93d8f2"/><path fill="#96c603" d="M339.074 359.147c-13.125 11.639-28.234 17.407-44.573 21.016a1.207 1.207 0 0 0-.801 1.775c8.239 14.935 6.011 29.046 4.236 45.525a1.242 1.23 23.9 0 1-2.054.789c-3.632-3.214-8.634-5.547-11.663-7.74q-5.385-3.934-10.05-8.703a.894.894 0 0 0-1.416.197l-5.884 10.781c-6.162 8.251-12.37 13.125-21.248 20.099q-.476.371-1.044.209-.696-.209-1.242-.882-2.054-5.35-4.92-10.351c-1.834-3.203-2.1-9.098-3.795-14.065q-.522-1.543-.603-3.342c-.116-2.657-.754-5.257-.719-7.787q.081-6.626.464-13.252.267-4.526 1.648-7.415c2.402-5.06-3.864-4.967-6.916-5.268-7.763-.789-16.571-5.814-23.627-9.098q-9.237-4.305-18.788-15.295l22.664-1.648q.627-.046.975-.569.499-.731 1.474-.511.592.139 1.149-.093 7.346-3.052 14.436-2.158 10.746 1.369 19.287 1.114c2.588-.07 4.978 1.288 7.392 1.207 7.961-.29 16.014.754 24.66-.313q.812-.104 2.483-1.625.406-.383.952-.453 3.876-.557 7.752-.522c1.729.012 2.971-.812 4.561-.836q3.644-.035 7.288-.186 2.182-.093 4.851.661c2.112.603 4.456.778 6.441 1.555q7.566 2.959 14.111 4.328.638.139.998.406.441.337.998.418 1.567.22 3.098.615c2.553.673 4.746.046 7.427 1.416z"/><path d="M181.427 350.815l4.653 5.524q9.551 10.99 18.788 15.295c7.056 3.284 15.863 8.309 23.627 9.098 3.052.302 9.318.209 6.916 5.268q-1.381 2.89-1.648 7.415-.383 6.626-.464 13.252c-.035 2.53.603 5.129.719 7.787q.081 1.799.603 3.342c1.694 4.967 1.961 10.862 3.795 14.065q2.866 5.002 4.92 10.351-.638-.186-1.068.603-.65-1.845-3.156-3.017-18.103-8.425-36.427-11.384 1.427-1.102 1.625-2.959.29-2.704.429-3.145 4.212-14.1 9.469-27.839c.325-.847.012-1.764.836-2.576q.418-.406.499-.975.267-1.88 1.613-3.214a1.485 1.485 0 0 0-.522-2.437c-6.835-2.576-14.169-5.21-20.424-9.121q-3.98-2.483-7.845-5.152-5.93-4.12-7.311-6.731c-1.126-2.135-.209-4.932.081-6.881a1.079 1.091 23.9 0 0-.371-.975q-.905-.778-1.764-.952z" fill="#93d8f2"/><path d="M179.001 355.457q.859.174 1.764.952a1.079 1.091 23.9 0 1 .371.975c-.29 1.95-1.207 4.746-.081 6.881q1.381 2.611 7.311 6.731 3.864 2.669 7.845 5.152c6.255 3.911 13.589 6.545 20.424 9.121a1.485 1.485 0 0 1 .522 2.437q-1.346 1.335-1.613 3.214-.081.569-.499.975c-.824.812-.511 1.729-.836 2.576q-5.257 13.74-9.469 27.839-.139.441-.429 3.145-.197 1.857-1.625 2.959c-6.615-1.335-15.805-2.066-21.201 2.773-11.976 10.746-18.567 23.418-25.193 38.005q-6.092-4.851-11.245-10.757-1.056-1.218-3.319-1.787-.557-.139-.812-.638c-.894-1.706-4.665-3.331-6.452-4.073q-.499-.197-.522-.743l-.116-2.263q1.857-15.167 3.597-20.285c2.24-6.557 3.934-13.078 6.963-19.298 2.762-5.698 5.489-11.86 8.425-17.035q11.175-19.693 26.191-36.856z" fill="#c9f4fc"/><path d="M261.173 377.633q-1.218 2.286-1.16 3.725.511 13.438-.975 21.77c-.719 4.004-7.787 5.35-10.978 3.934-4.909-2.193-2.449-12.521-.511-17.047q2.646-6.174 6.243-11.895a1.3 1.3 0 0 0 .162-1.021q-.464-1.845 1.23-2.1 3.771-.569 5.976 2.425a.209.197 43.4 0 1 .012.209zm11.303 2.762c-.371-1.137-1.671-2.263-.952-3.957q.209-.499.731-.661 2.565-.836 3.586.569 5.837 8.054 12.196 15.713c2.507 3.006 3.876 5.733 2.193 9.295-1.938 4.12-6.893 4.398-9.62.975-4.445-5.605-5.837-14.9-8.135-21.933z" fill="#759703"/><path d="M298.354 506.2c-3.771-10.479-6.255-21.364-9.806-31.669q-2.205-6.417-4.212-12.904c-1.439-4.677-3.725-9.713-5.234-14.761q.29-3.969 3.783-5.907 5.64-3.133 9.585-5.895c1.938-1.358 4.746-2.17 6.255-3.829q6.348-6.974 10.85-15.248c1.358-2.483 3.551-4.154 6.255-2.948 6.069 2.739 3.04 15.504 1.218 19.716q-1.01 2.344.998.766c10.351-8.123 6.22-17.592 6.951-28.779a2.657 2.657 0 0 1 2.727-2.483c3.18.07 6.034 1.996 9.365-.139a1.474 1.474 0 0 1 1.102-.197c4.99 1.01 9.052 3.249 11.953 7.415 2.193 3.145 7.636 3.435 9.423 5.744 1.961 2.518 3.377 4.758 6.232 6.441q2.135 1.265 4.247 2.541c2.82 1.717 5.025 8.959 5.292 12.046 1.149 13.136-.429 28.35-9.945 37.761q-10.177 10.05-22.501 17.244c-5.06 2.971-11.28 5.338-16.989 7.972a.905.928 76.7 0 0-.534.847c.081 8.042-1.393 14.668-10.247 15.887-8.332 1.137-11.906-2.959-15.713-9.551q-.348-.603-1.056-.07z" fill="#fecf97"/><path d="M266.871 422.786q.766-.128 1.253.627.255.418.267 1.265 0 1.276.441 1.95 2.785 4.212 4.421 8.994c.952 2.773 2.379 4.595 4.015 6.823 1.01 1.358 1.068 2.936 1.834 4.421 1.509 5.048 3.795 10.084 5.234 14.761q2.008 6.487 4.212 12.904c3.551 10.305 6.034 21.19 9.806 31.669q.464 6.406 2.75 12.057a2.646 2.646 0 0 1-.58 2.866c-6.916 6.928-14.134 10.653-24.497 15.039q-6.499 2.75-13.218 4.305-8.738 2.031-17.43 3.632l-19.925.545a.476.476 0 0 1-.499-.464l-1.311-40.627c.754-17.639 1.787-35.487 9.04-51.292 2.414-5.268 8.959-4.096 9.585-9.446q.429-.789 1.068-.603.545.673 1.242.882.569.162 1.044-.209c8.877-6.974 15.086-11.848 21.248-20.099z" fill="#c9f4fc"/><path fill="#fa3e17" d="M202.686 428.415q18.324 2.959 36.427 11.384 2.507 1.172 3.156 3.017c-.627 5.35-7.172 4.178-9.585 9.446-7.253 15.805-8.286 33.653-9.04 51.292l-.174-3.98q-.012-.348-.348-.244l-1.01.337q-.232.081-.209.325l.476 3.702q.023.162-.139.139-.267-.046-.313-.22-.162-.569-.731-.395c-1.184.383-2.333-.279-3.029-.093q-.174.046-.325.162-.302.232-.685.267l-6.707.661q-.429.046-.859-.058-1.149-.302-2.182.638-.29.255-.22-.116.081-.511-.441-.557-8.901-.615-17.685.754-.325.058-.615-.279-.348-.395-.882-.406c-5.779-.093-11.895-.661-17.476 1.068q-2.959.905-10.873.093c-2.263-.232-4.735-1.555-7.439-1.59q-.627-.012-1.044.453-1.497 1.694-.917 4.178a.94.952 61.5 0 1-.279.928q-1.021.963-.882 2.263.174 1.671-.731 2.333c.569-8.1.685-16.606 2.391-24.01q1.984-8.553 5.976-20.714c6.626-14.587 13.218-27.259 25.193-38.005 5.396-4.839 14.587-4.108 21.201-2.773z"/><path d="M133.825 448.931l.116 2.263q.023.545.522.743c1.787.743 5.559 2.367 6.452 4.073q.255.499.812.638 2.263.569 3.319 1.787 5.152 5.907 11.245 10.757-3.992 12.162-5.976 20.714c-1.706 7.404-1.822 15.91-2.391 24.01q-.998 1.346-2.855-.429c-2.959-2.832-1.764-6.591-1.671-10.119q.058-2.739-1.044-5.396-4.027-9.632-4.978-12.753-5.419-17.848-3.551-36.287z" fill="#93d8f2"/><path fill="#f30a04" d="M223.644 503.554l1.311 40.627a.476.476 0 0 0 .499.464l19.925-.545q.58-.162 1.393-.046a.778.778 0 0 1 .661.661l1.149 8.1 2.356 13.473a1.01 1.01 0 0 1-.882 1.172q-9.365.952-18.358.685-1.578-.035-3.226.94a1.416 1.416 0 0 0-.627.859c-.801 3.377.998 9.307 1.474 13.102a1.462 1.462 0 0 1-1.427 1.636q-20.761.279-41.231-4.201c-6.765-1.485-13.392-4.514-19.948-7.16q-.569-.232-1.497.081-.603-1.195-1.404-1.729-5.187-3.458-10.003-7.404c-3.528-2.89-4.63-5.895-5.152-10.676q-2.193-19.832-.731-39.676.905-.661.731-2.333-.139-1.3.882-2.263a.94.952 61.5 0 0 .279-.928q-.58-2.483.917-4.178.418-.464 1.044-.453c2.704.035 5.176 1.358 7.439 1.59q7.914.812 10.873-.093c5.582-1.729 11.697-1.16 17.476-1.068q.534.012.882.406.29.337.615.279 8.785-1.369 17.685-.754.522.046.441.557-.07.371.22.116 1.033-.94 2.182-.638.429.104.859.058l6.707-.661q.383-.035.685-.267.151-.116.325-.162c.696-.186 1.845.476 3.029.093q.569-.174.731.395.046.174.313.22.162.023.139-.139l-.476-3.702q-.023-.244.209-.325l1.01-.337q.337-.104.348.244z"/><path fill="#4e556f" d="M379.156 532.391q.859 34.605-13.206 63.013c-11.106 22.432-32.284 39.92-37.784 65.6a3.052 3.075 0 0 1-2.344 2.356l-6.069 1.311c-6.464-.557-12.556.534-19.066.429q-3.702-.058-6.522 1.137.348-1.567-1.509-1.88-3.261-.545-5.767-1.102a2.576 2.576 0 0 1-1.938-3.098c2.124-9.156 4.769-18.649 5.64-27.178.963-9.33 1.462-20.865-1.393-29.638q-2.112-6.499-5.884-10.479c-4.201-4.433-13.972-5.408-19.171-1.01-5.21 4.41-6.8 15.794-6.835 22.176q-.139 24.439 8.877 47.045a1.892 1.892 0 0 1-1.021 2.437c-2.866 1.184-6.777.383-8.135 4.154-3.331-2.657-8.32-1.265-12.521-1.648q-10.607-.94-20.633-.058-3.899-1.509-4.294-2.89c-1.729-5.907-3.203-12.347-5.709-17.592q-3.481-7.334-8.1-13.345-6.116-7.961-20.157-25.217c-7.613-9.353-13.566-18.788-19.031-28.733q-1.056-1.938-1.369-4.781.928-.313 1.497-.081c6.557 2.646 13.183 5.675 19.948 7.16q20.47 4.479 41.231 4.201a1.462 1.462 0 0 0 1.427-1.636c-.476-3.795-2.274-9.725-1.474-13.102a1.416 1.416 0 0 1 .627-.859q1.648-.975 3.226-.94 8.994.267 18.358-.685a1.01 1.01 0 0 0 .882-1.172l-2.356-13.473q35.463.882 68.989-5.222c16.989-3.087 34.141-5.814 50.422-11.744q5.767-2.1 11.164-3.458z"/><path d="M814.965 551.504c-7.23.522-6.371 11.106-5.164 15.863q3.133 12.382 16.281 10.746 5.28-.661 8.901-4.236a1.091 1.079 45.2 0 1 1.532.012q2.286 2.298 1.845 4.746c-.441 2.507-2.483 6.789-5.396 7.798-4.247 1.485-7.798 3.563-12.637 4.27-8.68 1.265-17.337-1.961-23.302-8.1-4.27-4.398-7.903-13.554-6.557-19.774q1.706-7.903 6.87-13.995c4.746-5.617 15.643-9.411 22.733-8.204 2.541.429 4.769 1.787 7.253 2.797 2.228.917 4.421.719 6.707.627q1.068-.046 1.717.801c3.412 4.479 6.081 11.825 1.613 16.304-5.106 5.118-8.146-.081-10.641-4.015q-3.934-6.197-11.755-5.64zm54.282-11.046a26.598 25.391.7 0 0-26.906 25.063 26.598 25.391.7 0 0 26.287 25.716 26.598 25.391.7 0 0 26.906-25.065 26.598 25.391.7 0 0-26.287-25.714zm-3.407 11.079c2.723-.083 5.856 1.688 7.194 4.585 2.367 5.118 5.409 13.95 4.028 19.972-1.068 4.677-6.929 5.895-10.12 1.834-1.787-2.274-2.936-5.779-4.073-8.495-1.532-3.652-2.119-7.934-1.763-12.847.25-3.46 2.332-4.977 4.735-5.05zm50.282 16.376q-1.114 6.348-.36 12.753a1.694 1.694 0 0 0 .592 1.091c1.346 1.126 3.075 2.066 3.528 3.783 1.752 6.696-11.547 5.907-14.831 5.222q-3.644-.754-4.619-4.468-.151-.569.186-1.044c1.613-2.321 4.027-3.655 4.166-6.905q.499-11.755-.383-23.488c-.348-4.746-2.321-5.524-5.06-8.1q-.395-.371-.441-.905c-.569-5.837 9.458-5.791 13.276-5.512q2.692.197 5.002 1.88 3.214 2.333 6.116 5.048c5.698 5.326 10.015 9.098 15.446 13.31a1.335 1.335 0 0 0 2.124-.801q.882-4.537-.371-9.144c-.685-2.495-2.936-2.657-3.621-4.7-2.565-7.647 13.055-5.582 16.583-4.653a1.578 1.578 0 0 1 .894.603c1.799 2.483 1.184 4.259-.766 6.603q-2.205 2.657-2.333 6.359-.441 12.417-.371 24.845c.023 2.715-.197 8.785-1.926 10.885q-.36.441-.928.499-2.924.29-4.584-1.218-10.85-9.91-21.828-19.658-2.031-1.81-4.572-2.797-.766-.313-.917.511zm91.78-11.883q-3.029 3.992-7.717 1.845-2.808-1.926-4.619-5.071c-.824-1.439-2.1-2.019-3.296-.627a1.509 1.52 66.3 0 0-.383.975q-.36 10.92-.128 25.193c.07 4.352 3.203 3.145 4.305 6.185 1.288 3.539-1.938 5.431-5.152 5.965-4.236.708-22.118 1.857-23.441-4.027-.812-3.574 2.623-3.829 4.99-4.433a2.089 2.066 86.1 0 0 1.567-1.81q1.427-13.508.569-27.062a1.648 1.555 27.5 0 0-.29-.836q-1.288-1.845-2.669-.232-3.516 4.143-4.665 5.199c-3.029 2.762-7.032 1.729-8.077-2.216-1.126-4.282 3.864-12.51 7.311-14.471q.499-.29 1.068-.209c9.887 1.369 21.445.708 33.514.116q1.706-.081 2.889 1.613c2.855 4.062 5.663 9.133 4.224 13.902zm31.97-15.696l-1.879.088c-6.533.545-12.162.65-18.347.684-2.483.023-8.517 1.136-9.701 3.515a2.216 2.205 29.4 0 0 .8 2.844c4.851 3.064 4.294 6.649 4.433 12.892a205.22 205.22 0 0 1-.326 17.441c-.197 3.249-1.298 3.68-3.561 5.548-3.238 2.657-.964 5.605 2.262 6.464 7.276 1.938 12.626 1.218 19.925.197 1.068-.147 1.734-.751 1.997-1.811.777-3.11-.72-3.922-2.495-5.836-2.658-2.855-1.695-8.299-1.428-12.013.031-.379.241-.572.628-.58a13.38 13.38 0 0 1 4.281.698 1.346 1.346 0 0 1 .848.8 146.22 146.22 0 0 1 3.794 10.712c2.147 6.87 3.608 9.248 10.861 9.782 4.688.348 10.747-.025 12.998-4.295a3.098 3.098 0 0 0-1.718-4.374l-3.098-1.09c-.472-.162-.748-.487-.825-.975-.731-4.398-1.786-8.31-4.699-12.058-.986-1.265-2.635-2.17-3.853-3.4-.363-.371-.318-.672.138-.904 3.655-1.868 5.396-5.305 6.464-8.844 1.253-4.166-1.716-9.828-5.279-12.033-3.798-2.335-7.873-3.488-12.221-3.454zm-4.247 8.119a2.449 2.449 0 0 1 2.67 2.239l.637 7.971a2.449 2.449 0 0 1-2.146 2.625l-2.865.358a2.449 2.449 0 0 1-2.74-2.575l.465-8.159a2.449 2.449 0 0 1 2.217-2.296zm58.489-7.958a26.69 25.31.9 0 0-27.085 24.886 26.69 25.31.9 0 0 26.292 25.727 26.69 25.31.9 0 0 27.085-24.889 26.69 25.31.9 0 0-26.291-25.725zm-2.851 11.063c2.098.032 4.282 1.151 5.612 3.334 3.35 5.531 4.974 11.896 4.873 19.091-.046 2.936-.707 5.106-3.62 6.174-5.988 2.193-8.971-7.346-10.99-12.173a21.78 21.78 0 0 1-1.555-11.106c.424-3.603 2.982-5.361 5.68-5.319zm55.418 28.841a1.706 1.729 87.3 0 0 1.497 1.346c6.278.731 8.878.267 11.546-6.951q1.543-4.178 4.99-1.358l.441.36a6.661 6.684 28.2 0 1 2.147 7.148c-1.16 3.737-2.843 10.154-7.775 9.945q-15.538-.685-31.089-.592-2.739.012-4.073-2.216a2.263 2.263 0 0 1 .963-3.191c2.506-1.195 3.899-2.727 3.957-5.721q.313-14.181-.383-28.292-.035-.592-.522-.917c-2.483-1.625-6.278-.917-5.767-5.176a1.288 1.311 75.8 0 1 .557-.917c6.499-4.445 14.599-4.05 22.049-2.959 2.472.371 3.679 1.393 4.978 3.365a1.857 1.857 0 0 1-.522 2.565q-3.806 2.53-3.714 7.427.197 10.595.232 21.178.012 2.727.487 4.955zm61.782 10.491l-35.765-.592q-.557 0-.801-.511c-2.483-5.048 3.737-5.988 3.853-10.525q.371-13.705-.592-27.073a3.284 3.284 0 0 0-1.961-2.762c-1.799-.778-6.127-2.762-3.447-5.454 4.723-4.758 15.805-3.946 21.863-3.029 2.251.348 4.143 1.369 5.28 3.226a2.158 2.158 0 0 1-.58 2.89c-2.46 1.764-4.236 2.576-4.305 6.046q-.371 17.964.174 25.82c.232 3.377 4.944 3.098 7.938 2.936 3.238-.197 5.35-5.303 6.278-7.903a2.565 2.553 32.2 0 1 4.201-.952c1.729 1.694 3.992 4.99 3.075 7.589q-1.59 4.561-3.644 9.284a1.671 1.683 12.6 0 1-1.567 1.01zm86.625-50.357c-1.348-.012-2.774.04-4.302.143a171.79 171.79 0 0 1-17.291.267c-1.586-.062-3.606.473-6.058 1.602-2.506 1.16-3.621 3.748-1.16 5.628 2.089 1.586 3.166 3.423 3.227 5.512.244 8.495.8 18.185-.267 26.575a1.497 1.485 72.9 0 1-.487.927c-2.054 1.741-4.898 3.412-3.18 6.766 2.321 4.526 19.704 2.716 23.916 1.636a1.16 1.16 0 0 0 .755-.614 5.34 5.34 0 0 0 .313-4.121 1.474 1.52 3.5 0 0-.789-.916c-1.16-.557-2.149-1.323-2.969-2.298a1.509 1.543 24.6 0 1-.372-1.034l.138-9.76a1.369 1.369 0 0 1 1.602-1.321c2.375.395 3.957 1.617 4.746 3.667 1.845 4.816 2.611 9.364 5.408 14.261 3.377 5.918 13.891 4.978 18.846 2.622 3.029-1.439 4.397-5.453.73-7.101l-3.017-1.301a1.242 1.23 2.5 0 1-.721-.777 270.13 270.13 0 0 1-2.795-9.469c-.708-2.541-3.992-4.107-5.895-5.766-.348-.302-.337-.588.034-.859 1.311-.94 2.82-1.671 3.783-2.82 3.052-3.644 4.701-12.324.628-15.956-4.63-4.13-8.984-5.44-14.823-5.494zm-6.645 7.897h.161a5.547 5.849 2.5 0 1 5.292 6.092l-.081 1.741a5.547 5.849 2.5 0 1-5.791 5.591h-.161a1.601 1.601 0 0 1-1.532-1.67l.451-10.224a1.601 1.601 0 0 1 1.661-1.53zm-40.814 26.689a2.008 2.019 45.1 0 1-3.539 0c-1.532-2.82-1.567-7.288-6.348-6.023q-.661.174-.673.859-.058 2.483-.116 9.249-.023 2.901 2.159 3.249 4.561.708 10.015.07c4.897-.58 6.255-4.92 8.982-8.506a1.59 1.59 0 0 1 2.17-.348q3.423 2.344 2.24 7.009c-.777 3.052-1.984 10.131-6.754 9.841-12.626-.778-25.46.093-36.229.023-3.4-.023-5.999-3.075-2.971-5.779 1.717-1.543 2.89-2.75 3.087-5.245q1.021-13.078-.104-26.122-.348-3.98-3.307-6.441-.453-.383-.627-.963c-1.485-4.92 7.543-5.222 10.305-5.141q14.657.441 29.406-.22a1.601 1.567 65.2 0 1 1.184.453q4.561 4.549 3.412 11.187-.58 3.331-3.493 3.145a2.147 2.112 72 0 1-1.52-.789c-1.694-2.054-3.621-5.118-6.533-5.489q-4.456-.569-8.959-.406a2.657 2.646 89.6 0 0-2.541 2.588l-.209 8.413q-.035 1.717 1.683 1.822l1.764.104q2.007.116 2.379-1.857.499-2.669 1.868-4.909a2.031 2.031 0 0 1 2.948-.569q1.416 1.068 2.066 3.284 2.727 9.295-1.741 17.511z" fill="#012160"/><path d="M319.753 664.671q8.703 4.932 18.707 5.57 19.449 1.265 35.684.94c3.632-.081 9.806.035 10.258 5.222a1.799 1.799 0 0 1-.348 1.195c-5.628 7.497-20.087 7.288-27.317 6.94-16.037-.754-31.309-1.764-45.641-5.709a.894.917 22.1 0 0-1.044.453l-.522.998a2.739 2.762 11.7 0 1-2.228 1.474c-5.071.395-11.361 1.277-12.579-5.385q-.754-4.178-.557-10.131 2.82-1.195 6.522-1.137c6.51.104 12.603-.986 19.066-.429zm-62.723 2.994q-2.286 8.32-5.361 13.032c-1.799 2.75-8.634 1.509-11.303 1.218-1.427-.162-1.787-.545-2.773-1.509q-.453-.429-1.068-.325-21.143 3.505-42.531 4.781-11.024.65-21.77-1.857c-2.959-.685-10.572-4.375-8.007-8.692 1.404-2.367 5.176-3.122 7.717-3.017q21.213.917 39.165-1.126 5.779-.65 12.777-4.212 10.026-.882 20.633.058c4.201.383 9.191-1.01 12.521 1.648z" fill="#49494a"/></svg>