<svg xmlns="http://www.w3.org/2000/svg" viewBox="0 0 445 446"><path d="M127.724 79.051a.82.82 0 0 1 .48-1.06l5.38-2.02a2.61 3.13 69.4 0 1 3.85 1.34l.32.86a2.61 3.13 69.4 0 1-2.01 3.55l-5.38 2.02a.82.82 0 0 1-1.06-.48zm12.05 5.04c3.13.65 7.28 4.34 9.92 6.22q1.56 1.12-.26 1.76l-3 1.06q-1.64.57-2.99-.5c-2.73-2.17-7.56-6.97-11.64-5.04a.73.74 67 0 0-.38.92l3.06 8.05a1.22 1.22 0 0 1-.78 1.6l-3 .94q-.93.29-1.28-.62l-8.33-21.57a.91.91 0 0 1 .54-1.18q6.7-2.47 13.08-4.64c6.78-2.31 12.4 9.28 5 12.27q-1.17.48.06.73zm151-4.49l4.73-6.22a.31.31 0 0 1 .56.17l.36 7.81a.31.31 0 0 1-.4.31l-5.1-1.59a.31.31 0 0 1-.15-.48zm-3.53 4.62l-2.2 3.14q-.69.99-1.87.72l-3.16-.74a.9.9 0 0 1-.5-1.43l14.91-19.03q.39-.5 1.03-.6c4.48-.73 5.2 1.77 5.55 5.58q.99 10.68 1.66 21.29a.72.72 0 0 1-.91.74l-3.71-1.01q-.79-.21-.84-1.01l-.26-4.32a1.3 1.3 0 0 0-.9-1.15l-7.82-2.51q-.61-.19-.98.33zm-22.57-18.84a1.82 1.82 0 0 1 2.14-1.43l2.72.54a5.72 5.89 11.2 0 1 4.47 6.89l-.88 4.43a5.72 5.89 11.2 0 1-6.75 4.67l-2.73-.54a1.82 1.82 0 0 1-1.43-2.14zm-4.2-6.1a1.16 1.16 0 0 1 1.36-.92l8.95 1.72a10.73 10.92 10.9 0 1 8.47 12.76l-.66 3.39a10.73 10.92 10.9 0 1-12.6 8.7l-8.94-1.72a1.16 1.16 0 0 1-.92-1.36zm-80.83 5.24a.87.87 0 0 1 .74-.97l3.91-.52a6.12 5.49 82.4 0 1 6.25 5.34l.51 3.82a6.12 5.49 82.4 0 1-4.63 6.79l-3.91.53a.87.87 0 0 1-.98-.75zm-6.02-3.33a1.21 1.21 0 0 1 1.02-1.37l9.04-1.31a10.97 10.82 81.8 0 1 12.27 9.32l.48 3.3a10.97 10.82 81.8 0 1-9.14 12.41l-9.04 1.3a1.21 1.21 0 0 1-1.37-1.03zm-17.05 18.54l.96 4.35a1.08 1.08 0 0 0 1.35.8l11.61-3.33a1.08 1.08 0 0 1 1.34.74l.65 2.3a1.08 1.08 0 0 1-.76 1.33l-16.76 4.51a1.08 1.08 0 0 1-1.33-.77l-5.9-22.13a1.08 1.08 0 0 1 .77-1.32l16.33-4.26a1.08 1.08 0 0 1 1.32.8l.56 2.37a1.08 1.08 0 0 1-.79 1.29l-11.14 2.82a1.08 1.08 0 0 0-.78 1.32l.77 2.95a1.08 1.08 0 0 0 1.32.77l10.31-2.73a1.08 1.08 0 0 1 1.33.83l.49 2.48a1.08 1.08 0 0 1-.82 1.26l-10.02 2.34a1.08 1.08 0 0 0-.81 1.28zm89.31-7.2l.96-14.18q.1-1.4 1.5-1.35l1.88.08a1.42 1.42 0 0 1 1.37 1.5l-1.25 21.88a1.45 1.45 0 0 1-1.21 1.34q-4.26.68-5.9-2.69-3.24-6.64-6.33-12.98-.57-1.18-.68.13l-1.17 13.51q-.08 1.03-1.12 1.07l-2.72.09q-1.12.04-1.04-1.08c.22-3.21.76-6.41.77-9.75q0-6.9 1.23-13.7.09-.48.58-.51c2.46-.17 4.16.2 5.41 2.55q3.77 7.13 7.24 14.19a.25.25 0 0 0 .48-.1zm-32.016-17.137l-2.039.068a10.94 10.94 0 0 0-10.572 11.297l.129 3.857a10.94 10.94 0 0 0 11.297 10.57l2.037-.066a10.94 10.94 0 0 0 10.572-11.297l-.129-3.859a10.94 10.94 0 0 0-11.295-10.57zm-.977 4.404a8.53 6.94 87.5 0 1 7.307 8.219 8.53 6.94 87.5 0 1-6.562 8.826 8.53 6.94 87.5 0 1-7.305-8.221 8.53 6.94 87.5 0 1 6.561-8.824zm159.413 73.743l-1.47 1.78a1.06 1.06 0 0 1-1.5.13l-11.99-10.18a1.06 1.06 0 0 1-.11-1.5l15.15-17.4a1.06 1.06 0 0 1 1.57-.04l2.16 2.27a1.06 1.06 0 0 1 .03 1.43l-12.01 13.86a1.06 1.06 0 0 0 .12 1.5l7.92 6.66a1.06 1.06 0 0 1 .13 1.49zm-27.79-23.12l10.06 6.75a.98.98 0 0 1 .28 1.35l-1.39 2.14a.98.98 0 0 1-1.37.28l-14.28-9.7a.98.98 0 0 1-.27-1.36l12.85-19.12a.98.98 0 0 1 1.36-.26l13.87 9.35a.98.98 0 0 1 .28 1.33l-1.32 2.08a.98.98 0 0 1-1.37.29l-9.6-6.46a.98.98 0 0 0-1.4.32l-1.63 2.8a.98.98 0 0 0 .28 1.3l8.36 5.91a.98.98 0 0 1 .32 1.23l-1.03 2.12a.98.98 0 0 1-1.43.39l-8.86-5.99a.98.98 0 0 0-1.35.24l-2.61 3.63a.98.98 0 0 0 .25 1.38zm-16.89-26.91a.8.8 0 0 1 1.07-.36l3.36 1.69a5.7 5.87 26.6 0 1 2.47 7.8l-2.05 4.09a5.7 5.87 26.6 0 1-7.72 2.7l-3.37-1.68a.8.8 0 0 1-.35-1.08zm-2.71-6.12a.99.99 0 0 1 1.33-.44l8.23 4.2a10.71 11.1 27 0 1 4.51 14.75l-1.32 2.59a10.71 11.1 27 0 1-14.58 5.02l-8.23-4.19a.99.99 0 0 1-.44-1.33z" fill-rule="evenodd" fill="#9b1a1b"/><path fill="#9b1a1b" d="M243.924 132.311q-.04-.16-.08-.31a.25.25 0 0 0-.24-.19q-3.28.07-4.16-.29-6.55-2.64-10.52-2.88-6.96-.41-11.47-.4-5.33.02-.12-1.07c12.72-2.68 34.98-.58 43.54 11.85q1.61 2.34 3.32 3.36c5.13 3.06 11.84 4.34 17.55 6.1 2.25.7 3.59 2.3 3.61 4.56.02 3.23-.33 9.57-4.84 6.7a1.11 1.14 9.5 0 1-.5-.72c-2.5-11.72-16.29-11.6-26.07-13.83a2.26 2.26 0 0 1-1.73-1.85l-1.06-6.51a3.67 3.66 77.6 0 0-4.6-2.94q-3.64 1.03-7.13 2.53-3 1.3-4.13-1.61a1.17 1.17 0 0 1 1.34-1.57q3.57.74 6.98-.35.44-.14.31-.58zm-25.76 3.3q2.63-.33 3.68.18 3.88 1.87-.44 2-1.46.05-2.72.77a1.27 1.27 0 0 0 .01 2.21c2.47 1.38 8.88.49 11.12-.36a3.48 3.5 44.9 0 1 2.44-.01q9.3 3.43 19.17 5.85c6.56 1.61 13.34 5.02 16.45 11.55q.23.47-.04.92c-1.56 2.69-3.68 2.3-5.8.44-13.29-11.63-30.3-13.68-46.53-17.27q-.48-.11-.85.21-2.98 2.49-6.6 1.34c-8.2-2.6-15.7-5.23-22.91-.17q-1.77 1.25.4 1.23 6.33-.08 13.4 1.33c6.52 1.29 11.95 3.63 16.49 8.86a1.08 1.09 48.6 0 1-.1 1.53q-.69.61-2.17.31c-2.2-.44-4.46-.79-6.51-1.73-9.34-4.28-15.54-9.29-26.68-7.36q-.5.09-.97-.1c-2.69-1.07-6.79-4.15-9.66-3.31-3.79 1.11-7.61 2.64-11.64 2.01a1.3 1.32 17.2 0 0-1.38.74c-.96 2.06-3.48 5.49-6.07 5.51q-.48 0-.82-.33c-5.69-5.45-17.3-10.22-25.16-8.25q-2.15.54-4.34.91-3.27.55-1.28-2.1.13-.17 1.47-.59 14.76-4.66 28.47 2.23 1.34.68 5.59.44c13.26-.75 25.53-6.91 38.48-9.52 3.27-.66 3.25 2.23 7.01 1.22 6.11-1.63 10.82-3.84 17.51-3.27a1.09 1.09 0 0 1 .88 1.58l-.25.51q-.29.57.35.49z"/><g fill-rule="evenodd"><path d="M309.184 170.891c4.82 1.144 10.539-.625 15.755.023 3.318.764 13.614-.725 10.175 5.081-3.02 6.874-10.558 5.809-16.082 2.84-2.472-.34-2.187 5.262-6.38 2.627-6.566-.363-13.387-.648-19.608-2.606 1.768-4.256 13.893-4.444 11.07-9.336-7.551.608 6.408-5.723 8.17-1.89-.552 1.579-3.954.679-3.1 3.26zm32.53 2.35c4.775 1.588-.55 9.26 6.529 6.741 4.449-.86 7.601 4.64 1.447 4.415-4.687 1.946-12.841-.103-15.526 3.434 6.193 5.775 15.365 3.31 22.888 5.565 4.667-1.055 13.021 8.398 3.982 6.006-8.045-.48-16.075-4.185-24.129-2.116-4.935 2.677 7.678 2.615 2.992 7.643-5.366 4.489 9.833 2.637 4.298 7.982 4.076 5.881-6.8 3.107-7.098-1.504-3.536-3.925-3.815-.861-1.724 1.981-6.755 5.175-6.744-10.985-12.034-4.538-.784 4.261 1.318 14.69-5.874 12.052-6.417-1.256-.025-10.2-1.963-14.845-.55-5.83 6.37-14.648-2.896-15.901-7.342-2.711-15.103-4.833-22.922-5.127 4.368 5.904-.359 13.399-7.621 10.307-6.248-1.901 4.734-7.96-2.219-11.224-11.31-9.883-28.945-13.169-42.431-5.965-8.761 2.766-4.469 10.781-1.322 16.309-2.609 2.28-14.701 2.518-12.15-3.664.378-3.053 1.162-6.1 1.284-9.156-5.87-1.594-12.594 1.539-18.214 3.617-5.078 2.537-10.522 4.38-16.286 3.896-3.108.72-12.048-.113-4.357-2.811 14.289-7.285 31.467-4.607 45.464-12.679 6.954-2.325 13.516-4.915 20.205-6.67 10.509 1.609 21.104 3.747 30.683 8.519 4.587.961 5.891-3.67 7.621-5.163 2.276-.372 5.311.833 7.071-.651-1.123-2.281-5.89-3.607-.844-5.189 13.943-2.773 28.698-1.51 41.907 3.676 3.999-2.402 12.33 2.441 4.554 4.187-.163-.127-2.054.118-1.314.873zm77.83 65.98q.02-.32-.3-.33l-5.87-.25q-.42-.01-.46.41l-1.25 11.53a1.69 1.68 9.8 0 1-2.07 1.46l-1.02-.24q-1.69-.4-1.46-2.13l2.16-15.65q.2-1.49 1.69-1.28l22.31 3.16a1.06 1.05 8.4 0 1 .9 1.2l-2.32 15.79q-.23 1.59-1.83 1.54l-.8-.03q-1.97-.07-1.7-2.02l1.48-10.82q.17-1.22-1.05-1.38l-2.82-.37a1.07 1.06 7.9 0 0-1.2.9l-1.46 9.98a1.6 1.59 4.3 0 1-1.59 1.36q-3.14-.03-2.72-2.23 1.05-5.5 1.38-10.6zm-6.31-23.68l.83 11.65a.58.58 0 0 1-.58.62l-3.5.02a.58.58 0 0 1-.58-.56l-.54-16.51a.58.58 0 0 1 .55-.6l23.29-1.11a.58.58 0 0 1 .61.55l.18 4.05a.58.58 0 0 1-.56.61l-19.14.66a.58.58 0 0 0-.56.62zm-4.1-22.64l3.08 10.29a1.02 1.02 0 0 1-.8 1.3l-2.45.42a1.02 1.02 0 0 1-1.15-.72l-4.33-14.99a1.02 1.02 0 0 1 .69-1.26l21.7-6.44a1.02 1.02 0 0 1 1.24.6l1.28 3.21a1.02 1.02 0 0 1-.67 1.36l-17.89 4.95a1.02 1.02 0 0 0-.7 1.28zm-4.38-26.83l8.06-1.35a.31.31 0 0 1 .28.52l-5.56 5.99a.31.31 0 0 1-.5-.06l-2.5-4.65a.31.31 0 0 1 .22-.45zm-.98 8.46l-3.9-7.51a1.24 1.24 0 0 0-1.32-.65l-3.54.64q-1.23.22-1.77-.9l-1.62-3.32q-.49-1.01.63-1.09 11.52-.83 22.61-1.75 1.9-.16 2.97.59c1.63 1.14 2.91 3.55 1.23 5.38q-8.12 8.87-15.79 17.39-1.13 1.25-1.84-.27l-1.27-2.71a1.78 1.78 0 0 1 .41-2.06l3.03-2.77a.8.81 54.9 0 0 .17-.97zm-12.53-24.93l15.67-5.02q1.91-.61 3.07 1.03l.88 1.25q1.11 1.58-.74 2.13l-22.96 6.8a1.39 1.41 63.1 0 1-1.5-.48c-1.14-1.48-2.8-3.34-1.36-5.42q6.45-9.32 12.92-19.05.91-1.38 1.86-.02l1.26 1.82q1 1.44.01 2.88l-9.39 13.7q-.42.61.28.38zm-358.09 95.93l-1.48-11.53a.41.41 0 0 1 .37-.46l3.41-.32a.41.41 0 0 1 .44.34l2.56 16.54a.41.41 0 0 1-.35.47l-23.95 3.23a.41.41 0 0 1-.47-.35l-.6-4.41a.41.41 0 0 1 .35-.46l19.37-2.6a.41.41 0 0 0 .35-.45zm-7.7-25.32l-7.14-3.16a.31.31 0 0 1 .04-.59l7.5-2.18a.31.31 0 0 1 .39.31l-.35 5.35a.31.31 0 0 1-.44.27zm5.24-6.75l-.36 8.08a1.49 1.51 13.6 0 0 .87 1.44l3.03 1.43a2.02 2.03 12.3 0 1 1.17 1.82l.04 2.94a.97.97 0 0 1-1.4.88l-21.83-10.73a2.03 2.02 3.7 0 1-1.02-1.16c-1.33-3.93 1.01-5.2 4.36-6.16q10.47-2.99 19.82-5.93 2.16-.68 1.98 1.58l-.07.96q-.2 2.52-2.63 3.23l-3.49 1.03q-.44.13-.47.59zm2.22-28.89a1.05 1.05 0 0 1-.58-1.37l1.84-4.54a2.46 4.27 22.1 0 1 3.89-3.03l1.39.57a2.46 4.27 22.1 0 1 .67 4.88l-1.84 4.54a1.05 1.05 0 0 1-1.37.58zm-9.07-3.42a1.18 1.18 0 0 1-.72-1.51l1.33-3.73a2.48 4.46 19.6 0 1 3.83-3.37l.7.25a2.48 4.46 19.6 0 1 .84 5.04l-1.33 3.73a1.18 1.18 0 0 1-1.51.71zm10.96-9.29c1.67-1.53 3.74-1.98 5.93-1.1q6.56 2.61 4.09 10.28-1.89 5.91-4.64 11.12a.85.83 23.9 0 1-1.04.39l-21.49-8.18a.74.74 0 0 1-.43-.94q1.87-5.16 3.95-10.39c2.76-6.92 8.36-7.37 12.66-1.28q.42.6.97.1zm10.66-14.69l-4.97-6.49a.31.31 0 0 1 .32-.48l7.92 2.01a.31.31 0 0 1 .18.47l-2.94 4.47a.31.31 0 0 1-.51.02zm7.86-3.2l-4.6 7q-.3.45.06.85l2.32 2.54a2.57 2.59 40.1 0 1 .26 3.13l-1.06 1.64q-1.08 1.7-2.27.07-6.92-9.49-14.07-19.47c-.98-1.36 1.26-4.05 2.48-4.86q.43-.29.94-.19l24.02 4.61q1.9.36.7 1.88l-1.45 1.83q-1.16 1.46-2.99 1.12l-3.24-.62q-.7-.13-1.1.47zm13.25-14.76l7.56-7.76a.99.99 0 0 1 1.47.06l1.52 1.85a.99.99 0 0 1-.04 1.31l-10.8 11.44a.99.99 0 0 1-1.41.04l-16.54-15.87a.99.99 0 0 1-.05-1.37l2.21-2.46a.99.99 0 0 1 1.43-.05l13.25 12.83a.99.99 0 0 0 1.4-.02zm6.98-24.96c5.71.1 10.39-6.84 15.88-2.22 9.66 8.13-5.58 21.14-13.58 14.92q-1.58-1.23-.14-2.63l1.14-1.11q1.51-1.47 3.05-.04c2.17 2.02 7.59-1.54 7.61-4.39q.02-2.46-2.53-2.85-.47-.08-.9.13c-3.85 1.8-9.51 4.85-13.34 2.64-10.31-5.93 5.44-21.16 12.51-13.24q.32.37.06.78-2.25 3.49-6.2 1.94-.5-.2-.99 0-2.94 1.19-3.9 4.2-.59 1.83 1.33 1.87zm26.88-10.59l-1.67-8.12a.31.31 0 0 1 .5-.3l6.27 5.42a.31.31 0 0 1-.04.5l-4.6 2.7a.31.31 0 0 1-.46-.2zm8.07.74q-3.21 1.9-6.01 3.47a2.36 2.35 69 0 0-1.14 2.58l.75 3.34a1.39 1.4 69.1 0 1-.69 1.53l-3.02 1.67q-1.08.6-1.25-.62-1.43-10.58-3.29-20.83-.37-2.03-.29-4.08.02-.54.44-.88 1.8-1.49 4.08-2.05a.85.84 57.2 0 1 .71.16l18.61 14.74q1.9 1.51-.19 2.75l-1.01.6q-2.21 1.3-3.96-.56-2.44-2.58-3.74-1.82zm143.12 138.65c-4.26 1.66-9.56 3.34-14.2 3.27q-5.25-.08-10.52.15-.1 0-.11-.1l-.04-.27a.22.23 84 0 1 .21-.25c5.22-.41 4.23-5.11 9.46-5.14 4.59-.03 11.17-.85 15.27 1.48a.48.48 0 0 1-.07.86zm-79.17-2.72l2.68.64a1.22 1.23 2.7 0 1 .94 1.04l.03.29a.57.57 0 0 1-.55.64c-9.14.39-19.76.94-27.51-2.27q-.49-.21-.42-.74l1.15-9.33a1 1.01 5.2 0 1 1.05-.88c7.85.43 15.7 2.38 23.35 4.13 6.77 1.56 16.24 1.07 22.5 1.69q3.88.39 6.64 2.56 1.4 1.1-.38 1.22c-5.86.39-11.03.53-16.81 1.96q-.51.12-.87-.27c-.92-1-1.59-1.97-2.99-2.29q-4.51-1.03-8.87.68a.48.49 41 0 0 .06.93zm24.18-7.8c-3.82-2.15-10.71.41-12.77-3.19a1.34 1.34 0 0 1 .82-1.96c6.78-1.78 13.73 1.66 19.49 1.24q8.46-.63 16.89-1.45c3.39-.33 6.2.31 9.43.83q1.22.2.32 1.05-6.17 5.83-13.65 5.56-7.74-.28-15.49-.65-2.71-.12-5.04-1.43zm-42.74-15.48c-2.42 1.84-6.3 2.64-5.76 6.64a1.15 1.14 79.2 0 1-.85 1.26q-4.77 1.26-8.97-1.05-1.43-.79-.33-2c3.87-4.24 10.06-5.39 15.37-6.16q2.82-.41.54 1.31zm117.81 4.97q.13.91.86 1.54 1.23 1.07-.08 2.04c-11.32 8.41-24.01 10.13-37.63 8.58q-.55-.07-.09-.37 4.92-3.22 9.7-6.72c3-2.21 5.35.99 9 .42a.8.81 81.4 0 0 .68-.91q-.06-.41-.57-.71-5.51-3.34-7.64-4.15c-2.84-1.08-4.22.79-6.33 1.97q-.44.25-.94.14-6.63-1.54-13.24-.11c-3.86.84-4.94.14-8.48-.91-.68-.2-2.15-.19-3.03-.03q-13.62 2.51-27.36 1.18c-3.29-.32-5.37.49-8.37 1.35-3.5 1.02-6.09.98-9.34-.05a.42.43 4.5 0 1-.29-.34q-.11-.6.61-.67 12.56-1.26 24.51-5.29c2.66-.89 5.16 1.83 8.22 1.13 13.77-3.15 26.74-7.72 40.71-5 3.4.66 8.95 4.87 12.5 1.2a.84.84 0 0 0-.56-1.42q-1.47-.09-2.3-1.23a.61.61 0 0 1 .62-.96q3.99.83 7.79 1.2 15.48 1.49 27.58 10.89.59.46-.09.78l-6.19 2.9q-2.07.96-1.58-1.27c.8-3.59-5.48-5.64-8.11-5.79a.54.53 87.8 0 0-.56.61zm-119.39 3.54q-.96.14-1.23-.43-.25-.53.26-.8c10.82-5.94 21.21-11.42 33.82-13.32q2.55-.38 11.44-.12a1.65 1.64 29.8 0 0 .94-.25c6.79-4.19 13.36-3.09 20.62-3.35q3.67-.13 9.76-1.44c2.43-.53 4.51-.16 7.35.52q4.88 1.17 9.92.7c2.17-.21 3.86.38 5.62 1.35a.52.52 0 0 1-.01.91c-5.71 3.08-11.7 2.75-19.36 1.93-5.9-.63-10.76-.22-16.03 1.2q-9.03 2.44-11.51 2.81-4.49.65-9 1.11c-7.95.82-15.43 3.79-23.32 4.32q-3.95.26-7.74.02-1.42-.09-2.61.68c-2.78 1.79-5.37 3.66-8.92 4.16zm106.08-16.38a.33.33 0 0 0 .23.51q1.94.27 3.88.34c5.51.19 11.39-3.28 14.91 2.74q2.28 3.9 6.35 6.13c5.16 2.82 8.87 5.3 11.86 9.37a.63.64 60 0 1-.26.95q-3.38 1.46-4.91 4.85a1.77 1.77 0 0 1-1.58 1.04c-2.81.05-7.51-.6-10 1.16-12.39 8.75-25.07 12.7-40.02 14.75-9.46 1.3-19.32 5.37-28.91 3.9-7.31-1.12-13.58.61-20.52.97q-4.85.25-8.38-2.9a.49.49 0 0 1 .27-.85q8.15-.78 16.36-1.81c7.47-.93 14.06-.97 21.25-.79a2.72 2.69 24.3 0 0 1.86-.69q1.37-1.23 3.13-1.79a.85.86 83.8 0 0 .6-.74q.09-.96-.94-1.4c-5.92-2.5-10.54 1.22-15.18 2.55-4.94 1.41-8.73-2.55-13.52-2.67-2.65-.07-5.67 1.55-8.19 2.46-6.12 2.19-12.17-4.27-17.87-2.15a1.23 1.27 3.7 0 0-.66.6q-1.51 3.04-4.5 1.57c-2.8-1.38-3.8-2.06-7.09-1.95-4.54.16-9.09.71-13.5-.33-2.79-.66-5.44-1.57-8.27-1.94q-3.9-.52-8.75-1.37a2.57 2.57 0 0 1-2.01-1.76l-.44-1.35a.76.76 0 0 1 .97-.95c3.64 1.25 8.02 4 11.87 2.92q.47-.13.46-.63c-.06-3.75 2.08-3.43 3.71-5.81a1.69 1.69 0 0 0-.94-2.58q-3.39-.94-6.24-.39c-3.83.73-9.27 3.11-12.55-.04q-.99-.95-.47-2.19.19-.46.68-.38 6.26 1.04 12.21-1.14a.48.48 0 0 0 .14-.82q-2.44-1.99-5.41-3.12a1.54 1.53 14.6 0 1-.98-1.66l1.51-10.59a.63.62 17.1 0 1 .9-.47c13.23 6.5 25.15-2.59 37.46-5.18 5.03-1.06 8.5-.36 12.64 1.05a1.06 1.04 34.1 0 0 .99-.18q3.27-2.67 4.35-3.4c2.49-1.66 7.08.55 9.77 1.3 3.23.91 4.76-1.82 7-2.02 6.92-.6 12.65 2.13 19.62-.7q2.27-.93 9.89-1.14 14.36-.39 28.47 2.22 2.23.41 3.83 1.07a1.27 1.27 0 0 1 .17 2.27c-1.52.91-4.36 1.75-5.25 3.16z" fill="#9b1a1b"/><path d="M212.914 287.771l3.03-8.87a.32.32 0 0 1 .61.02l2.4 8.74a.32.32 0 0 1-.3.41l-5.43.12a.32.32 0 0 1-.31-.42zm-66.98-.07l2.84-8.56a.32.32 0 0 1 .6.01l2.71 8.6a.32.32 0 0 1-.3.41l-5.54-.04a.32.32 0 0 1-.31-.42zm46.2-10.51a.57.57 0 0 1 .56-.57l1.52-.02a3.31 3.43 89.3 0 1 3.47 3.27l.04 2.5a3.31 3.43 89.3 0 1-3.39 3.35l-1.52.02a.57.57 0 0 1-.58-.57zm-122.16.08a.62.62 0 0 1 .6-.64l1.56-.05a3.61 3.56 88.2 0 1 3.67 3.5l.06 1.88a3.61 3.56 88.2 0 1-3.45 3.72l-1.56.05a.62.62 0 0 1-.64-.6zm212.36 9.44q-1.11.05-1.12 1.16l-.04 6.29q-.01 1.39 1.38 1.37l5.5-.06a1.33 1.33 0 0 0 1.29-1.06l.49-2.38a.96.96 0 0 1 1.52-.57q.67.52.7 1.57.05 2.08-.26 3.89a.84.85 5.4 0 1-.83.69l-17.56-.07a.43.43 0 0 1-.43-.45l.01-.27q.03-.75.78-.86 1.04-.16 1.61-.43.6-.28.6-1.28-.02-8.45-.06-16.64a1.28 1.29 3 0 0-1.15-1.28l-1.57-.16q-.93-.1-.77.82.15.86.24 2.08.06.87-.31 1.29-.41.47-1.04.37-.56-.1-.69-.65l-.66-2.69q-.13-.54-.68-.58l-3.44-.29q-.64-.05-.63.59l.1 17.81q.01.75.75.86l2.01.29a.41.41 0 0 1 .34.45l-.04.35a.77.77 0 0 1-.75.68l-10.18.12a.46.46 0 0 1-.46-.52l.04-.39a.83.82 87.5 0 1 .62-.69l1.71-.43q.61-.15.61-.78l.01-16.81q0-1.53-1.53-1.44l-1.95.12a1.6 1.59 89.6 0 0-1.49 1.52q-.05 1.14-.54 2.13a1.09 1.09 0 0 1-2.06-.57l.22-2.84a.48.49.5 0 0-.51-.52l-1.63.11q-.63.04-.63.67l.06 19.58q0 .62-.61.75c-1.35.3-2.36-.07-3.2-1.25q-5.66-7.99-11.28-15.75-.57-.78-.55.19l.19 13.84a1.2 1.21 87.3 0 0 1.3 1.18q.89-.06 1.6.51a.69.7 64 0 1-.43 1.24q-8.99.1-17.51-.1-.47-.01-.8-.16a.5.5 0 0 1 .02-.93l2.26-.89q.66-.27.46-.95l-1.14-3.87q-.15-.52-.69-.54l-6.42-.27q-.63-.03-.93.52-1.15 2.07-1.42 4.41a.7.7 0 0 0 .43.73q1.16.48 2.2.82.39.13.53.41a.49.49 0 0 1-.41.7q-5.04.34-10.09.15c-5.5-.2-6.74-5.4-8.86-9.39q-.59-1.11-2.02-.43-.39.18-.39.61l.07 5.97a1.47 1.47 0 0 0 1.07 1.4l1.89.54a.53.53 0 0 1 .09.98c-1.73.87-8.41.35-10.56.37q-.58 0-.56-.58l.01-.45a.73.73 0 0 1 .73-.7q.88-.01 1.65-.38.42-.21.42-.67l.03-16.55q0-1.91-1.91-1.98l-2.8-.09a1.81 1.8.5 0 0-1.87 1.83q.07 6.27-.02 13.74c-.11 8.58-16.75 8.32-16.77-.99q-.01-6.61.14-13.21.02-.59-.55-.75l-2.15-.63a.75.75 0 0 1-.54-.68l-.02-.31a.46.46 0 0 1 .45-.48l10.32-.09q.48-.01.67.44.15.36-.09.7-.15.22-.5.32-.99.27-1.98.51-.57.14-.57.73l-.1 14q-.03 3.68 3.65 3.93l1.84.12q3.87.26 3.9-3.62l.11-14.47a.7.7 0 0 0-.58-.69l-1.99-.34a.72.72 0 0 1-.6-.65l-.02-.26q-.04-.52.47-.53 12.4-.35 21.44-.07c4.84.16 7.81 4.57 5.35 9.06q-.46.84-2.98 2.84a.64.64 0 0 0-.15.83l4.45 7.21a2.45 2.45 0 0 0 4.39-.44l6.97-18.99a.9.91 5.2 0 1 .69-.58q1.78-.31 3.54.04a1 1 0 0 1 .75.65q3.17 9.26 6.45 18.44 1.22 3.4 5.32 1.47.45-.22.44-.72l-.15-16.92a.85.86 12.6 0 0-.47-.75q-.78-.39-1.65-.51-.62-.08-.85-.33-.26-.28-.28-.65-.05-.68.64-.7l6.05-.15q.69-.02 1.08.55l10.35 14.83q.54.77.54-.16l.04-11.97a1.29 1.29 0 0 0-1.24-1.29q-.91-.05-1.68-.5a.71.71 0 0 1 .36-1.32l44.87-.03a1.1 1.1 0 0 1 1.1 1.07l.08 4.19a.62.62 0 0 1-.65.64l-.45-.02a1.1 1.09 83.5 0 1-1.01-.81l-.63-2.41a.8.79 82.6 0 0-.75-.58l-5.69-.09q-.56-.01-.56.55l.05 7.04q0 .39.39.4l6.92.1a.39.39 0 0 1 .38.46l-.08.5a.94.94 0 0 1-.89.78zm-137.49 3.81l-1.18 4.25q-.19.68.49.87l2.5.68q.21.06.21.28l-.01.4a.46.46 0 0 1-.46.46l-7.42.1a.72.71 18.4 0 1-.58-1.15c1.07-1.38 2.26-.92 3.03-3.08q3.13-8.72 6.47-17.82a1.19 1.2 3.3 0 1 .84-.75q1.61-.4 3.23-.11a1.05 1.05 0 0 1 .82.68q3.47 9.16 6.62 18.36.63 1.86 2.48 2.5.78.27.47.94a.73.71 11.9 0 1-.66.42q-4.68.02-9.51-.17-.64-.03-.64-.24a1.07 1.07 0 0 1 .74-1.02q2.33-.73 1.94-2.16-.48-1.79-1.14-3.51a.84.81 78.8 0 0-.76-.53l-6.67-.02q-.64 0-.81.62zm-17.66-13.83l-2.96.09q-.95.03-1.07.97-.15 1.19-.54 2.26-.24.67-.65.88-.43.21-.86 0-.45-.22-.45-.72l.02-5.14a.37.37 0 0 1 .37-.37l18.62.08q1.02.01.97 1.03l-.22 4.33a.82.82 0 0 1-.93.78q-.13-.02-.26-.06-.48-.17-.59-.67l-.49-2.2q-.23-1.05-1.31-1.17l-2.61-.27q-1.07-.11-1.06.97l.14 17.54a.78.79 86.1 0 0 .89.77q1.07-.16 1.9.43a.7.69 62.2 0 1-.39 1.26l-10.08.16a.65.67 75 0 1-.57-.32q-.17-.28-.12-.56.05-.4.43-.52l2.11-.65q.46-.14.46-.63l.13-17.42q.01-.88-.88-.85zm-11.86 18c1.55-1.32.71-4.13-.99-5.06-4-2.21-9.97-3.47-9.35-9.33.73-6.84 8.1-6.51 12.96-4.88q.5.16.71.65.97 2.22-.39 4.1a1.75 1.75 0 0 1-3.16-1.08q.02-.74-.22-1.33a1.37 1.34 2 0 0-.72-.75q-2.03-.87-4.11-.14-.47.17-.67.62c-1.98 4.52 3.53 5.96 6.37 7.35 3.42 1.68 5.74 4.53 4.09 8.33-2.64 6.1-16.19 6.52-15.44-.56q.14-1.35 1.43-1.77l.8-.26q1.25-.4 1.33.9c.29 4.25 4.09 5.99 7.36 3.21zm-23.16-7.47v7.33q0 1.03 1.03 1l6-.14a1.11 1.1 2.3 0 0 1.08-.99q.09-.79.52-1.92.28-.72.73-.94.37-.18.76-.08a.8.79 7 0 1 .61.77l.04 4.76a.49.49 0 0 1-.48.49q-11.08.18-21.78-.01c-6.29-.11-5.99-10.33-10.09-9.91q-.44.04-.44.49l.1 6.71a1 1 0 0 0 .89.98l1.81.2q.51.06.48.58l-.02.54q-.03.5-.53.5l-10.08-.01a.79.79 0 0 1-.78-.67l-.05-.4a.4.39 83.9 0 1 .36-.45c1.68-.1 2.68-.65 2.67-2.52q-.06-7.92-.07-15.81 0-.51-.41-.82-.96-.7-2.13-.87-.93-.14-.58-.92a.67.66 9.6 0 1 .56-.39q6.63-.4 12.81.15c4.29.38 7.29 4.09 5.42 8.15-.65 1.44-2.11 2.51-3.31 3.73q-.37.37-.08.8c2.12 3.19 4.26 10.09 9.26 7.95q.46-.2.46-.7l.03-17.1q0-.67-.64-.87l-1.64-.53q-1.95-.62-.19-1.59.09-.05.85-.06 7.61-.14 15.71.04a.91.91 0 0 1 .88.93l-.09 4.14q-.01.67-.67.77-.49.08-.96-.06a.86.86 0 0 1-.61-.72l-.32-2.37a.77.76 86.8 0 0-.73-.66l-4.71-.17q-1.64-.06-1.64 1.57l-.02 5.16q-.01 1.27 1.25 1.29l5.71.09a.93.93 0 0 1 .91.8l.05.43a.47.47 0 0 1-.45.54l-6.91.21a.58.59 89 0 0-.57.58zm242.98.05a.68.68 0 0 1 .68-.69h2.11a2.69 3.03 89.9 0 1 3.04 2.68v3.54a2.69 3.03 89.9 0 1-3.02 2.7h-2.11a.68.68 0 0 1-.68-.67zm18.79.41l2.81-8.43a.33.33 0 0 1 .62 0l2.75 8.45a.33.33 0 0 1-.31.44l-5.56-.02a.33.33 0 0 1-.31-.44zm24.09-10.4a.55.55 0 0 1 .54-.56l1.7-.04a3.8 3.53 88.9 0 1 3.61 3.73l.02 1.4a3.8 3.53 88.9 0 1-3.45 3.87l-1.7.03a.55.55 0 0 1-.56-.54zm-42.9-.12a.53.53 0 0 1 .53-.53h1.86a2.57 2.31.1 0 1 2.56 2.31v3.3a2.57 2.31.1 0 1-2.58 2.31h-1.86a.53.53 0 0 1-.53-.53zm43 11.05l.06 6.04q0 .42.28.73.87.97 2.19 1.2 1.57.27-.07 1.27a.75.78 29.8 0 1-.41.12l-19.74-.01q-.66 0-.75-.65l-.04-.26q-.05-.31.26-.37 1.23-.26 2.21-1.04a.83.82 61.7 0 0 .27-.92l-1.25-3.77a.92.93 80.9 0 0-.88-.63l-6.52.03q-.74 0-.93.72l-1.06 4.09q-.19.73.54.91l2.17.55a.56.56 0 0 1 .2.99q-.29.21-.73.23-3.37.22-7.15 0a.68.68 0 0 1-.44-1.16c1.27-1.29 2.27-.99 3.01-3.03q3.32-9.08 6.69-18.14a.9.89 10.8 0 1 .87-.59l3.17.1q.45.02.61.44 3.23 8.44 5.97 17.01c1 3.14 2.31 4.77 5.81 3.43q.52-.2.52-.76l.08-17.25q.01-.49-.46-.63l-2.85-.85a.47.48 37.4 0 1-.11-.86q1-.63 2.28-.57c5.15.24 13.65-1.27 16.51 3.31 2.17 3.48-.24 6.38-3.12 8.79q-.4.34-.15.8c1.91 3.44 3.29 6.58 6.67 8.81a.61.62 57 0 1-.24 1.12c-6.93 1.2-8.39-4.17-10.79-8.98q-.58-1.16-2.19-.83-.49.11-.49.61zm-35.97-2.38q.7.41 1.5.51a1.3 1.33 72.5 0 1 .79.4q4.48 4.83-.44 9.42c-2.24 2.09-13.24 1.39-16.36 1.38a.54.53 2.5 0 1-.53-.57l.02-.31q.04-.7.75-.74.85-.04 1.6-.42.47-.24.47-.77l-.01-17.2a.99.99 0 0 0-1.02-.98q-1.06.04-1.84-.64a.69.69 0 0 1 .43-1.21q6.46-.34 12.42.25c5.54.55 8.35 7.88 2.32 9.94a.52.52 0 0 0-.1.94z" fill="#9b1a1b"/></g><rect fill="#9b1a1b" x="311.003" y="285.338" transform="rotate(0.4)" width="8.42" height="2.74" rx="1"/><path fill="#9b1a1b" d="M342.674 354.181a.85.84 7.9 0 0 .63.83q4.97 1.33 10.04 2.11 1.29.2 2.35.84.59.36-.1.4c-18.68 1.07-33.37 10.88-46.44 23.15q-3.18 2.99-.91-.73.07-.12 1.37-1.83 4.71-6.24 8.93-12.77a1.19 1.22 48.2 0 0 .08-1.19q-4.32-8.88-8.84-17.97-.19-.37 0-.69a.57.56 21.8 0 1 .61-.26l17.12 4.04q1.49.36 2.42-.85l15.34-19.77q1.13-1.45 1.15.38.02 1.49-.41 3.78-1.76 9.42-3.18 18.89-.14.92-.16 1.64zm19.17-12.96c8.63 8.21 10.01 19.89 2.28 29.2q-1.34 1.6-2.56 3.28-.12.15-.27.04l-.24-.16a.48.48 0 0 1-.15-.65q1.56-2.63 3.03-5.35c5.72-10.54 1.31-16.41-2.38-26.17q-.28-.73.29-.19zm-61.02 10.64c-2.59 7.69-2.21 13.46 2.48 20.23q1.84 2.65-.67.62-7.5-6.06-6.05-16.07c.66-4.61 3.61-10.92 7-13.96q4.75-4.25.99.9-1.79 2.46-3.75 8.28z"/><path d="M231.864 374.001l-.57-8.41a.37.37 0 0 1 .38-.39l2.62.12a.37.37 0 0 1 .36.4l-.44 6.88a.37.37 0 0 1-.13.25l-1.61 1.4a.37.37 0 0 1-.61-.25zm-16.767-9.274l2.12.007a.71.71 0 0 1 .708.712l-.062 17.72a.71.71 0 0 1-.712.708l-2.12-.007a.71.71 0 0 1-.708-.712l.062-17.72a.71.71 0 0 1 .712-.708zm-18.523 8.264l-.18-10.48a.98.98 0 0 1 1.67-.71l1.82 1.8a.98.98 0 0 1 .29.79l-.77 8.3a.98.98 0 0 1-.59.81l-.88.37a.98.98 0 0 1-1.36-.88zm-4.2-21.54c2.38-.41 4.51-3.1 7.89-2.85 4 .31 6.32 4.06 7.23 7.74q.4 1.64-1.16 2.31c-2.68 1.14-7.09.38-10.08.09-2.03-.19-3.35.64-5.15 1.25q-1.76.59-2.35-1.16l-1.36-3.95a1.86 1.86 0 0 1 1.09-2.33q2.05-.79 3.89-1.1zm18.45 6.93a2.13 2.14 39.1 0 0-.19-1.9l-6.07-9.74a2.4 2.4 0 0 0-2.33-1.11q-2.61.33-5.1-.48a.57.58 21.8 0 1-.34-.81c1.95-3.98 8.33-6.06 12.69-6.66 4.9-.67 7.52 3.61 11.93 3.36 1.75-.1 3.64-.7 5.27.23q3.59 2.05 6.47 4.9a.91.91 0 0 1-.43 1.53c-2.01.49-5.94 1.31-6.7 3.63q-1.51 4.61-4.45 8.39-1.33 1.71-3.42 2.24-4.81 1.23-9.32.4-2.25-.41-.21-1.45 1.56-.8 2.2-2.53zm3.59 27.47c-12.04-.78-21.57-5.06-27.02-15.62-12.99-25.12 12.51-50.84 37.85-39.86 10.03 4.35 14.83 12.44 17.11 22.76q.46 2.1-1.67 1.85-4.75-.55-9.22-2.27a2.36 2.35 19.5 0 0-3.1 1.47q-1.11 3.44-3.2 6.29a1.23 1.23 0 0 0 .53 1.86l4.1 1.67q.51.2.99-.06c3.57-1.99 6.97-1.81 10.84-2.46a.8.82 4.2 0 0 .64-.56q.7-2.15 1.38-4.45.19-.64.64-.8a.5.5 0 0 1 .67.45l.22 4.79q.02.6-.46.96-1.05.77-2.34.85-.63.03-.8.64-5.04 17.85-23.17 21.89a.89.89 0 0 0-.69.83l-.17 3.6a.99.98 8.7 0 1-1.23.9l-.44-.12q-1.05-.28-1.19-1.36-.16-1.28.22-2.56a.54.54 0 0 0-.49-.69zm-105.75-9.81a.29.29 0 0 1 .35.22l.07.3a.45.45 0 0 1-.31.53q-2.32.69-3.78-.19-1.61-.99.26-.72 1.7.25 3.41-.14zm-.68-2.51l3.77-.5q.41-.05.34.36l-.06.42a.28.29 86.4 0 1-.2.22q-1.83.51-3.72.26-.33-.05-.25-.37l.08-.35q.01-.03.04-.04zm-1.703.297a1.98.7 3.4 0 1-2.018.581 1.98.7 3.4 0 1-1.935-.816 1.98.7 3.4 0 1 2.018-.581 1.98.7 3.4 0 1 1.935.816zm-2.867-3.19a.66 2.12 89.4 0 1-2.113.682.66 2.12 89.4 0 1-2.127-.638.66 2.12 89.4 0 1 2.113-.682.66 2.12 89.4 0 1 2.127.638zm11.28-.648a.18.18 0 0 1 .17.19l-.01.09a2.03 1.19 3 0 1-2.09 1.08l-.34-.02a2.03 1.19 3 0 1-1.96-1.29v-.09a.18.18 0 0 1 .19-.17zm-5.651.694a2.12.75 2 0 1-2.145.676 2.12.75 2 0 1-2.093-.824 2.12.75 2 0 1 2.145-.676 2.12.75 2 0 1 2.093.824zm-1.119-3.444q.49-.17.9-.11a.36.36 0 0 1 .06.69q-2.11.72-4.14-.05a.39.39 0 0 1 .19-.75l2.24.29q.39.05.75-.07zm-12.73-7.52l-.53.56q-1.6 1.68-1.12-.59.29-1.36 1.09-2.92.5-.97 1.91-.5.44.15.38.61-.26 1.91.74 3.55.2.33-.16.5l-.34.15a.54.54 0 0 1-.73-.31l-.3-.85q-.3-.87-.94-.2zm6.47-1.44l1.83.85a.59.59 0 0 1-.35 1.12l-1.99-.36a.59.59 0 0 0-.44.1l-1.66 1.16a.59.59 0 0 1-.79-.87l1.31-1.54a.59.59 0 0 0 .14-.43l-.18-2.01a.59.59 0 0 1 1.14-.25l.68 1.9a.59.59 0 0 0 .31.33zm-1.07-5.6l-.86 1.46q-.4.69-.69-.05l-.14-.33q-.06-.15-.01-.31.41-1.21.64-2.49.71-3.79 2.29-.27l1.3 2.87a.36.36 0 0 1-.12.44l-.29.22q-.21.16-.35-.08l-.81-1.45q-.47-.85-.96-.01zm-3.88-1.14q.97 1.22.67 2.69a.34.33 25.2 0 1-.54.19q-.76-.62-.72-1.69a.41.41 0 0 0-.69-.32q-.59.56-.78 1.37a.08.85 39.8 0 1-.4.58q-.17.21-.67.29a.51.52 13.7 0 1-.49-.81q1.26-1.76 1.06-3.79a.53.53 0 0 1 .48-.58l1.27-.13a.69.69 0 0 1 .7.41q.18.38-.01.78-.24.54.12 1.01zm22.08-8.26a1.57 1.57 0 0 1 1.58 1.57l.04 22.62a17.01 16 89.9 0 1-15.97 17.04h-.22a17.01 16 89.9 0 1-16.03-16.98l-.04-22.62a1.57 1.57 0 0 1 1.56-1.57zm-2.76-1.66c-9.24-1.69-15.52-.63-23.72-.12a.64.64 0 0 1-.6-.95l.12-.22a3.48 3.48 0 0 1 2.22-1.69q11.33-2.77 22.55.58a1.06 1.07 13.1 0 1 .74 1.19l-.05.33a1.08 1.08 0 0 1-1.26.88zm-23.85-9.29q-.57 1.88.38 3.61a1.23 1.24 67.5 0 1-.74 1.78c-4.33 1.24-4.19-9.19 2.69-9.43a.62.62 0 0 1 .63.54l.17 1.41q.07.54-.44.71l-2 .67a1.07 1.09 88.8 0 0-.69.71zm24.02-.09q-.86-.95-2.03-1.49a1.25 1.27 3.3 0 1-.65-.74q-.24-.75-.04-1.5a.59.59 0 0 1 .71-.42q6.47 1.53 5.06 8.4-.29 1.39-1.7 1.29l-.33-.03a1.07 1.07 0 0 1-1-1.17l.3-3.41q.04-.54-.32-.93zm-6.49 2.25c.85-3.42.52-3.43-2.2-5.08a1.22 1.22 0 0 1-.59-1.11l.05-.99q.06-1.11 1.09-.69c3.37 1.39 6.02 3.74 4.93 8.05q-.41 1.63-2.05 1.25l-.42-.1a1.09 1.09 0 0 1-.81-1.33zm-10.83-.24a1.19 1.2 77.8 0 1-1.09 1.69l-.54.01q-1.75 0-1.83-1.74-.23-4.92 3.93-7.36a1.48 1.47 54.4 0 1 1.85.31q.86.98.21 2-.32.48-.86.67-3.16 1.1-1.67 4.42zm6.15-10.88q.8.96.22 2.19a1.25 1.29 49.1 0 0-.08.92q1.19 3.95.76 8.03-.14 1.37-1.5 1.17l-.37-.05q-1.29-.18-1.25-1.49.12-4.41.29-8.9c.05-1.32.62-2.39.7-3.79q.02-.41.43-.4l.27.01q.42.01.46.43.04.51-.11 1.01-.14.48.18.87z" fill="#9b1a1b" fill-rule="evenodd"/></svg>