<svg xmlns="http://www.w3.org/2000/svg" viewBox="0 0 135 40"><path d="M130 40H5a4.95 4.95 0 0 1-5-5V5a4.95 4.95 0 0 1 5-5h125a4.95 4.95 0 0 1 5 5v30c0 2.7-2.2 5-5 5z" fill="#000"/><path d="M130 .8a4.23 4.23 0 0 1 4.2 4.2v30a4.23 4.23 0 0 1-4.2 4.2H5A4.23 4.23 0 0 1 .8 35V5A4.23 4.23 0 0 1 5 .8h125m0-.8H5a4.95 4.95 0 0 0-5 5v30a4.95 4.95 0 0 0 5 5h125a4.95 4.95 0 0 0 5-5V5c0-2.7-2.2-5-5-5z" fill="#a7a6a6"/><path d="M68.1 21.8c-2.4 0-4.3 1.8-4.3 4.3 0 2.4 1.9 4.3 4.3 4.3s4.3-1.8 4.3-4.3c0-2.6-1.9-4.3-4.3-4.3zm0 6.8c-1.3 0-2.4-1.1-2.4-2.6s1.1-2.6 2.4-2.6 2.4 1 2.4 2.6c0 1.5-1.1 2.6-2.4 2.6zm-9.3-6.8c-2.4 0-4.3 1.8-4.3 4.3 0 2.4 1.9 4.3 4.3 4.3s4.3-1.8 4.3-4.3c0-2.6-1.9-4.3-4.3-4.3zm0 6.8c-1.3 0-2.4-1.1-2.4-2.6s1.1-2.6 2.4-2.6 2.4 1 2.4 2.6c0 1.5-1.1 2.6-2.4 2.6zm-11.1-5.5v1.8H52c-.1 1-.5 1.8-1 2.3-.6.6-1.6 1.3-3.3 1.3-2.7 0-4.7-2.1-4.7-4.8s2.1-4.8 4.7-4.8c1.4 0 2.5.6 3.3 1.3l1.3-1.3c-1.1-1-2.5-1.8-4.5-1.8-3.6 0-6.7 3-6.7 6.6s3.1 6.6 6.7 6.6c2 0 3.4-.6 4.6-1.9 1.2-1.2 1.6-2.9 1.6-4.2 0-.4 0-.8-.1-1.1zm45.4 1.4c-.4-1-1.4-2.7-3.6-2.7s-4 1.7-4 4.3c0 2.4 1.8 4.3 4.2 4.3 1.9 0 3.1-1.2 3.5-1.9l-1.4-1c-.5.7-1.1 1.2-2.1 1.2s-1.6-.4-2.1-1.3l5.7-2.4zm-5.8 1.4c0-1.6 1.3-2.5 2.2-2.5.7 0 1.4.4 1.6.9zM82.6 30h1.9V17.5h-1.9zm-3-7.3h0c-.5-.5-1.3-1-2.3-1-2.1 0-4.1 1.9-4.1 4.3s1.9 4.2 4.1 4.2c1 0 1.8-.5 2.2-1h.1v.6c0 1.6-.9 2.5-2.3 2.5-1.1 0-1.9-.8-2.1-1.5l-1.6.7c.5 1.1 1.7 2.5 3.8 2.5 2.2 0 4-1.3 4-4.4V22h-1.8zm-2.2 5.9c-1.3 0-2.4-1.1-2.4-2.6s1.1-2.6 2.4-2.6 2.3 1.1 2.3 2.6-1 2.6-2.3 2.6zm24.4-11.1h-4.5V30h1.9v-4.7h2.6c2.1 0 4.1-1.5 4.1-3.9s-2-3.9-4.1-3.9zm.1 6h-2.7v-4.3h2.7a2.2 2.2 0 0 1 2.2 2.1c-.1 1.1-.9 2.2-2.2 2.2zm11.5-1.8c-1.4 0-2.8.6-3.3 1.9l1.7.7c.4-.7 1-.9 1.7-.9 1 0 1.9.6 2 1.6v.1c-.3-.2-1.1-.5-1.9-.5-1.8 0-3.6 1-3.6 2.8 0 1.7 1.5 2.8 3.1 2.8 1.3 0 1.9-.6 2.4-1.2h.1v1h1.8v-4.8c-.2-2.2-1.9-3.5-4-3.5zm-.2 6.9c-.6 0-1.5-.3-1.5-1.1 0-1 1.1-1.3 2-1.3.8 0 1.2.2 1.7.4-.2 1.2-1.2 2-2.2 2zm10.5-6.6l-2.1 5.4h-.1l-2.2-5.4h-2l3.3 7.6-1.9 4.2h1.9l5.1-11.8zm-16.8 8h1.9V17.5h-1.9z" fill="#fff"/><g transform="translate(-25 -45)"><path d="M35.4 52.5c-.3.4-.4.8-.4 1.5v22c0 .6.2 1.1.5 1.4l.1.1L48 65.1V65v-.1z" fill="#5bc9f4"/><path d="M52 69.3l-4.1-4.1V65v-.1l4.1-4.1.1.1 4.9 2.8c1.4.8 1.4 2.1 0 2.9z" fill="#fcd107"/><path d="M52.1 69.2L47.9 65 35.4 77.5c.5.5 1.2.5 2.1.1l14.6-8.4" fill="#e63c51"/><path d="M52.1 60.8l-14.6-8.3c-.9-.5-1.6-.4-2.1.1L47.9 65z" fill="#74c169"/></g><path d="M41.3 13V7h1.8c.9 0 1.7.3 2.2.8.6.6.8 1.3.8 2.2s-.3 1.6-.8 2.2c-.5.5-1.3.8-2.2.8zm.8-.7h1.1c.7 0 1.2-.2 1.6-.6s.6-1 .6-1.7-.2-1.3-.6-1.7-1-.6-1.6-.6h-1.1zm5.1.7V7h.8v6zm3.9.1c-.4 0-.9-.1-1.3-.4s-.7-.7-.8-1.2l.7-.3c.1.3.3.6.5.8.3.2.6.3.9.3s.6-.1.9-.3c.2-.2.4-.4.4-.7s-.1-.6-.4-.8c-.2-.2-.6-.4-1.1-.5-.5-.2-.9-.4-1.2-.6-.3-.3-.4-.6-.4-1s.2-.8.5-1.1.8-.5 1.3-.5.9.1 1.2.4.5.5.6.8l-.7.3c-.1-.2-.2-.4-.4-.5-.2-.2-.5-.2-.8-.2s-.5.1-.8.2c-.1.2-.2.4-.2.7 0 .2.1.4.3.6s.5.3.9.4c.3.1.5.2.7.3s.4.2.6.4c.2.1.4.3.5.6s.2.5.2.8-.1.6-.2.8-.3.4-.5.5c-.3 0-.5.1-.7.1-.2.1-.5.1-.7.1zM55 13h-.8V7h2c.5 0 .9.2 1.3.5s.6.8.6 1.3-.2.9-.6 1.3c-.4.3-.8.5-1.3.5H55zm0-3.2h1.3c.3 0 .6-.1.8-.3a1.08 1.08 0 0 0 .3-.7c0-.3-.1-.5-.3-.7s-.5-.3-.8-.3H55zm9 2.4c-.6.6-1.3.9-2.2.9s-1.6-.3-2.2-.9-.9-1.3-.9-2.2.3-1.6.9-2.2 1.3-.9 2.2-.9 1.6.3 2.2.9.9 1.3.9 2.2-.3 1.6-.9 2.2zm-3.8-.5c.4.4 1 .7 1.6.7s1.2-.2 1.6-.7c.4-.4.7-1 .7-1.7s-.2-1.3-.7-1.7c-.4-.4-1-.7-1.6-.7s-1.2.2-1.6.7c-.4.4-.7 1-.7 1.7s.2 1.3.7 1.7zM66 13V7h.9l2.9 4.7h0v-1.2V7h.8v6h-.8l-3.1-4.9h0v1.2V13zm6 0V7h.8v6zm2.1 0V7h2.2c.5 0 .9.2 1.2.5s.5.7.5 1.2c0 .3-.1.5-.2.8-.1.2-.3.4-.6.5h0c.3.1.5.3.7.5s.3.5.3.9c0 .5-.2.9-.5 1.2-.4.3-.8.5-1.3.5h-2.3zm.8-3.4h1.4c.3 0 .5-.1.7-.3s.3-.4.3-.6-.1-.4-.3-.6-.4-.3-.7-.3h-1.4zm0 2.7h1.6c.3 0 .5-.1.7-.3s.3-.4.3-.7a1.08 1.08 0 0 0-.3-.7c-.2-.2-.4-.3-.7-.3H75v2zm4.3.7V7h.8v5.3h2.6v.7zm7.9-5.3h-2.7v1.9h2.5v.7h-2.5v1.9h2.7v.8h-3.5V7h3.5zm6.7 0h-2.7v1.9h2.5v.7h-2.5v1.9h2.7v.8h-3.5V7h3.5zM95 13V7h.9l2.9 4.7h0v-1.2V7h.8v6h-.8l-3.1-4.9h0v1.2V13z" fill="#fff" stroke="#fff" stroke-width=".2" stroke-miterlimit="10"/></svg>