<svg xmlns="http://www.w3.org/2000/svg" width="5904" height="2362" viewBox="0 0 5904 2362" version="1.1"><path d="M 5295.459 237.250 C 5295.195 237.938, 5295.114 500.625, 5295.278 821 C 5295.551 1354.030, 5295.715 1404.434, 5297.211 1414.500 C 5300.123 1434.095, 5302.060 1444.243, 5305.513 1458 C 5333.849 1570.886, 5419.504 1648.400, 5535.258 1665.910 C 5558.187 1669.378, 5577.109 1670.328, 5610 1669.662 C 5683.943 1668.165, 5740.301 1660.408, 5800.133 1643.492 C 5823.616 1636.854, 5852.589 1626.243, 5854.215 1623.687 C 5855.059 1622.359, 5855.306 1504.639, 5854.466 1503.799 C 5854.172 1503.505, 5843.934 1506.529, 5831.716 1510.519 C 5798.168 1521.474, 5761.959 1530.232, 5731 1534.880 C 5682.334 1542.186, 5628.391 1543.905, 5599.500 1539.072 C 5508.853 1523.905, 5450.439 1455.002, 5443.961 1355.604 C 5443.253 1344.740, 5443.007 1232.292, 5443.206 1010 L 5443.500 680.500 5640.758 680.248 L 5838.015 679.995 5837.758 618.248 L 5837.500 556.500 5640.250 556.248 L 5443 555.995 5443 395.998 L 5443 236 5369.469 236 C 5311.565 236, 5295.835 236.266, 5295.459 237.250 M 59.428 537.328 C 59.148 538.058, 59.086 702.195, 59.292 902.078 C 59.568 1170.560, 59.973 1268.635, 60.841 1277.500 C 67.363 1344.088, 79.540 1391.957, 102.888 1442.799 C 134.697 1512.066, 186.916 1570.599, 251.765 1609.679 C 321.150 1651.493, 403.551 1671.812, 495 1669.656 C 537.707 1668.649, 576.711 1663.221, 611.500 1653.443 C 693.990 1630.259, 758.213 1590.644, 813.245 1529 L 819.941 1521.500 819.956 1538.500 C 819.988 1575.302, 816.194 1609.021, 808.472 1640.579 C 784.997 1736.508, 727.996 1808.989, 644.500 1849.081 C 588.013 1876.204, 527.924 1886.240, 447.500 1881.984 C 321.072 1875.294, 219.866 1840.990, 123.668 1772.221 C 117.161 1767.569, 111.496 1764.154, 111.078 1764.632 C 110.661 1765.109, 107.959 1774.050, 105.073 1784.500 C 102.188 1794.950, 96.082 1816.775, 91.504 1833 C 86.927 1849.225, 77.008 1884.550, 69.462 1911.500 C 61.916 1938.450, 54.286 1965.675, 52.508 1972 C 50.729 1978.325, 49.462 1983.834, 49.691 1984.243 C 50.719 1986.070, 73.984 2003.435, 89 2013.584 C 111.895 2029.058, 129.523 2039.200, 157.500 2052.990 C 185.491 2066.787, 206.419 2075.287, 239 2086.091 C 368.360 2128.986, 528.741 2136.643, 663.484 2106.358 C 749.344 2087.061, 828.840 2050.812, 892 2002.159 C 1011.829 1909.853, 1082.594 1774.779, 1097.976 1609 C 1100.771 1578.879, 1100.973 1541.123, 1100.986 1047.250 L 1101 536 960.518 536 L 820.037 536 819.732 876.750 C 819.446 1195.616, 819.314 1218.236, 817.673 1228.954 C 809.400 1282.989, 790.531 1324.400, 758.545 1358.718 C 730.669 1388.628, 689.056 1411.770, 645.885 1421.371 C 623.024 1426.455, 612.610 1427.451, 582 1427.476 C 552.152 1427.501, 545.710 1426.947, 523 1422.402 C 474.172 1412.629, 435.191 1391.793, 402.885 1358.199 C 375.578 1329.804, 357.832 1296.621, 347.962 1255.500 C 344.228 1239.945, 342.130 1225.238, 340.979 1206.558 C 340.443 1197.850, 340.041 1053.277, 340.026 863.750 L 340 536 199.969 536 C 84.499 536, 59.848 536.233, 59.428 537.328 M 1310.289 891.747 C 1310.586 1217.246, 1310.756 1248.648, 1312.289 1261 C 1319.307 1317.557, 1329.969 1357.748, 1349.696 1402 C 1381.431 1473.192, 1432.268 1533.389, 1498.548 1578.258 C 1563.873 1622.480, 1643.134 1651.518, 1731 1663.417 C 1767.589 1668.372, 1784.392 1669.386, 1830 1669.395 C 1873.052 1669.402, 1889.161 1668.530, 1921.500 1664.440 C 2078.241 1644.614, 2203.952 1572.166, 2277.241 1459.424 C 2297.425 1428.375, 2311.791 1398.616, 2323.550 1363.500 C 2335.543 1327.682, 2341.929 1297.730, 2346.682 1255 C 2348.275 1240.678, 2348.431 1212.761, 2348.730 887.750 L 2349.054 536 2208.527 536 L 2068 536 2068 868.355 C 2068 1088.052, 2067.650 1205.081, 2066.967 1213.605 C 2062.278 1272.128, 2041.777 1321.307, 2006.389 1358.925 C 1978.188 1388.902, 1936.945 1411.795, 1893.885 1421.371 C 1870.510 1426.570, 1860.679 1427.501, 1829.500 1427.467 C 1798.528 1427.434, 1790.070 1426.621, 1766 1421.364 C 1731.535 1413.838, 1696.280 1397.113, 1670.732 1376.171 C 1666.754 1372.910, 1658.970 1365.575, 1653.433 1359.871 C 1621.211 1326.676, 1603.047 1288.357, 1593.294 1233 C 1591.758 1224.283, 1591.574 1195.194, 1591.060 880 L 1590.500 536.500 1450.232 536.247 L 1309.965 535.993 1310.289 891.747 M 3118 537.112 C 2995.555 544.021, 2895.853 577.156, 2823.688 634.922 C 2789.721 662.112, 2760.525 695.108, 2738.675 731 L 2733.500 739.500 2732.746 692.500 C 2732.331 666.650, 2731.656 625.475, 2731.246 601 L 2730.500 556.500 2658.500 556.500 L 2586.500 556.500 2586.249 1102.750 L 2585.998 1649 2660.479 1649 L 2734.960 1649 2735.280 1316.250 C 2735.575 1009.144, 2735.731 982.537, 2737.307 971 C 2741.182 942.626, 2745.132 924.484, 2752.110 903 C 2772.547 840.082, 2810.215 789.294, 2866.203 749.168 C 2901.143 724.128, 2948.148 703.278, 2998.500 690.483 C 3041.144 679.648, 3074.165 675.080, 3126.282 672.807 C 3152.991 671.643, 3154.079 671.517, 3154.481 669.548 C 3154.710 668.422, 3155.583 659.400, 3156.420 649.500 C 3158.230 628.099, 3165.759 545.114, 3166.377 539.750 L 3166.810 536 3149.655 536.147 C 3140.220 536.228, 3125.975 536.662, 3118 537.112 M 3624 537.091 C 3513.996 544.797, 3419.463 580.130, 3340.500 643.053 C 3239.608 723.451, 3173.171 849.073, 3153.047 997.500 C 3146.751 1043.940, 3144.717 1091.798, 3147.014 1139.500 C 3155.805 1322.059, 3226.142 1471.473, 3348.086 1566.626 C 3451.534 1647.346, 3591.436 1682.715, 3741 1665.960 C 3855.984 1653.079, 3958.994 1608.352, 4042 1535.268 C 4057.986 1521.193, 4085.637 1492.935, 4098.529 1477.500 C 4117.058 1455.315, 4135.823 1429.409, 4134.381 1428.005 C 4133.060 1426.718, 4024.754 1365.781, 4022.893 1365.277 C 4021.837 1364.991, 4019.953 1366.665, 4017.393 1370.166 C 4005.397 1386.571, 3979.897 1415.183, 3963.806 1430.293 C 3879.384 1509.569, 3779.817 1550.012, 3669.105 1549.998 C 3538.467 1549.981, 3436.734 1494.644, 3372.687 1388.763 C 3364.194 1374.722, 3348.737 1343.391, 3342.464 1327.500 C 3331.607 1299.997, 3321.357 1264.202, 3315.116 1232 C 3311.946 1215.639, 3307.578 1185.603, 3306.537 1173 C 3306.196 1168.875, 3305.672 1163.813, 3305.371 1161.751 L 3304.825 1158.002 3740.621 1157.751 L 4176.418 1157.500 4177.210 1154 C 4177.645 1152.075, 4178.285 1134.075, 4178.631 1114 C 4179.318 1074.124, 4178.236 1044.203, 4174.941 1012.008 C 4155.276 819.878, 4059.925 668.656, 3910 591.826 C 3848.374 560.245, 3780.838 542.363, 3703 537.016 C 3686.277 535.867, 3640.857 535.910, 3624 537.091 M 4655.560 537.026 C 4558.801 544.115, 4480.625 571.827, 4419 620.881 C 4407.198 630.275, 4384.666 652.691, 4375.656 664 C 4341.576 706.778, 4321.061 755.508, 4314.009 810.434 C 4309.011 849.356, 4310.757 887.985, 4319.005 921 C 4328.863 960.459, 4347.565 993.516, 4376.475 1022.585 C 4418.707 1065.048, 4484.390 1098.790, 4579 1126.623 C 4587.525 1129.131, 4600.350 1132.903, 4607.500 1135.005 C 4634.393 1142.912, 4723.139 1169.332, 4739 1174.153 C 4855.300 1209.506, 4922.679 1259.648, 4941.593 1324.919 C 4946.192 1340.787, 4947.250 1350.597, 4946.673 1372 C 4946.096 1393.399, 4944.290 1403.691, 4937.984 1421.500 C 4916.752 1481.464, 4857.101 1525.304, 4774 1542.019 C 4745.669 1547.718, 4720.455 1550.004, 4686.105 1549.990 C 4566.824 1549.941, 4467.845 1523.507, 4388.470 1470.499 C 4378.125 1463.591, 4375.402 1462.180, 4374.412 1463.216 C 4372.587 1465.125, 4314 1553.052, 4314 1553.882 C 4314 1556.316, 4336.106 1573.811, 4354 1585.539 C 4425.540 1632.427, 4515.340 1659.320, 4630 1668.195 C 4655.105 1670.139, 4725.816 1669.825, 4749 1667.668 C 4846.891 1658.559, 4924.652 1631.681, 4985.500 1585.921 C 5052.963 1535.188, 5091.413 1466.175, 5099.050 1382.114 C 5100.559 1365.502, 5099.753 1327.632, 5097.583 1313.196 C 5092.957 1282.423, 5084.516 1255.906, 5071.524 1231.337 C 5036.477 1165.056, 4970.261 1113.321, 4870.500 1074.277 C 4853.996 1067.818, 4811.358 1053.544, 4795 1049.003 C 4788.675 1047.247, 4759.650 1038.691, 4730.500 1029.989 C 4701.350 1021.288, 4668.909 1011.661, 4658.408 1008.596 C 4637.985 1002.635, 4620.027 996.665, 4602.687 990.071 C 4520.316 958.748, 4477.016 917.123, 4466.341 859 C 4463.940 845.928, 4463.938 816.151, 4466.337 803.264 C 4471.342 776.384, 4482.510 752.416, 4499.590 731.904 C 4528.223 697.519, 4575.042 673.029, 4633 662.122 C 4658.989 657.232, 4669.343 656.497, 4711.500 656.554 C 4755.617 656.613, 4775.580 658.115, 4810.718 664.019 C 4876.433 675.059, 4939.639 697.938, 4992.837 729.941 C 4998.522 733.361, 5003.309 736.011, 5003.475 735.830 C 5003.640 735.648, 5018.016 713, 5035.421 685.500 L 5067.067 635.500 5064.491 633.500 C 5052.474 624.173, 5000.117 596.559, 4974.500 586.039 C 4910.042 559.568, 4847.155 545.137, 4767 538.425 C 4745.347 536.612, 4673.521 535.710, 4655.560 537.026 M 3629 657.046 C 3567.820 662.807, 3511.353 682.510, 3467 713.574 C 3425.729 742.479, 3392.774 779.166, 3366.459 825.500 C 3334.141 882.405, 3312.122 959.174, 3306.513 1034.500 C 3306.186 1038.900, 3305.669 1044.638, 3305.365 1047.250 L 3304.812 1052 3664.406 1052 C 3958.806 1052, 4024 1051.764, 4024 1050.700 C 4024 1046.187, 4021.618 1019.966, 4019.973 1006.372 C 4012.759 946.764, 3996.232 889.142, 3973.151 843.126 C 3955.537 808.011, 3936.262 780.628, 3910.501 754.124 C 3863.987 706.267, 3809.712 676.999, 3741.500 662.988 C 3718.510 658.266, 3702.952 656.853, 3670 656.494 C 3652.675 656.305, 3634.225 656.554, 3629 657.046" stroke="none" fill="#fc5c5c" fill-rule="evenodd"/><path d="M 0 1181 L 0 2362 2952.250 2361.750 L 5904.500 2361.500 5904.750 1180.750 L 5905.001 -0 2952.500 -0 L 0 0 0 1181 M 0.498 1181.500 C 0.498 1831.050, 0.612 2096.625, 0.750 1771.667 C 0.888 1446.709, 0.888 915.259, 0.750 590.667 C 0.612 266.075, 0.498 531.950, 0.498 1181.500 M 5295.459 237.250 C 5295.195 237.938, 5295.114 500.625, 5295.278 821 C 5295.551 1354.030, 5295.715 1404.434, 5297.211 1414.500 C 5300.123 1434.095, 5302.060 1444.243, 5305.513 1458 C 5333.849 1570.886, 5419.504 1648.400, 5535.258 1665.910 C 5558.187 1669.378, 5577.109 1670.328, 5610 1669.662 C 5683.943 1668.165, 5740.301 1660.408, 5800.133 1643.492 C 5823.616 1636.854, 5852.589 1626.243, 5854.215 1623.687 C 5855.059 1622.359, 5855.306 1504.639, 5854.466 1503.799 C 5854.172 1503.505, 5843.934 1506.529, 5831.716 1510.519 C 5798.168 1521.474, 5761.959 1530.232, 5731 1534.880 C 5682.334 1542.186, 5628.391 1543.905, 5599.500 1539.072 C 5508.853 1523.905, 5450.439 1455.002, 5443.961 1355.604 C 5443.253 1344.740, 5443.007 1232.292, 5443.206 1010 L 5443.500 680.500 5640.758 680.248 L 5838.015 679.995 5837.758 618.248 L 5837.500 556.500 5640.250 556.248 L 5443 555.995 5443 395.998 L 5443 236 5369.469 236 C 5311.565 236, 5295.835 236.266, 5295.459 237.250 M 59.428 537.328 C 59.148 538.058, 59.086 702.195, 59.292 902.078 C 59.568 1170.560, 59.973 1268.635, 60.841 1277.500 C 67.363 1344.088, 79.540 1391.957, 102.888 1442.799 C 134.697 1512.066, 186.916 1570.599, 251.765 1609.679 C 321.150 1651.493, 403.551 1671.812, 495 1669.656 C 537.707 1668.649, 576.711 1663.221, 611.500 1653.443 C 693.990 1630.259, 758.213 1590.644, 813.245 1529 L 819.941 1521.500 819.956 1538.500 C 819.988 1575.302, 816.194 1609.021, 808.472 1640.579 C 784.997 1736.508, 727.996 1808.989, 644.500 1849.081 C 588.013 1876.204, 527.924 1886.240, 447.500 1881.984 C 321.072 1875.294, 219.866 1840.990, 123.668 1772.221 C 117.161 1767.569, 111.496 1764.154, 111.078 1764.632 C 110.661 1765.109, 107.959 1774.050, 105.073 1784.500 C 102.188 1794.950, 96.082 1816.775, 91.504 1833 C 86.927 1849.225, 77.008 1884.550, 69.462 1911.500 C 61.916 1938.450, 54.286 1965.675, 52.508 1972 C 50.729 1978.325, 49.462 1983.834, 49.691 1984.243 C 50.719 1986.070, 73.984 2003.435, 89 2013.584 C 111.895 2029.058, 129.523 2039.200, 157.500 2052.990 C 185.491 2066.787, 206.419 2075.287, 239 2086.091 C 368.360 2128.986, 528.741 2136.643, 663.484 2106.358 C 749.344 2087.061, 828.840 2050.812, 892 2002.159 C 1011.829 1909.853, 1082.594 1774.779, 1097.976 1609 C 1100.771 1578.879, 1100.973 1541.123, 1100.986 1047.250 L 1101 536 960.518 536 L 820.037 536 819.732 876.750 C 819.446 1195.616, 819.314 1218.236, 817.673 1228.954 C 809.400 1282.989, 790.531 1324.400, 758.545 1358.718 C 730.669 1388.628, 689.056 1411.770, 645.885 1421.371 C 623.024 1426.455, 612.610 1427.451, 582 1427.476 C 552.152 1427.501, 545.710 1426.947, 523 1422.402 C 474.172 1412.629, 435.191 1391.793, 402.885 1358.199 C 375.578 1329.804, 357.832 1296.621, 347.962 1255.500 C 344.228 1239.945, 342.130 1225.238, 340.979 1206.558 C 340.443 1197.850, 340.041 1053.277, 340.026 863.750 L 340 536 199.969 536 C 84.499 536, 59.848 536.233, 59.428 537.328 M 1310.289 891.747 C 1310.586 1217.246, 1310.756 1248.648, 1312.289 1261 C 1319.307 1317.557, 1329.969 1357.748, 1349.696 1402 C 1381.431 1473.192, 1432.268 1533.389, 1498.548 1578.258 C 1563.873 1622.480, 1643.134 1651.518, 1731 1663.417 C 1767.589 1668.372, 1784.392 1669.386, 1830 1669.395 C 1873.052 1669.402, 1889.161 1668.530, 1921.500 1664.440 C 2078.241 1644.614, 2203.952 1572.166, 2277.241 1459.424 C 2297.425 1428.375, 2311.791 1398.616, 2323.550 1363.500 C 2335.543 1327.682, 2341.929 1297.730, 2346.682 1255 C 2348.275 1240.678, 2348.431 1212.761, 2348.730 887.750 L 2349.054 536 2208.527 536 L 2068 536 2068 868.355 C 2068 1088.052, 2067.650 1205.081, 2066.967 1213.605 C 2062.278 1272.128, 2041.777 1321.307, 2006.389 1358.925 C 1978.188 1388.902, 1936.945 1411.795, 1893.885 1421.371 C 1870.510 1426.570, 1860.679 1427.501, 1829.500 1427.467 C 1798.528 1427.434, 1790.070 1426.621, 1766 1421.364 C 1731.535 1413.838, 1696.280 1397.113, 1670.732 1376.171 C 1666.754 1372.910, 1658.970 1365.575, 1653.433 1359.871 C 1621.211 1326.676, 1603.047 1288.357, 1593.294 1233 C 1591.758 1224.283, 1591.574 1195.194, 1591.060 880 L 1590.500 536.500 1450.232 536.247 L 1309.965 535.993 1310.289 891.747 M 3118 537.112 C 2995.555 544.021, 2895.853 577.156, 2823.688 634.922 C 2789.721 662.112, 2760.525 695.108, 2738.675 731 L 2733.500 739.500 2732.746 692.500 C 2732.331 666.650, 2731.656 625.475, 2731.246 601 L 2730.500 556.500 2658.500 556.500 L 2586.500 556.500 2586.249 1102.750 L 2585.998 1649 2660.479 1649 L 2734.960 1649 2735.280 1316.250 C 2735.575 1009.144, 2735.731 982.537, 2737.307 971 C 2741.182 942.626, 2745.132 924.484, 2752.110 903 C 2772.547 840.082, 2810.215 789.294, 2866.203 749.168 C 2901.143 724.128, 2948.148 703.278, 2998.500 690.483 C 3041.144 679.648, 3074.165 675.080, 3126.282 672.807 C 3152.991 671.643, 3154.079 671.517, 3154.481 669.548 C 3154.710 668.422, 3155.583 659.400, 3156.420 649.500 C 3158.230 628.099, 3165.759 545.114, 3166.377 539.750 L 3166.810 536 3149.655 536.147 C 3140.220 536.228, 3125.975 536.662, 3118 537.112 M 3624 537.091 C 3513.996 544.797, 3419.463 580.130, 3340.500 643.053 C 3239.608 723.451, 3173.171 849.073, 3153.047 997.500 C 3146.751 1043.940, 3144.717 1091.798, 3147.014 1139.500 C 3155.805 1322.059, 3226.142 1471.473, 3348.086 1566.626 C 3451.534 1647.346, 3591.436 1682.715, 3741 1665.960 C 3855.984 1653.079, 3958.994 1608.352, 4042 1535.268 C 4057.986 1521.193, 4085.637 1492.935, 4098.529 1477.500 C 4117.058 1455.315, 4135.823 1429.409, 4134.381 1428.005 C 4133.060 1426.718, 4024.754 1365.781, 4022.893 1365.277 C 4021.837 1364.991, 4019.953 1366.665, 4017.393 1370.166 C 4005.397 1386.571, 3979.897 1415.183, 3963.806 1430.293 C 3879.384 1509.569, 3779.817 1550.012, 3669.105 1549.998 C 3538.467 1549.981, 3436.734 1494.644, 3372.687 1388.763 C 3364.194 1374.722, 3348.737 1343.391, 3342.464 1327.500 C 3331.607 1299.997, 3321.357 1264.202, 3315.116 1232 C 3311.946 1215.639, 3307.578 1185.603, 3306.537 1173 C 3306.196 1168.875, 3305.672 1163.813, 3305.371 1161.751 L 3304.825 1158.002 3740.621 1157.751 L 4176.418 1157.500 4177.210 1154 C 4177.645 1152.075, 4178.285 1134.075, 4178.631 1114 C 4179.318 1074.124, 4178.236 1044.203, 4174.941 1012.008 C 4155.276 819.878, 4059.925 668.656, 3910 591.826 C 3848.374 560.245, 3780.838 542.363, 3703 537.016 C 3686.277 535.867, 3640.857 535.910, 3624 537.091 M 4655.560 537.026 C 4558.801 544.115, 4480.625 571.827, 4419 620.881 C 4407.198 630.275, 4384.666 652.691, 4375.656 664 C 4341.576 706.778, 4321.061 755.508, 4314.009 810.434 C 4309.011 849.356, 4310.757 887.985, 4319.005 921 C 4328.863 960.459, 4347.565 993.516, 4376.475 1022.585 C 4418.707 1065.048, 4484.390 1098.790, 4579 1126.623 C 4587.525 1129.131, 4600.350 1132.903, 4607.500 1135.005 C 4634.393 1142.912, 4723.139 1169.332, 4739 1174.153 C 4855.300 1209.506, 4922.679 1259.648, 4941.593 1324.919 C 4946.192 1340.787, 4947.250 1350.597, 4946.673 1372 C 4946.096 1393.399, 4944.290 1403.691, 4937.984 1421.500 C 4916.752 1481.464, 4857.101 1525.304, 4774 1542.019 C 4745.669 1547.718, 4720.455 1550.004, 4686.105 1549.990 C 4566.824 1549.941, 4467.845 1523.507, 4388.470 1470.499 C 4378.125 1463.591, 4375.402 1462.180, 4374.412 1463.216 C 4372.587 1465.125, 4314 1553.052, 4314 1553.882 C 4314 1556.316, 4336.106 1573.811, 4354 1585.539 C 4425.540 1632.427, 4515.340 1659.320, 4630 1668.195 C 4655.105 1670.139, 4725.816 1669.825, 4749 1667.668 C 4846.891 1658.559, 4924.652 1631.681, 4985.500 1585.921 C 5052.963 1535.188, 5091.413 1466.175, 5099.050 1382.114 C 5100.559 1365.502, 5099.753 1327.632, 5097.583 1313.196 C 5092.957 1282.423, 5084.516 1255.906, 5071.524 1231.337 C 5036.477 1165.056, 4970.261 1113.321, 4870.500 1074.277 C 4853.996 1067.818, 4811.358 1053.544, 4795 1049.003 C 4788.675 1047.247, 4759.650 1038.691, 4730.500 1029.989 C 4701.350 1021.288, 4668.909 1011.661, 4658.408 1008.596 C 4637.985 1002.635, 4620.027 996.665, 4602.687 990.071 C 4520.316 958.748, 4477.016 917.123, 4466.341 859 C 4463.940 845.928, 4463.938 816.151, 4466.337 803.264 C 4471.342 776.384, 4482.510 752.416, 4499.590 731.904 C 4528.223 697.519, 4575.042 673.029, 4633 662.122 C 4658.989 657.232, 4669.343 656.497, 4711.500 656.554 C 4755.617 656.613, 4775.580 658.115, 4810.718 664.019 C 4876.433 675.059, 4939.639 697.938, 4992.837 729.941 C 4998.522 733.361, 5003.309 736.011, 5003.475 735.830 C 5003.640 735.648, 5018.016 713, 5035.421 685.500 L 5067.067 635.500 5064.491 633.500 C 5052.474 624.173, 5000.117 596.559, 4974.500 586.039 C 4910.042 559.568, 4847.155 545.137, 4767 538.425 C 4745.347 536.612, 4673.521 535.710, 4655.560 537.026 M 3629 657.046 C 3567.820 662.807, 3511.353 682.510, 3467 713.574 C 3425.729 742.479, 3392.774 779.166, 3366.459 825.500 C 3334.141 882.405, 3312.122 959.174, 3306.513 1034.500 C 3306.186 1038.900, 3305.669 1044.638, 3305.365 1047.250 L 3304.812 1052 3664.406 1052 C 3958.806 1052, 4024 1051.764, 4024 1050.700 C 4024 1046.187, 4021.618 1019.966, 4019.973 1006.372 C 4012.759 946.764, 3996.232 889.142, 3973.151 843.126 C 3955.537 808.011, 3936.262 780.628, 3910.501 754.124 C 3863.987 706.267, 3809.712 676.999, 3741.500 662.988 C 3718.510 658.266, 3702.952 656.853, 3670 656.494 C 3652.675 656.305, 3634.225 656.554, 3629 657.046" stroke="none" fill="#fcfbfb" fill-rule="evenodd"/></svg>