<svg xmlns="http://www.w3.org/2000/svg" viewBox="0 0 119.664 40"><path d="M110.135 0H9.535L8.44.002l-.919.013a13.215 13.215 0 0 0-2.004.177 6.665 6.665 0 0 0-1.901.627 6.438 6.438 0 0 0-1.619 1.179A6.258 6.258 0 0 0 .819 3.618a6.601 6.601 0 0 0-.625 1.903 12.993 12.993 0 0 0-.179 2.002L0 8.444v23.114l.015.922a12.992 12.992 0 0 0 .179 2.002 6.588 6.588 0 0 0 .625 1.904 6.208 6.208 0 0 0 1.178 1.614 6.274 6.274 0 0 0 1.619 1.179 6.701 6.701 0 0 0 1.901.631 13.455 13.455 0 0 0 2.004.177l.919.011L9.535 40h100.6l1.084-.002.922-.011a13.279 13.279 0 0 0 2-.177 6.804 6.804 0 0 0 1.908-.631 6.277 6.277 0 0 0 1.617-1.179 6.395 6.395 0 0 0 1.182-1.614 6.604 6.604 0 0 0 .619-1.904 13.506 13.506 0 0 0 .186-2.002l.004-.922.008-1.094V9.536l-.008-1.092-.004-.921a13.507 13.507 0 0 0-.186-2.002 6.618 6.618 0 0 0-.619-1.903 6.466 6.466 0 0 0-2.799-2.8 6.768 6.768 0 0 0-1.908-.627 13.044 13.044 0 0 0-2-.177l-.922-.013L110.135 0z" fill="#a6a6a6"/><path d="M8.445 39.125a39.93 39.93 0 0 1-.904-.011 12.687 12.687 0 0 1-1.869-.163 5.884 5.884 0 0 1-1.657-.548 5.406 5.406 0 0 1-1.397-1.017 5.321 5.321 0 0 1-1.021-1.397 5.722 5.722 0 0 1-.543-1.657 12.414 12.414 0 0 1-.166-1.875l-.015-.913V8.444l.015-.895a12.37 12.37 0 0 1 .166-1.872 5.756 5.756 0 0 1 .543-1.662 5.373 5.373 0 0 1 1.015-1.398 5.565 5.565 0 0 1 1.402-1.022 5.823 5.823 0 0 1 1.653-.544A12.586 12.586 0 0 1 7.543.887l.902-.012h102.769l.913.013a12.385 12.385 0 0 1 1.858.163 5.938 5.938 0 0 1 1.671.548 5.594 5.594 0 0 1 2.415 2.42 5.763 5.763 0 0 1 .535 1.649 12.995 12.995 0 0 1 .174 1.887l.003.89.008 1.092v20.929l-.008 1.075-.004.93a12.731 12.731 0 0 1-.171 1.853 5.739 5.739 0 0 1-.54 1.67 5.48 5.48 0 0 1-1.016 1.386 5.413 5.413 0 0 1-1.399 1.023 5.862 5.862 0 0 1-1.668.55 12.542 12.542 0 0 1-1.869.163l-.897.011-1.084.002z" fill="#000"/><g fill="#fff"><path d="M24.769 20.301a4.949 4.949 0 0 1 2.357-4.152 5.066 5.066 0 0 0-3.991-2.158c-1.679-.176-3.307 1.005-4.163 1.005-.872 0-2.19-.987-3.608-.958a5.315 5.315 0 0 0-4.473 2.728c-1.934 3.348-.491 8.269 1.361 10.976.927 1.325 2.01 2.806 3.428 2.753 1.387-.058 1.905-.884 3.579-.884 1.659 0 2.145.884 3.591.851 1.488-.024 2.426-1.331 3.321-2.669a10.962 10.962 0 0 0 1.518-3.093 4.782 4.782 0 0 1-2.919-4.399zm-2.732-8.09a4.872 4.872 0 0 0 1.115-3.491 4.957 4.957 0 0 0-3.208 1.66 4.636 4.636 0 0 0-1.144 3.361 4.099 4.099 0 0 0 3.237-1.53zM42.302 27.14h-4.733l-1.137 3.356h-2.005l4.483-12.418h2.083l4.483 12.418h-2.039zm-4.243-1.549h3.752l-1.85-5.447h-.052z"/><path d="M55.16 25.97c0 2.813-1.506 4.621-3.778 4.621a3.069 3.069 0 0 1-2.849-1.584h-.043v4.484h-1.858V21.442h1.799v1.506h.034a3.212 3.212 0 0 1 2.883-1.601c2.298 0 3.813 1.816 3.813 4.622zm-1.91 0c0-1.833-.947-3.038-2.393-3.038-1.42 0-2.375 1.23-2.375 3.038 0 1.824.955 3.046 2.375 3.046 1.445 0 2.393-1.196 2.393-3.046z"/><path d="M55.16 25.97c0 2.813-1.506 4.621-3.778 4.621a3.069 3.069 0 0 1-2.849-1.584h-.043v4.484h-1.858V21.442h1.799v1.506h.034a3.212 3.212 0 0 1 2.883-1.601c2.298 0 3.813 1.816 3.813 4.622zm-1.91 0c0-1.833-.947-3.038-2.393-3.038-1.42 0-2.375 1.23-2.375 3.038 0 1.824.955 3.046 2.375 3.046 1.445 0 2.393-1.196 2.393-3.046z" transform="translate(9.965,0)"/><path d="M71.71 27.036c.138 1.231 1.334 2.04 2.969 2.04 1.566 0 2.693-.809 2.693-1.919 0-.964-.68-1.541-2.289-1.937l-1.609-.388c-2.28-.551-3.339-1.617-3.339-3.348 0-2.143 1.867-3.614 4.519-3.614 2.624 0 4.423 1.472 4.483 3.614h-1.876c-.112-1.239-1.137-1.987-2.634-1.987s-2.521.757-2.521 1.858c0 .878.654 1.395 2.255 1.79l1.368.336c2.548.603 3.606 1.626 3.606 3.442 0 2.323-1.851 3.778-4.794 3.778-2.754 0-4.613-1.421-4.733-3.667zM83.346 19.3v2.143h1.722v1.472h-1.722v4.991c0 .775.345 1.137 1.102 1.137a5.808 5.808 0 0 0 .611-.043v1.463a5.104 5.104 0 0 1-1.032.086c-1.833 0-2.548-.688-2.548-2.444v-5.189h-1.316v-1.472h1.316V19.3zm2.719 6.67c0-2.849 1.678-4.639 4.294-4.639 2.625 0 4.295 1.79 4.295 4.639 0 2.856-1.661 4.639-4.295 4.639s-4.294-1.782-4.294-4.639zm6.695 0c0-1.954-.896-3.107-2.401-3.107s-2.4 1.162-2.4 3.107c0 1.962.895 3.106 2.4 3.106s2.401-1.145 2.401-3.106zm3.426-4.528h1.772v1.541h.043a2.159 2.159 0 0 1 2.178-1.636 2.866 2.866 0 0 1 .637.069v1.738a2.598 2.598 0 0 0-.835-.112 1.873 1.873 0 0 0-1.937 2.083v5.37h-1.858zm13.198 6.395c-.25 1.644-1.851 2.771-3.898 2.771-2.634 0-4.269-1.765-4.269-4.596 0-2.84 1.644-4.682 4.19-4.682 2.505 0 4.08 1.721 4.08 4.466v.637h-6.395v.112a2.358 2.358 0 0 0 2.436 2.564 2.048 2.048 0 0 0 2.091-1.273zm-6.282-2.702h4.526a2.177 2.177 0 0 0-2.221-2.298 2.292 2.292 0 0 0-2.306 2.298z"/><path d="M35.422 14.649v-6h1.8c.9 0 1.7.3 2.2.8.6.6.8 1.3.8 2.2s-.3 1.6-.8 2.2c-.5.5-1.3.8-2.2.8zm.8-.7h1.1c.7 0 1.2-.2 1.6-.6s.6-1 .6-1.7-.2-1.3-.6-1.7-1-.6-1.6-.6h-1.1zm5.1.7v-6h.8v6zm3.9.1c-.4 0-.9-.1-1.3-.4s-.7-.7-.8-1.2l.7-.3c.1.3.3.6.5.8.3.2.6.3.9.3s.6-.1.9-.3c.2-.2.4-.4.4-.7s-.1-.6-.4-.8c-.2-.2-.6-.4-1.1-.5-.5-.2-.9-.4-1.2-.6-.3-.3-.4-.6-.4-1s.2-.8.5-1.1.8-.5 1.3-.5.9.1 1.2.4.5.5.6.8l-.7.3c-.1-.2-.2-.4-.4-.5-.2-.2-.5-.2-.8-.2s-.5.1-.8.2c-.1.2-.2.4-.2.7 0 .2.1.4.3.6s.5.3.9.4c.3.1.5.2.7.3s.4.2.6.4c.2.1.4.3.5.6s.2.5.2.8-.1.6-.2.8-.3.4-.5.5c-.3 0-.5.1-.7.1-.2.1-.5.1-.7.1zm3.9-.1h-.8v-6h2c.5 0 .9.2 1.3.5s.6.8.6 1.3-.2.9-.6 1.3c-.4.3-.8.5-1.3.5h-1.2zm0-3.2h1.3c.3 0 .6-.1.8-.3a1.08 1.08 0 0 0 .3-.7c0-.3-.1-.5-.3-.7s-.5-.3-.8-.3h-1.3zm9 2.4c-.6.6-1.3.9-2.2.9s-1.6-.3-2.2-.9-.9-1.3-.9-2.2.3-1.6.9-2.2 1.3-.9 2.2-.9 1.6.3 2.2.9.9 1.3.9 2.2-.3 1.6-.9 2.2zm-3.8-.5c.4.4 1 .7 1.6.7s1.2-.2 1.6-.7c.4-.4.7-1 .7-1.7s-.2-1.3-.7-1.7c-.4-.4-1-.7-1.6-.7s-1.2.2-1.6.7c-.4.4-.7 1-.7 1.7s.2 1.3.7 1.7zm5.8 1.3v-6h.9l2.9 4.7h0v-1.2-3.5h.8v6h-.8l-3.1-4.9h0v1.2 3.7zm6 0v-6h.8v6zm2.1 0v-6h2.2c.5 0 .9.2 1.2.5s.5.7.5 1.2c0 .3-.1.5-.2.8-.1.2-.3.4-.6.5h0c.3.1.5.3.7.5s.3.5.3.9c0 .5-.2.9-.5 1.2-.4.3-.8.5-1.3.5h-2.3zm.8-3.4h1.4c.3 0 .5-.1.7-.3s.3-.4.3-.6-.1-.4-.3-.6-.4-.3-.7-.3h-1.4zm0 2.7h1.6c.3 0 .5-.1.7-.3s.3-.4.3-.7a1.08 1.08 0 0 0-.3-.7c-.2-.2-.4-.3-.7-.3h-1.5v2zm4.3.7v-6h.8v5.3h2.6v.7zm7.9-5.3h-2.7v1.9h2.5v.7h-2.5v1.9h2.7v.8h-3.5v-6h3.5zm6.7 0h-2.7v1.9h2.5v.7h-2.5v1.9h2.7v.8h-3.5v-6h3.5zm1.2 5.3v-6h.9l2.9 4.7h0v-1.2-3.5h.8v6h-.8l-3.1-4.9h0v1.2 3.7z" stroke="#fff" stroke-width=".2" stroke-miterlimit="10"/></g></svg>