<svg xmlns="http://www.w3.org/2000/svg" viewBox="0 0 512 167"><path fill="#df5a5a" d="M36.5 166.7c-4.2-.2-8.4-.6-11.6-1.2A58.5 58.5 0 0 1 0 154.3a401.1 401.1 0 0 0 3.8-13.5l1.6-5.7 1 .7a50.7 50.7 0 0 0 31.8 9.8 32 32 0 0 0 14.6-3.2 26 26 0 0 0 11.9-12 35.8 35.8 0 0 0 3.2-17l-.5.6a36.6 36.6 0 0 1-18.8 11.4c-6 1.4-12.5 1.6-18.7.5a34 34 0 0 1-26.5-22.2C2 99.5 1.2 95.3 1 90.6V26.8h24.6v29.6l.1 30.5a19.8 19.8 0 0 0 11 16.4c5 2.4 11.5 2.9 17.3 1.2a19 19 0 0 0 13.8-16.4l.2-1.5V26.7H92.7v45l-.1 46.8a55.8 55.8 0 0 1-2.8 15.5c-4.3 13-13.6 23-26.6 28.3a59.2 59.2 0 0 1-26.6 4.4zm116.7-40.2a56.4 56.4 0 0 1-21.6-5.6 37.5 37.5 0 0 1-20.4-33V26.8h24.5V56a6861.4 6861.4 0 0 0 .2 30.5 19.2 19.2 0 0 0 10.3 16.5 25 25 0 0 0 16.4 1.8c4.4-.9 8-3.1 10.8-6.4 2.3-2.8 3.7-6 4.4-10.5l.2-1.2v-60h24.6v62.5a38.2 38.2 0 0 1-21.3 32.1c-5.8 3-11.6 4.5-19.4 5.1-1.4.2-7.2.2-8.7.1zm162.6 0c-5-.3-9.7-1.3-14.2-3a41.9 41.9 0 0 1-22.5-20.5 52.9 52.9 0 0 1-4.7-13.8 68.8 68.8 0 0 1-.1-24.8 46 46 0 0 1 18-29.7c2.8-2 6.8-4 10.2-5.3a49.1 49.1 0 0 1 31.2-.5A41 41 0 0 1 361 56.2a60.3 60.3 0 0 1 2.9 24.9v.3h-77v.7c.5 5.3 1.8 10.8 3.6 15a29.9 29.9 0 0 0 20.9 18.3 34.2 34.2 0 0 0 14.4.2 39 39 0 0 0 24.5-15.7l2 1.1a1661.8 1661.8 0 0 0 7.9 4.4l-2 2.9a45.3 45.3 0 0 1-17.7 14 50.7 50.7 0 0 1-24.8 4.2zm34.8-54.4a47.3 47.3 0 0 0-3-15.1 29.2 29.2 0 0 0-28.7-19.8c-3.6 0-5.4.2-8.2.9-11 2.7-18.9 11.2-22.1 23.9a48.6 48.6 0 0 0-1.6 10v.3h31.8c27.5 0 31.8 0 31.8-.2zm54.6 54.4c-3.1-.2-7-.6-9.7-1.2a43.6 43.6 0 0 1-19.3-8.8l5.3-8 1.4.8c3.7 2.4 7.4 4 12.2 5.3a52.3 52.3 0 0 0 18.1 1.4c6-.7 10.2-2.2 13.6-5a14 14 0 0 0 4.4-15.8c-.5-1.6-1.6-3.2-3.1-4.7a29.5 29.5 0 0 0-11.3-6.6 122.2 122.2 0 0 0-12.2-3.7l-4.3-1.3c-9-2.6-14.6-5.5-18.5-9.3A20.7 20.7 0 0 1 376 53c.3-3.9 1.1-7.3 2.7-10.4A27.4 27.4 0 0 1 395.2 29a64.4 64.4 0 0 1 42.7 3.8c2.2 1 4.6 2.6 4.5 2.7a181.5 181.5 0 0 1-5.2 8.2l-.3.5-.2-.2a49.8 49.8 0 0 0-32.9-6.3c-6.1 1.3-10.9 4.4-13 8.6a13.4 13.4 0 0 0-1.5 7c.3 6.4 4.3 10.6 13.2 13.8 1.9.7 3.5 1.2 13.4 4.1a75 75 0 0 1 14.3 5.2 27.5 27.5 0 0 1 13 12 24.5 24.5 0 0 1 2.2 13.6c-.8 5.6-3 10.5-6.9 14.4a35.8 35.8 0 0 1-22.6 9.8c-3.1.4-7.4.5-10.7.3zm81 0a24.7 24.7 0 0 1-16-7 25.2 25.2 0 0 1-6.7-13c-.7-3-.7 2.1-.7-54.8V.3h13v28.2h34.7v10.9h-34.7v29.8c0 32.6 0 30.9.4 33.2a16 16 0 0 0 16.2 13 55 55 0 0 0 19.5-3.3V122.7l-.6.2a52.5 52.5 0 0 1-12 3c-4.4.6-10.1.9-13.2.6zM223.7 76.7V28.6h12.6V30l.2 14.6.9-1.1a32.2 32.2 0 0 1 18.3-14 53 53 0 0 1 18.2-2.9h.8v.3c0 .2 0 1-.2 1.7a6336.6 6336.6 0 0 0-.8 9.5v.3h-2l-5.3.5c-8.3 1-14.5 3.4-19.6 7.5-1 .8-3.4 3.1-4.2 4.1a27.8 27.8 0 0 0-5.5 12.4c-.4 2.6-.4.5-.4 32.4v29.4h-13z"/></svg>