<svg xmlns="http://www.w3.org/2000/svg" viewBox="0 0 582 128" fill="var(--main)"><path d="M259.012 58.185L259.005.287c0-.147.119-.266.266-.266L270.713 0c.071 0 .138.028.188.078s.078.118.078.188l.014 126.615c0 .147-.119.266-.266.266l-11.463.014c-.147 0-.266-.119-.266-.266l.007-56.476c0-.147-.119-.266-.266-.266h-38.115c-.071 0-.138.028-.188.078s-.078.118-.078.188v56.434c0 .147-.119.266-.266.266l-11.456.028c-.147 0-.266-.119-.266-.266L208.376.287c0-.071.028-.138.078-.188s.118-.078.188-.078l11.449.007c.147 0 .266.119.266.266v57.898c0 .071.028.138.078.188s.118.078.188.078l38.122-.007c.071 0 .138-.028.188-.078s.078-.118.078-.188zm222.292-26.981c16.701-3.529 31.981 5.987 32.534 23.998q.007.322-.322.322l-8.431-.035q-.357-.007-.413-.357-.259-1.625-.532-3.179c-1.709-9.727-10.315-13.69-19.509-12.22-5.294.847-10.371 4.321-11.834 9.622q-.462 1.66-.469 5.924-.077 24.775-.091 49.537c-.007 18.13 29.67 19.369 32.058.98q.168-1.309.322-2.633.049-.413.469-.413h8.396c.12 0 .235.049.317.137s.125.205.117.325q-1.008 16.68-14.916 22.619c-12.878 5.497-30.672.392-34.691-13.76q-1.043-3.641-1.043-13.9-.007-22.843.168-45.678c.084-11.008 7.283-19.047 17.871-21.288zm69.296-.906c-.51-.009-1.031.045-1.559.171-5.063 1.204-6.463 5.406-7.604 9.909l-22.017 86.349a.4.4 0 0 0 .386.498h8.704c.169 0 .316-.113.357-.274l8.536-33.137a.41.41 0 0 1 .399-.308l24.888-.02c.28 0 .525.187.595.455l8.565 32.891c.057.22.256.373.483.372l9.11.007a.22.22 0 0 0 .173-.083c.041-.052.055-.12.038-.183l-23.537-90.096c-.913-3.327-3.943-6.487-7.516-6.55zm.142 10.613c.11.001.218.23.323.685l9.852 42.912c.011.043.001.089-.026.124s-.069.057-.113.058l-20.84-.007c-.243 0-.334-.117-.274-.35l10.742-42.743c.114-.453.227-.68.336-.678zm-384.37-10.277c-10.674-.034-21.384 5.097-24.753 15.402-.7 2.152-1.055 5.66-1.064 10.524l.077 48.605c.051 9.416 4.28 16.077 12.683 19.985 12.647 5.882 32.751 2.605 37.604-12.493.682-2.124 1.025-5.524 1.03-10.202l.027-43.991c.004-5.84-.352-9.921-1.071-12.241-3.221-10.357-13.859-15.556-24.533-15.59zm-.498 9.032c7.243-.103 14.561 3.127 16.445 9.961.327 1.172.49 4.713.49 10.623v41.863c0 3.978-.35 6.785-1.05 8.424-5.147 11.981-28.655 11.19-31.835-1.737-.252-1.022-.377-2.754-.377-5.196V52.471c.004-8.288 8.118-12.687 16.328-12.804zm145.685-8.979c-10.089.274-19.941 5.291-23.094 15.404-.668 2.138-1.007 5.373-1.016 9.705l-.021 45.93c.009 4.85.359 8.396 1.05 10.637 6.533 21.239 42.793 20.623 48.619-.518.542-1.956.815-5.499.819-10.63l-.007-48.808c-.016-14.582-13.379-22.072-26.352-21.72zm1.049 8.898c8.16-.008 16.328 4.629 16.339 14.111l-.007 49.894c0 2.712-.352 4.93-1.057 6.653-4.797 11.743-25.966 11.792-30.574.133-.714-1.811-1.062-5.088-1.044-9.831l.056-47.198c-.025-9.1 8.127-13.753 16.287-13.76zM66.096 114.402q1.919 5.042.735-.224a66.6 66.6 0 0 1-1.653-14.39q-.231-34.019-.567-68.192a.21.21 0 0 1 .21-.21l8.382.035q.357 0 .357.364.126 44.397-.098 88.779c-.028 5.938-6.365 8.823-10.595 4.566-1.996-2.017-3.41-6.828-4.461-9.517Q44.374 79.655 31.118 43.97q-.798-2.15-.525.126c.602 4.979 1.499 10.063 1.499 15.168q.014 33.83.014 67.638c0 .147-.119.266-.266.266l-7.976.007q-.679 0-.679-.679.021-42.807.007-85.901 0-4.727 1.05-6.631c2.262-4.076 9.496-4.202 11.428.84q15.756 40.979 30.426 79.599z"/><rect x=".341" y="31.554" width="9.215" height="95.684" rx=".203"/><path d="M95.423 82.771l.014 43.942c0 .29-.235.525-.525.525l-8.2.007q-.371 0-.371-.378.014-42.415 0-84.879 0-4.517 1.008-6.526 2.031-4.041 7.227-4.034 16.743.021 33.487.098.301.007.301.301l-.007 8.193c0 .175-.143.318-.322.322l-32.205.308q-.406.007-.406.413l.014 32.03a.34.34 0 0 0 .096.238c.062.063.145.098.233.098l30.111-.021q.378 0 .378.385l-.007 8.27q0 .343-.343.343l-30.125.007q-.357 0-.357.357zM374.156 31.42l-15.581.042c-6.211.042-7.927 3.845-7.934 9.489l-.014 85.886a.4.4 0 0 0 .399.399l8.087-.007a.37.37 0 0 0 .372-.371l-.022-36.568c0-.108.085-.195.189-.196l12.326-.014c3.618.023 6.211.259 7.779.707 5.756 1.632 11.302 6.652 11.274 12.969l-.056 22.99a.5.5 0 0 0 .505.496l8.053-.014a.41.41 0 0 0 .287-.117c.076-.075.119-.176.119-.282l-.036-21.911c-.009-2.759-.31-5.005-.903-6.737-2.119-6.19-6.384-10.367-12.793-12.534-.514-.173-.509-.329.014-.469 7.913-2.164 13.137-10.267 13.298-18.004l.126-13.655c-.021-10.007-5.903-18.704-15.763-21.322-1.937-.518-5.18-.778-9.727-.778zm-5.77 8.965l8.571.026c7.612.049 13.263 4.706 13.473 12.402.126 4.729.168 9.458.126 14.187-.063 6.085-3.698 10.357-8.964 12.64-2.063.892-5.342 1.374-9.838 1.448-3.94.07-7.869.045-11.785-.077-.277-.007-.498-.237-.498-.518l-.014-39.754c0-.224.115-.336.343-.336l8.585-.019zm51.981 42.288q-.238 0-.238.238.056 9.951.049 19.909-.007 4.566.791 6.702c1.954 5.224 6.891 8.739 12.535 8.739q9.601.007 19.327-.077.448 0 .448.448l-.007 8.235a.28.28 0 0 1-.28.28q-10.7.021-21.239-.056c-9.054-.07-17.177-7.696-19.642-15.819q-1.015-3.354-1.015-10.553-.007-29.404 0-58.808 0-4.447 1.022-6.358c1.982-3.711 5.273-4.027 9.51-4.013q15.658.035 31.365 0c.147 0 .266.119.266.266l.014 8.228q0 .329-.329.329l-32.569.28c-.117.004-.21.1-.21.217l-.007 32.31c0 .115.046.226.127.307s.192.127.307.127l30.707-.014q.427 0 .427.427v8.424c0 .147-.119.266-.266.266z"/></svg>