<svg xmlns="http://www.w3.org/2000/svg" viewBox="0 0 512 439"><path fill="#8c5757" d="M463.7.3c-10 1.6-17.4 11.4-17.2 21.3.1 10.1 8.4 19.3 19 17.8C476 38 482.8 28.3 482.8 18c0-10.3-8.7-19.2-19.2-17.6M42.2 31.1h-.7c-.6 2.1.3 4.1.3 6.3 0 3.2-1 6.8-2.8 9.5-6.8 10.1-24 13-30.8 1C-.5 32.6 14.3 5.9 32.7 8c2.3.3 4.7.7 7 .6 1.6-.1 3.5-.8 4.8.3 2.8 2.2 2 8.7-1.6 9.7-1.9.5-3.4-1.2-5-2 .8 3.7 5 4.8 8.2 3.3 4-1.9 6.3-8.5 3.5-12.3-1.4-1.8-3.4-1.4-5.3-1.1-3.6.4-7 .2-10.5 0-5-.3-9.5-.2-14 1.8C6.3 14-5.4 33 2.4 47.3 8.5 58 23.8 60 34.1 54.6c8.5-4.5 13.8-14.8 8-23.6m54.2 48.5c4 .6 7.8-4.6 10-7.4 3.6-4.7 6.9-9.6 9.2-15.1 2-5 3.4-10.7 6-15.5 1.8-3.5 7.6-.8 8.3-3.8 1.2-4.8-4.3-3.5-6.5-2.1 3.3-8.5 5.3-18.7 11.6-25.5 1.5-1.6 4.1-3.4 6.1-1.4.9.9 1 2.3 2.1 3 1 .8 2.5.1 2.8-1 1-3.9-5-5-7.5-4.5-5.1.8-8.6 6-11.2 10-8.7 14-11.6 30.3-18.4 45a68 68 0 0 1-7.8 13.3c-1.4 1.8-3.6 3-4.7 5m145.4-50.3c5.1-.7 12.7-6.8 13.3-12.3.2-2.5-2.3-4.5-4.3-2.3-2.2 2.5-2.1 6.6-4.2 9.3-1.5 1.9-4.1 3-4.8 5.3m-67.8-14.7-10.5 14-6.4 6 3.2.7L149 57.4c3-.4 6.3.7 9-.3 1-.3 3.6-2.1 1.7-3-1.3-.5-4.4-.3-5.8-.2l6.2-7.7 5-10 4.6-2.3-3.9-.3 8.8-18.7-.7-.3M151.8 19c-3.6.8-2.6 6.3 1 5.6 3.7-.7 2.7-6.4-1-5.6M193.9 51c-2.2.6-3.8 2.3-6 3-5 1.7-11-.7-11.5-6.5 6 1.8 13.8-1 17.8-5.6 1.8-2.2 4.5-6.9 1.4-9.2-2.4-1.8-6.4-.7-9-.1-7.8 2-20 10.5-14.7 19.8 3.4 5.9 12 6.2 17.5 3.2 2-1.1 4.1-2.2 4.5-4.6m290.8-19a358 358 0 0 1-24.2 17c-3.2 2-8.8 3.2-10 5.7-.5 10.6.2 21.7.2 32.5 0 5.4 1 11 .2 16.1-.5 3.3-3.3 7-5 9.9a91.3 91.3 0 0 1-17.4 21c-.2-11.4 0-22.9 0-34.4 0-4.9.8-10.9-3.8-14.1-6.5-4.5-13.5-.5-20.4-1.8-7.8-1.5-5.9-9-5.6-14.6 0-3-.3-6-.9-8.8-1-4.6-3.6-9-9-6.9-12.2 5.1-14.6 22.9-11 34 1.2 3.4 5.6 7.3 5.7 10.8.1 4-1.8 8.8-2.6 12.7-2.4 11.6-6.1 23.2-10.2 34.4-2.7 7.3-5 14.8-8.6 21.8-1.1 2.1-3.3 6.3-6.3 6-3.8-.6-3.7-4.2-3.7-7-.1-7.3.2-14.6.2-21.9 0-31 1.7-62 1.8-93-3 1.3-5.2 3.8-7.8 5.7A66.7 66.7 0 0 1 324.6 69v49.2c0 1.3.3 3.3-.4 4.5-1 1.6-3.6 2.1-5.2 2.8-4.1 1.8-8.1 3.7-12 5.8-10.6 6-20 14-26.9 24.2a81 81 0 0 0-10 21c-1.8 5.3-1 13-7 15.7-1.6.8-3.2.6-5 .8-4.2-10.2-16.7-16.5-23.8-5-3.6 5.8-5.8 15 0 20 4.2 3.5 11 2.7 11.2 8.9A49 49 0 0 1 239 247c-3.3 4.5-9 8.1-14.2 4.3-5.7-4.2-6.2-12.5-6.3-19-.2-13 1-28.3 7.5-39.7 1.3-2.4 3.3-4 5-6 2.3-3 2.3-6.9-2.3-6.2A28 28 0 0 0 216 187c-13.4 10.3-19.2 29.7-20.3 46-.3 5-.3 10.2-.6 15.4-.1 2.3.6 4.4-.2 6.7-3.8 10.7-14 29.1-27.7 21.8-14-7.5-21.4-24.2-32.3-35.2-2.7-2.7-5.6-5-9.1-6.7-1-.4-2.9-1.2-2.7-2.6.3-2.2 4.9-4 6.4-5.2 6.4-5.1 13-10.2 18.7-16 19.4-19.6 38.4-45.6 32.9-74.8-.8-4.1-2.5-7.9-4.2-11.6-13-27.8-50.3-24.8-71.8-10.4-31.9 21.2-45.3 61.7-50 97.8-9.7.1-19.6 5.5-24 14.4-6.6 13.1 4 25 17.4 25.3l-5.1 31-5.3 40-3.6 36.5-1.4 17.5c5.5-1 11.6-5.9 16.5-8.6 10.3-6 21-11.4 31.6-17v-32.3l.3-72.4c6.7 0 13.6.5 20-1.7 7.6 19.5 15.4 40.6 30.6 55.5 8.5 8.3 20.8 13.5 32 6.7 11.8-7.2 20.2-19.9 28-31l7.5-10.5c1-1.2 2-3.2 3.2-4 1.6-1 5.4 2.3 7 3 5.7 2.4 11.4 4.5 17.8 3 18-4.2 24.4-27 28.8-42.4 1.4-4.8 2.9-9.8 3.5-14.7 3.2-.3 8.7-2.6 11.6-1.4 1.5.6 2.5 2.3 3.6 3.5 2.2 2.4 4.7 4.8 7.3 6.8 11.7 9.2 24 8.3 34.1-2.6 2.8-3 5.2-6.5 7-10.2 2.1-4.3 5.1-9 6-13.7 4.6 3.2 8 7.2 14 7.4 9.7.3 16.7-9.5 21-16.9 10.6-18.3 17-38.5 23.5-58.6 2-6.3 4-12.6 5.8-19 .6-2.1 1.2-5.8 3.8-6.5 1.7-.4 2.4 1.8 2.6 3 .3 3.6-1 7.9-1.2 11.6-.8 10.5-2 22 1 32.3 1.6 5.3 4.1 10.4 10.2 11 4.4.6 8.9-1.6 12.7-3.5a73.2 73.2 0 0 0 25.6-22.6c2.4-3.4 6.1-7.5 7-11.6 4.5 3 8.4 7 14.1 7.5 18 1.4 29.1-20 36-33.5 2-3.9 4.5-7.8 5.8-12L498.8 75c-2.1 7.6-4.7 15.3-8.8 23.2-5.6-4.9-4.2-19.3-4.2-19.3M294.7 32.7c-1 .1-2 .3-2.8.9-8.6 5.4 6.4 13.7 1.8 19.6-1.5 2-7.1 3.7-8.9 1-.7-1.1 0-6.3-3-5-2.4 1-.3 4.6.7 5.7 2.4 2.5 5.9 2.4 9 2.1 1.4-.1 2.7-.4 4-1 6.8-3.6 2.3-10.4-.3-15-.7-1.3-2.6-3.4-1.9-5 2.9-5.8 6.2 4.8 9 3 1.5-.8.6-3-.3-4-1.7-1.9-4.9-2.7-7.3-2.3M92 36.7c3-6-7.9-.4-10.2.7v.7l4.9-.7c-3.2 5.2-5.1 11.2-8.6 16.2-.6.9-4.9 2.8-4.3 3.6.5.9 3 .2 3.8.2 2.4 0 9.7 1.2 9-3.1l-3.4 1.4a32 32 0 0 1 10.6-17.8c2.2-1.6 6-3.7 8-.8 3 4-2.4 12-4.9 15-1 1.2-3.3 3-3.3 4.5s2.5.8 3.3.8c3 .1 6.2.6 7.4-2.8l-6-.3c3.3-3.8 7.7-7.6 9-12.7 1.5-6.1-3.1-10.1-9-8-2.3.8-4.2 2-6.3 3.1m44.2 1.8v.7l4.6-.4c-2.7 5-6.7 16.7-13 17.2v1.4c3.3.2 12.7 1.5 14.4-1.7l-.4-.4c-4.4.7-2.8-3.2-1.5-5.6 2-3.6 4.2-7.2 6.1-10.8 1-1.9 2.3-3.5 1.8-5.7l-12 5.3m69.2-1.4.4.3 3.5-1.4c-1 3-3 5.4-4.5 8-3 5.5-4.3 10.3-10.6 12 .6 2 3.1 1.4 4.9 1.2 3.4-.3 9.6 1.9 10.9-2.6l-5 .7c0-5.8 5-12.3 9.2-16 1.5-1.4 7.6-6 8.9-2.2.4 1.2-.4 2.9-.5 4.2 3.8.3 9-4.4 4.2-7.4-3.6-2.2-8.8.8-12 2.5 3.5-5.5-8-2-9.4.7m28.1 2 .4.4 4.9-1c-5.1 6.1-6.3 14.2-13.7 17.9v.7c3.6 1 11.3 1 14.7-.7l-.3-1.4c-4.3 1.1-3.4-2.4-2-5l6.4-11.2c1-1.7 2.4-3.5 1.9-5.6-3.2.9-10.7 3-12.3 6m29.9 16.5v1.7c5 0 13.5 1.6 13.7-5.6-1.8.7-2.1 3.5-4.3 3.5-2.7 0-1.6-4.2-1-5.6 2-5.5 6-9.9 8.4-15.1-10-4.4-29 1.7-31.5 13.4-1.8 8.8 8.3 11.6 14.7 7.7m-201-22c-5.9 1-11.4 5.2-13.2 11C47 52.2 52 59.2 60 57.7c5.6-1 11-4.3 12.8-9.9 2.6-7.5-1.6-15.5-10.3-14m113.8 12.1c.4-4.8 4.7-9.6 9.4-10.8 1.6-.4 4.2-.9 5.4.5 1.6 1.7-.4 4.8-1.6 6.1-3.6 4.2-8 4.9-13.2 4.2m98-10.8c-1 3-3.2 5.6-4.6 8.4-1.6 3.3-2.6 7.3-5.6 9.6-3.8 2.9-9.6 2.1-10-3.3-.8-9 13-14.7 20.1-14.7M65 35.5c4.8-.2 5.6 4 4.5 7.9-1.3 5-6 12.3-11.9 12.4-4.6.1-5.7-4-4.7-7.8C54.3 42.7 59 35.7 65 35.5m150 .9-.4.3.4-.3m-73.8 2-.3.4.3-.3m-1.4 3.8-.3.4.3-.4M102 75.7l-.4.3.4-.3M55.5 438.9c6-2 12-7 17.6-10.1a183.6 183.6 0 0 1 52.7-19c2.7-.5 7.8-.2 10-2 3-2.5 4.8-7.5 6.8-10.7a340.6 340.6 0 0 1 73.2-81.2 579.5 579.5 0 0 1 76.8-50c39-21.2 79.6-39.3 117.7-62a512.2 512.2 0 0 0 80.4-56.3c5.7-5 11.4-10.3 16.8-15.9 1.2-1.2 5.3-4.1 4.4-6.1-1.2-2.6-4.6-4.7-6.6-6.7-.6-.6-1.3-1.7-2.3-1.7-1.8 0-4.4 3.3-5.6 4.4-4.8 4.2-9.8 8.2-14.8 12.2a515.8 515.8 0 0 1-86.7 55.4c-53.2 28-108.7 52-160.5 82.6A553.4 553.4 0 0 0 90.7 392.3a413 413 0 0 0-35.2 46.6m64.3-317.4c14.1-1.8 23.4 10.2 25 23 2.5 20.2-7.6 41.4-18.9 57.6-3.4 5-7 9.7-10.7 14.4-1 1.3-2.8 4.4-4.5 4.6-1.4.2-3.1-1.5-4.2-2.2a46 46 0 0 0-21.5-7.6c-1.4-.1-4.5.3-5.5-1-1.1-1.3-1.1-4-1.4-5.7-1.2-6.5-.6-13.9.2-20.4 2.9-24.4 12.1-59.1 41.5-62.7m205.5 17.4c0 8.7.7 17.3.7 26 0 5.2.9 11.2-.8 16.2a31.7 31.7 0 0 1-9.8 15.8c-4.2 3-9.6 3.3-13-1-1-1.3-1.8-2.8-2.4-4.3-5.5-13.9 1.7-30 9.5-41.4 3.8-5.8 8.3-11.5 15.8-11.3m-7 56.2-.4.4.3-.4M57 222.5c-1.3 4.7-2.8 9.4-4.4 14-.5 1.4-.9 4.2-2 5-1.2.7-3.3-.1-4.4-.5-4-1.4-7.3-5-7.2-9.4.3-8.9 11.6-9 18-9m24.6 14a21 21 0 0 1-2-4c-.3-.8-.4-1.8-.5-2.7-1.3-9 14.4.2 6 5.2-1 .7-2.3 1.1-3.5 1.5z"/></svg>