<svg xmlns="http://www.w3.org/2000/svg" viewBox="0 0 256 256"><path fill="#272150" d="M104.79 41.845l.007 5.168-.043 6.423c-5.543-.173-10.234-.289-15.236 1.581l-.058-8.011-.072-4.799.051-13.143q0-.368-.361-.361l-7.766.043a.505.505 0 0 1-.505-.505V18.18a.361.361 0 0 1 .361-.361l31.958.051a.318.318 0 0 1 .318.325l-.007 10.27a.339.339 0 0 1-.339.339l-7.91-.022a.433.426 0 0 0-.433.426zm60.863.109l-.022 5.045.014 7.167q-.195.419-.953.173-7.066-2.281-13.821-1.111-.339.065-.455-.267-.05-.137-.022-.296l-.065-5.507.029-5.536.043-12.471a.44.44 0 0 0-.44-.44l-7.823.014q-.462 0-.462-.462l.036-9.989q0-.426.433-.426l31.778-.029a.375.368 0 0 1 .375.368l.05 10.234a.31.31 0 0 1-.31.31l-8.098-.007a.31.303 0 0 0-.31.303z"/><path d="M150.36 41.622l-.029 5.536c-7.831-.549-15.394-4.366-19.422-11.244-.729-1.249-3.248-1.003-4.366-.83q-.354.051-.592.332c-.801.938-1.458 2.252-2.122 3.031q-7.253 8.524-19.032 8.567l-.007-5.168c8.22-1.537 16.657-4.771 20.641-12.652a1.01.996 13.1 0 1 .88-.541l3.515-.029a1.357 1.364 75.3 0 1 1.184.686c4.251 7.506 11.18 10.66 19.349 12.313zm-60.972.584l.072 4.799q-1.833.426-5.045.411-4.229-.029-11.367 1.609c-6.062 1.386-11.771 6.763-13.612 12.818q-.722 2.353-.852 7.65c-.707 28.349-.036 57.449 6.351 85.077 6.142 26.567 20.887 50.925 40.308 69.033q7.138 6.654 18.859 15.12 2.144 1.552 5.03 1.111 1.898-.281 4.446-2.035c22.958-15.827 43.7-40.669 52.787-67.164q6.005-17.516 8.502-36.801 1.126-8.711 1.328-11.735 1.941-29.215 1.162-54.497c-.325-10.783-6.835-17.112-16.903-19.176-5.002-1.025-9.88-.974-14.824-1.429l.022-5.045q8.249-.7 17.451.808c10.516 1.71 18.411 8.978 18.563 20.158.383 28.385.231 47.222-2.649 70.729q-1.638 13.309-3.262 18.952c-1.494 5.182-2.714 10.977-4.222 15.589q-6.835 20.843-18.736 37.414-1.595 2.223-6.95 8.805c-8.401 10.321-17.798 19.162-28.595 27.281-4.742 3.565-8.682 6.597-14.463 2.584q-28.71-19.905-46.753-49.943-1.494-2.497-6.142-12.536c-8.906-19.241-12.284-40.214-14.204-61.144-1.624-17.689-1.371-35.307-1.508-53.04q-.043-5.868.635-9.743c1.335-7.679 9.945-13.568 16.961-15.019q8.581-1.768 17.61-.642zm61.008 10.458q-.029.159.022.296.115.332.455.267 6.755-1.169 13.821 1.111.758.245.953-.173.758 1.047 2.468 1.292a.816.816 0 0 1 .484 1.357q-1.299 1.436-2.872 1.956-4.381-3.536-10.285-3.002c-1.371.123-4.864.844-4.929 2.692-.072 2.151-.195 3.666 1.891 4.843q2.165 1.227 4.547 1.949 4.258 1.306 8.726 2.107-.036.484.65.628c3.58.743 7.896 2.577 8.675 6.488.613 3.067-.144 8.336-3.659 9.642q-2.872 1.075-5.738 1.848l-15.264.26q-.079-.065-.152-.123-.043-.043-.108-.058l-10.977-2.266a.491.491 0 0 1-.332-.715q1.111-2.042 2.569-3.782 1.92-2.288 1.321.686-.087.419.635.888c1.314.852 5.875 1.241 6.611 1.35q.289.043.505-.346.166.433.938.57c3.32.585 13.835 1.443 12.876-4.605-.693-4.33-10.292-5.882-13.864-6.878-4.713-1.184-14.911-5.795-10.407-12.572 1.97-2.959 6.394-4.366 9.75-4.857q.368-.058.505-.245.166-.238.188-.606zm-45.642.772q5.254.794 10.4 2.627.57.202.209.686l-1.905 2.577q-.368.491-.895.195c-2.259-1.263-5.168-2.317-7.874-2.656q-8.004-1.833-14.362 3.111-.57.44-.823 1.176-.065-.188-.231-.18-.101 0-.217.115-2.461 2.476-2.526 6.012-.007.375.339.52 1.205.498 2.555.022l15.337-.238 4.352-.18q.751-.029.729.722l-.058 1.956a.664.671 1.9 0 1-.686.65l-4.352-.13q-7.564-.678-15.286-.173l-2.107-.072a.859.866 85.7 0 0-.881 1.018q.722 3.905 2.937 6.156c4.359 3.443 9.938 4.251 15.366 4.135q4.893-.036 8.798-2.259a1.588 1.581 51.1 0 1 1.84.202l.736.657q.844.751-.173 1.241-5.139 2.476-10.811 3.428-.397.072-.433.375-.274-.325-.469-.296-7.571.895-14.781-.96c-3.471-1.595-6.907-2.974-9.534-6.2-4.965-6.099-3.984-13.785 2.079-18.7q3.277-2.656 7.491-3.955c5.002-1.869 9.693-1.754 15.236-1.581z" fill="#f4a83f"/><path fill="#272150" d="M165.725 58.77l-.05 8.589q-4.467-.801-8.726-2.107-2.382-.722-4.547-1.949c-2.086-1.176-1.963-2.692-1.891-4.843.065-1.848 3.558-2.569 4.929-2.692q5.904-.534 10.285 3.002zm-61.036-1.905l.072 10.537-15.337.238.079-6.488q.253-.736.823-1.176 6.358-4.944 14.362-3.111zm.058 13.554l.029 11.064c-5.427.115-11.006-.693-15.366-4.135l.051-7.102q7.722-.505 15.286.173zm45.613.526c3.573.996 13.171 2.548 13.864 6.878.96 6.048-9.556 5.189-12.876 4.605q-.772-.137-.938-.57zM89.482 83.871q7.21 1.855 14.781.96.195-.029.469.296l.05 14.947q0 .383.383.383h44.769q.426 0 .426-.426l-.022-13.807 15.264-.26.007 42.748-15.142-.043.007-17.199a.217.209 0 0 0-.217-.209l-45.093.022q-.368 0-.368.361l-.014 17.054-15.293.058z"/><path fill="#f4a83f" d="M89.489 128.755l15.293-.058 45.685-.029 15.142.043 18.462-.108a.599.592 0 0 1 .599.592v18.556a.505.505 0 0 1-.505.505l-9.729-.036a.743.743 0 0 1-.743-.736l-.13-11.714a.455.455 0 0 0-.455-.447l-7.484.014-15.185-.087-15.113-.13q-1.032-.007-1.032 1.025l-.065 65.72a.549.549 0 0 0 .541.549l11.757.224a.715.715 0 0 1 .707.7l.043 2.779q.014.736-.729.743l-37.652.18q-.931.007-.852-.917l.224-2.627q.079-.945 1.025-.938l11.158.101a.758.758 0 0 0 .765-.758l.014-65.944q0-.635-.642-.635l-15.871-.014-15.221.022-7.932.13q-.31.007-.31.318l-.051 12.024a.245.253 89.1 0 1-.245.245l-9.253.253a.484.484 0 0 1-.498-.484l-.022-18.794a.245.253 89.1 0 1 .245-.245z"/><path fill="#272150" d="M104.718 135.309l-.05 25.65q0 .332.332.332l7.961.058q.484 0 .484.484l.014 10.025a.31.318 0 0 1-.31.318l-32.045.007a.303.31 0 0 1-.303-.31l.079-10.046a.44.447.5 0 1 .44-.44l7.896-.007a.289.289 0 0 0 .289-.289l-.007-25.758zm45.721-.058l15.185.087v25.636a.361.361 0 0 0 .361.361l7.867.007q.404 0 .404.404l.043 9.953q0 .368-.368.368h-31.828q-.404 0-.404-.397l.007-9.837a.411.411 0 0 1 .411-.411l7.968.022q.375 0 .375-.375z"/></svg>