<svg xmlns="http://www.w3.org/2000/svg" viewBox="0 0 512 233"><path d="M367.5 231.5c0-.6 1.7-4 3.8-7.4 2-3.4 4-6.8 4-7.6.5-1.9-.6-2.7-3-2.3-2.2.5-5.9-1-7.1-3-1.3-2-.6-2.5 1.8-1.3 1 .5 3.9 1.3 6.3 1.6 4.2.7 4.2.7 4.4 3.3.2 3.3-1.3 7.6-4 11l-3.3 4.6c-1.5 2.3-3 2.9-3 1.1zM386.3 222.8c-3-.5-5-1.4-4.7-2.2.1-.5 1.6-.6 5-.4 4.7.1 8.8-.6 8.8-1.4 0-.8-1.9-3.2-3.1-4.2-.8-.5-2.8-1.7-4.6-2.6-3.5-1.8-7.3-5.3-7.3-6.8 0-2 4.3-3.5 11.3-3.7 4.2-.1 4.8 0 5.5.8.8 1.2.9 1.4.2 2.4-.4.6-.7.6-1.7-.4-1.3-1.2-1.3-1.2-5.7-.4-2.5.4-4.9 1-5.2 1.3-1.2 1 .8 3.4 4.4 5.2 8.8 4.5 11.8 8.3 8.3 10.8-2.6 1.8-6 2.4-11.2 1.6z"/><path d="M355.5 220.7c-1.4-.8-1-1.9.8-2.5.9-.3 2.4-1.1 3.2-1.8 1.4-1.2 1.5-1.4.7-2.1-.8-.8-1-.8-3 .2-1.1.6-3.2 1.5-4.7 1.8-2.6.7-2.6.7-3.3-.6-1-2.3-1.8-6.2-2-11-.1-4.2 0-4.4 1-4.5 1.3-.2 1.4 0 2.5 6.5.9 6 1.4 6.6 3.4 5.1.9-.6 2.5-1.1 4.2-1.3 6-.5 7.5 4.3 2.6 8.7-1.6 1.6-4.1 2.2-5.4 1.5zM431.3 219a8.9 8.9 0 0 0-2.6-2.4c-.3 0-1.7.6-3.2 1.3-1.3.7-2.8 1.3-3.2 1.3-.4 0-1.6-1-2.7-2.2-2-2.2-2-2.2-3.5-.6-2 2.3-4 3.4-5.1 3-1-.3-4.3-7.2-4.3-9.3 0-.9.3-1.3 1-1.3.8 0 1.5.9 2.6 3.4.8 1.9 1.8 3.4 2.2 3.4.4 0 1.6-1.2 2.9-2.6 1.2-1.5 2.5-2.6 3-2.6.3 0 1.4 1 2.2 2.3 1.9 2.7 2.7 3 4.6 2.1l3.3-1c1.6-.3 2.2-.2 3.2 1 .8.7 1.3 1.5 1.3 2 0 .4.5 1.3 1.1 2 1 1.4 1 2.4-.1 2.4-.3 0-1.5-1-2.7-2.3zM459.3 218.9c-2.4-2.5-2.4-2.5-4.7-1.4-4 2-4.3 2-6.8-.3-2.2-2.1-2.2-2.1-4-.3-3.5 3.7-5 3.6-7.2-.9-2-3.8-2.2-6.9-.7-6.9.7 0 1.4.8 2.3 2.7 2.1 4.4 2.3 4.4 5.1 1.2 2.2-2.4 2.5-2.7 3.6-2.1.5.3 1.5 1.3 2 2 1 2 2.7 2.5 4.7 1.6a10 10 0 0 1 3.7-.4c2.1.2 2.4.3 4 3 2.8 4.8 1.9 5.6-2 1.8zM505 220.7c-.5-.2-2-.4-3.4-.4-2.4-.1-5.9-1.9-7.9-4.1-.5-.6-1.2-1.2-1.4-1.2-.2 0-2 1-3.8 2.4a15 15 0 0 1-4.4 2.3c-1.2 0-2.8-1.6-3.6-3.7-.7-1.5-.7-1.5-2.3 0a16.9 16.9 0 0 1-8.3 4c-2.4.3-5-1-6-3.1-1.4-3.2 1.2-7.2 4-6.2 2 .7 2 1.6.3 2.6-1.9 1.1-2 2-.5 2.8 1.5.8 6.2-.2 7.4-1.6.9-1 .9-1 0-2.1l-2.2-2.2c-1-.7-1-1-.6-1.7 1-1.3 2.6-.7 5 1.6 1.7 1.7 2.5 2.2 3 1.8.9-.7 2.2 0 3.1 1.6.4.9 1.1 1.5 1.6 1.5.4 0 2-.9 3.7-2 1.6-1.2 3.4-2 4-2 .5 0 2.1 1.2 3.6 2.7 2 2.1 3.2 3 5.4 3.7 2.5.7 3 .7 4.5.2 1.7-.8 1.7-.8-.6-3.7-2.9-3.8-3.4-5-2-6 1.3-1 1.6-.8 2.3.8.3.8 1.8 2.7 3.3 4.3 2.1 2.3 2.8 3.4 2.8 4.6 0 2.8-3.8 4.5-7 3.1zM403 219.6c-1.4-1-2.5-4.3-2.5-7.2 0-6 2.2-5.4 3.7.9 1.4 5.7 1 8-1.3 6.3zM398.7 204.7v-1c.5-.8 3.4-2.1 3.9-1.8.7.4.6 2-.1 2.7-.8.8-3.3.8-3.8.1zM234.2 189.3c-11.2-3.7-18.7-14.5-19.9-28.6-.2-3.4-.4-4-1.2-4-.5 0-1 .3-1.3.6-.5 1-4.5 2.5-6.2 2.5-2.5 0-5.7-1.4-6.9-3-1.7-2.5-1.4-2.9 2.1-2.5 2.7.3 3.5.1 5.5-.9 1.4-.7 3.5-2.3 4.8-3.6 2.3-2.4 2.3-2.4 2.6-12.3a165 165 0 0 1 4.2-30.8 336 336 0 0 1 11-38.5 306.7 306.7 0 0 1 21.5-50c1.4-2.3 1.7-2.5 3.2-2.2a37 37 0 0 1 13.5 7.8c4.3 4.2 5.4 6.7 5.4 12.2a87 87 0 0 1-7.1 30.7 292.7 292.7 0 0 1-16 35.3c-3.8 7-3.8 7-4.8 15.2a616.4 616.4 0 0 0-2.3 23c-.2.4-.5 5.3-.8 10.8-.4 10.7 0 18.8 1.2 20.6 1.4 2.3 4.5.7 7.6-3.8 2-3 6.1-11.2 8.8-17.8 2.2-5.5 2.2-5.5-.8-10.1-4.1-6.1-5.5-10.3-5.8-17.3a31.6 31.6 0 0 1 8.4-24.2c6.6-6.6 11.8-7 14.4-1 3.3 7.2 3.3 16 0 33.1-1.3 7-1.4 7.1-.5 8.2 1.8 2 2.5 1.3 5.2-5.6 8.8-22.4 23.6-44 36.2-52.5 3.7-2.5 8.9-4.4 11.9-4.4 3.5 0 8 3.6 11.5 9 2.2 3.6 2 4.5-1.3 8-3 3-3 3-.5 3.4 4.3.7 6.3 4.6 7.5 14.7 1.2 10 .5 21.5-1.9 30a83.6 83.6 0 0 1-29.2 42.5c-7.9 5.8-13.7 7.7-21 6.5-4.3-.7-9.7-3.2-12.6-5.7a28.7 28.7 0 0 1-6.6-10.2 46.2 46.2 0 0 1-.5-20.7l1-6.1c-.2-.1-1-.3-1.7-.3-1.4-.1-1.5 0-3.8 6.8-6.3 18-13.6 30.5-20.6 35-2.1 1.5-2.8 1.7-6 1.7-2.6 0-5-.5-8.2-1.5zm70.7-19.9a29 29 0 0 0 6.7-6.7c4.8-6.4 16-26.7 19.1-34.9 2.5-6.5 2.9-8.5 2.3-13.7-.6-5-2.4-11.6-3.1-11.6a136.6 136.6 0 0 0-28.2 54.6c-1.2 6.5-1 10.4.3 11.9 1.3 1.3 1.2 1.3 3 .4zM357.6 190.3a48 48 0 0 1-12.2-7c-2.6-2.4-2.7-2.5-2.7-5.3s0-2.8-3.3-1c-6.3 3.5-6.8 2.3-2-4.9 7-10.4 11.5-20.9 16.1-37.8 2-7.3 6-24.7 12-50.9C378.6 24.1 388 3.2 402.6.5c1.7-.2 2.6 0 6 1.7 5 2.6 9.2 6.6 11.5 11.4 1.6 3.2 1.7 4 1.9 9 .2 6.8-1.2 13-5.3 23.7l-4 10.3c-2.9 7.6-15 30-20.9 39-3.7 5.4-3 6.4 2 2.8 6.6-4.7 14-7.2 18.7-6.2 3.7.7 5.3 1.8 6.9 5 1.3 2.8 1.4 3.4 1.4 9.5 0 5.8-.1 6.7-1.4 9.3a47.7 47.7 0 0 1-10.2 13.9c-7.6 7.5-19.4 15-24.9 15.8-2.3.3-2.5.4-2.5 1.7 0 4 4.1 9.7 8.3 11.8 2.4 1.2 3.5 1.4 7.3 1.4 4 0 4.7-.2 7.8-1.8 1.9-.9 5-3 6.8-4.5 3.2-2.6 3.3-2.8 5-7.7 8.8-27 23.1-52.6 35-62.8 8.1-7 14.3-7.7 24.7-2.5 7.6 3.8 9.1 6.2 8.8 13.4V99c.5 0 3-4 4.8-7.8 1-1.9 2-3.6 2.5-3.9l6-.6c6.3-.3 11.7.9 12.6 2.7 1 1.6.1 3.5-9.5 22.6-13.7 27.2-17.5 37.9-17.6 49.7 0 5.9 0 6.4 1.4 8.9 2 3.6 4.2 6.2 6.2 6.8 3.2 1.1 9-.5 12.4-3.3 1.5-1.3 3-1.6 3-.8 0 1-3.7 6.7-6 9.3a23.6 23.6 0 0 1-28 6c-6.7-3-10.4-9-12.2-19.1-.7-4.3-1-5.5-1.5-4.9l-3.5 5.4c-6.6 9.9-13.2 15.7-17.9 15.7-3.4 0-9.7-2.3-14-5.1-3.7-2.5-3.7-2.5-7.8-1a22.2 22.2 0 0 1-9.8 1.5c-8.7 0-14.1-1.8-20-6.6a48 48 0 0 1-12-19.1c-.7-2-1.4-3.7-1.5-3.7a12 12 0 0 0-1 4c-.7 4.5-3 14.7-3.9 18.2-4.4 14.9-5.5 17-8.5 17l-2.2-.5zm88.1-31.7c1.7-.9 5.2-5 9.6-11.2l4.3-6c.2-.4-1-2-3-4.2-2-2-3.4-4.1-3.4-4.6 0-.6 2.9-5 6.5-9.7 7-9.4 10.9-16.5 12-22.1.7-3 .4-7.3-.5-7.8-.9-.6-4 1.2-5.9 3.4-3.3 4-6.2 8.7-11.1 18.3a139 139 0 0 0-14.2 37.5c-.8 5.3 2 8.5 5.7 6.4zM383.4 125c6.3-4 16-12.5 18.3-16 1-1.9.9-3.3-.4-3.3-2.8 0-11.1 6.2-17.7 13.1-4.3 4.6-6.1 7.2-5.5 8 .5 1 1.3.7 5.3-1.8z"/><path fill="#d7242e" d="M125.6 221.5c-2.6-.8-3.5-1.6-8.2-6.2-6-6-7.8-11.4-7-20 .6-5.1 2-10.8 4.4-17.4l5.2-14.5c3.6-9.8 4.9-14.6 4.2-15.3-1.4-1.4-8 5.2-15.5 15.8-8.6 12.1-11.8 18.8-18 37.5-4.6 14.3-5.6 16.5-8.7 18-4.4 2.4-18.2-5.5-20-11.3-1-2.7-.4-4.4 4.4-14 4.7-9.4 8-17.3 9.2-22.3 1.1-4.6.8-5.5-1.4-5-2.6.4-3.6 1.4-6.3 6a38.8 38.8 0 0 1-19 16.3c-2.9 1.2-4 1.3-10 1.4a33.3 33.3 0 0 1-26.8-11A53.7 53.7 0 0 1 0 142.7c0-5.7 1-15.4 1.9-19.4A77.3 77.3 0 0 1 18.6 89a30.6 30.6 0 0 1 25-8.8 23.8 23.8 0 0 1 17.8 14.4c.9 2.4 1 4 1 10.4 0 6.5-.2 8.3-1.2 12.5a59.7 59.7 0 0 1-10.1 20 71 71 0 0 1-16 13.4c-4 2.4-4.2 2.5-3.9 4a22 22 0 0 0 11.9 14.7 19.5 19.5 0 0 0 14.4-.2c5.2-2.5 7.5-5.3 11.9-13.9 9.5-18.7 19.7-32.7 27.2-37 2.9-1.8 3.6-2 6.7-2 4.1 0 8.3 1.9 10 4.5 2.6 3.8 2.1 13.2-1 22.3-6.4 18.7.5 7.1 1.6 5.2 7.8-14.7 15.3-24 22.6-27.3 4.7-2.3 9.2-2.7 12.4-1.1 5.5 2.6 6.6 8.4 3.4 16.9-.9 2.4-1.6 5.2-1.6 6.1 0 1.9 0 1.9 1.2.8.8-.7 2.2-2.9 3.2-5 1.1-2 3.7-5.7 5.8-8.3 7.8-9.8 15.4-13.6 26.6-13.6 11.6 0 11.8 1.8 3.3 29.7-8.2 26.6-9.9 33.7-9.9 42 0 6.2 0 6.6 1.7 9.8 1 2.2 2.7 4.5 5 6.7l3.4 3.4c0 2.1-9 8.1-14.6 9.8-4 1.2-10.7 1-13.6-.3-4.7-2.2-8.4-8-10.3-15.9-1.9-7.7-.4-15.9 6.7-38.9a31 31 0 0 0 2-11c-1.4-3.7-9.6 5.9-15.3 17.8a77.7 77.7 0 0 0-7 43.1c.4 2.3.5 4.8.3 5.5-.7 3-8.3 4.5-13.6 2.8zm-82-101.2c1.1-5.9 9.6-25.7 1.8-27-3.4-.7-10.1 12.2-14 25.7a41 41 0 0 0-1.8 12.2 26 26 0 0 0 .1 6c.3-.7 12.4-9.9 13.8-16.9z"/></svg>