<svg xmlns="http://www.w3.org/2000/svg" viewBox="0 0 512 339"><path fill="#003084" d="M395 338.8c-4-.2-4.1-.3-3.8-1.6.2-.7.4-5.3.4-10.2v-8.8h14.8v1.6c0 1.5 0 1.5-5.8 1.5h-6v5.6h5.7c5.5 0 5.5 0 5.5 1.5 0 1.6 0 1.6-5.5 1.6h-5.6v6.1l6 .2c5.6.2 6 .3 6 1.4 0 1.1-.4 1.2-3.7 1.3-2 0-5.6 0-8-.2zm-26.7-1.1c-.2-.6-.3-4.6 0-9l.2-8-3.1-.1c-2.8-.2-3.2-.4-3.4-1.6l-.2-1.5 8.2.2c8 .2 8.3.2 8.5 1.6.2 1.3 0 1.4-3.3 1.4h-3.4l-.1 8c0 4.5-.1 8.4-.2 8.9 0 1.2-2.8 1.3-3.2.1zm-35.8-.3c-.2-.3-.2-5 0-10.5.5-9.7.5-10 1.8-10 1.1 0 2.5 1.7 6.3 7.6l4.9 7.6.3-7.4c.3-7 .4-7.4 1.5-7.4 1.2 0 1.3.4 1.3 10.2v10.2l-1.6.2c-1.2.1-1.9-.4-2.8-1.9a4503.5 4503.5 0 0 1-8.5-12.8s-.2 2-.2 4.4c-.3 11-.2 10.4-1.5 10.4-.6 0-1.3-.3-1.5-.6zm-32-.3 3.8-9.6c2-5 3.7-9.5 3.7-9.8 0-.8 2-1.5 3.2-1a31 31 0 0 1 3.8 7.9l3.9 9.6c1.2 2.8 1.1 3.2-.9 3.2-1.5 0-1.8-.3-2.6-3l-1-2.9H306l-1 2.8c-.9 2.3-1.4 2.8-2.7 3-1 0-1.7 0-1.7-.2zm12.2-10a31 31 0 0 0-1.4-4l-1-2.1-1.4 3c-2 4.4-2 4.7 1.3 4.7 2.8 0 2.9 0 2.5-1.6zm-67.8 8.9c-3.4-1.7-3.8-3.3-3.8-12.2 0-4.6.2-8.4.3-8.5.2-.2.9-.1 1.6.1 1.2.4 1.2.9 1.3 8 0 8.7.4 9.7 4.4 10.1 2.2.3 2.9 0 3.9-1 1-1.2 1.3-2.5 1.5-9.1l.2-7.7 1.6.1 1.6.2-.2 7.5c-.2 8.2-1 11.1-3.8 12.5-2 1-6.7 1-8.6 0zm27 .3c-.2-.3-.2-2.3-.1-4.5l.3-10v-6l6 .3c3.4.2 6.8.6 7.7 1 3.3 1.2 3.8 6.5 1 9.2-1.2 1-1.2 1.3-.5 2.9 1.3 2.4 2.5 5.9 2.5 6.8 0 .4-.6.8-1.4.8-1.5 0-3-2-3-4.1 0-.5-.7-1.8-1.7-2.8-1.5-1.4-2.4-1.8-4.6-1.8h-2.8l-.2 4.2c-.2 3.7-.4 4.2-1.5 4.4-.8 0-1.5-.1-1.7-.4zm12.5-12c1-1.1.9-3.7-.4-4.6-.6-.5-2.7-.8-5-.9h-3.8v6.2h4.2c2.5 0 4.5-.3 5-.7zM224.6 335c-1.7-5-1.7-5-5.5-5.3-2-.1-4 0-4.3.3-.4.2-1 1.6-1.5 3-.7 2.1-1 2.4-2.7 2.4-1.2 0-1.7-.2-1.4-.7l4.1-10.3c3.6-8.8 4-9.4 5.4-9.3 1.8.3 2.4 1.3 6 10.5 3.9 10.2 4 10.5 2 10.5-1 0-1.8-.5-2-1.1zm-3.5-9.7c-.5-2-2.3-6.1-2.5-5.9a97.6 97.6 0 0 1-2.5 6.3c-.4 1 0 1 2.5 1 2.7 0 2.8 0 2.5-1.4zm-62.6 9.5c-3.2-1-5.3-3.4-5.3-6.1 0-1.9 2.4-1.7 3.1.2.7 2 2.5 2.9 5.6 3 2.8.1 4.3-1 4.3-3 0-1.7-1-2.3-5.9-3.6-5.4-1.4-7.8-4.8-5.8-8.5 1.4-2.6 7-3.9 10.9-2.4 2.2.9 4 3 4 4.7 0 1.2-.4 1.5-1.6 1.5-.9 0-1.6-.4-1.6-.9 0-1.5-2.2-2.8-4.8-2.8-2.3 0-4.5 1.1-4.5 2.4 0 1.1 2 2.4 4.2 2.8 6.6 1.2 9.4 4.2 8.1 8.7-1 3.6-6 5.4-10.7 4zm30-8.3v-9h-3c-2.5 0-3-.2-3.3-1.2-.2-.7-.2-1.4 0-1.6.2-.2 3.9-.3 8.2-.3h7.9l.3 1.5c.3 1.5.2 1.6-3.4 1.6-2 0-3.5.2-3.5.4v17.5h-3.2zm-81.7 5c-.7-1.4-1.2-2.9-1.2-3.3 0-1.5-3.3-3.3-6-3.3H97l-.2 4.2c-.2 4-.3 4.2-1.8 4.2h-1.5l.2-10c.1-5.4.4-10 .6-10.4.2-.3 3-.4 6.2-.2 6.6.5 8.6 1.4 9.6 4.4.7 2.2.1 4.3-1.7 6.1-1.2 1.3-1.3 1.6-.6 2.6.4.6 1.3 2.5 1.8 4.2.9 2.6 1 3.2.2 3.6-1.4 1-1.8.7-3-2zm-.8-10.5c.5-.3.8-1.4.8-2.4 0-2.2-1.7-3-6.5-3h-3.4v6.1l2.6.2c3.2.3 5.5 0 6.5-.9zM125 324l.2-10.3h7c3.9.1 7.1.3 7.2.4l.4 1.4c.2 1-.2 1.1-5.7 1.2h-5.8l-.2 2.7-.2 2.6 4.7.1c6.4.1 6.2 0 6.2 1.8 0 1.5 0 1.5-5.4 1.3l-5.4-.2V331.2h5.2c6 0 7.1.3 7.1 2 0 1-.5 1.1-7.7 1.1h-7.8zm275.2-38.2c-4.8-1.2-8.1-3-11.6-6.2a19.1 19.1 0 0 1-6.1-11.9 21 21 0 0 1 11.8-23.5c5.6-2.8 9.7-3.5 17.6-3.2a49 49 0 0 1 18.3 4.5c1 .4 1.1.1 1.1-2.2 0-10-6.7-15-19.8-15-6.7 0-12.2 1.3-17.5 3.9l-3.6 1.7V220l4-1.6c12-5 29.7-4.8 39.3.5 3.8 2 8.4 6.4 10 9.5 2.8 5.5 3 8.5 2.7 24.8-.4 14.3-.4 15.4.7 17.3 1.4 2.2 3 2.8 6.2 2.3l2.2-.3v5.7c0 4-.3 6-.9 6.5-1.7 1.4-7 2-11 1.3-4.9-.9-8.2-3-9.8-6.2-.7-1.3-1.5-2.5-1.8-2.5-.2 0-1.2.8-2.2 1.8-5.6 5.9-19.6 9-29.6 6.6zm18.7-13.5a31 31 0 0 0 10-5c1.5-1.3 1.7-2 1.9-5.7l.1-4.2-3.4-1.5a34 34 0 0 0-21-2.5c-2.5.6-4 1.5-6 3.4-2.8 2.6-2.8 2.6-2.5 6.2.4 5.2 2.6 7.8 8.2 9.5 2.9.8 9.6.7 12.7-.2zm51-12.3.8-34.4.4-8.2h6.3c3.6 0 6.9.2 7.4.4.8.3 1 1.4 1 5.5v5.1l3.3-3.2a30.1 30.1 0 0 1 19.9-8.6l3.1-.1v15.2l-5 .2c-7.2.3-13.9 3.1-18 7.7-3.4 3.7-3.4 3.8-3.8 25.9L485 286h-15.4zm-116.7 23.8c-.1-.3-.2-10.6-.2-23 0-21.7 0-22.8-1.3-25.5-1.8-3.8-4.5-5.9-8.6-6.8-6.4-1.3-13 1.3-17.9 7-2 2.3-2 2.5-2.4 9.8-.3 4.2-.5 14.4-.5 22.7 0 13 0 15.1-.9 15.4-.5.2-4 .2-8 0l-6.9-.5.3-22.5.2-22.4-1.5-3.5c-2.4-5-5.5-6.9-11.6-6.9-5.4 0-10 1.8-13.6 5.3-4 4-3.7 2.8-4.2 27.1l-.4 22.4H268c-5.7 0-7.7-.2-7.7-.8-.1-2.4.3-37.2.6-51.2l.4-16.4h2.1c1.2 0 4.7 0 7.7.3l5.6.3-.2 3.6c0 2 0 3.5.2 3.5.3 0 1.5-1 2.7-2.2 3.7-3.5 9.4-5.9 15.2-6.4 11-1 19.3 2.3 24 9.4l1.6 2.3 2.9-3a30.2 30.2 0 0 1 23.6-8c12 1 19.6 8.2 21.4 20.5.4 2.9.5 12.4.2 27.2l-.4 22.8h-7.4c-4 0-7.4-.3-7.4-.5zM204 282a35.5 35.5 0 0 1-26.7-28.2c-1.4-8 .1-17.7 3.6-24.6a42 42 0 0 1 11.1-12.3 35.9 35.9 0 0 1 33.6-2.6c5 2.4 12.1 9.4 14.4 14.3a45 45 0 0 1 4.1 18.5v5.4l-15-.3c-40.2-.8-36.3-.8-36.3.6 0 2.1 2.1 6.3 4.7 9 1.4 1.7 4 3.5 7 4.8 4.2 2 5.2 2.3 11.6 2.6 7.8.3 13.6-.7 18.9-3.4a17 17 0 0 1 3.5-1.5c.4 0 .7 2.5.7 6.5v6.4l-4 1.9a45 45 0 0 1-7.8 2.9c-5 1.1-18.7 1.1-23.4 0zm24.4-44c-1-5.4-5.4-10.7-10.1-12.3a27.3 27.3 0 0 0-14.7.1 17.8 17.8 0 0 0-10.5 12l-.4 1.7 8.6.2 18 .4 9.5.2zm-98.8 41.9c-3.1-.4-3.4-.5-3.4-2 0-9.7 1.1-65.3 1.3-65.8.2-.5 2.3-.7 7-.5 3.6 0 7 .2 7.4.3.7.1.9 1.3.8 5.4l-.2 5.3 3.2-3.2a31.2 31.2 0 0 1 20.6-9h3l-.2 7.7-.2 7.5-5.5.4c-3.1.3-6.6.8-7.8 1.2a28.7 28.7 0 0 0-10.9 7.8l-2.4 3-.2 18.5c0 10.3-.3 19.9-.5 21.3l-.3 2.6h-4.1l-7.6-.5zm-113.3-1.2a22.2 22.2 0 0 1-14.7-12.4c-2-4.5-2.3-12.4-.4-17.4 2.5-7 10.8-13 20.2-14.4 6.2-1 15.3 0 21.3 2.3 7 2.6 6.4 2.7 6.4-.5 0-6-3.5-11.1-9.1-13.1-1.6-.6-5.9-1.2-9.4-1.4-5.5-.3-7.3-.1-11.4 1-2.6.7-6.2 2-7.8 2.8-1.6.9-3 1.4-3.2 1.3-.1-.1-.2-3.2 0-6.8l.1-6.6 3.3-1.5a45.3 45.3 0 0 1 20.5-3.6c7.7 0 9.2.2 13.7 1.6a26 26 0 0 1 14.3 10.2c4 6 4.2 7 4 26l-.2 17 1.9 1.8c1.6 1.6 2.3 1.9 4.5 1.7 1.5-.1 2.7 0 2.8.3.1.2.2 2.8.2 5.7v5.2l-2.3 1a23.2 23.2 0 0 1-12 .2c-3.1-1-7.7-5-8.3-7l-.4-1.7-2 1.6c-3.1 2.6-6 4.4-9.7 6-4.7 2-17.1 2.3-22.3.7zM39 264.9c2-.7 5-2.3 6.7-3.5l3-2.1v-8.5l-3-1.4c-1.6-.7-4.4-1.7-6-2.1a41.7 41.7 0 0 0-17.2 0c-5.1 1.8-7.8 6.3-6.7 11.2 1.6 7.2 12.1 10 23.2 6.4zm50.1 14.3c-.3-.3.2-37 .8-56.2l.3-11.9h15.5l-.4 16.6-.7 33.9c-.2 9.5-.5 17.5-.7 17.8-.3.5-14.3.3-14.8-.2zm5-80.4a10.2 10.2 0 0 1-5.6-10.4c1-5.1 4.7-8.3 9.8-8.3 9.3 0 12.7 13 4.6 18a12 12 0 0 1-8.8.7zM340.2 179.7c-22.7-4.3-41-23-44.6-45.8a65 65 0 0 1 1.6-25.2 56.6 56.6 0 0 1 32.2-35.4c.2 0-.4 1-1.4 2.4-4.5 5.7-7 13-7 20.9 0 10.6 3.8 19.3 11.3 26 5.7 5.1 15.8 9 23.4 9 15 0 29.8-11.6 33.2-26 5.5-23.3-12-50.6-37.3-58.6a52 52 0 0 0-20.3-2.6c-11.3.5-21 4.6-38.7 16.5A209.5 209.5 0 0 1 251.9 84a64 64 0 0 1-39.8 4.4 66.3 66.3 0 0 1-19.7-9.6l-11.8-10.2a500.5 500.5 0 0 0-21.5-18.8c-16-11.8-29.8-15.6-47-12.8-9.8 1.6-24.5 6.6-34.8 11.8-1.7.9-3.3 1.5-3.4 1.3-.2-.1 1.5-2 3.7-4 14-13 25-19.7 38-22.9a55.7 55.7 0 0 1 26.6.7c6.7 2 18.2 7.4 27 12.9l15.7 9.8c18.9 11.7 30.5 16.1 42.9 16.1 14.6 0 27-5.3 40.2-17.2 25-22.6 38.2-32.2 52.7-38.2a90.7 90.7 0 0 1 120.8 55A90.3 90.3 0 0 1 375 178.9a134 134 0 0 1-34.8.9zm-121.9-27.3a51 51 0 0 1-15.8-5.4 65.2 65.2 0 0 1-19.5-16.7c-18.5-21-29-28.3-44.6-31.3-16-3-36.9 1.7-60 13.5l-2.4 1.2 1.9-2.7a71.4 71.4 0 0 1 76.3-23.4 97 97 0 0 1 32.3 19.2 84 84 0 0 0 35.7 19.6c11.2 2.3 24-.2 31.1-6.2 1-.9 3.2-2.2 4.8-2.9 2.5-1.1 3.2-1.2 5.8-.6 5.2 1.3 8.1 5.1 8.1 10.5 0 4.5-2.5 8.9-7.6 13.2a58.8 58.8 0 0 1-46 12z"/></svg>