<svg xmlns="http://www.w3.org/2000/svg" viewBox="0 0 512 174"><path fill="#ffa300" d="M50.4.5c-5.8 0-6.5.4-6.5 4 0 3-.8 4.1-3.3 4.1-2.6 0-3.2 1.2-3.2 5 0 4.5-.4 4.8-6.6 4.8h-6.5v9c0 7.9-.3 9-3.3 9-2.8 0-3.3 1.2-3.3 8 0 4.4-1.4 11.3-3.4 15.5a128 128 0 0 0-5.5 17.9c-1.3 5.5-4 14.5-6 20A43.5 43.5 0 0 0 .4 119c.3 6.3 1.6 13.5 2.6 16.1l2 4.8 30.5-1c23.4-.7 31.9-.3 36.3 1.3 7.3 2.8 14.4 3 19.6.3 5.6-2.8 9.8-11.7 9.8-20.7 0-4.1-2-12.5-4.3-18.8-2.2-6.2-5.2-16.2-6.5-22-1.3-5.6-3.7-13.7-5.5-17.7-2-4.3-3.3-10.8-3.3-16 0-8.4-.2-8.9-4.1-8.9-4 0-4-.5-4-9 0-8.8 0-9-5-9-4.4 0-4.9-.5-4.9-4.9 0-3.7-.6-4.9-3.3-4.9-2.4 0-3.2-1.1-3.2-4C57 .8 56.3.4 50.4.4zm76.9 4.9c-12.6 0-20.8 3.2-22.3 9-1.3 5.5.2 6.8 3.8 3 2.8-2.7 3-2.6 3.4 6.8.3 5.4.3 18 0 28l-.5 18.5h15.7c13.6 0 16-.5 18.6-3.2 1.8-2 3.3-6.7 3.8-12 .7-7.5.2-9.3-3.6-13.7l-4-4.9 3.8-3.8a14.3 14.3 0 0 0 3.3-17.8c-3.4-6.8-10.3-10-22-10zm147 .3L267.8 9l-6.5 3.6v30c0 29.3 0 29.8 3.2 28 2.3-1.1 4.3-1.3 6.4 0 1.8.9 6.9 1.7 11.3 1.7 13.4 0 21.6-9.2 21.6-24.2 0-13-9.2-21.6-23-21.6h-6.5V16.1ZM131.3 17l1.8.1c9.2 1 8.7 11.1-.3 11.1-3.4 0-4-.8-4-5.8 0-4.3.3-5.4 2.5-5.4zM369 18l-4 3.7c-4 3.8-4.1 4.4-4.1 27.3v23.4h4c4.1 0 4.1-.2 4.1-14.6 0-12 .5-15 3.5-18.8 7.8-10 12.9-2.7 12.9 18.2v15.2h8.5l-.7-22c-.5-19.2-1-22.5-3.9-26.6-4.4-5.9-12-7-16.8-2.3L369 25v-3.6zm-145 1c-1 0-2 .2-3.4.4-11.2 2-11.7 3.3-11.7 29.6v23.4h8.1V55c0-15.5.4-17.1 3-16.6 2.4.5 2.8 2.8 3.3 17.3l.4 16.7h9.7V56.2c0-12.1.6-16.7 2.4-18.1 4.5-3.8 5.8 0 5.8 17.3v17.1l6.2-.5 6-.4V50.8c0-18.5-.3-21.3-3.4-25.3-4.6-6-9.3-6.6-13.3-1.5l-3.2 4-3.6-4.8c-2.5-3.3-3.6-4.3-6.3-4.2zM466 20.3c-7 0-10.2 3.7-10.2 11.4 0 8.5 2 13.2 8.8 20 6.2 6.1 7 8.3 4 10-1.9 1.4-8-3.5-8-6.3s-11-12.8-12.2-11c-.5 1-.5 3.6 0 6l1.6 8c.5 2.2 3.5 6.6 6.6 9.9 7.5 7.3 13.9 7.7 20.6 1 2.6-2.6 4.7-6.4 4.7-8.5 0-4.4-4.9-12.6-10.6-17.5-2.3-2.1-4.1-5-3.8-6.6.7-3.6 6.4-4.5 8.7-1.3 1 1.3 4 3.3 6.2 4.1 4 1.7 4.4 1.3 4.4-2.3 0-6.7-9.3-15.5-17.6-16.6l-3.2-.3zm-278.6 1.2c-19.3-.8-27.5 6-27.5 23.6 0 4.7.4 9.1 1 9.6a175 175 0 0 0 38-1c1-.6 1.9-5.2 1.9-11.7 0-9.7-.5-11.1-4.7-15.6a17.6 17.6 0 0 0-8.7-4.9zm233.3 5c-5-.1-9.9 1-13 3.5-12.2 9.7-12 27.3.5 38a20.7 20.7 0 0 0 23.7 1.3c4.9-3.3 10.8-11.1 10.8-14.4 0-3.4-10.6-2.6-13.9 1.1-5.7 6.4-16.2 3.5-19.3-5.2-1-2.6.5-3 16-3 10.8 0 17.2-.6 17.2-1.6 0-4-5-12.7-9-16a22 22 0 0 0-13-3.8zm-89 .1c-13.7 0-23 9.2-23 22.7 0 17.8 19 29 34 19.8 20-12.3 12.4-42.5-11-42.5zm-150.5 2c1 0 2.2.7 4 2 4.8 3 5.8 12.2 1.7 15.6-2.1 1.8-2.4 1.2-2.4-3.9 0-3.3.8-5.9 1.8-5.9.8 0 1.1-.6.6-1.6-2.3-3.8-4-1.2-4 6.5 0 8.8-.7 9.5-6.3 5.6-5.2-3.6-4.9-12.8.5-16.4 1.9-1.2 3-1.8 4-1.8zM420 34.9c3.3 0 6.6.8 8 2.4 1.8 2.2.8 2.5-7.2 2.5-5 0-9.2-.7-9.2-1.5 0-2.2 4.2-3.4 8.4-3.4zm-138 5c2.6 0 5 1.1 7 3.2 8.6 8.5-1.3 21.4-12.5 16.8-3.3-1.2-2.8-17.8.5-19.1a13 13 0 0 1 5-1zm49.9 0c2 0 4.1 1 6.2 3.2 8.3 8.3-2.5 21.5-11.8 14.3-4.4-3.6-4.9-8.6-1.1-13.2 2-2.8 4.3-4.2 6.7-4.2zm-199.3 8c4.8 0 7.7 3 7.7 7.4s-3 7.4-7.7 7.4c-3.4 0-3.7-.9-3.7-7.4s.3-7.3 3.7-7.3zm45.2 13.5c-10.2.1-13.4.6-9.7 1.3 8.5 1.6 32.7 1.4 28.4-.2-2-.7-10.4-1.1-18.7-1.1zM187 65c-1.6 0-3.3.2-4.8.6-4.7 1.3-4.2 1.4 3.8 1.4 7 0 8.2-.3 5.2-1.4-1.1-.4-2.6-.6-4.2-.6zm-79.5 12.2v13.1h396.5l3.3-4.5c1.8-2.6 4-5.5 4.6-6.7 1-1.4-39.9-2-201.5-2zM50 84c7.7-.1 15.6 3.8 20 11.5 3.4 6 1.6 7-5 3-10.4-6.3-11.2-5.5-11.2 13v16.3h-4.4c-2.6 0-6.4-1-8.7-2-10.4-5.3-14.5-21.3-8.1-31.8 4-6.6 10.6-9.9 17.4-10zm-4.4 9.5-6 2.5a33.6 33.6 0 0 0-7.9 4.4c-1 1-.1 1 2.2-.2 3.7-2 10.1 0 10.1 3.1 0 1 .3 1.7.8 1.7s.8-2.7.8-5.8zm77.2.5a77 77 0 0 0-11.5.3c-.5.5.9 4.4 3 9 3.2 7 4.4 8 9.6 8.7 3.3.5 9.2.5 13 .1 4-.3 16.8-.6 28.2-.6h21V95.8l-36.9-1.2c-10.2-.3-19.5-.5-26.4-.5Zm126.5 2.8-26.2.3-26 .5-2.7 8.2-2.8 8.1 12.7-.4 13-.7v54.3h13v-54.3l11.5.7c6.3.3 11.4 0 11.4-.7s-.8-4.6-2-8.7zm-188.7 4.3c1.3 0 4 .7 6.8 1.7 4.2 1.8 5.9 3.3 5.4 5-.5 1.2-1 3.4-1 4.5 0 2.6-9.5 14-11.6 14-.8 0-1.5-5.5-1.5-12.2 0-6.7.5-12.6 1.3-12.9l.6-.1zm406 13.8c-2.7.1-5.4 1-7.6 2.8-2.8 2.5-3.6 4.6-3.5 10 .4 8.5 2.3 12.6 9.7 19.4 5.9 5.4 6.4 9 1.6 9.8-1.8.4-3.6-1.1-4.9-4.2-1.8-4.4-10.8-13.4-13.4-13.4-1.6 0 .8 13.2 3.4 18.3 6 11.6 18.7 14.7 25.9 6 6-7.2 5.4-11.7-3.1-20.9-4.1-4.2-7.4-9.1-7.4-10.6 0-4.3 4.7-5 8.7-1.3 2 1.8 5.4 3.7 7.5 4.4 3.7 1.1 4 1 2.8-4.3a20.3 20.3 0 0 0-19.6-16zm-85.8.4c-1.2 0-2.5.6-4.7 1.8-2.8 1.4-5.2 3.4-5.7 4.5-.5 1.2-1 .5-1-1.4-.2-2.3-1.1-3.8-2.6-3.8-3.6 0-13.9 7-13.9 9.5 0 1 .8 2 1.6 2 1 0 1.7 7.8 1.7 20.4v20.4h11.4v-10.6c0-21 12.1-34 21-22.9l3.2 4.2 1.1-4.9c1.3-5.8-2.4-13.7-8-17.4-1.8-1.2-2.9-1.8-4-1.8zm-45.9.7c-3 .1-6.2 1.9-8.8 5.6l-2.6 3.6V121c0-5.4-2-5.5-9.3-1-4.5 2.8-5.4 4.3-4.8 7 .5 1.9 1 12.2 1 22.8v19.1h13.1v-11.4c0-18 6.7-28.5 16.3-25.4 1.8.7 4.4 3 5.7 5.4l2.3 4.4.2-7c.1-11.7-6.3-19.1-13.1-18.7zm-58 1c-13.4.5-24.3 13.7-21.4 29.5l1 5.4 19-.4c10.2-.1 19.2-.8 19.7-1.4.5-.5 1.3-4.4 1.8-8.9 1-11-2.8-19.2-10.5-22.5a22.6 22.6 0 0 0-9.6-1.8zm-159.4 1v18h67.1v-18H151zm302 3.3c-20.4 0-28.4 26.3-12.5 41 4 3.8 6.5 4.8 12.4 4.8 4 0 9.3-1.2 12-2.5 3.9-2.1 11.4-11.4 11.4-14.5 0-2.2-11.8-.8-14 1.4-4.2 4.1-13 3.1-16.9-1.8-2-2.4-3.4-5-3.4-5.7 0-.8 7.8-1.4 17.3-1.4 17.2 0 17.1 0 16-3.6-3.8-12.6-10.3-17.7-22.4-17.7zm-142.8 3.8c1.4 0 2.8.3 4.3 1.1 4.4 2.3 5.9 9 3 14.4l-2 4.4-.7-5.7c-.3-3.1.2-5.9 1.2-6.2 2-.7.8-3.6-1.7-3.6-.8 0-1.5 3.2-1.5 7.2 0 8.1-1.1 9.6-5.3 7.3-5-2.8-6.6-7.7-4.5-13 1.6-3.8 4.2-5.8 7.2-6zm143 4.5c2.7 0 5.6.8 7.7 2.3 2.8 2.2 2.3 2.3-6.5 2.5-8.3 0-9.3-.3-7.5-2.5 1.3-1.5 3.7-2.3 6.4-2.3zm-233.5 9.7-35.5.3-35.6.5-.5 3.8c-1.3 8.5-1.5 8.5 36.5 8.5h35v-6.6zM26 149.4c-3.2-.2-6 .3-9 1.4-7.4 2.8-5 5.4 4.5 4.3 5.7-.7 10.1-.2 13.4 1.3 6.2 3 12 3 21.3.6 5.7-1.4 9.8-1.4 19 0 9 1.7 12.2 1.7 14 0 2-1.6.8-2.3-7.2-3.9a64.7 64.7 0 0 0-30.6-.5c-4.9 1.3-7.8 1.2-14.2-.8a44 44 0 0 0-11.2-2.4zm106 6.5c-14.4 0-16 .6-16.7 2.6-.3 1.6-1.3 4.3-2 5.9-1 2.6 1.4 2.8 36 2.8h37l-.5-5.3-.5-5.4-34.5-.4-18.9-.2zm129.3 1.5c-7 .8 7.7 2.6 20.9 2.6 6.9.1 11-.5 9.8-1.3-1.1-.7-6.9-1.2-12.8-1.2-5.8.2-11.2 0-12.2-.1-.8-.2-3.4-.2-5.7 0zm-192.6 3.4a79 79 0 0 0-22.5 2c-2.5 2.2 1.6 4.5 5.7 3.2 2.3-.6 9.5-1.3 16-1.3 13.1 0 17-1.6 7.9-3.4-1.6-.3-4.2-.5-7.1-.5zm213.8.4c-1.5 0-3 .2-4.4.7-4 1.3-3.3 1.5 4.3 1.5 7.5-.2 8.1-.3 4.5-1.6-1.3-.4-2.8-.6-4.4-.6zm-213.8 9.4c-3.2-.2-5 .5-4.4 1.5 1.2 2 2.2 2 6.6 0 2.7-1.2 2.3-1.5-2.2-1.5z"/></svg>