<svg xmlns="http://www.w3.org/2000/svg" viewBox="0 0 516 220" fill="var(--main)"><path d="M110.94 1.664c4.575-.778 9.749.18 13.035 3.661 1.121 1.382 2.225 3.28 1.442 5.081-.517 1.55-2.426 1.812-3.814 1.518-1.986-.772-2.53-3.204-4.314-4.26-1.561-.838-3.454-1.191-5.157-.593-3.237.854-5.146 4.167-5.522 7.312-.288 3.242-.19 6.887 1.98 9.526 2.241 2.758 7.137 3.574 9.558.62 1.365-1.317 2.171-3.895 4.455-3.672 1.365-.065 2.649.838 3.09 2.122.098 3.558-2.807 6.365-5.892 7.632-2.802 1.284-5.973 1.191-8.965.892-4.564-.615-8.824-3.803-10.091-8.323-1.572-5.223-1.431-11.354 1.643-16.027 1.888-2.959 5.119-4.902 8.552-5.489zm55.685 1.757c.517-1.888 2.785-1.926 4.385-1.866 1.469-.103 3.161.408 3.699 1.926l7.959 21.994c.479 1.311 1.017 2.693.729 4.113-.832 2.209-4.265 2.764-5.685.892-.887-1.746-1.306-3.688-2.1-5.478l-10.45.011-2.018 5.451c-1.289 1.768-4.733 1.518-5.554-.604-.408-1.344.027-2.736.506-3.993l8.53-22.446m3.89 5.892l-3.607 10.766h7.056l-3.449-10.766zm164.312-4.831c-.005-2.644 3.308-3.351 5.359-2.742 1.398.305 2.133 1.621 2.823 2.747l10.75 17.485c.152-6-.043-12.012.098-18.012.027-2.279 3.041-2.921 4.755-2.067 1.262.484 1.632 1.953 1.55 3.182l-.011 22.827c.011 1.48-.745 3.079-2.263 3.487-1.752.359-4.096.473-5.141-1.3l-11.642-18.344-.011 17.245c-.038 3.106-5.141 3.569-6.158.86-.256-1.175-.158-2.388-.174-3.58l.065-21.788zm67.36-.06c.413-1.306 1.191-2.78 2.769-2.791 2.024-.169 4.94-.419 5.788 1.942l8.144 22.522c.419 1.17.876 2.513.386 3.732-.996 2.307-4.923 2.432-5.87.033l-1.763-4.847-10.434.006c-.767 1.877-1.268 3.868-2.203 5.669-1.289 1.24-3.743 1.278-4.978-.054-.827-1.191-.571-2.791-.18-4.091l8.34-22.12m4.341 4.951l-3.612 10.739 7.045-.022-3.433-10.717zM218.464 2.561c2.209-.843 4.646-.283 6.958-.435 4.341-.114 9.183-.18 12.735 2.736 3.868 3.144 4.646 8.557 4.39 13.247-.223 4.336-2.122 8.857-6.039 11.082-4.684 2.666-10.282 1.763-15.434 1.899-1.773.147-3.906-.664-4.107-2.677-.152-7.409 0-14.835-.071-22.25-.049-1.306.174-3.063 1.567-3.601m5.25 5.157l.049 17.827c2.492-.136 5.054.245 7.491-.408 3.286-1.153 4.368-4.912 4.515-8.057.005-2.872-.397-6.213-2.753-8.16-2.693-2.007-6.213-.947-9.303-1.202zm53.728-1.524c-.06-1.795.805-3.901 2.856-4.026 5.271-.12 10.554.005 15.831-.06 1.229.033 2.796-.114 3.639 1.001.724 1.181.669 3.046-.549 3.895-.947.506-2.045.49-3.079.5l-12.05-.011-.005 6.039 11 .044c1.077.152 2.66.125 3.085 1.387.419 1.284.294 3.498-1.447 3.639-4.2.196-8.416.016-12.621.076l.011 7.067h13.111c1.077.016 2.481.016 3.03 1.148.316.957.354 2.029-.022 2.976-.789 1.142-2.269 1.202-3.525 1.229l-14.161.011c-1.333-.071-2.845.082-3.939-.832-1.115-1.001-1.104-2.633-1.191-4.009l.027-20.074zM42.95 58.241c1.877-.305 3.786-.381 5.69-.392h105c4.695-.12 8.867 4.042 9.031 8.682l.016 12.561c.011 4.047-3.046 7.79-6.925 8.797-1.752.506-3.596.305-5.391.343-33.729-.011-67.463 0-101.197-.005-8.84.131-16.766 8.057-16.652 16.946-.354 7.165 4.466 14.068 11.13 16.554 2.252.903 4.706 1.186 7.121 1.175l63.687-.011c11.092-.185 22.174 3.737 30.742 10.771 8.628 6.974 14.628 17.109 16.669 28.006 2.013 10.478.413 21.614-4.553 31.063-6.67 13.024-19.671 22.593-34.12 24.976-3.77.789-7.632.609-11.457.626H14.362c-2.405-.054-4.994.343-7.181-.903-3.313-1.55-5.364-5.233-5.168-8.851l.033-11.974c.261-4.825 4.755-8.824 9.558-8.644l104.483-.016c8.846-.43 16.516-8.579 16.103-17.49.207-9.052-7.91-17.115-16.913-17.136-19.312-.043-38.63-.103-57.943.093-6.387.049-12.86.114-19.089-1.491-11.092-2.753-21.157-9.585-27.658-19.008-5.435-7.763-8.492-17.175-8.574-26.657-.228-11.533 3.928-23.099 11.479-31.819 7.431-8.721 18.099-14.628 29.458-16.195zm134.92 4.281c1.583-2.747 4.575-4.896 7.856-4.679l141.976.011c4.88-.098 9.101 4.423 9.069 9.232l-.011 12.034c-.038 4.956-4.581 9.33-9.547 9.112-40.273-.005-80.552-.005-120.825 0l.011 34.67 104.434-.011c3.542-.027 7.116 2.024 8.574 5.31 1.501 3.172.729 6.773.914 10.151-.158 3.112.495 6.376-.734 9.335-1.447 3.405-5.016 5.707-8.699 5.712l-104.499.011v34.643H327.74c4.581.038 8.65 3.928 8.976 8.487.12 4.183.016 8.372.049 12.556.06 4.804-4.107 9.482-9.047 9.243-14.879-.011-29.752 0-44.625-.005-3.09-.152-6.158.354-9.237.239l-87.031-.005c-2.176-.027-4.466-.359-6.224-1.752-3.378-2.497-4.695-6.92-4.591-10.973l-.005-134.915c-.082-2.894.343-5.892 1.866-8.405zm172.136 4.543c-.19-4.923 4.33-9.406 9.248-9.216l105 .011c16.766.196 32.88 10.233 40.692 25.035 7.448 13.649 7.594 31.025.299 44.772-3.057 6.028-7.567 11.256-12.817 15.488l-53.738 45.904 38.63-.56 27.761-.441c4.7.114 8.737 4.314 8.857 8.987.103 3.998.049 8.008.027 12.012 0 3.955-2.66 7.725-6.43 8.949-2.41.664-4.923.577-7.393.56-30.655-.005-61.31.011-91.965-.005-5.32.065-10.722-1.975-14.204-6.093-6.158-6.778-5.625-18.366 1.251-24.464l79.36-69.737c4.597-4.134 6.68-10.875 5.081-16.864-1.768-7.42-8.851-13.111-16.484-13.176l-82.793.005v120.885c.071 4.102-2.905 8.057-6.909 9.025-3.237.707-6.572.332-9.852.424-2.84-.016-5.859.212-8.487-1.061-3.123-1.529-5.277-4.923-5.135-8.427V67.065z"/></svg>