<svg xmlns="http://www.w3.org/2000/svg" viewBox="0 0 256 150"><path fill="#f3f4ee" d="M154.59 20.84q-11.04 17.68-19.5 37.64-3.31 7.9-6.06 16.28-.9 2.75.35 5.28a1.25 1.24 61.5 0 1-.48 1.63q-.71.42-1.52.2-.58-.16-.63-.76c-.59-6.33 3.7-16.05 6.67-22.45q.06-.18.26-.35.28-.22.43-.53 8.71-18.51 18.44-36.5.34-.63-.06-1.38 1.07-1.2 1.4-2.44.14-.48-.36-.56c-16.29-2.53-26.38-3.9-39.78-4.1-5.24-.08-19.15 1.38-15.74 9.73q3.04 7.45 8.57 13.46a.5.5 0 0 1-.05.72l-.27.23q-.17.14-.33-.02-2.97-2.87-7.57-9.24-2.85-3.95-2.54-7.97.03-.41-.38-.41l-18.69.02q-.44 0-.79.26-.32.24-.69-.02-.35-.25-.78-.25-18.37-.04-36.74.03-.72 0-1.32.37l-.71.02q-1.71-.42-2.47-.43-9.22-.06-18.26.03a.83.83 0 0 0-.82.84l.04 3.21q0 .02-.07 0 0 0 0 0 0 0 0-.01l-.19-3.93q-.34-.51-.15-1.57l82.05.15q.5 0 .85-.38 6.56-7.2 16.57-6.95 20.99.51 41.84 3.37.43.06.71-.28l2.26-2.74a.55.55 0 0 0-.61-.86l-2.58.95q-.13.04-.15.02l-.29-.21a.36.37 47.5 0 1 .03-.59l5.88-3.73q.51-.32 1.03-.04.87.47 1.47 1.28a.7.71 44.1 0 1 .01.81l-3.54 5.16q-.29.42.22.5 7.93 1.23 15.9 1.4 3.02.06 3.13-1.5.11-1.61-1.44-4.8a.34.34 0 0 1 .35-.49l.34.04q.69.07 1 .69c2.71 5.27 2.12 7.76-2.12 10.49q-.45.29-.97.21l-18.07-2.72q-.46-.07-.75.29z"/><path fill="#1d1b21" d="M13.8 17.87q-.19 1.06.15 1.57l-12.88.11a.63.63 0 0 1-.64-.58l-.04-.42q-.05-.7.65-.7z"/><path fill="#d9dadc" d="M152.49 19.9q.4.75.06 1.38-9.73 17.99-18.44 36.5-.15.31-.43.53-.2.17-.26.35-1.37-1.2-4.07-1.34-2.31-.31-4.43-1.8l18.54-37.33q.26-.51.81-.37z"/><path fill="#78787a" d="M35.72 19.73l.71-.02q.6 1.73-.02 3.05-.21.46-.28-.04z"/><path fill="#d9dadc" d="M154.59 20.84q6.07 3.03 7.78 8.54 1.38 4.45-.67 10.63c-3.98 11.97-13.1 20.09-26.61 18.47q8.46-19.96 19.5-37.64z"/><path d="M68.86 69.72c-4.74-.05-7.09-5.8-8.23-9.34q-.2-.6.21-1.08l1.05-1.22a.26.26 0 0 0 .03-.3q-1.81-3.19-.67-5.14 2.16-3.68.96-8.62-.57-2.35 1.71-3.3.47-.2.4-.7c-.49-3.36 3.81-4.6 4.93-7.79.82-2.32 1.03-5.53 4.3-5.57a1.45 1.46 82.5 0 0 1.39-1.81q-.43-1.71.46-3.21.14-.25.38-.08h.01q.21.14 0 .44-.78 1.12-.28 2.42.2.52.75.54 3.35.17 4.96 2.69c1.52 2.38 3.07 5.19 2.31 8.08q-.11.43.28.64c4.03 2.17 6.31 10.98 4.81 15.4a1.32 1.31 89.1 0 1-.78.81q-.65.25-.88.86a.78.77 32.1 0 0 .2.85c2.58 2.35-.2 4.76-1.39 6.76-1.39 2.33-.05 3.98-.89 6.08q-.79 1.98-3.02 1.19-.53-.18-.66.36-.5 2.16-2.2 3c-1.96.96-9.91 2.53-9.71-1.51q.02-.45-.43-.45zm-5.1-11.41c1.66 1.24 2.06 2.43 2.23 4.49a1.01 1.06 18.8 0 0 .31.67l2.9 2.82a3.78 1.85 80.6 0 1 .64.9q.19.35.2.75.01.6.61.49 2.06-.38 4.12-.11c2.12.27 3-1.37 5.05-1.76q.54-.1.42-.64c-.21-.95-.5-1.44-.3-2.42.58-2.9 2.28-8.07 4.93-9.72a.68.7 65.6 0 0 .3-.77c-1.38-4.73.9-7.47-2.56-11.84-1.37-1.71-.98-2.49-.09-4.22a.31.32 13.2 0 0-.28-.46c-4.59.09-2.25-6.14-6.89-7.84q-.48-.17-.44.33c.36 4.17-4.34 11.05-8.78 11.93q-.56.11-.35.64c1.82 4.57.94 9.91-.91 14.33-.26.63-.91 1.04-1.27 1.66q-.26.45.16.77zm-36.98 7.24h.66q.8-.01.8.8l-.01.48q0 .78-.77.63-1.04-.21-1.69.56-.36.42-.9.33c-7.47-1.21-13.15-11.56-14.04-17.86-.8-5.65-1.28-21.97 3.67-25.54q.32-.24.58.07c4.58 5.58 2.98 11.03 2.43 17.65Q16.74 51.8 22.54 59q1.67 2.07 3.34 4.17a1.69 1.7 24.9 0 1 .37 1.03l.01.83a.52.52 0 0 0 .52.52z" fill="#d27553"/><path fill="#f3f4ee" d="M28.59 47.99q-.63-4.51 2.2-8.02.36-.46.13-.99-.35-.78-.05-1.59a.84.84 0 0 1 .88-.54q1 .12 1.52-.73.26-.43.54 0 1.06 1.66.43 3.45-.18.48.07.93.14.26.37.46.54.47.55-.24c.03-3.19-.3-6.06 1.86-8.89a.69.7 43.5 0 0-.02-.86q-.82-.96-.04-1.93.35-.45.9-.3 1.14.29 2.3.13.48-.07.69.37.5 1.04.06 2.07-.16.38.06.74 1.04 1.68 1.43 3.68a.35.35 0 0 0 .62.16q.96-1.16 2.28-1.91a.44.43 72.5 0 1 .65.34l.18 1.99q.04.46.5.46c6.46.06 6.28 15.58 5.73 19.85-.82 6.38-1.8 10.9-7.92 13.18-7.94 2.97-14.02-4.86-15.5-11.91q-.11-.52-.62-.64-5.23-1.32-7.07-5.01c-2.33-4.69-3.91-22.13 3.98-23.52q.55-.1.55-.66v-.49q-.01-.5.48-.62c2.35-.63 4.05 2.39 1.88 3.86q-.39.27-.35.74c.35 4.25-2.17 13.19.45 16.56q.36.46.28-.12zm11.87 12.9c6.14-.24 4.1-13.15 3.57-16.89q-.22-1.53-.01-5.37.02-.27-.25-.29l-.51-.03q-.28-.02-.26.25c.41 6.17-1.03 12.05-5.73 16.21q-.43.38-.32.93.54 2.86 2.6 4.85a1.24 1.26 66 0 0 .91.34z"/><path fill="#1d1b21" d="M35.21 45.2q.42-.02.5-.47c.61-3.33-.06-9.96 2.33-12.22q.47-.45.14-1.02-.33-.58-.11-1.21a.39.4 27 0 1 .6-.2q.42.31.39.86-.03.45.28.78c4.29 4.5 2.61 14.14.27 18.88-.78 1.57-2.08 2.72-3.38 3.94a.91.9 66 0 0-.28.74c.72 8.2 9.35 9.21 9.67.21.19-5.42-1.03-11.07-.45-16.31a.88.88 0 0 0-.33-.78q-.94-.75-1.18-1.94a.6.59 2.8 0 1 .76-.68q.19.06.33.22.26.31.31.51.37 1.66 2.19 1.35a1.09 1.11 66.4 0 1 1.05.4q2.01 2.54 2.44 4.73c1.51 7.67 2.3 25.72-8.56 26.31-7.45.41-10.73-6.01-12.36-12.16q-.13-.49-.6-.67c-4.02-1.6-6.17-1.8-7.57-6.53-1.36-4.6-2.88-19.26 4.19-20.23q.54-.07.83-.52l.5-.8a.44.44 0 0 1 .8.14l.13.63a.76.75 73.8 0 1-.46.85q-1.56.62-.78 2.22a1.28 1.28 0 0 1 .1.73c-.64 3.82-2.19 13.86 1.41 16.39q1.35.96 1.17-.69-.53-4.63 2.17-8.42.3-.43.21-.93-.22-1.29 1.06-1.61.57-.14.41.43l-.48 1.66q-.15.54.22.96 1.47 1.68 1.52 3.94.01.55.56.51z"/><path d="M150.647 31.087l.018.009a.27.27 0 0 1 .115.364l-12.763 24.517a.27.27 0 0 1-.364.115l-.018-.009a.27.27 0 0 1-.115-.364l12.763-24.517a.27.27 0 0 1 .364-.115z" fill="#f3f4ee"/><path fill="#d27553" d="M170.06 60.63c-.26 3.05-3.76 6.96-5.79 8.88q-7.03 6.62-17.26 10.99-4.29 1.84-6.7-1.1a1.19 1.22 29.3 0 1-.26-.97c1.08-6.88 8.1-15.18 13.16-20.52 1.87-1.98 4.88-4.09 7.57-2.12q.36.27.79.37l6.73 1.54a.41.34 40.3 0 0 .21 0q1.73-.37 3.49-.2a.52.53 21.9 0 1 .36.85q-.73.93-1.77 1.48-.48.26-.53.8zm-14.32 3.14q-3.9 2.11-5.79 6.17a.88.89 24.8 0 0 .43 1.18c3.39 1.54 8.05-3.33 9.09-5.47q.84-1.7-1.03-1.41-2.72.42-4.68 3.52a.33.33 0 0 0 .27.5l.6.01a.97.98 17.2 0 0 .86-.46q.4-.63.68-.96 1.38-1.6 1.04.49-.16.99-1.81 1.82-1.8.9-2.82-.34a1.13 1.13 0 0 1 .02-1.47l3.14-3.58q2.61-.82 3.52-.79 1.8.04 1.83 1.67c.03 2.48-4.11 5.33-6.31 6.88q-3.33 2.34-5.79-.02-.43-.41-.29-.99c1.15-4.74 9.6-12.58 14.84-10.04a2.21 2.21 0 0 1 .99 3.02q-4.27 8.1-13.02 12-3.62 1.61-6.53-2.57a.18.18 0 0 0-.31.02l-1.45 2.78q-.12.22.07.38 4 3.62 8.56.75c5.41-3.41 12.62-9.16 15.15-15.38q.82-2-1.23-2.68-5.68-1.92-9.67 1.78c-3.79 3.52-7.35 6.23-9.76 10.98a1.16 1.2 47.6 0 0-.06.93q.59 1.68 2.47 1.96c5.23.81 11.56-6.41 14.27-10.17a2.02 2.03 34.6 0 0-.52-2.87c-2.11-1.41-5.68.74-6.76 2.36zm-9.26 15.44l-4.06-1.9a.15.15 0 0 0-.2.08h-.01a2.22 2.04 25.1 0 0 1.15 2.79l.31.15a2.22 2.04 25.1 0 0 2.87-.91l.01-.01a.15.15 0 0 0-.07-.2z"/><path fill="#78787a" d="M124.92 55.52q2.12 1.49 4.43 1.8c-1.74 8.59-4.23 16.86-9.57 23.97q-.27.37-.73.36l-6.82-.13q-.65-.01-.35-.58z"/><path fill="#f3f4ee" d="M211.21 81.86q-.13.04-.25.07l10.37-2.03q.76-.14.95-.9l3.23-12.97q.43-1.73-.94-.59-8.45 7.06-18.35 11.78-.95.46-1.82-.01a1.23 1.23 0 0 1-.5-1.64q3.09-6 6.24-11.65c.52-.93.41-1.54.17-2.5a.76.77 70.4 0 1 .43-.89l5.65-2.6a.71.71 0 0 1 .99.47q.05.18.08.35.09.52-.34.83c-3.58 2.57-6.96 8.6-9.15 12.63a1.04 1.04 0 0 0 .71 1.52q.82.16 1.92-.4 9.16-4.69 16.79-11.58.37-.34.87-.25 1.17.19 1.77 1.18.25.4.01.79c-2.61 4.33-3.74 10.51-5.42 15.27a.55.54 4.3 0 0 .62.71q9.52-1.82 19-1.8c5.33.02 8.55-.34 11.07 4.22 1.54 2.78-3.77 7.09-5.64 8.44a.35.35 0 0 1-.47-.05l-.19-.24q-.07-.08.01-.16c1.99-1.88 5.74-5.45 4.96-8.36q-.54-2.02-3.23-2.18-12.82-.76-26.19 1.44-.62.11-.83.71c-7.7 22.78-22.88 57.6-50.23 62.01q-4.27.69-9.19-.87-9.48-3.01-15.63-10.79c-16.14-20.43 22.18-36.41 35.41-41.31a.8.8 0 0 0 .51-.88c-1.22-7.15 7.86-21.59 12.06-27.26a.88.88 0 0 0-.34-1.32q-1.02-.47-2.18.38-8.88 6.52-16.21 14.75-1.76 1.97-4.15 2.07a.69.69 0 0 1-.64-1.01q5.45-10.49 12.91-19.68.45-.56 1.15-.39l.34.08a.34.34 0 0 1 .18.55q-5.29 5.91-8.5 13.17-.22.52.13.96.3.37.9-.19c5.54-5.24 12.23-11.25 18.97-14.28q1.17-.52 2.09.27.39.33.07.74c-6.29 8.06-13.38 19.99-14.07 30.4a.31.31 0 0 0 .4.32zm-20.08 14.26q-4.69.37-6.19-3.81a.56.56 0 0 0-.73-.33c-11.98 4.66-47.38 20.17-34.51 39.08q1.93 2.84 4.53 4.77c16.32 12.14 33.17 4.21 44.39-9.97 10.17-12.86 17.63-28.62 22.77-44.1q.19-.56-.39-.43l-10.25 2.27a2.62 2.58 11.1 0 0-1.53 1.01c-3.99 5.55-10.91 10.94-18.09 11.51zm5.95-2.48a.67.67 0 0 0 .31-.13l10.62-8.03a.67.67 0 0 0-.6-1.17l-19.62 6.15a.67.67 0 0 0-.25 1.14l3.06 2.78a.67.67 0 0 0 .56.16z"/><path fill="#1d1b21" d="M212.74 78.01q-.92-.12-.79.31-.68-1.42-1.47-1.43a.47.47 0 0 1-.32-.81q1.02-1 2.4.1.94.76.18 1.83z"/><path fill="#d9dadc" d="M212.74 78.01q-.13 1.25-1.78 3.92.12-.03.25-.07l.74-3.54q-.13-.43.79-.31z"/><path fill="#78787a" d="M170.94 93.49c-11.47 3.67-32.73 13.33-29.05 28.76a.2.2 0 0 1-.2.25l-140.44-.44q-.55-.01-.55-.56V84.34q0-.47.46-.47l168.81-.18a.42.43 3.1 0 1 .42.48q-.52 4.41.9 8.62.18.53-.35.7z"/><path d="M127.76 88.96q.82.2.77 1.04-.27 4.68-.29 8.96-.01.96-.96 1.02l-.28.02a.74.74 0 0 1-.79-.76l.35-9.9q.01-.34-.09-.66c-.39-1.28.85-2.67 2.06-2.76q.72-.06.44.6-.45 1.09-1.35 1.85-.51.43.14.59zm-110.58.72c-6.91 1.08-5.79 12.32 3.04 8.2a.24.24 0 0 1 .28.38q-2.01 2.14-4.76 1.93c-5.33-.4-6.59-7.79-1.75-10.19q2.8-1.39 5.53-1.06a1.44 1.47 77.8 0 1 1.03.65l.25.39a.54.55 77.9 0 1-.54.83q-1.27-.17-2.29-.94-.35-.26-.79-.19zm28.65.76l-.41 9.06a.48.48 0 0 1-.64.43l-.26-.09a.95.94 9.6 0 1-.64-.89l.07-9.31q0-.49.48-.61c3.38-.9 9.42 1.52 4.08 5.51a.94.94 0 0 0-.02 1.49l3.49 2.77a.7.7 0 0 1 .09 1.01q-.27.32-.57.19-2.97-1.3-4.92-4.19-.31-.46.17-.74 1.57-.92 2.02-2.73a1.81 1.81 0 0 0-.79-1.97l-.91-.58a.81.81 0 0 0-1.24.65zm13.56 1.82c-.3 2.3.22 4.92-.44 7.12q-.14.48-.44.64-.18.1-.37.09-.5-.02-.48-.53l.32-10.34a.46.45 83.2 0 1 .33-.43q.51-.14.9.27 3.7 3.94 7.76 7.88a.3.3 0 0 0 .51-.22l-.03-7.22a.49.49 0 0 1 .53-.49l.39.03a.71.72 2.9 0 1 .66.74l-.26 7.28q-.02.54.14 1.06.11.39.09.81a.97.97 0 0 1-1.65.63l-7.43-7.5q-.45-.45-.53.18zm17.533-3.407l.06.002a.85.85 0 0 1 .823.876l-.296 9.415a.85.85 0 0 1-.876.823l-.06-.002a.85.85 0 0 1-.823-.876l.296-9.415a.85.85 0 0 1 .876-.823zm25.827 4.877l3.01-.26q.33-.03.28.3l-.09.55q-.07.43-.51.45l-2.78.15q-.88.05-.89.93l-.03 2.65q-.01.78.76.66l3.24-.48a.23.23 0 0 1 .26.24l-.02.36a.43.42 85.5 0 1-.33.39q-2.63.58-5.33.21-.45-.07-.44-.52l.26-9.75q.02-.54.55-.48 2.34.23 4.6-.36.42-.12.32.31l-.11.5a.31.3 88.7 0 1-.21.23q-1.11.37-2.28.06a.77.77 0 0 0-.97.73l-.06 2.4q-.03.79.77.73zM114 99.21q-.03.66-.69.71l-.39.03q-.71.05-.7-.66l.15-9.82q.01-.39.39-.49 2.94-.78 5.47.83a2.01 2.02 32.5 0 1 .61 2.78q-.78 1.22-1.99 2.01a.84.83 46.5 0 0-.03 1.38l3.62 2.62q.78.57.06 1.21l-.28.24a.59.58 44.6 0 1-.77 0l-4.47-3.88q-.61-.53.04-1c2.26-1.65 3.16-3.66.34-5.49a.68.68 0 0 0-1.05.54zm-80.91-7q-.38-1.22-1.07-.15l-5.22 8a.72.72 0 0 1-1.1.13l-.21-.21q-.16-.15-.04-.33l6.68-10.32a.71.71 0 0 1 1.23.07l4.91 9.82a.55.55 0 0 1-.2.72l-.31.2q-.23.14-.4-.07-2.93-3.52-4.27-7.86zm57.7-2.32c-5.71-.79-6.74 8.63-1.15 8.99 1.34.09 2.51-.53 3.83-1.07q1.12-.46.25.39c-4.62 4.53-11.39.56-9.07-5.84.98-2.69 8.34-5.08 9.25-2.15q.18.57-.42.53c-1.02-.06-1.9-.74-2.69-.85zm49.66 1.76q-.67.77-.97 1.74-.16.51-.46.96l-3.39 5.16a1.08 1.06 16.3 0 1-.87.47h-.34a.48.47 16.1 0 1-.41-.73l6.32-9.92a.89.89 0 0 1 1.55.08l4.84 9.7a.45.45 0 0 1-.15.57l-.28.2q-.96.67-1.47-.39l-3.81-7.77q-.22-.46-.56-.07zm-26.468 12.904l.62.019a.26.26 0 0 1 .252.268l-.31 9.855a.26.26 0 0 1-.268.252l-.62-.019a.26.26 0 0 1-.252-.268l.31-9.855a.26.26 0 0 1 .268-.252zM14.91 114.03l2.59-.52a.23.23 0 0 1 .18.41c-7.35 5.48-10.69-9.51.13-7.14a.26.25 88.1 0 1 .2.19l.17.71q.12.5-.36.33l-1.88-.65a2.42 2.42 0 0 0-2.78.9q-2.24 3.16.81 5.54.42.33.94.23zm9.55-3.54l4.18.16a.18.18 0 0 1 .17.2l-.03.38a.18.18 0 0 1-.18.16l-4.12-.12a.18.18 0 0 0-.18.16l-.28 3.11a.18.18 0 0 1-.16.16l-1 .1a.18.18 0 0 1-.2-.18l.15-7.9a.18.18 0 0 1 .21-.17l.96.2a.18.18 0 0 1 .14.17l.17 3.4a.18.18 0 0 0 .17.17zm5.975 4.378a.83 4.2 1.7 0 1-.705-4.223.83 4.2 1.7 0 1 .954-4.174.83 4.2 1.7 0 1 .705 4.223.83 4.2 1.7 0 1-.954 4.174zm9.785-6.078l-4 6.13q-.14.22-.36.07l-.25-.18a.4.41 33.9 0 1-.1-.55l4.78-7.45a.4.4 0 0 1 .67 0q2.41 3.71 2.95 5.27 1.96 5.67-1.32.65-.68-1.03-1.71-3.87a.37.37 0 0 0-.66-.07zm12.45 1.96q-.72.78.19 1.32 1.54.93 1.64 1.09 2 3.08-1.02.98-1.05-.73-2.23-2.26-.33-.41.13-.67 2.16-1.24.82-3.5a.87.86 30 0 0-1.61.43l-.06 5.8q-.01.7-.7.72l-.38.02q-.37.01-.37-.36l.1-7.17q0-.41.4-.5 1.86-.46 3.62.31a1.65 1.65 0 0 1 .54 2.64zm13.18-2.89c-6.76-3.96-7.09 9.53.05 5.46q.05-.02.07.02l.13.24q.12.22-.09.36c-4.88 3.45-9.4-2.67-5.51-6.14q2.5-2.23 6.01-.6.17.08.08.24l-.13.24q-.22.41-.61.18zm6.13-.83c-.08 2.02.21 5.62 2.36 6.72a1.6 1.6 0 0 0 2.3-1.07l1.27-5.6a.51.51 0 0 1 .47-.39l.32-.01q.51-.02.5.49c-.34 9.18-8.4 11.22-8.69.25a.77.78 86.9 0 1 .72-.79l.3-.03a.42.42 0 0 1 .45.43zm12.67.39q-1.01.12-1.96-.21-.2-.07-.12-.27l.12-.25a.23.23 0 0 1 .21-.14l5.6.04q1.48.01.43.95-.14.12-.98-.12a.84.84 0 0 0-1.06.82l.05 5.87q0 .81-.8.83l-.42.02a.49.49 0 0 1-.5-.49l.04-6.5a.55.55 0 0 0-.61-.55zm11.06 6.79l2.22-.49q.09-.02.09.07l.01.46q0 .17-.17.22-1.99.57-4.07.22a.41.4 5.7 0 1-.34-.41l.3-7.07q.02-.5.51-.56 1.75-.24 3.08-.02 1.48.24.09.74-.55.19-1.63.03a.61.61 0 0 0-.7.62l.05 1.56q.02.67.68.61l1.43-.13a.47.47 0 0 1 .25.89q-.85.42-1.74.06a.55.55 0 0 0-.76.51l.02 2.15a.56.56 0 0 0 .68.54zm8.52-1.9l-.11 1.78a.66.66 0 0 1-.51.6l-.29.06a.44.44 0 0 1-.54-.44l.12-6.92q.02-1.02 1.04-.98 3.11.15 3.8 1.73c.38.86-.14 1.71-.87 2.19q-.57.37-.43-.3.35-1.68-.91-2.81a.66.67 24.8 0 0-1.1.41q-.19 1.36-.12 2.57.04.62.34.83.24.17.57.08.44-.12.77.19l3.11 2.95q.17.16-.02.29l-.36.27a.49.49 0 0 1-.6-.03l-3.17-2.77a.43.44 22.5 0 0-.72.3zm19.37-3.25q-1.5 3.22-3.84 5.89-.12.13-.24.01l-.23-.25a.37.38 39.3 0 1-.04-.46l4.75-7.28a.61.61 0 0 1 1.05.05l3.58 6.9q.34.66-.36.9-.18.06-.37-.01-.15-.05-.29-.24-1.78-2.51-2.81-5.45-.52-1.51-1.2-.06z" fill="#f3f4ee"/></svg>