<svg xmlns="http://www.w3.org/2000/svg" viewBox="0 0 128 128"><path d="M108.238 43.809c-.824.003-1.454.427-1.889 1.273a.861.861 0 0 0 1.42.949c.532-.633 1.18-1.172 1.943-1.615a.151.151 0 0 0-.018-.266c-.539-.23-1.025-.343-1.457-.342zm-36.771 2.998c-3.592.08-6.825 3.269-5.969 8.078 1.091 6.148 9.048 6.636 11.834 1.553.248-.461.128-.783-.363-.967l-2.271-.861c-.384-.148-.636-.023-.754.373a3.43 3.43 0 0 1-1.037 1.598c-.201.183-.439.298-.711.346-3.478.559-3.309-3.948-2.52-6.068a.967.976 89.3 0 1 .578-.586c1.484-.591 2.478-.547 2.98.133a1.93 1.93 0 0 0 2.049.816l1.012-.186c1.088-.201 1.28-.728.576-1.58-1.543-1.878-3.523-2.69-5.404-2.648zm-61.057.045c-2.606.006-5.303 1.429-6.053 4.068-2.493 8.854 8.783 12.598 11.648 5.021a.293.293 0 0 0-.16-.373l-2.795-1.127c-.118-.053-.199-.019-.24.105-1.952 5.686-6.714.648-4.479-3.504 1.153-2.129 2.98-1.091 4.23.098a.8.8 0 0 0 .771.223l2.006-.461c.343-.077.462-.284.355-.621-.757-2.337-2.986-3.435-5.285-3.43zm25.813.217c-1.691-.008-3.318.137-4.285.143a.45.45 0 0 0-.514.516l-.01 11.063a.878.878 0 0 0 .879.877l2.031-.008c.621-.006.92-.32.896-.941-.047-1.201-.057-2.102-.027-2.705.13-2.342.757-2.484 1.881-.426L39 59.09a1.1 1.1 0 0 0 .949.568l2.883.025c.432 0 .57-.197.416-.594-.668-1.762-1.629-3.333-2.883-4.711-.266-.29-.228-.531.115-.727l.959-.541c.254-.148.436-.355.549-.621 1.988-4.641-2.045-5.404-5.766-5.422zm20.023.08l-2.84.072c-.331.012-.49.182-.479.514l.16 5.73c.018.515-.118.559-.408.133l-3.949-5.891a1.1 1.1 0 0 0-.895-.486l-2.697-.045c-.26-.006-.391.124-.391.391v11.23c0 .568.288.855.861.861l1.826.008c.591.006.887-.286.887-.877l-.018-5.262c-.006-.656.174-.712.541-.168l3.932 5.916a.994 1.002 72.1 0 0 .877.443l2.289-.123c.408-.018.615-.234.621-.648l.018-11.471c0-.225-.111-.334-.336-.328zm3.529.035c-.197 0-.354.159-.354.355v11.764c0 .197.157.355.354.355h3.07c.197 0 .355-.159.355-.355V47.539c0-.197-.159-.355-.355-.355h-3.07zm59.377.01l-3.115.027a1.047 1.047 0 0 0-.975.674l-4.205 11.16c-.154.414-.01.621.434.621l2.645-.018c.396 0 .649-.194.762-.578l.311-1.09c.095-.325.313-.486.656-.48l3.719.045a.559.559 0 0 1 .549.621c-.106.852.26 1.331 1.1 1.438.917.118 1.782.08 2.592-.115a.488.488 0 0 0 .346-.648l-4.33-11.328a.523.523 0 0 0-.486-.328zm-23.906.002c-.989-.003-1.981.012-2.975.043a.43.43 0 0 0-.471.488l-.008 11.105c0 .58.29.863.869.852l2.084-.053a.878.887 88 0 0 .861-.914c-.053-1.23-.074-1.972-.062-2.227.154-3.046.907-3.236 2.262-.568l1.605 3.168a1.038 1.047 77 0 0 .914.568l2.945.025c.402 0 .538-.188.408-.566-.627-1.786-1.588-3.349-2.883-4.686-.237-.242-.202-.436.105-.584 2.723-1.331 2.849-6.272-.727-6.494a85.34 85.34 0 0 0-4.93-.158zm-70.068.008l-3.584.008a.435.435 0 0 0-.408.283L16.795 59.09a.435.435 0 0 0 .408.594l2.945-.025a.435.435 0 0 0 .416-.311l.443-1.518a.435.435 0 0 1 .418-.32l3.92.037a.435.435 0 0 1 .426.354l.25 1.412a.435.435 0 0 0 .426.363l3.113-.01a.435.435 0 0 0 .408-.586l-4.383-11.594a.435.435 0 0 0-.408-.283zm63.82.008l-9.404.01a.408.408 0 0 0-.408.408l-.018 11.621a.408.408 0 0 0 .408.408h9.768a.408.408 0 0 0 .408-.408l.01-2.227a.408.408 0 0 0-.408-.408l-5.883.008a.408.408 0 0 1-.416-.416l.025-1.775a.408.408 0 0 1 .408-.398l5.189.063a.408.408 0 0 0 .418-.408l-.018-1.473a.408.408 0 0 0-.408-.408l-5.234.008a.408.408 0 0 1-.408-.426l.063-1.18a.408.408 0 0 1 .408-.381l5.625.08a.408.408 0 0 0 .416-.436l-.133-1.881a.408.408 0 0 0-.408-.381zm16.66.01c-.197 0-.355.157-.355.354v11.729c0 .197.159.355.355.355h3.229c.197 0 .355-.159.355-.355V47.574c0-.197-.159-.354-.355-.354h-3.229zm-68.832 2.422a1.056 1.765 89.7 0 1 1.773 1.047v.426a1.056 1.765 89.7 0 1-1.756 1.064l-1.277.008a.364.364 0 0 1-.363-.363l-.018-1.811a.364.364 0 0 1 .363-.363l1.277-.008zm60.607.008a1.144 1.632 89.7 0 1 1.643 1.137v.248a1.144 1.632 89.7 0 1-1.623 1.152l-1.412.01a.47.47 0 0 1-.479-.471v-1.598a.47.47 0 0 1 .461-.469l1.41-.01zm-74.17 1.129a.31.31 0 0 1 .309.229l1.002 3.381a.31.31 0 0 1-.301.398l-1.783.01a.31.31 0 0 1-.303-.383l.781-3.389a.31.31 0 0 1 .295-.246zm94.027.123c.096-.012.205.088.326.301a6.1 6.1 0 0 1 .807 2.742.83.83 0 0 1 .143.426c.006.29-.136.432-.426.426l-1.535-.01c-.426-.006-.577-.213-.453-.621l.889-2.893c.071-.237.154-.359.25-.371z" fill="#3a43ca" fill-rule="evenodd"/><path d="M68.309 68.416c-.399.014-.747.185-1.045.512a.656.665 32.7 0 1-.754.168c-1.774-.772-3.211-1.312-3.619 1.27a.479.479 0 0 0 .699.496l1.064-.584a.719.71 45.4 0 1 .693.008c1.517.834 3.406.711 3.699-1.268a.523.515 7.8 0 0-.453-.586 1.67 1.67 0 0 0-.285-.016zm-6.451 2.953c-.511-.007-1.069.094-1.674.301a.48.48 0 0 0-.354.496l.008 11.559c0 .177.092.268.275.268l3.141.008c.207 0 .307-.104.301-.311l-.088-5.588c-.012-.739.19-.803.604-.187l3.85 5.74a.77.77 0 0 0 .691.355l2.52-.027c.349-.006.523-.182.523-.531l.01-11.383c0-.39-.196-.586-.586-.586l-2.395.01c-.438.006-.654.225-.648.656l.098 5.332a.31.31 0 0 1-.576.168l-3-4.684c-.675-1.049-1.574-1.581-2.699-1.596zm-30.354.113a.284.284 0 0 0-.285.285l-.018 11.877a.284.284 0 0 0 .285.285l3.016.053a.284.284 0 0 0 .293-.293l-.045-5.758a.284.284 0 0 1 .523-.158l4.002 6.086a.284.284 0 0 0 .23.123l3.211.018a.284.284 0 0 0 .283-.283l.01-11.949a.284.284 0 0 0-.285-.285l-3.016.01a.284.284 0 0 0-.283.283l.025 5.891a.284.284 0 0 1-.523.16l-4.143-6.219a.284.284 0 0 0-.23-.125h-3.051zm14.396 0c-.177 0-.268.092-.273.275l.025 7.221c.071 3.398 1.438 4.685 4.641 5.102 8.871 1.162 7.176-7.026 7.096-12.34-.006-.172-.09-.258-.256-.258l-3.301.01c-.136 0-.203.067-.203.203v7.754c0 1.189-.594 1.789-1.783 1.801l-.754.01c-1.124.012-1.686-.548-1.686-1.678v-7.664c.006-.29-.14-.436-.436-.436H45.9zm28.762.01a.408.408 0 0 0-.408.408v11.656a.408.408 0 0 0 .408.408l9.705.01a.408.408 0 0 0 .408-.408l.008-2.023a.408.408 0 0 0-.406-.408l-5.775.018a.408.408 0 0 1-.408-.416l.018-1.58a.408.408 0 0 1 .408-.398h5.029a.408.408 0 0 0 .408-.408l.018-1.801a.408.408 0 0 0-.408-.408h-5.234a.408.408 0 0 1-.408-.398l-.018-1.137a.408.408 0 0 1 .408-.416l5.811.035a.408.408 0 0 0 .408-.408l.01-1.908a.408.408 0 0 0-.408-.408l-9.572-.008zm12.242 0c-.266 0-.398.132-.398.398l-.01 1.996a.355.355 0 0 0 .363.355l5.545-.07a.204.195 23.3 0 1 .143.346c-1.907 1.712-7.453 6.281-6.672 9.049.077.272.255.408.533.408l10.742-.02c.231 0 .346-.115.346-.346l.018-1.959c0-.296-.148-.445-.443-.445l-5.979.02a.328.328 0 0 1-.24-.561l5.988-6.121c.633-.639.734-1.536.303-2.695a.5.5 0 0 0-.506-.348l-9.732-.008z" fill="#ec151f"/></svg>