<svg xmlns="http://www.w3.org/2000/svg" xmlns:xlink="http://www.w3.org/1999/xlink" viewBox="0 0 706.4 447.5"><path class="svg-src" d="M478.2 164.2v8.2h1.3v-3.1h2.3l2.6 3.1h1.6l-2.8-3.3c1.3-.3 2.3-1.1 2.3-2.4 0-1.6-1.4-2.5-3.3-2.5h-4zm1.3 1.1h2.6c1.2 0 2 .5 2 1.5 0 .9-.9 1.5-2.1 1.5h-2.5v-3zm-6.8 3.3c0 4.4 3.8 8.1 8.8 8.1s8.9-3.7 8.9-8.2-3.8-8.1-8.8-8.1-8.8 3.7-8.9 8.2m1.3 0c0-3.9 3.3-7.1 7.7-7.1s7.6 3.2 7.6 7.1-3.3 7.1-7.7 7.1c-4.4-.1-7.6-3.2-7.6-7.1zM345.9 269.1l28-29.1a1.24 1.24 0 0 0 .1-1.7c-.4-.5-1.2-.8-1.8-.5-5.7 1.9-14.7 4.4-25.5 4.4h-16.2V167c0-.5-.4-1.1-1-1.3s-1.2 0-1.7.4l-36.1 37.5s-.4.5-.4.9v37.8h-61l115-119.8c.4-.4.5-1 .2-1.5-.2-.5-.8-.8-1.4-.8h-55.8c-.6 0-1.2.3-1.4.8s-.2 1.1.2 1.5c3.7 4.1 10.6 14.7.2 25.6l-98.4 102.2c-.3.3-.5.9-.3 1.3l6.2 19c.2.6.8 1 1.5 1h95s0 8.2-.5 16.4c-1.4 18.3-9.9 26.8-14.9 30.2-.5.4-.7 1-.5 1.6.2.5.8.9 1.4.9h60.5c.9 0 1.6-.6 1.6-1.4 0-.4-.2-.7-.4-.9-3-4.7-7.9-10-7.9-26v-20.7h10.2c1.9-.3 4.1-1.6 5.1-2.6m87.8-82.5c-3.3 0-6.5.3-9.6.9l62.8-65.2c.4-.4.5-1 .2-1.5-.2-.5-.8-.8-1.4-.8H372.4c-.5 0-.9.2-1.2.5l-28.9 30.1c-.5.5-.5 1.2-.2 1.7.4.5 1.2.8 1.8.5 5.4-1.9 13.4-3.3 24.4-3.7 9.6-.3 59.1.1 59.2.1L376 203.3c-.5.5-.5 1.1-.2 1.6.4.5 1 .8 1.7.6 6.6-1.6 17.2-2.3 23.2-2.3 13.8 0 25.5 4.1 33.7 11.8 10.3 9.6 15.5 24.6 15.2 44.2-.2 14.1-4.8 47.1-42.9 47.1-8.7 0-16.7-2.8-22.1-8.9-8.9-10.1-9.3-21.2-5.7-36.2.2-1-.4-1.6-1-1.9s-1.2 0-1.7.4l-26.8 28.5c-2.6 2.9-2.6 4.6-.8 8.9 2.2 5.3 13.3 30.1 59.6 30.1 23.9 0 45.5-7.2 60.8-20.3 16.8-14.3 25.6-35 25.6-60 .1-39.2-31.4-60.4-60.9-60.3M354.3 21.8c-111.3 0-201.9 90.5-201.9 201.9s90.5 201.8 201.9 201.8S556.2 335 556.2 223.7 465.7 21.8 354.3 21.8zm0 425.7c-123.4 0-223.7-100.4-223.7-223.7C130.6 100.4 231 0 354.3 0s223.8 100.4 223.8 223.7c0 123.4-100.4 223.8-223.8 223.8z" fill="#5e5e5e"/><defs><path id="A" transform="matrix(.9969 -.078725 .078725 .9969 -16.4397 28.4968)" d="M3.2 168.6h700V277H3.2z"/></defs><clipPath id="B"><use xlink:href="#A"/></clipPath><g clip-path="url(#B)"><linearGradient id="C" gradientUnits="userSpaceOnUse" x1="713.229" y1="212.539" x2="215.123" y2="212.539"><stop offset="0" stop-color="#8e6a1e"/><stop offset=".17" stop-color="#b29958"/><stop offset=".321" stop-color="#ddc9a7"/><stop offset=".488" stop-color="#8e6a1e"/><stop offset=".764" stop-color="#d1bf94"/><stop offset="1" stop-color="#967c3f"/></linearGradient><path d="M221.8 229c2.8 1.4 4.7-.8 6.6-1.8 10.5-5.7 20.9-11.8 31.3-17.8 1.9-1.1 3.5-2.4 4.1-4.7.3-.9.9-2 1.7-2.4 1-.6 2.4-.9 3.5-.7 1.5.3 1.9 1.7 1.5 3-.7 2.4-1.7 4.7-2.5 7l-.9 2.5c.3.1.5.3.8.4.6-.8 1.3-1.5 1.9-2.3 2.2-3 4.2-6.2 6.7-9 4.1-4.5 10-3.7 12.7 1.7 1.5 2.9 2.2 6.1 3.3 9.2.3.9.7 1.9 1.1 2.8 1.9 3.8 4.8 4.7 8.7 3 5.7-2.5 10.7-6 15.2-10.2 3.4-3.1 3.9-7.5 5.3-12.2-3.1.7-5.1 1.8-6.4 3.5.5 1.7 1 3.2 1.5 4.7-3.6 1.2-6.5.5-8.3-1.7-1.1-1.4-1.3-3.7.2-5.2 1.8-1.9 3.9-3.6 6.1-4.9 2.4-1.5 5-2.8 7.7-3.7 4.2-1.5 5.5-5.3 7.3-8.6 1.6-3 3.4-5.8 6.1-7.9 1-.8 2-1.5 3.4-.7 1.3.7 1.9 1.7 1.7 3.1-.3 1.9-.7 3.8-1.2 6 1.1-.1 2 0 2.8-.3l13.3-4.9c4.3-1.5 8.7-2.7 13-4l10.9-3.2c1.1-.3 2.2-.7 3.3-.8l19.3-1.6c1.4-.1 3 .3 4.4.8.7.2 1.5 1.2 1.5 1.8 0 .7-.8 1.7-1.5 1.9-1 .4-2.2.3-3.3.2-5-.6-9.9-.1-14.7 1.2-4.4 1.1-8.9 1.9-13.2 3.2-4.8 1.4-9.5 3-14.2 4.6l-11.7 4.3c-5.1 1.9-10.3 3.8-15.3 6-1.4.6-2.5 2.5-3 4.1-2.4 6.6-4.8 13.2-6.5 20-1.1 4.5-2.5 9.2-.6 14.1 3.5.8 6.2-1.3 9-2.8 8.7-4.7 16.2-11.2 24.1-17.1 5.2-3.9 9.5-8.2 12.1-14.3 1.1-2.5 3.4-4.6 5.7-6.4 4.2-3.4 8.6-1.4 9.1 3.9.1 1.2 0 2.5 0 3.7 1.7-.6 3.2-1.2 4.8-1.6 1.8-.4 3.1.4 3.5 2.1.5 2.4.6 5 .7 7.4.1 2.9 0 5.8.1 8.7 0 .8.4 1.7.7 3.1 2.2-.5 4.5-.5 6.2-1.6 8.7-5.6 17.4-11.3 24.7-18.8.4-.4.7-.8 1.2-.9 1-.4 2-1.6 3-.4.5.7 1 1.8.7 2.6-.7 2.6-1.7 5.1-2.7 7.7-1.2 3.1-2.6 6.1-3.9 9.2.2.2.4.5.6.7 1.4-.7 3-1.2 4.3-2.1 9.1-6.5 17.5-13.8 25.6-21.4 2.1-2 4.4-3.8 6.9-5.1 3.3-1.6 5.8 0 6 3.6.1 2.3 0 4.8-.6 7.1-2.4 8.5-5.8 16.7-9.7 24.6-.2.4 0 .9.1 2.1l10.8-9.8 18.7-16.7c2.8-2.4 4.6-5.1 5.6-8.6.4-1.3.9-2.7 1.4-4.2-3.4.3-4.6.9-6.4 3.1.4 1.8.8 3.3 1.4 5.7-2.4-.3-4.1-.2-5.5-.7-4.6-1.8-5.3-6.1-1.3-9 3.6-2.6 7.6-4.7 11.6-6.7 2.6-1.3 4.9-2.6 6.2-5.5 1.2-2.7 2.9-5.2 4.6-7.6 1-1.4 2.5-2.5 3.7-3.7 1-1.1 2.1-1.1 3.4-.4s1.8 1.8 1.6 3.1c-.3 1.8-.9 3.6-1.4 5.8 1.2-.1 2 0 2.8-.3l12.3-4.3c4.6-1.6 9.3-3.1 14-4.6 3.6-1.1 7.2-2.3 10.9-3.2 2.8-.7 5.7-1.1 8.6-1.4 4.7-.5 9.4-.8 14-1 1.5-.1 3 .3 4.4.8.6.2 1.5 1.2 1.4 1.8 0 .7-.8 1.7-1.4 1.9-1 .4-2.2.4-3.3.2-5.1-.7-10.1-.1-15.1 1.2-4.1 1.1-8.4 1.8-12.5 3a334.92 334.92 0 0 0-14.2 4.5c-4 1.4-8 2.9-12 4.4-5.1 1.9-10.3 3.9-15.3 6-.9.4-1.6 1.6-2 2.6-4.1 8.3-6.5 17.1-8.4 26-.6 3 .1 6.2.2 9.5 2.2.5 3.8.1 5.6-.8 10.8-5.2 19.8-13 29.3-20.1 1.8-1.3 3.6-2.7 5.2-4.2 1.2-1.1 2-2.4 3.1-3.6 1.2-1.2 2.2-3.1 4.3-2.5 2.2.6 2.6 2.6 2.5 4.6-.1 1.8-.4 3.7-.7 5.5.2.1.5.3.7.4l6-7.1c3.9-4.7 8.2-8.9 14.4-10.2 2.1-.4 4.5-.2 6.7.4 2.5.7 2.6 2.4.4 4-.9.6-2 1.3-3 1.2-4.2-.2-7.4 1.9-9.9 4.8-4.3 5.1-8.2 10.6-12.3 16-1.5 2-2.8 4.2-4.5 6-1 1.1-2.4 2.2-4.3 1.5-2-.7-3.2-2.1-3.3-4.2-.1-2.6 0-5.2 0-8.4-1.1.6-2.2 1-3.1 1.8-8.4 7.5-17.3 14.4-26.6 20.6-3.3 2.2-6.8 3.2-10.7 3.3-4.6.1-7.5-2.1-8-6.7-.4-4-.4-8.1-.6-12.1 0-.6-.1-1.1-.2-2.5l-5.6 5.3-30.5 30.1c-3.2 3.1-5.1 7.1-7.3 10.9-3.2 5.6-6.7 11.1-10.3 16.5-.9 1.3-2.3 2.3-3.4 3.5-1.5 1.6-3.4 1.6-5.2.8-1.9-.9-3.1-3.4-2.2-5.5 1.1-2.9 2.5-5.8 4.2-8.3 1.9-2.9 4.3-5.5 6.6-8.1 4.1-4.4 7.3-9.3 9.6-14.9 4.6-11.2 9.6-22.2 14.4-33.3.2-.5.3-1.2-.1-2.2-1.6 1.5-3.3 2.9-4.9 4.3l-18.5 16.4c-2.6 2.2-5.7 4-9.1 4.9-5.3 1.3-9-1.7-8.7-7.2l.4-5.2-10.9 7.6c-2.5 1.6-5.1 3.1-7.8 4.4s-5.2 0-7.2-1.7c-2.1-1.7-3.4-4-3.6-6.8-.1-1.7-.3-3.5-1.1-5.5-.9 1.1-1.9 2.1-2.8 3.2-3.9 4.7-7.6 9.5-11.7 14-1.1 1.2-2.8 2.1-4.4 2.5-3.5.9-5.6-.6-6.1-4.1-.4-2.6-.4-5.2-.7-8-.7.3-1.3.5-1.8.8l-18.3 14.3c-4.6 3.5-9.5 6.6-15.8 6.3-3.6-.2-6.9-2.3-7.5-5.6-.7-4.3-.8-8.7-1.1-13.3-.3.1-1 .3-1.6.7-4.1 2.9-8.3 5.6-13.2 6.8-7.2 1.7-12.3-.2-15.1-7.8l-3.8-10c-2.8.5-3.9 2.7-5.1 4.6l-10 16.7c-.9 1.5-1.9 2.9-3 4.3-1.9 2.3-3.4 2.8-5.5 2.1-2.4-.8-2.9-2.9-2.6-4.9.6-4.2 1.7-8.3 2.6-12.4.2-.9.3-1.7.5-2.8l-32.6 18.6c-2.8 1.5-5.7 3.6-9.6 2.1-5.1-2-7.9-6.6-6.4-11.8 2.6-8.9 7-16.8 13.5-23.5a21.42 21.42 0 0 1 6.1-4.2c1.9-.8 4.2-.8 6 .9 1.8 1.8 2.6 3.9 1.5 6.2-1.7 3.6-3.3 7.3-5.5 10.6-2.9 4.3-6.4 8.2-9.6 12.4-.6.5-.6.8-.8 1.2h0zm8-22.9c-.4.1-.9 0-1.1.2l-8.8 13.2c-.4.7-.2 1.7-.3 2.5-.2.3-.4.6-.1.2 0 .5 0 .1 0-.3.4-.2 1.1-.3 1.3-.7 2.9-4.1 5.7-8.2 8.5-12.5.4-.6.2-1.7.5-2.6.1-.3.4-.5.6-.7-.2.2-.4.5-.6.7zm149.5-11.7c-4.5 6.3-7.7 13.3-10.2 20.5-.3.8-.1 1.8-.1 3 8.1-6.1 12.2-15.3 10.3-23.5zm-161.1 34.1c-.1.2-.3.4-.3.5 0 .2.2.3.4.5.1-.2.3-.4.3-.5-.1-.2-.3-.3-.4-.5h0z" fill="url(#C)"/><linearGradient id="D" gradientUnits="userSpaceOnUse" x1="284.914" y1="203.947" x2="6.752" y2="241.113"><stop offset="0" stop-color="#8e6a1e"/><stop offset=".17" stop-color="#b29958"/><stop offset=".321" stop-color="#ddc9a7"/><stop offset=".488" stop-color="#8e6a1e"/><stop offset=".764" stop-color="#d1bf94"/><stop offset="1" stop-color="#967c3f"/></linearGradient><path d="M62.9 239l3.6-3.5L81 218.9c.6-.7 1.4-1.4 2.2-2 3.6-2.2 5.8-1 6.5 3.1.6 4-.8 7.7-1.1 11.5l-.6 5.6c3.7 3.9 6.9 1.6 9.7.1 6.6-3.4 12.2-8.3 17.3-13.6 1.9-2 2.9-4.9 4.2-7.4 1.6-3 3.5-5.9 6.4-7.7 1.3-.8 3-1.3 4.5-1.5 2.1-.2 3.5 1 3.9 3.2.3 2 .3 4 .5 6.1 1.9-.7 3.5-1.4 5.1-1.7 1.7-.4 3 .4 3.4 2.2.3 1.6.6 3.2.7 4.8.1 3.4 0 6.8.1 10.2.2 4.1.8 4.6 4.9 3.3 1.5-.5 3-1.2 4.3-2.2l16.3-11.9c2.1-1.6 4-3.3 5-5.9.8-1.9 3-2.6 4.4-1.9 1.7.9 2.1 2.2 1.7 4.1-.3 1.9-.3 3.9-.4 5.8l.9.3c1.5-1.9 3-3.8 4.6-5.6 4.2-5.1 8.6-9.9 15.4-11.5 3.1-.7 6.2-.8 8.6 1.9-.8 2.4-2.1 3.9-4.6 3.8-4.1-.2-6.9 2-9.6 4.6-5.6 5.4-9.8 11.9-14 18.4-1.5 2.4-3.1 4.6-6 5.6-3.9-1.1-4.5-1.8-4.7-5.9-.1-2.2 0-4.5 0-7.6a87.25 87.25 0 0 1-3.9 3c-6 4.5-11.6 9.5-18.7 12.3-4.1 1.6-9-.3-10.5-4.6-.9-2.7-1.7-5.4-2.7-8.7l-7.1 9.2c-2.1 2.6-4.2 5.3-6.7 7.6-1.5 1.3-3.6 2.3-5.6 2.7-2.9.6-5.4-1.6-5.7-4.5-.2-2.2-.9-4.5.6-6.6.2-.3 0-.9-.1-2-1.7 1.3-3.2 2.3-4.5 3.4-4 3.3-8.3 5.7-13.5 6.4-2.3.3-4.9.4-7.1-.2-2.1-.6-4-2.1-4.2-4.8-.2-3.6-1.2-7.2.5-10.8.2-.5-.1-1.3-.3-2.8l-4.4 4.9-13.2 16.3c-1.6 1.9-3.1 3.9-5.9 4.2-2.6.3-3.6-.5-4.2-3.1-.7-3.5.2-6.7 1.1-10 .5-2 1.2-4.1 2-7.1-1.5.8-2.3 1.1-2.9 1.5l-33.5 23.3c-1.6 1.1-3.6 1.8-5.6 2.3-3.1.8-6.1.2-8.2-2.4-2.2-2.7-2.8-5.6-1.8-9.1 1.9-6.6 4-13.2 7.8-18.9 2.4-3.7 5.5-7.1 8.3-10.6 1.9-2.3 4.5-2.5 6.9-1.6 2.5.9 3.1 3.4 3.1 6 0 3.7-1.3 6.9-3.4 9.8-2.7 3.6-4.7 3.7-7.9.1-4.2 6-7.2 12.2-7.3 19.8 3.6.5 6.3-1.3 8.8-2.9l29.6-20.3c2.9-2 6-3.6 9-5.4.8-.5 1.5-1.4 2.2-2 1.8-1.5 3.6-1 3.8 1.2.2 2.1-.2 4.3-.7 6.3-.5 2.3-1.5 4.5-2.1 6.7.1 1.4.3 2.4.3 3.3-.3.3-.7.5-1 .7.1.2.3.3.4.5l.6-1.2h0zm55.6-.7c.7-.6 1.5-1.1 2-1.8 1.9-2.3 3.6-4.7 5.5-7.1 2.2-2.8 4-5.6 3.2-9.5-.2-1 .4-2.2.5-3.3.1-.8 0-1.6 0-2.4-.3-.1-.6-.2-.8-.2-5.8 7-8.6 15.4-10.4 24.3z" fill="url(#D)"/><linearGradient id="E" gradientUnits="userSpaceOnUse" x1="747.639" y1="182.423" x2="577.228" y2="200.098"><stop offset="0" stop-color="#8e6a1e"/><stop offset=".17" stop-color="#b29958"/><stop offset=".321" stop-color="#ddc9a7"/><stop offset=".488" stop-color="#8e6a1e"/><stop offset=".764" stop-color="#d1bf94"/><stop offset="1" stop-color="#967c3f"/></linearGradient><path d="M588.3 200.7c1.9-.8 3.9-1.4 5.7-2.4 12-7 24.2-13.4 35.8-21.1 6.1-4.1 12.7-7.6 19.4-10.6 5.3-2.4 11.1-4 17.2-3.2 2.5 4 1.3 6.3-4.7 9.6-.2-.1-.6 0-.7-.2-3.6-3.9-7.3-1.3-10.5.4-7 3.5-13.7 7.6-20.6 11.4.4.7.5 1.1.6 1.1l14.7.5c5.3.4 10.5.9 15.8 1.8 2 .3 3.4-.2 4.9-1l22.3-12.2c2.2-1.2 4.4-2.4 6.7-3.3 1.5-.6 3.1-.7 4.6-1 1.3 3.3 1.2 4-1.4 5.4-4.5 2.5-9.1 4.7-13.6 7.2l-14 7.8c-.1 1-.2 1.2-.1 1.5 1.8 5.6 0 9.9-4.1 13.9-4.5 4.3-9.6 7.5-14.9 10.7-3.1 1.9-6.4 3.6-9.6 5.2-1.2.6-2.6 1.1-3.9 1.2-5.2.6-7.8-3-5.5-7.8.9-1.9 2.2-3.7 3.7-5.1 4.4-4.1 9-7.9 13.5-11.8l5.7-5c-.8-.5-1-.9-1.3-.9l-25 .1c-3.3 0-6.6.5-9.7-1.1-.5-.3-1.7.1-2.3.5l-21.7 12.5c-2.7 1.5-5.5 3.1-8.5 4-6.5 1.8-12.3-3.9-11.3-9.8 1.8-10.5 7.2-19.2 14.8-26.6 1.4-1.3 3.1-2.5 4.9-3.2 2.3-.8 4.9-.9 6.6 1.4 1.6 2.2 1.7 4.9.6 7.2-1.8 3.7-3.8 7.3-6.1 10.7-1.9 2.8-4.3 5.2-6.4 7.8-.9 1.1-1.5 2.4-2.3 3.6.2.2.5.5.7.8h0zm55.7 12.1c.9-.1 1.9.1 2.6-.3 6.3-3.5 12.5-7.3 17.5-12.7.8-.9 1.1-2.2 1.6-3.4l-.7-.7c-1 .5-2.3.7-3.1 1.4-3.9 3-7.9 6-11.7 9.3-2.2 1.9-4 4.3-6 6.5-.3.3-.6.6-1 .9.2.1.4.2.5.3.1-.4.2-.9.3-1.3h0zM584.9 193c4.6-3.8 10.3-13 10.7-16.9-5.3 4.9-8.5 10.6-10.7 16.9zm-1 7.3c-.1-.2-.2-.5-.4-.5-.2-.1-.4.1-.6.2a3.04 3.04 0 0 0 .5.7c.2-.2.3-.3.5-.4h0z" fill="url(#E)"/><path d="M601 148c3 1.9 3.3 3.3 1.3 5.7l-5.7 6.8c-.4.5-.9.8-1.4 1.3-1 1-2.1 1.2-2.9.1-.6-.8-1.1-2.3-.7-2.9 2.5-4 4.5-8.5 9.4-11z" fill="#b29c68"/></g></svg>