<svg xmlns="http://www.w3.org/2000/svg" viewBox="0 0 512 183"><path fill="#b11d64" d="M353.6 133.6a40.3 40.3 0 0 1 20.7-6.3c-2.9 8.7-6.2 17.2-9.4 25.8-1.9 5-3.3 10.7-6.7 15.1-3 4-6.6 6.2-11.4 7-1.2.2-4.5-.2-4.5 1.6.1 3.1 4.7 2.5 6.8 2.3 8-.8 15.6.9 23.7.9 1.6 0 6.8.2 7.6-1.6.8-2-2.3-2.7-3.6-2.9-4.3-.7-9.8-1-10-6.7-.1-5 2.8-10.6 4.5-15.2 3.1-8.5 6-17.1 9-25.7 3.3 1.1 6.7 1.8 10 3.1 15.4 6.4 35 16.9 51 5.5 2.1-1.6 3.8-3.4 5.4-5.5 2.9 8.9 6.2 17.6 9.4 26.4 1.4 4 3.8 8.4 4.3 12.6.7 5.6-5.1 4.3-8.2 6.3-1 .7-1.3 2.9-.2 3.7 1 .7 2.7.3 3.9.3 3.6-.1 7.2-.7 10.8-1.1 12.4-1.5 24.4.6 36.7.5 3.6 0 10.7-1 8-6-4.6.8-9.5 1-13.7-1.2-6.3-3.1-9.5-10-11.9-16.3l-8.2-21.5c-13.1-34.4-25-69.2-38.1-103.6-3-8-5.9-16-8.6-24-1.1-3.5-1.9-7.6-6.5-6.9-5 .8-6.7 8.4-8.2 12.3-4.8 12.8-9.2 25.8-14 38.6C397 64.5 392 78 387.3 91.5c-1.8 5.3-3.9 10.5-5.7 15.7-.7 2-1.3 5.6-2.9 7-1.8 1.8-5.9 2.5-8.2 3.7-6 3.1-14.3 9.1-16.9 15.7M198.7 1.6c-1 3.9-3.6 3.1-7.1 3.1-2.8 0-5.6.5-8.3.3-2.7-.2-5.7-.7-8.3 0v.6c1.5.5 3.3.2 4.3 1.7 1.5 2.4.8 6.5.8 9.2v22c0 4.6 1 10.3-5.1 10.3.6 2 4.3 1.2 6 1.2h16c2.2 0 5.2-.7 5.5 2.3 2.3-1.2 5-5.4 6.3-7.8h.5c1.4 4.2 6.2 5.6 10 6.3 9.2 1.6 19-2.7 19-13.1 0-7-3.2-12-9.5-15-4.4-2-12.2-3.3-12.3-9.4 0-1.3.1-2.8.7-4 4-9.4 15.8-3.2 13.6 5.7 6.8-.5 6-7.8.9-10.4-9.9-5-27.1 3.2-20.6 15.6 4 7.8 14.8 6.6 19.8 13.5 2.5 3.5 3.7 8.6.7 12.3-3.4 4-10.5 5.7-14.8 2.2-4.1-3.3-2.4-10.4 1.4-13.1-3.5-2.2-8.2-1-9.3 3.1-.5 1.7.3 4-.4 5.5-.6 1-2 1.8-2.9 2.4-5 3-12 1.4-17.5 1.3V31.9c0-1.4-.6-4.4 1-5.2 1.7-1 3.7-.3 5.3.4 3.9 1.4 11.6 4.2 14-.9-4.4 1.7-6.8-2-10.8-3.2-3.4-1-6.7.5-9.5 2.4l-.3-19.2c3.5 0 8.3-.9 11.5.5 1.5.7 2.5 2.2 3.7 3.2a20 20 0 0 0-4.3-8.3m152.6.3c.1 3.4-3.1 2.8-5.7 2.8-3 0-6.4.5-9.4.3-2.7-.2-5.7-.7-8.3 0v.6c1.5.5 3.3.2 4.2 1.7 1.5 2.3.6 6.6.6 9.2v22c0 4.6 1.3 10.3-4.8 10.3.6 2 4.6 1.2 6.3 1.2h15.7c2.4 0 5.4-.6 5.5 2.6 2.3-1.8 5.6-6.1 6.5-9-2 1.2-3.5 2.9-5.7 3.6-4.6 1.5-10.4.3-15.2.2l-.2-20.6c1.4-.2 2.8-.7 4.2-.5 4.7.8 13 6 16.4 0-4.6 1.6-7.1-2.2-11.2-3.3-3.7-1-6.3.9-9.4 2.4V6.2c3.4 0 8.2-.9 11.4.5 1.5.7 2.4 2.2 3.7 3.2l-4-8h-.6m-36.6.5c.7 2.1 4.4.8 4.4 3.8 0 2.5-1.7 5.4-2.6 7.7l-6.7 16.6c-.6 1.4-2 7-4 6.9-.9-.1-1.3-1.3-1.6-2l-2.8-6.6-7.3-16.9c-.7-1.6-2.8-4.8-2.3-6.6.3-1.4 2.2-1.4 2.9-2.6-2.4-.7-4.8.2-7.2.3-2.5.1-5-.5-7.5-.5-1.4 0-2.6.3-3.1 1.7l.3.3c5-1 7.1 2.8 8.9 6.8 4 9.2 7.6 18.6 11.6 27.8l3.5 8c.3.9.7 2.3 1.8 2.5 1.4.1 1.8-1.8 2.3-2.8 1.3-3.1 2.5-6.3 3.9-9.4 3.1-7.3 6-14.7 8.9-22 1.2-3 2-7.5 4.4-9.7 1.4-1.4 3.4-1.4 5-2.1-.7-1.4-2-.8-3.4-.8-3.1 0-6.2-1-9.4-.4m-39 38.4c-2.4.2-3.6 3.1-5.4 4.6-4.3 3.6-10 4.7-14.9 1.4-9.1-6-8.9-22-6-31.5 1.5-4.7 4.4-8.8 9.5-10 4.5-1.1 12.7 1 12.7 6.9 0 2.4-2.8 4-2.8 6 0 1.7 3 2.8 4.4 2.8 5 .1 4.3-6.8 2.7-9.7-6.2-11.1-22.3-10-30.5-2.2-7.7 7.3-8.7 22-3.6 30.9 6.4 11 29.3 17 34 .8m86.7-36.3c1.7.4 3.6.2 4.6 2 1.4 2.3.6 6.8.6 9.4v23c0 4.6 1 9.8-5.2 10 1.3 2 7.9.8 10 .6 3.8-.4 7.7 0 11.5 0 1.2 0 3.4.3 4.5-.4 1.6-1 2.7-5.3 3-7.1-2 .9-3 3-5 4.2-3.1 2-7.2 2-10.8 2v-30c0-3.1-1.1-9 .6-11.7 1.2-2 3.5-1.5 5.4-2v-.6c-4.2-1.3-10.2-.3-14.6-.3-1.5 0-3.6-.5-4.6.9m83.6 125c-8 1-15.2-.2-22.3-4.2-3.9-2.1-7.2-5.2-11.2-7.1-8.3-4-18-6.1-27.2-5 1-6 4.9-12.3 7-18 4.9-12.6 9.5-25.4 14.2-38l4.8-13c.4-1.1 1.2-3.8 3-3.7 1.4.2 2 3.8 2.3 4.9 1.8 5.4 3.5 10.7 5.5 16 5.7 15.2 11 30.6 16.4 45.8 2.5 7.1 6.4 15 7.5 22.4M223.6 67.4c.1 3.4-3.2 3.3-6 3.1-4.3-.2-8.8.1-13.1.1-1.6 0-3.6-.6-4.6.9 2.1 0 4.5.4 5 2.8 1 4.3.1 9.7.1 14 0 7.5 1.1 15.9 0 23.2-.4 2.5-2.7 3.1-4.8 3.2v.9H221c2.6 0 6.4-.7 6.5 2.8h.3l6.3-8.9c-2 1-3.5 2.7-5.7 3.4-4.8 1.5-10.2.4-15.2.4 0-5.2-.3-10.3-.3-15.5 0-1.5-.5-4.5 1-5.4 1.8-1 4-.1 6 .5 2.7 1 5.3 1.8 8.2 1.8 2 0 4.4-.5 5.2-2.6-4.5 1.4-7-2.2-10.9-3.4-3.5-1-6.5.8-9.5 2.5V72c3.3 0 8.2-.9 11.2.4 1.6.7 2.5 2.3 4 3-.8-2.3-2.4-6.5-4.6-8m63.9 0c0 3-2 3-4.6 3.2-4.6.2-9.4 0-14 0-1.7 0-4.1-.7-5.2.9 5.7 0 5.2 4.3 5.2 8.8v25.8c0 4.3.5 8.4-4.9 8.6v.9h21c2.5 0 6.4-.7 6.5 2.8h.3c2-2.6 5.5-6 6.3-9.1-1.8 1.2-3.4 2.8-5.5 3.5-4.8 1.7-10.4.5-15.4.5-.1-5.2-.3-10.3-.3-15.5 0-1.5-.6-4.5.9-5.4 5-3 15.7 7.5 19.4-.3-4.4 1.4-6.9-2.2-10.9-3.4-3.5-1-6.5.7-9.4 2.5V72c3.2 0 8.1-.9 11.2.4 1.6.7 2.4 2.3 4 3-1-2.6-2.5-6.1-4.6-8m64.4 13.2c2.5.4 4.2-2.8 6.3-3.9 3-1.4 6.4-.3 9.2-2 2.8-1.6 2.6-6.4-.9-7.2-6.7-1.3-13 7.6-14.6 13.1M119.7 68.7c-13.5 1.9-19.5 15.8-19.5 28.2 0 3.1-.1 6.2.8 9.2 2.4 7.5 9.8 10.3 17.3 9.4 14-1.9 18.6-18.1 18.6-30 0-10.3-6-18.3-17.2-16.8m-63.6.2v.8c6.3.2 4.3 8.8 4.3 13.2 0 1.6.6 4.3-.3 5.7-1.3 2.1-5.4 2.8-7.1 5l7.4-1V107l-.3 6.3-4.3 2.5h11.5l-4-2.5-.3-6V93.7c3.2 1 5.6 4 8.6 5.4 3.7 2 8.9.9 12.6-.5V109c0 1.6 0 3.6-1.2 4.8-1.1 1-2.6.8-4 1.2v.6h19.2v-.6c-2-.6-4.5 0-5.6-2.3-1.3-2.6-.4-7.5-.4-10.3v-21c0-2.6-.7-6.6.2-9 1-2.7 3.7-2.1 5.8-2.7v-.5c-4.2-1.3-10.2-.3-14.6-.3-1.4 0-3.7-.5-4.6.8 1.6.3 3.4.3 4.4 1.8 1.3 2 .8 5.2.8 7.4v17.2c-5.2-.7-8.8-5-13.5-7-2.4-1.2-5-1-7.7-1V76.3c0-1.5-.4-3.7.5-5.1.9-1.2 2.4-1.4 3.8-1.5V69H56.1m91.4 32v-.2c-2-.7-4.2-1.3-6.3-.5-4 1.6-4.2 7.5-2.5 10.8 3.9 7.4 18 7.6 24 3 4.9-3.8 6-12 3.6-17.6-3.4-7.8-11.3-7.7-17.4-12a7.5 7.5 0 0 1-1.8-10.7c5.7-7.9 14.4-.7 13 7.2 7.9-1.6 5-9.4-1.2-11.4-9.3-3-23.6 3.9-19.1 15.4.8 2.2 2.6 4.1 4.5 5.4 3.1 2.2 7 2.8 10.3 4.6 6 3.1 11.5 12 5.4 17.7-3.6 3.5-10.6 4.7-14.5.9-3.3-3.2-2-10.5 2-12.6M170 69l-2.9 8.3c2-1 2.7-3.2 4.3-4.5 2.5-1.8 6-1.5 8.9-1.5v33.2c0 4.7 1.2 10.5-5.2 10.6v.8h19.2c-1.2-1.8-4.4-.3-5.5-2.8-1.5-3.4-.5-9-.5-12.6V71.2c2.7 0 6.3-.3 8.6 1.5 1.7 1.3 2.4 3.5 4.3 4.5-.2-2-1.6-6.9-3.3-8-1.6-1-5.7-.3-7.6-.3h-20.3m126 1.1c5 1.2 4.3 5.3 4.3 9.5v26.3c0 4.2 1 9-4.3 9.5v.5h16.3v-.5c-1.6 0-3.6-.2-4.6-1.8-1-1.6-.5-4.1-.5-6V94.1c3.2.6 7-.6 9.6 2 4 4 2.5 9.6 4.6 14.3 3.4 7.5 17.2 11.8 22.7 4.3-2.6.8-4.8 2.9-7.7 2.5-6.8-.8-6.8-7.6-8.7-12.5a17 17 0 0 0-10.5-10.3c2.6-1.4 5.2-1.7 7.4-4 4.8-5.3 3.5-14.8-2.6-18.5-4.1-2.6-9.3-2.4-14-2.4h-8.6c-1.3 0-2.6-.7-3.4.5m-61.3.3c2.4.1 4.6.7 5 3.5.6 3.3.2 7.1.2 10.5v21c0 4.6.6 9-5.2 9.4 1.3 2 7 .6 9.2.6h12c1.4 0 3.6.4 4.8-.5 1.7-1.3 2.5-5 3-7-2.2.6-3.3 3.2-5.2 4.3-3.2 2-7 2-10.6 2V81.2c0-5.4-1-10.8 6-10.9v-.8h-14.3c-1.5 0-4-.6-4.9.8m-117.7 1.5c6.5-1 10.6 4 12 9.7a41 41 0 0 1-1 24.9c-1.6 4-4.5 7.8-9 8.5-6 1-9.7-3.9-11.2-9a41.7 41.7 0 0 1 .6-25.6c1.5-3.8 4.3-7.7 8.6-8.5m190.4 21.4V71.7c3.7 1 7.3.6 10.3 3.6 4.2 4.2 4.7 13-.8 16.5-2.8 1.7-6.3 1.4-9.5 1.4M345 85c2 0 3.8 0 4.7 2 .9 1.9.5 4.3.5 6.3v13.2c0 2 .4 4.7-.6 6.6-1 1.7-2.8 1.8-4.6 2 1 1.4 3.4.8 5 .8h14.5v-.8c-1.8 0-4.3-.2-5.5-1.8-1-1.5-.8-4.4-.8-6.2V93c0-2-.4-4.6.8-6.3 1.4-2 3.5-1.5 5.5-2V84c-4.5-1.4-10.2.2-14.9-.3-1.4-.1-4-.6-4.6 1.1m-227.6 4.8c-5.5 1.2-3 8.6 2.3 7.4 5.3-1.2 2.7-8.6-2.3-7.4m-86.8 79.1 5.5-1.4c-1.6 5-2.8 12-8.6 13.2.8 1.2 2.1.6 3.4.5 2.4 0 4.5.8 7 0v-.3l-3.5-1.7.4-3.4 3-8.3c6 2 12.4 6.3 18 1.1 1.4 3.5 5.7 10.5 1.2 12.3v.6c2.6.8 5.6-.3 8.3-.3 7.4.2 14.9 0 22.3 0 2.8 0 8.1 1 10.6-.3 1.9-1 3-5.4 3.2-7.4-1.5.8-2.2 2.3-3.5 3.3-2.2 2-8.4 4.4-11.4 3-1.9-.8-.9-7.6-.9-9.4v-21c0-3.2-.6-7.1.2-10.3 1-3.5 4.7-1.5 6.1-3.7-4.5-.8-9.9 0-14.6 0-1.5 0-4-1-4.6.9 5.4 0 5 4.1 5 8.3v25.2c0 3 1.2 9.4-2.7 10.4-5.5 1.3-7.8-3-9.5-7.3-3.7-9.5-7-19.3-10.7-28.9l-3-8.3c-.3-.9-.5-2.5-1.7-2.7-2.4-.2-3.9 6.7-4.5 8.4-1.7 5.2-3.7 10.4-5.7 15.5-.7 2-1.2 4.8-2.4 6.5-1.7 2.3-5.1 2.9-6.9 5.5m72.5 0 5.4-1.4-4.1 10.6-4.5 3.4h10v-.8c-6.5-.9-.9-9.2 0-13.2 4.9 1.4 9.7 5 15 3.3 1.3-.5 2.3-1.4 3.4-2.2l2.6 7.5.8 3.1-2.3 2.6 17.8-.6 10.6-.3c-1.4-1-4.2-.1-5.2-1.8s1.4-6.6 2-8.5c2.1-7.5 6-16 6.6-23.7 3.2 3 5 8.5 7.3 12.3.7 1.2 1.7 4 3 4.5 1.5.6 2.6-2.7 3.1-3.7 2.4-4.7 5.1-9.4 7.2-14.3 3.3 7.4 4.8 15.8 7.1 23.5.7 2.3 2.9 6.7 2.3 9-.4 1.9-3 2.1-4.5 2.2.9 1.3 2.9.8 4.3.8h12v.9h10.3c-.8-1.3-2.9-.8-3.5-2.3-.9-2.3 1.8-6.7 2.5-8.9.3-.8.5-2.3 1.6-2.4 1.8-.1 3.9 1.5 5.4 2 4.3 1.7 8.6 1.9 12-1.3 1.2 3.5 5.9 10.6 1.2 12.3v.6c2.2.6 4.4-.1 6.6-.3 2-.1 4 .3 6 .3 1.6 0 3.1.3 4-1.2 4.1 1.2 10.3 0 14.6 0-1.3-1.8-4.1-.7-5.4-3.1-1.3-2.7-.6-7-.6-10v-22.4c2.8 2.5 5.1 5.8 7.5 8.6l13.4 16c2.7 3.3 5.8 9.2 9.8 10.9 2 .8 4.7.3 6.8.3-.6-1.8-2.1-3-2.5-4.8-.8-3.2-.3-6.8-.3-10v-18.4c0-5.3-1.2-11.7 6-11.7-.6-1.7-2.3-1-3.7-.9-3.8.2-7.5 0-11.2 0 1.2 2 4.1.7 5.3 3.2 1.3 2.6.4 7.4.4 10.3 0 7.7.3 15.4.3 23.2-10-11-18.4-23.5-28.3-34.7-.6-.6-1.2-1.3-2-1.6-1.3-.3-2.6.1-3.8.2-2.1 0-5.8-1.5-7.1.9 2.4.5 5.5 2.3 6.4 4.8.8 2.3.2 5.9.2 8.3v18.4c0 2.8.6 6.8-.7 9.4-1 2-4.8 2.8-6.8 3-4.7.5-6.3-7-7.5-10.2-3.5-9.2-6.8-18.5-10.2-27.7l-2.5-7c-.2-.6-.5-1.9-1.3-2.2-2.4-.8-4.1 6.5-4.6 8L216 156c-.8 2.5-1.5 5.9-3 8-1.5 2.2-5 3-6.8 5.5l5.4-1.4c-1.1 3.4-2.2 8.7-4.7 11.4-2 2-6.2.6-7.7-1.4-2.5-3.4-3.1-9.5-4.3-13.5-2.9-10.1-5.6-20.3-8.8-30.3h-.5L175 154.5l-12-20.3h-.6c-4.2 12.6-7 25.6-11 38.3-.6 2-1 4.7-2.3 6.3-1.8 2-6.3 1.7-8.1 0-2.8-2.7-3.8-7.6-5-11.1l-8.8-23.8a239 239 0 0 1-3.1-8.6c-.3-.9-.6-2.5-1.8-2.4-2.4.2-3.8 6.8-4.4 8.7-1.5 4.5-3.4 9-5 13.5-.8 2.5-1.5 5.7-3 8-1.6 2.4-5.2 2.9-6.8 5.7m-93.6-2.6c-2.2-.5-4.2-1.1-6.3 0-3.9 1.8-3.9 7.7-2 11 4.6 7.4 19.1 7.2 24.9 1.6 4-4 4.5-11.1 2.7-16.3-3-8-11.5-8.2-17.6-12.4a7.4 7.4 0 0 1-2-10.2c2.5-3.8 8-5.6 11.2-1.7 2.1 2.5 2.3 5.2 2.2 8.3 6.9-.6 5.4-8 .6-10.4-9.5-5-26.4 2.7-21 15 3.7 8 14.1 7 19.5 13.1 2.7 3.1 4.5 8.2 2.3 12-3.1 5.4-14.4 8.4-17.4 1.2-1.9-4.5.8-7.6 2.9-11.2m325.2 6.3c-2.3-.5-3.8 3-5.4 4.4-3.3 2.7-7 4-11.2 3-12.7-3-12.4-21.4-10.2-31.4 1-4.4 3.3-9 7.7-11 3.5-1.5 7.5-1.5 10.8.5 4.5 2.7 5.6 7.7 1.2 11 1.1 5.6 8.8 3.8 8.5-1.7-.3-8.4-10.7-13.3-18.3-12.8-9.2.6-16.5 7.3-19 16-2.7 9.5-.7 20.5 7 27.1 8.8 7.5 24.2 6.2 29-5m-287.5-29c2.5 7.9 7 16.2 8.3 24.4-6 .6-10.3-4.6-16.4-4.6l3-8.3 4.5-11.5h.6m72.1 0 4.4 12L128 168c-6 .6-10.4-4.6-16.6-4.6l5.1-13.5 3-6.3m103.3.6c2 6.2 4.2 12.5 6.5 18.6.4 1 2.5 5.2 1.1 5.9-2.3 1.1-5.8-1.6-7.6-2.7-2.4-1.5-5.3-2-8-1.8l2.2-6.3 5.2-13.7z"/></svg>