<svg xmlns="http://www.w3.org/2000/svg" viewBox="0 0 300 66"><g fill="#6aaf42"><path id="path1" d="M36.883 65.62c-.737 0-2.698 0-8.807-4.127-3.91-2.643-8.08-6.044-11.763-9.586C8.87 44.737 0 33.764 0 22.195c0-5.524 2.199-10.994 6.044-15.013C10.236 2.795 16.118.38 22.606.38c3.141 0 6.304.758 9.142 2.188l.195.108a3.475 3.475 0 0 1 1.928 3.12 3.504 3.504 0 0 1-5.166 3.076l-.195-.108-.011.01a13.387 13.387 0 0 0-5.904-1.397c-10.138 0-15.608 7.637-15.608 14.818 0 6.878 4.755 15.37 13.377 23.906 7.333 7.247 14.341 11.547 16.421 12.403l.087.032.076-.032c2.068-.845 9.088-5.145 16.41-12.403 8.633-8.535 13.388-17.028 13.388-23.906 0-5.232-2.556-8.687-4.69-10.67-2.708-2.501-5.958-3.78-7.962-3.931a18.466 18.466 0 0 0-1.321-.054c-6.716 0-10.637 4.246-12.002 12.987l-.032.217.216.032c.499.076 1.127.184 1.69.444 1.982.91 3.38 2.806 3.477 4.734.076 1.408-1.939 15.056-2.589 19.205-.173 1.061-1.029 1.44-1.711 1.44-.552 0-1.083-.227-1.408-.606-.293-.347-.401-.79-.325-1.3.162-.997 1.993-13.995 2.004-14.07a1.793 1.793 0 0 0-1.538-2.015c-.087-.011-.163-.011-.239-.011-.899 0-1.657.671-1.776 1.549-.011.097-1.062 9.012-1.755 14.103-.14 1.061-.964 1.44-1.679 1.44-.552 0-1.094-.227-1.419-.606-.303-.347-.422-.802-.346-1.31.693-5.092 1.733-14.017 1.743-14.104a1.749 1.749 0 0 0-.346-1.321 1.81 1.81 0 0 0-1.18-.694c-.087-.01-.163-.01-.25-.01-.888 0-1.657.671-1.776 1.549-.011.13-1.387 13.139-1.506 14.135-.12 1.073-.92 1.44-1.636 1.44-.552 0-1.094-.227-1.43-.606-.314-.346-.444-.801-.379-1.321 0-.054.076-.672.174-1.647.422-3.986 1.722-16.096 1.798-16.475.487-2.22 1.993-3.986 3.834-4.484a8 8 0 0 1 2.113-.26h.27l.206.01.022-.205c.249-2.99.79-6.879 2.697-10.388 3.141-5.784 8.373-8.85 15.132-8.85.596 0 1.213.022 1.83.076 3.998.303 8.666 2.513 12.187 5.773 3.163 2.925 6.932 8.038 6.932 15.804 0 11.58-8.871 22.552-16.313 29.712-3.672 3.542-7.853 6.943-11.763 9.586-6.12 4.127-8.08 4.127-8.817 4.127z"/><path id="path2" d="M276.18 10.573h-5.285l-8.146 19.15h5.319l1.473-3.596h7.669l1.148 2.74c.227.499.726.856 1.31.856h4.647zM271.22 22l2.112-5.167L275.487 22z"/><path id="path3" d="M188.594 23.463a4.887 4.887 0 0 1-3.683 1.657c-2.73 0-4.94-2.232-4.94-4.983 0-2.751 2.21-4.972 4.94-4.972 1.462 0 2.773.64 3.683 1.658l3.51-3.542c-1.81-1.918-4.355-3.12-7.193-3.12-5.47 0-9.9 4.474-9.9 9.987s4.43 9.987 9.9 9.987c2.838 0 5.384-1.202 7.193-3.13z"/><path id="path4" d="M228.52 23.463a4.922 4.922 0 0 1-3.682 1.657c-2.73 0-4.929-2.232-4.929-4.983 0-2.751 2.21-4.972 4.929-4.972 1.462 0 2.772.64 3.682 1.658l3.52-3.542a9.87 9.87 0 0 0-7.192-3.12c-5.47 0-9.91 4.474-9.91 9.987s4.43 9.987 9.91 9.987c2.838 0 5.384-1.202 7.193-3.13z"/><path id="path5" d="M202.892 10.161c-5.47 0-9.89 4.463-9.89 9.976 0 5.514 4.43 9.976 9.89 9.976 5.46 0 9.89-4.462 9.89-9.976.01-5.513-4.42-9.976-9.89-9.976zm0 14.818c-2.654 0-4.81-2.166-4.81-4.853 0-2.675 2.156-4.852 4.81-4.852 2.654 0 4.81 2.177 4.81 4.852 0 2.687-2.145 4.853-4.81 4.853z"/><path id="path6" d="M234.662 10.573v17.699c0 .801.65 1.451 1.44 1.451h3.943v-19.15z"/><path id="path7" d="M255.925 10.573v10.203l-7.907-9.63a1.441 1.441 0 0 0-1.148-.573h-3.748v19.15h5.264V19.52l8.384 10.203h4.42v-19.15z"/></g><g fill="#366842"><path id="path8" d="M90.966 10.378V20.58l-7.907-9.63a1.426 1.426 0 0 0-1.148-.573h-3.748v19.15h5.264V19.325l8.384 10.203h4.42v-19.15Z"/><path id="path9" d="m151.722 10.378-5.264 12.478-4.81-11.634a1.438 1.438 0 0 0-1.31-.844h-4.842l8.113 19.15h5.297l8.135-19.15z"/><path id="path10" d="M165.533 10.378h-5.297l-8.135 19.15h5.319l1.473-3.585h7.669l1.148 2.74c.228.499.726.845 1.31.845h4.648zm-4.961 11.438 2.112-5.167 2.145 5.167z"/><path id="path11" d="M116.562 10.378h-5.254v10.94c0 2.047-1.646 3.704-3.682 3.704-2.037 0-3.683-1.657-3.683-3.704l-.011-9.489a1.44 1.44 0 0 0-1.43-1.451H98.69v10.94c0 4.972 3.997 8.6 8.937 8.6 4.928 0 8.925-3.628 8.925-8.6.011-.011.011-10.94.011-10.94z"/><path id="path12" d="M124.448 25.347V21.85h7.073v-4.052h-7.073V14.57h8.817v-4.182h-14.136v17.71c0 .802.65 1.441 1.44 1.441h13.053v-4.18h-9.174z"/><path id="path13" d="M233.254 36.677h-5.286l-8.146 19.151h5.319l1.473-3.585h7.669l1.137 2.74c.228.499.726.845 1.31.845h4.648zm-4.961 11.439 2.112-5.156 2.156 5.156z"/><path id="path14" d="M291.876 36.677h-5.286l-8.145 19.151h5.318l1.473-3.585h7.67l1.136 2.74c.228.499.726.845 1.311.845H300Zm-4.96 11.439 2.111-5.156 2.145 5.156z"/><path id="path15" d="M137.814 36.677v17.71c0 .802.64 1.452 1.44 1.452h3.933V36.677Z"/><path id="path16" d="M254.961 36.677v10.204l-7.907-9.63a1.426 1.426 0 0 0-1.148-.574h-3.748v19.151h5.264V45.625l8.395 10.203h4.42v-19.15Z"/><path id="path17" d="M107.961 51.647v-3.51h7.074v-4.05h-7.074v-3.228h8.818v-4.182h-14.136v17.71c0 .802.64 1.452 1.43 1.452h13.052v-4.181h-9.164z"/><path id="path18" d="M171.209 51.647v-3.51h7.073v-4.05h-7.073v-3.228h8.817v-4.182H165.89v17.71c0 .802.64 1.452 1.43 1.452h13.053v-4.181h-9.164z"/><path id="path19" d="M267.764 51.647v-3.51h7.074v-4.05h-7.074v-3.228h8.817v-4.182h-14.135v17.71c0 .802.65 1.452 1.44 1.452h13.053v-4.181h-9.175z"/><path id="path20" d="M100.195 36.677h-4.42l-6.51 11.06-6.26-10.377c-.26-.4-.704-.683-1.213-.683h-3.618v19.151h4.96V45.95l4.864 7.983h2.383l4.885-8.265.055 10.15h4.939z"/><path id="path21" d="M126.592 36.677h-6.033c-.79 0-1.44.65-1.44 1.452v17.71h7.462c5.243 0 9.5-4.29 9.5-9.575.01-5.297-4.235-9.587-9.489-9.587zm0 14.331h-2.719v-9.521h2.72c2.61 0 4.722 2.134 4.722 4.755 0 2.643-2.112 4.766-4.723 4.766z"/><path id="path22" d="M146.263 36.677v3.25c0 .802.65 1.451 1.44 1.451h4.398v14.45h5.373v-14.45h5.806v-4.7z"/><path id="path23" d="M195.97 49.806c2.362-1.149 3.716-3.228 3.716-6.045 0-4.376-3.26-7.084-8.438-7.084h-8.687v19.151h5.372v-5.09h2.936l3.011 4.44c0 .011.01.011.022.022l.01.022c.26.368.683.606 1.16.606h4.993zm-5.047-3.25h-2.99v-5.61h2.99c2.22 0 3.336 1.04 3.336 2.815 0 1.755-1.105 2.795-3.336 2.795z"/><path id="path24" d="M214.883 49.806c2.361-1.149 3.715-3.228 3.715-6.045 0-4.376-3.26-7.084-8.438-7.084h-8.687v19.151h5.373v-5.09h2.935l3.011 4.44c.011.011.011.011.011.022l.011.022c.26.368.682.606 1.17.606h4.993zm-5.048-3.25h-2.99v-5.61h2.99c2.22 0 3.337 1.04 3.337 2.815 0 1.755-1.116 2.795-3.337 2.795z"/></g></svg>