<svg xmlns="http://www.w3.org/2000/svg" viewBox="0 0 512 279"><path fill="#bf930a" d="M265.3 278.46c-.06-.27.74-3.1 1.82-6.32a875.4 875.4 0 0 0 3.22-9.58 38.6 38.6 0 0 1 1.55-4.13c.24-.27.9-.4 1.88-.33l1.51.1 1.35 3.86c.7 2.12 2.25 6.65 3.42 10.05 1.18 3.42 2.05 6.31 1.95 6.48-.27.44-2.42.3-2.72-.13-.13-.24-.67-1.62-1.17-3.1-.5-1.44-.98-2.68-1.05-2.78-.3-.27-6.68-.17-6.95.13-.17.13-.7 1.55-1.24 3.12-.98 2.83-.98 2.86-2.19 2.96-.77.07-1.24-.07-1.37-.33zm10.86-8.7c0-.2-.37-1.45-.81-2.76-.44-1.34-.97-3.1-1.2-3.9-.21-.8-.51-1.34-.65-1.17a79.3 79.3 0 0 0-2.72 7.96c0 .13 1.21.23 2.69.23 1.68 0 2.69-.13 2.69-.37zM296.89 278.66c-.14-.14-.24-4.67-.24-10.08 0-11.53-.4-10.55 4.4-10.55 3.76 0 5.44.47 6.89 1.91 2.35 2.36 1.71 6.96-1.18 8.5-.7.37-.74.47-.33.81.3.2.77.77 1.1 1.28.64.97 2.19 6.31 2.22 7.59 0 .7-.13.77-1.24.67-1.31-.1-1.41-.27-2.49-4.3-.97-3.76-1.58-4.37-4.46-4.37h-1.85l-.1 4.3-.1 4.27-1.18.1c-.67.07-1.31 0-1.44-.13zm8.56-12.13c.8-.77.94-1.18.94-2.62 0-2.56-.9-3.3-4.23-3.46l-2.49-.14v3.5c0 1.95.1 3.63.27 3.76.14.17 1.21.2 2.39.07 1.74-.14 2.35-.37 3.12-1.11zM328.8 278.62c-.13-.1-.23-4.2-.23-9.03v-8.84l-2.93-.1-2.95-.1V258.2l7.25-.1c6.22-.07 7.33 0 7.7.43.33.4.33.7.06 1.35-.37.8-.53.84-3.25.84h-2.86v8.53c0 4.7-.1 8.77-.2 9.07-.2.54-2.15.77-2.59.3zM351.58 278.42c-.1-.23-.13-4.87-.1-10.31l.1-9.91h11.09V260.55l-4.1.1-4.13.1v6.01h7.76l-.1 1.28-.1 1.24-3.77.1-3.8.1V276.18h4.17c3.9 0 4.2.03 4.4.67.1.37.1.98 0 1.35-.2.63-.5.67-5.74.67-4.14 0-5.58-.1-5.68-.44zM378.29 278.25c-1.31-.63-1.58-1.3-.9-2.21.43-.57.53-.57 2-.07 3.3 1.1 6.29.4 6.96-1.68.64-1.92-.17-3.43-2.32-4.4-4.57-1.98-6.18-3.3-6.55-5.31-.47-2.52.4-4.4 2.72-5.78 1.28-.74 1.88-.84 4.17-.84 3.16 0 4.33.54 4.1 1.88-.2 1.01-.84 1.31-1.98.88a7.6 7.6 0 0 0-2.36-.34c-2.45 0-3.8 1-3.83 2.89 0 1.41.94 2.32 4.14 3.8 3.19 1.5 4.43 2.68 4.87 4.63a5.75 5.75 0 0 1-3.5 6.65c-1.68.71-5.98.64-7.52-.1zM403.25 277.95c.17-.94 2.35-7.36 2.92-8.67.17-.37 1.01-2.79 1.85-5.34 2.02-6.11 1.92-5.91 3.66-5.91 1.58 0 1.51-.1 2.59 3.12l.64 1.75c.13.37.47 1.34.7 2.18.24.84.54 1.65.7 1.85.14.17.28.57.28.9 0 .34.13.88.33 1.22.47.87 3.03 8.63 3.03 9.27 0 .4-.34.54-1.35.54-.74 0-1.34-.04-1.34-.07 0-.07-.5-1.51-1.1-3.22l-1.08-3.16h-3.53c-3.16 0-3.53.07-3.63.64-.07.33-.27.74-.44.94-.16.16-.3.57-.3.9 0 .34-.13.88-.27 1.21-.17.3-.5 1.04-.77 1.58-.4.8-.74 1.04-1.78 1.11-1.24.1-1.28.07-1.11-.84zm10.99-8.16c0-.17-.54-1.92-1.18-3.83a37.08 37.08 0 0 1-1.18-4.03c0-.3-.13-.54-.33-.54-.17 0-.34.27-.34.57 0 .54-.5 2.32-1.04 3.63a30.18 30.18 0 0 0-1.3 4.2c0 .2 1.17.33 2.68.33 1.54 0 2.69-.13 2.69-.33zM434.9 278.46c-.1-.24-.14-4.91-.1-10.35l.1-9.91 1.17-.1c.64-.04 1.35.03 1.55.16.67.5 9.2 14.25 9.2 14.89 0 .16.14.33.34.33s.37-2.92.4-7.62l.1-7.66h2.36V278.69l-1.25.1c-1.17.1-1.3 0-2.55-1.85-.7-1.07-1.92-2.92-2.65-4.13-.74-1.2-2.09-3.4-3.03-4.87-.9-1.48-1.88-3.2-2.15-3.8-.23-.57-.57-1.07-.7-1.07-.14 0-.3 3.53-.34 7.83l-.1 7.79-1.11.1c-.67.07-1.14-.07-1.24-.33zM484.51 268.46a10.1 10.1 0 1 1-20.18 0 10.1 10.1 0 0 1 20.18 0zM476.6 276.2c2.65-1.2 4-3.93 3.96-7.92-.03-4.27-1.74-7.06-4.83-7.9-2.7-.74-5.35.7-6.72 3.6-.91 1.94-1.11 6.28-.37 8.16 1.1 2.72 3.5 4.7 5.74 4.7.47 0 1.48-.3 2.22-.64zM499 278.32c-.9-.37-1.11-.67-1.11-1.44 0-1.35.4-1.52 2.18-.88 3.9 1.31 7.23-.06 7.23-2.99 0-1.07-1.15-2.45-2.62-3.09l-2.09-.9c-2.08-.95-3.63-2.29-4.16-3.6-.7-1.78-.67-2.39.17-4.2 1.07-2.28 2.92-3.26 6.21-3.26 2.39 0 4.5.5 4.5 1.11 0 .13-.17.64-.4 1.1-.3.71-.5.82-1.24.61-.47-.13-1.89-.23-3.1-.23-2.45 0-3.19.44-3.52 2.08-.37 1.85.27 2.62 3.46 4.13 4.43 2.09 5.47 3.33 5.47 6.39a5.35 5.35 0 0 1-3.22 5c-1.78.84-6.05.94-7.76.17zM138.75 243.92c-3.16-.44-5.81-1.71-8.9-4.17-4.34-3.5-7.5-4.57-13.27-4.57-3.53 0-3.7-.03-3.87-.74-.1-.43-.13-16.32-.06-35.37.06-29.87.16-34.77.6-35.78a98.4 98.4 0 0 1 1.71-3.7 42.47 42.47 0 0 0 2.93-8.13c.2-.9.57-2.32.77-3.19.67-2.59.57-13.47-.17-16.5-2.99-12.4-11.12-21.73-25.26-28.95a103.88 103.88 0 0 0-17.47-6.72c-2.09-.57-9.1-2.42-10.25-2.7a170.58 170.58 0 0 1-22.5-7.79c-10.22-4.56-16.77-8.93-22.85-15.25-3.4-3.5-4.77-5.37-6.69-9-2.96-5.61-4.06-10.48-4.06-17.84.03-14.92 5.5-26.98 15.85-34.84C33.3 2.57 45.32-.72 55.53.31c7.3.78 11.42 1.92 17.64 4.98 4.6 2.25 7.06 4 11.02 7.96 5.3 5.3 8.3 10.68 10.15 18.44.67 2.7.5 9.61-.27 12.6a34.7 34.7 0 0 1-.98 3.26c-.17.37-.64 1.41-1.04 2.35-2.62 5.88-8.63 11.5-14.78 13.84-3.63 1.38-5.07 1.62-9.91 1.58-4.37-.03-4.94-.1-7.9-1.1-3.39-1.15-7.9-3.47-9.57-4.88-1.21-1.04-.9-1.07 1.48-.23 4.23 1.58 7.42 2.11 12.3 2.15 4.02.03 5.03-.07 7.05-.74 8.06-2.62 13.5-9.37 14.98-18.61.64-3.87-.17-8.3-2.25-12.43-5.58-11.06-18.78-17.98-30.87-16.23-9.14 1.3-16.4 5.74-21.24 13-2.42 3.63-3.52 6.28-4.77 11.49-.47 2.02-.47 9.17 0 11.26 1.14 5.1 2.25 8 4.4 11.65 3.36 5.65 6.96 9.48 14.42 15.42 6.08 4.87 17.7 10.52 29.83 14.52 2.52.84 4.87 1.64 5.24 1.78.37.17 1.21.47 1.85.7 1.38.47 2.08.74 3.7 1.45.63.3 1.84.77 2.65 1.1 3.29 1.32 10.38 5.11 13.47 7.2 10.68 7.25 16.93 15.48 19.99 26.37 1.91 6.75 3.12 18.2 2.72 25.7-.1 2.12-.27 10.92-.4 19.59-.17 12.12-.1 15.82.2 16.19.54.67.74.5 1.68-1.41 2.25-4.47 4.84-7.33 8-8.77 1.98-.9 6-1.71 8.46-1.75 1.85 0 5.61.7 7.9 1.51 5.57 1.95 10.04 7.1 12.53 14.45.64 1.92.84 2.76 1.74 6.69.58 2.52.81 13.9.4 18-1.37 13.04-7.35 21.64-16.69 24-2.55.63-7.5.9-9.91.53zm4.5-6.38c6.28-3.16 9.24-11.56 9.24-26.04 0-11.76-1.98-19.55-6.01-23.69-2.29-2.31-4.07-3.02-7.63-3.02-3.12 0-4.54.37-6.55 1.61-3.3 2.05-5.81 6.69-6.96 12.67-1.1 5.88-1.44 25.3-.5 28.05 2.05 5.95 5 9.3 9.88 11.19.27.13 1.95.17 3.7.13 2.65-.06 3.45-.2 4.83-.9zM192.17 243.95c-5.58-.64-9.65-2.55-13.27-6.25-3.53-3.56-5.75-7.96-6.92-13.77-.81-3.9-1.25-11.7-.94-16.13.67-9.67 2.45-15.65 6.14-20.56 3.5-4.6 7.86-6.99 14.62-8.03 3.9-.57 5.5-.57 8.93 0 8.2 1.38 13.71 5.48 17.54 13 4.07 7.93 5.24 20.26 3.06 31.55-2.05 10.75-7.63 17.24-16.67 19.49-2.92.74-9.23 1.07-12.5.7zm8.1-3.09c3.32-1.07 5-2.52 6.65-5.81 2.21-4.3 2.95-8.94 3.25-20.36.47-16.46-1.54-25.8-6.55-30.34-2.01-1.84-3.42-2.28-6.92-2.32-4.87-.03-7.12 1.28-9.7 5.62-1.15 1.88-1.52 2.75-2.26 5.54-1.48 5.58-2.22 16.36-1.68 24.8.64 9.63 1.75 14.2 4.44 18.2a10.74 10.74 0 0 0 5.78 4.4c2.01.67 5.3.8 6.98.27zM312.27 244.05c-9.57-.94-17.23-5.34-22-12.6-6.05-9.2-7.63-22.94-3.97-34.9 1.55-5.07 4.7-9.74 8.5-12.67a19.67 19.67 0 0 1 7.26-3.73 26.87 26.87 0 0 1 12.36-1.04c8.57 1.38 14.58 5.07 17.4 10.62 1.52 3.02 1.55 2.89-2.68 7.05-3.8 3.77-3.8 3.77-5.14 3.56a5.51 5.51 0 0 1-3.93-2.18c-1.18-1.65-1.52-2.75-1.88-6.52-.17-1.88-.58-3.9-.84-4.46a12.05 12.05 0 0 0-4.14-4.3c-2.01-1.18-5.67-1.21-7.69-.1-4.64 2.58-7.16 8.16-8.2 18.2-.9 8.74.27 17.88 3.06 24.02.34.81.64 1.52.64 1.62 0 .06.57 1.04 1.24 2.08 2.92 4.57 7.73 8.43 12.36 9.91 4.3 1.38 10.59 1.68 14.28.74 2.69-.67 3.7-.44 3.7.87 0 1.55-1.95 2.59-6.42 3.33-2.08.37-11.82.7-13.9.5zM347.72 243.95c-8.27-1.2-14.45-7.46-14.45-14.61.03-7.4 4.9-13.24 13.6-16.26a66.9 66.9 0 0 1 19.56-3.43h2.89l-.2-8.63c-.1-4.77-.37-9.28-.57-10.02-1.42-5.24-2.26-6.75-4.57-8.1-1.21-.7-1.92-.87-3.83-.87-2.96-.03-4.87.88-6.69 3.06-1.75 2.15-2.01 3-2.38 6.92-.5 5.31-1.31 6.59-4.7 7.73-2.02.67-1.72.84-6.4-3.63-3.35-3.22-3.42-3.36-3.25-4.57.27-2.15 1.28-3.8 3.73-6.25 3.63-3.62 6.95-5.04 14.31-6.04 4.44-.64 6.15-.64 10.11-.04 7.43 1.11 11.22 3.6 13.95 9.1 2.25 4.54 2.21 4.3 2.38 26.31l.17 19.9h-4c-6.11.03-9.78 1.17-13.37 4.2-3.23 2.71-5.38 4.06-7.8 4.83-1.57.47-6.31.7-8.5.4zm23.48-18.43a12.49 12.49 0 1 0-24.98 0 12.49 12.49 0 0 0 24.98 0zM482.1 243.92c-5.85-.74-10.75-3.06-13.88-6.62-5.17-5.88-7.29-13.2-7.29-25.26 0-13.14 2.36-21.1 7.87-26.68 3.52-3.6 6.98-5.24 12.93-6.15 3.93-.57 5.54-.57 8.94.04 5.74 1 9.07 2.65 12.6 6.21 6.24 6.38 8.73 13.98 8.73 26.88 0 12.83-2.15 19.95-7.73 25.56-3.05 3.06-5.6 4.4-10.75 5.62-2.11.5-8.8.73-11.42.4zm8.1-3.06c2.28-.74 3.26-1.3 4.63-2.82 2.32-2.52 3.8-6.59 4.77-13.24.54-3.7.54-21.77 0-25.23-1.27-8.36-2.79-12.2-5.84-14.98-2.19-2.02-3.83-2.59-7.5-2.56-7.49 0-11.05 5.01-12.9 18.11-.43 3.2-.43 20.2.04 23.52 1.61 12.03 5.81 17.4 13.6 17.54 1.15.03 2.56-.14 3.2-.34zM238.36 241.94a8.74 8.74 0 0 1-3.22-3.56c-1.45-3.5-1.41-3-1.55-28.46l-.13-24.46h-4.67c-2.72 0-5-.17-5.51-.37-1.65-.77-1.18-3.42.64-3.6a21.2 21.2 0 0 0 6.71-1.64c6.05-2.89 9.51-10.58 10.08-22.44.1-2.22.27-4.54.37-5.14l.17-1.11 2.25.1 2.25.1.1 15.02.07 15.05 15.56.07 15.52.1.2 26.54c.2 28.96.1 27.75 2.15 30.34 1.17 1.44 3.26 2.38 5.98 2.68 1.51.17 2.08.37 2.08.74 0 .44-1.17.5-8.13.6-7.73.07-8.23.04-9.67-.63-1.89-.87-3.26-2.49-4.07-4.77-.57-1.61-.64-3.46-.8-24.09-.17-20.6-.24-22.48-.81-24.05a9.97 9.97 0 0 0-1.38-2.62l-.77-.88-8 .07-8.03.1v24.52c0 26.38-.03 25.94 1.75 28.33 1.18 1.54 2.28 2.01 6.21 2.48 2.66.34 3.47.57 3.47.94 0 .44-1.28.5-8.9.6-8.24.07-8.98.04-9.92-.56zM395.42 241.94a8.14 8.14 0 0 1-3.76-4.44c-.74-1.81-.77-1.88-.87-29.16-.07-20.4 0-27.45.3-27.78.5-.64 10.72-.68 11.32-.07.3.3.4 2.62.4 8.4 0 8.9.27 9.8 1.65 5.74 1.51-4.43 4.67-9.57 7.42-12.1a16.11 16.11 0 0 1 7-3.45c3.32-.67 6.68.3 8.56 2.48.8.95 1.91 3.1 1.91 3.67 0 .63-5.84 6.35-6.88 6.75-.68.27-1.15.1-2.59-.8-3.9-2.46-5.78-2.9-7.93-1.85-1.1.57-4.77 4.33-4.77 4.93 0 .17-.27.74-.6 1.21-.7 1.01-1.68 3.36-2.15 5.11-1.42 5.4-1.38 5-1.58 23.68l-.2 18.15-3.03.06c-2.42.07-3.26-.03-4.2-.53z M446.82 241.77a9.4 9.4 0 0 1-4.1-4.84c-.3-.9-.43-7.26-.6-24.26-.17-21.3-.2-23.14-.8-24.69-1.28-3.53-2.96-4.74-7.26-5.34-2.39-.34-2.52-.4-2.62-1.28-.1-.74.06-.94.67-1.1.44-.1 5.54-.14 11.35-.1l10.59.1.2 26.37c.1 16.4.3 26.87.54 27.71 1.27 4.9 2.85 6.25 8.16 6.86 1.38.13 1.88.33 1.95.8.1.54-.47.57-8.23.57-8.03-.03-8.4-.03-9.85-.8zM278.92 158.4a7.38 7.38 0 1 1-14.76 0 7.38 7.38 0 0 1 14.76 0zM455.63 158.41a7.34 7.34 0 1 1-14.67 0 7.34 7.34 0 0 1 14.67 0zm-8.8 7.16"/><path fill="#752936" d="M52.24 243.92c-18-2.05-28.46-15.09-28.02-34.97l.07-3.6-1.31-1.1c-3.93-3.3-8.43-8.74-9.95-12.07-1.95-4.23-2.38-6.38-2.21-10.99.2-5.24 1.17-8.2 4.16-12.93 2.82-4.4 7.8-9.7 12.87-13.64 6.95-5.37 11.59-9.8 14.71-14 1.99-2.63 4.1-6.6 4.77-8.91l.74-2.49c.17-.54.3-2.35.3-4.06 0-8.67-5.8-16.23-14.94-19.35-1.78-.6-9.58-.64-11.43-.04a18.9 18.9 0 0 0-8.23 5.08c-7.9 7.96-7.59 19.31.64 24.15 5.68 3.33 11.05 2.65 16.7-2.15 1.2-1.04 2.28-1.78 2.38-1.68.1.1-.16 1-.57 2.05-1.2 2.96-4.47 5.61-8.56 6.95-.81.27-2.93.4-5.38.4-3.56-.03-4.3-.13-6.38-.93a18.2 18.2 0 0 1-7.3-4.8 17.63 17.63 0 0 1-4.26-7.16l-.74-2.49c-.47-1.51-.37-7.02.17-9 1.28-4.84 2.82-7.56 6.38-11.32 5.2-5.45 13.27-8.77 21.27-8.77 4.43 0 7.9.8 12.63 2.99 13.37 6.11 17.94 20.09 11.22 34.3-2.72 5.78-9.54 13.6-15.82 18.14-7.76 5.68-10.01 7.42-12.84 10.25-4.1 4.1-6.11 7.05-7.72 11.55-.64 1.78-.81 2.9-.81 5.61 0 5.18 1.51 9.07 5.17 13.4 2.02 2.4 5.01 5.22 5.48 5.22.2 0 .6-.78.94-1.75a22.15 22.15 0 0 1 5.95-9.74 19.03 19.03 0 0 1 7.59-4.9c4.2-1.65 6.08-1.92 12.33-1.89 6.05 0 8.3.44 12.26 2.25 3.93 1.82 7.8 5.3 9.61 8.64 2.82 5.2 2.42 9.74-1.07 12.19-2.42 1.68-4.34 1.88-18.58 1.92-12.57 0-12.9.03-14.18.73-1.92 1.08-2.65 2.9-2.65 6.49 0 1.61.16 3.6.37 4.47a66.59 66.59 0 0 0 1.37 5.6c2.35 7.06 6.72 12.64 12.06 15.46 2.83 1.48 4.6 2.02 8.64 2.55 3.66.5 8.46.07 12.3-1.1 2.41-.78 3.29-.64 3.49.53.27 1.28-1.45 2.25-6.15 3.46-1.48.4-3.53.88-4.54 1.08-2.55.47-10.1.7-12.93.37zm9.7-44.48c2.4-1.21 3.03-3.26 2.1-6.76-.95-3.56-3.03-6.75-5.62-8.6-2.85-2.01-7.73-2.58-11.19-1.27-3.22 1.2-6.11 4.5-7.52 8.53-1.11 3.26-1.98 8.23-1.51 8.7.13.14 5.24.17 11.35.14 10.15-.1 11.19-.17 12.4-.74zM91.55 242.1a7.92 7.92 0 0 1-3.66-3.32C86 234.55 86 234.55 86 196.25c0-35.55-.03-36.15-1.24-38.9-.8-1.89-3.56-3.47-5.98-3.47-2.79 0-3.9-.7-3.2-2.05.35-.6.85-.64 11.43-.64H98.1l.03 40.08c0 42.5.04 43.14 1.58 46.16 1 1.95 2.96 3.03 6.38 3.53 2.32.3 2.76.47 2.76 1.01 0 .57-.44.6-8.13.6-5.98-.03-8.43-.13-9.17-.47z"/></svg>