<svg xmlns="http://www.w3.org/2000/svg" viewBox="0 0 300 300"><path d="M208.514 102.433l.014 25.671a.37.37 0 0 1-.37.37l-2.476-.043q-.313 0-.327-.327-.157-11.825.043-23.821c.043-2.661 2.177-6.275 4.895-5.763q2.291.427.356 1.722l-1.508 1.01q-.626.427-.626 1.181zm-142.286 17.46l-.014 7.855q0 .712-.712.712h-1.779q-.712 0-.712-.712v-23.465q0-.768.754-.925c5.92-1.295 15.881-.968 14.799 7.727q-.939 7.442-11.213 7.67-1.124.028-1.124 1.138zm-.028-13.746l.028 8.993a.84.84 0 0 0 .84.84l2.96-.014a4.938 5.45 89.8 0 0 5.436-4.952v-.797a4.938 5.45 89.8 0 0-5.464-4.924l-2.96.014a.84.84 0 0 0-.84.84zM90.49 120.96l-7.855.028a.655.655 0 0 0-.612.441l-2.32 6.603a.655.655 0 0 1-.626.427l-1.921-.029a.655.655 0 0 1-.612-.854l8.083-24.291a.655.655 0 0 1 .612-.441h2.874a.655.655 0 0 1 .612.441l8.125 24.319a.655.655 0 0 1-.626.854l-2.063-.014a.655.655 0 0 1-.612-.427l-2.448-6.631a.655.655 0 0 0-.612-.427zm-7.442-3.017a.427.441 8 0 0 .413.555h5.82q1.039 0 .74-.996l-3.173-10.359q-.285-.911-.555 0zm32.815 4.852l-.285-19.196q-.014-.783.768-.768l1.821.028q.712 0 .712.712l-.014 24.177q0 .726-.712.726l-1.893-.014q-.911 0-1.366-.797l-11.583-19.965q-.199-.356-.199.057l.157 19.965q0 .754-.74.74l-1.807-.014q-.712 0-.712-.697V103.97q0-.541.498-.783 2.561-1.281 3.643.484 5.834 9.534 11.384 19.211.342.598.327-.085zm19.908-1.836l-8.04.028a.569.569 0 0 0-.527.384l-2.362 6.731a.569.569 0 0 1-.555.384l-2.092-.043a.569.569 0 0 1-.541-.754l8.168-24.461a.569.569 0 0 1 .541-.384h2.974a.569.569 0 0 1 .541.384l8.154 24.476a.569.569 0 0 1-.541.74l-2.206.029a.569.569 0 0 1-.541-.384l-2.433-6.759a.569.569 0 0 0-.541-.37zm-7.627-2.846q-.114.384.285.384h6.389q.683 0 .484-.655l-3.244-10.701q-.285-.911-.555 0zm16.991-14.002a1.266 1.266 0 0 1 1.266-1.266l7.058-.028a11.484 11.939 89.8 0 1 11.982 11.455v2.561a11.484 11.939 89.8 0 1-11.896 11.512l-7.058.029a1.266 1.266 0 0 1-1.266-1.266zm3.259 1.85v19.239a.712.712 0 0 0 .712.712h3.686a9.463 9.207 0 0 0 9.463-9.207v-2.248a9.463 9.207 0 0 0-9.463-9.207h-3.686a.712.712 0 0 0-.712.712zm24.191 11.242v8.282a.484.484 0 0 0 .484.484l9.776.014a.484.484 0 0 1 .484.498l-.014 1.508a.484.484 0 0 1-.484.47h-12.964a.484.484 0 0 1-.484-.484v-24.661a.484.484 0 0 1 .484-.484l12.736.043a.484.484 0 0 1 .484.427l.171 1.466a.484.484 0 0 1-.484.541l-9.676.043a.484.484 0 0 0-.484.484l-.029 7.883a.484.484 0 0 0 .484.484l8.666.057a.484.484 0 0 1 .484.441l.128 1.466a.484.484 0 0 1-.484.527l-8.794.028a.484.484 0 0 0-.484.484zm24.86.185c3.003 2.206 3.529 6.774 4.411 10.061q.27 1.01-.768 1.01h-1.167q-1.11 0-1.38-1.081c-1.124-4.454-1.594-10.829-8.367-9.079q-.498.128-.498.64l-.014 8.823q-.014.712-.726.697l-1.779-.014q-.697 0-.697-.712v-23.75q0-.555.527-.655 3.173-.626 6.19-.655c8.253-.057 11.683 9.947 4.326 13.874q-.712.37-.057.84zm-7.784-11.469l.029 9.164a.569.569 0 0 0 .569.555h2.86a4.838 5.109 89.9 0 0 5.094-4.852v-.626a4.838 5.109 89.9 0 0-5.123-4.824h-2.86a.569.569 0 0 0-.569.583zm35.689 15.041l-7.912.028a.655.655 0 0 0-.612.441l-2.334 6.617a.655.655 0 0 1-.626.441l-1.907-.029a.655.655 0 0 1-.612-.868l8.111-24.305a.655.655 0 0 1 .612-.441h2.846a.655.655 0 0 1 .612.441l8.111 24.305a.655.655 0 0 1-.612.854l-2.006.029a.655.655 0 0 1-.626-.427l-2.433-6.66a.655.655 0 0 0-.612-.427zm-4.198-13.817l-3.259 10.644q-.213.712.541.712h6.019q.683 0 .484-.655l-3.23-10.701q-.27-.925-.555 0zM48.881 177.881l-7.215.029a1.081 1.081 0 0 0-1.025.726l-2.149 6.162a.854.854 0 0 1-.825.583l-1.978-.029q-.726-.014-.498-.712 4.141-12.181 8.182-24.533.498-1.537 3.216-4.041.768-.697 1.793-.598l1.423.142q1.21.114.256.854l-2.633 2.049q-.455.356-.27.911l8.481 25.273q.228.683-.484.683h-2.021q-.726 0-.968-.683l-2.163-6.034a1.195 1.195 0 0 0-1.124-.783zm-7.101-3.017a.427.427 0 0 0 .413.555h5.991q.854 0 .612-.811l-3.216-10.559q-.285-.911-.555.014zm216.169-15.511l.029 25.685q0 .37-.384.37l-2.448-.071q-.37-.014-.37-.384-.043-11.669 0-23.408c0-2.832 1.935-6.304 4.824-6.105q2.818.185.47 1.75l-1.48.982q-.64.413-.64 1.181zm-234.668 7.869c2.448 5.479 11.868 2.818 10.943 11.711-.74 7.101-8.68 7.485-13.732 5.521q-1.195-.455-.854-1.693l.185-.655a.811.825 22.4 0 1 1.181-.498c3.558 1.95 10.502 2.135 10.459-3.216-.014-3.202-3.7-4.169-5.977-5.265-11.896-5.763-2.718-16.478 7.115-12.522q1.224.498.712 1.708l-.157.398a.84.854 25.8 0 1-1.181.427c-3.159-1.693-10.829-.697-8.695 4.084zm39.574-2.504l.228 20.278q0 .384-.398.384l-2.533-.029a.342.342 0 0 1-.342-.342v-24.22q0-.655.626-.854 2.561-.811 3.486.669 6.105 9.591 11.171 18.912.541 1.01.527-.128l-.228-19.225q0-.398.398-.398l2.533.029a.342.342 0 0 1 .342.342v24.22q0 .697-.669.911-2.405.712-3.458-1.067-5.792-9.748-11.427-19.552-.256-.441-.256.071zm36.059-1.693c-18.542-6.688-19.353 25.5-.157 19.111q.925-.299 1.181.64l.1.384q.313 1.195-.868 1.523c-24.476 7.001-22.54-31.306 0-24.191q1.11.342.854 1.494l-.1.484a.768.768 0 0 1-1.01.555zm8.239 11.64l-.043 10.089a.655.655 0 0 1-.669.655l-1.878-.029a.655.655 0 0 1-.64-.655v-24.405a.655.655 0 0 1 .669-.655l1.864.057a.655.655 0 0 1 .64.655l.043 10.103a.655.655 0 0 0 .655.655l10.061.014a.655.655 0 0 0 .655-.655V160.42a.655.655 0 0 1 .655-.655h1.907a.655.655 0 0 1 .655.655v24.305a.655.655 0 0 1-.655.655h-1.893a.655.655 0 0 1-.655-.655l-.028-10.075a.655.655 0 0 0-.655-.655l-10.032.014a.655.655 0 0 0-.655.655zm22.74-.569v8.325a.455.455 0 0 0 .455.455l10.061.057a.455.455 0 0 1 .455.498l-.171 1.551a.455.455 0 0 1-.455.398h-13.092a.455.455 0 0 1-.455-.455V160.15a.455.455 0 0 1 .47-.455l13.134.213a.455.455 0 0 1 .441.441l.071 1.295a.455.455 0 0 1-.455.484l-10.018.171a.455.455 0 0 0-.441.455v7.926a.455.455 0 0 0 .455.455l8.823.043a.455.455 0 0 1 .455.427l.071 1.537a.455.455 0 0 1-.455.484l-8.894.014a.455.455 0 0 0-.455.455zm16.735 8.808l12.238-.014q.882 0 .896.868l.029.896q.014.726-.712.726h-16.578a1.067 1.067 0 0 1-.897-1.636l13.447-20.89q.384-.598-.327-.598l-11.327-.043a1.195 1.21 86.6 0 1-1.195-1.053l-.057-.527a.768.754 87.1 0 1 .754-.84l15.397-.043a1.338 1.338 0 0 1 1.124 2.063l-13.163 20.392q-.455.697.37.697zm39.133-7.827l-3.785-.071a.64.64 0 0 1-.626-.569l-.071-.64q-.128-1.238 1.11-1.224l6.56.014q.712 0 .712.697v10.018q0 .712-.669.911c-26.681 8.253-25.828-29.755-.882-23.622a.911.911 0 0 1 .655 1.153l-.142.441q-.356 1.167-1.523.825c-17.46-5.08-21.032 21.715-1.836 19.766q1.181-.114 1.181-1.309l.014-5.678a.697.712 0 0 0-.697-.712zm19.666 2.818l-7.883.014a.655.655 0 0 0-.612.427l-2.376 6.617a.655.655 0 0 1-.626.441l-1.907-.014a.655.655 0 0 1-.612-.868l8.125-24.305a.655.655 0 0 1 .612-.441h2.846a.655.655 0 0 1 .612.441l8.111 24.305a.655.655 0 0 1-.612.868l-2.021.014a.655.655 0 0 1-.612-.427l-2.433-6.645a.655.655 0 0 0-.612-.427zm-4.198-13.832l-3.259 10.644q-.213.712.541.712h6.034q.669 0 .47-.655l-3.23-10.701q-.27-.925-.555 0zm24.661 10.231c2.96 2.462 3.643 6.645 4.426 10.189q.199.911-.726.897h-1.551q-.783-.014-.982-.768l-1.565-6.247q-.712-2.832-3.614-3.23l-1.053-.142q-2.704-.384-2.704 2.348v7.328q0 .726-.712.712l-1.793-.014q-.697 0-.697-.712v-23.75q0-.555.541-.669c5.479-1.01 13.504-1.281 14.444 5.891q.655 4.966-3.928 7.357-.64.342-.085.811zm-7.798-11.427l.057 9.107a.598.598 0 0 0 .598.583l2.889-.014a4.824 5.08 89.7 0 0 5.052-4.852v-.655a4.824 5.08 89.7 0 0-5.109-4.796l-2.889.014a.598.598 0 0 0-.598.612zm31.733.228c-18.229-7.129-20.022 25.699.285 18.926q.484-.171.555.342l.242 1.622q.057.413-.342.527c-25.23 7.528-23.11-31.178-.555-24.02q1.11.356.882 1.494l-.114.583a.712.712 0 0 1-.953.527zm24.234 14.785l-7.855.029a.655.655 0 0 0-.612.441l-2.334 6.589a.655.655 0 0 1-.626.441h-1.907a.655.655 0 0 1-.626-.868l8.097-24.305a.655.655 0 0 1 .612-.441h2.874a.655.655 0 0 1 .612.441l8.111 24.319a.655.655 0 0 1-.626.868l-2.063-.014a.655.655 0 0 1-.612-.427l-2.433-6.645a.655.655 0 0 0-.612-.427zm-7.442-3.017a.427.427 0 0 0 .413.555h5.991q.854 0 .612-.811l-3.216-10.559q-.285-.925-.555.014z"/></svg>