<svg xmlns="http://www.w3.org/2000/svg" viewBox="0 0 308 44"><path d="M306.424 36.193c-.132-1.313-.349-3.35-.497-4.778-.136.162-.218.248-.289.344-2.672 3.805-7.722 5.41-11.84 3.763-2.559-1.022-4.291-3.577-4.328-6.389-.056-4.074 1.992-7.035 5.958-8.62 2.257-.903 4.609-1.338 7.016-1.463 1.108-.058 2.223-.01 3.401-.01-.012-2.525-.103-4.848-1.346-6.919-1.102-1.836-2.821-2.641-4.855-2.822-2.66-.233-5.095.453-7.322 1.942-.068.045-.146.084-.22.125-.05-.037-.105-.061-.126-.101-.733-1.439-.89-1.081.488-1.847 2.633-1.466 5.452-2.03 8.441-1.507 3.309.577 5.315 2.628 6.13 5.858.339 1.337.509 2.751.531 4.133.072 4.559.019 9.122.062 13.679.012 1.286.268 3.292.373 4.612h-1.577Zm-.613-15.168c.004-.339-.108-.467-.448-.451-1.06.052-2.127.044-3.184.122-2.218.165-4.391.548-6.443 1.473-2.718 1.229-4.824 3.431-4.421 7.443.233 2.306 1.658 4.172 3.813 4.885 1.156.383 2.323.356 3.51.206 3.321-.417 6.337-3.126 6.984-6.48.255-1.309.18-2.685.256-4.032l-.067-3.166ZM278.88 10.517v18.182c0 1.584.207 3.119 1.118 4.464.662.976 1.608 1.513 2.745 1.513.932.002 1.871-.158 2.792-.333.382-.075.538-.027.619.345.057.268.145.531.262.938-.884.18-1.726.421-2.582.51-1.494.157-2.962.023-4.251-.878-1.407-.985-1.981-2.476-2.229-4.113a18.547 18.547 0 0 1-.212-2.673c-.018-5.936-.007-11.874-.007-17.811v-.702h-4.603V8.366h4.603c0-1.366.056-5.229-.023-6.519-.049-.815.168-1.293.946-1.494.258-.068.497-.208.819-.35v8.343h7.808v1.555h-7.771c-.012.249-.034.433-.034.616Zm-15.725 10.145c1.283.704 2.628 1.316 3.814 2.158 4.035 2.864 3.732 10.021-1.281 12.341-3.743 1.735-7.414 1.295-10.926-.808-.041-.024-.066-.077-.129-.152.261-.46.53-.922.753-1.309 1.222.496 2.368 1.043 3.569 1.431 2.343.755 4.596.46 6.628-.981 3.092-2.191 3.15-6.651.159-9.125-1.135-.937-2.44-1.56-3.779-2.114-1.422-.592-2.769-1.303-3.995-2.261-4.131-3.234-2.84-9.31 1.339-11.249 3.188-1.478 6.31-1.119 9.276.761.056.037.111.083.161.131.023.021.031.06.071.136-.192.299-.395.621-.603.938-.075.112-.167.215-.272.349-1.062-.738-2.178-1.313-3.427-1.547-2.297-.427-4.412-.062-6.026 1.8-1.964 2.27-1.628 5.609.792 7.356 1.192.862 2.583 1.433 3.876 2.145Zm-22.53 15.447c-5.861.688-10.887-2.778-12.619-8.571-.518-1.737-.778-3.51-.753-4.933-.004-3.687.644-6.81 2.522-9.541 2.676-3.889 6.388-5.639 11.031-5.274 5.232.413 9.107 3.947 10.428 9.32.985 3.995.852 7.971-.854 11.757-1.909 4.238-5.203 6.708-9.755 7.242Zm8.785-18.516c-.645-2.588-1.871-4.865-4.014-6.492-4.439-3.379-10.802-2.237-13.955 2.515-1.993 3.007-2.651 6.377-2.308 9.954.32 3.36 1.599 6.278 4.039 8.605 1.595 1.522 3.482 2.446 5.672 2.546 3.475.154 6.26-1.302 8.395-4.057 1.97-2.547 2.73-5.523 2.764-8.726.044-.007.09-.012.136-.017-.237-1.445-.375-2.915-.729-4.328Zm-26.191-6.818c-3.704-2.018-7.481-2.173-11.252-.29-2.911 1.451-4.685 3.957-5.593 7.082-1.162 3.996-.967 7.932 1.054 11.613 1.954 3.557 5.036 5.347 9.01 5.518 2.346.101 4.551-.473 6.658-1.5.184-.089.369-.164.583-.261l.739 1.384c-1.061.4-2.048.842-3.076 1.149-2.689.806-5.421 1.003-8.172.299-3.441-.882-6.066-2.924-7.606-6.177-2.408-5.08-2.352-10.241.289-15.205 2.144-4.036 5.667-6.114 10.114-6.579 2.468-.257 4.849.118 7.143 1.079.316.132.611.318.906.492.146.084.273.203.452.339-.26.438-.506.85-.769 1.296-.183-.09-.335-.159-.48-.239Zm-24.263 20.64c-.136.162-.222.248-.289.344-2.674 3.805-7.721 5.41-11.842 3.763-2.556-1.022-4.29-3.577-4.327-6.389-.055-4.074 1.991-7.035 5.956-8.62 2.259-.903 4.61-1.338 7.019-1.463 1.108-.058 2.222-.01 3.4-.01-.015-2.525-.103-4.848-1.345-6.919-1.104-1.836-2.82-2.641-4.856-2.822-2.658-.233-5.093.453-7.32 1.942-.07.045-.146.084-.223.125-.047-.037-.104-.061-.125-.101-.734-1.439-.888-1.081.488-1.847 2.635-1.466 5.454-2.03 8.443-1.507 3.309.577 5.311 2.628 6.127 5.858.34 1.337.51 2.751.531 4.133.072 4.559.022 9.122.062 13.679.013 1.286.271 3.292.373 4.612h-1.575c-.135-1.313-.351-3.35-.497-4.778Zm-.117-10.39c.003-.339-.108-.467-.448-.451-1.061.052-2.126.044-3.186.122-2.215.165-4.39.548-6.44 1.473-2.718 1.229-4.826 3.431-4.423 7.443.236 2.306 1.659 4.172 3.815 4.885 1.155.383 2.325.356 3.511.206 3.319-.417 6.334-3.126 6.983-6.48.253-1.309.179-2.685.255-4.032l-.067-3.166Zm-31.907 14.817c-4.124.785-8.195.327-12.148-1.106-.253-.092-.492-.228-.778-.361.226-.435.426-.826.575-1.113 1.425.416 2.764.924 4.147 1.187 3.873.74 7.685.563 11.3-1.204 3.732-1.827 6.026-4.889 7.122-8.854 1.274-4.602 1.165-9.206-.566-13.667-2.028-5.221-5.933-8.193-11.403-9.075-3.111-.501-6.185-.338-9.159.813-.368.139-.725.308-1.153.49l-.684-1.429c1.098-.331 2.12-.728 3.179-.946 3.739-.763 7.476-.742 11.117.495 5.306 1.803 8.689 5.553 10.257 10.895 1.416 4.83 1.314 9.696-.468 14.429-1.988 5.28-5.879 8.41-11.338 9.446Zm-47.78-14.245c.091 1.129.137 2.208.277 3.275.304 2.32 1.018 4.495 2.495 6.354 1.616 2.033 3.761 3.114 6.306 3.401 3.061.341 6.015-.069 8.802-1.46.074-.035.156-.056.247-.09.057.104.11.192.152.285.145.33.287.659.446 1.023-.981.601-2.034.948-3.116 1.204-2.748.648-5.53.907-8.301.229-4.227-1.031-6.892-3.79-8.271-7.869-.819-2.429-.881-4.93-.655-7.452.198-2.219.75-4.34 1.829-6.298 1.765-3.208 4.402-5.278 8.047-5.8 3.896-.559 7.309.364 9.689 3.788 1.224 1.76 1.82 3.768 2.082 5.874.12.972.132 1.956.183 2.936.011.184-.021.369-.035.6h-20.177Zm17.463-6.351c-2.287-6.592-9.009-6.556-12.452-4.115-2.015 1.43-3.253 3.42-4.013 5.727-.334 1.013-.543 2.068-.826 3.161h18.115c.009-1.667-.292-3.238-.824-4.773Zm-26.167 20.939c-.071-1.558-.136-3.798-.211-5.375-.811 1.232-1.704 2.327-2.833 3.227-3.147 2.512-7.938 2.878-11.251.825-1.993-1.231-3.148-3.108-3.682-5.318-.357-1.486-.605-3.037-.626-4.564l-.028-16.052h1.746v.608c.003 5.064-.013 10.127.017 15.189.012 1.77.297 3.507.892 5.192 1.681 4.764 6.152 5.6 9.59 4.272 3.611-1.392 6.146-5.09 6.098-9.02-.06-5.199-.013-10.401-.013-15.603v-.645h1.799c0 8.85-.007 18.372-.007 27.264h-1.491Zm-35.113-.127c-.135.017-.269.044-.441.072v7.841h-1.662v-7.802c-2.603-.13-5.049-.7-7.378-1.91.118-.232.226-.44.336-.647.104-.193.21-.388.346-.646.236.105.465.197.692.305 1.915.901 3.915 1.448 6.048 1.432 4.657-.037 8.139-2.106 9.992-6.388 2.08-4.804 1.771-9.586-1.181-14.004-1.809-2.711-4.475-4.135-7.7-4.518-2.715-.325-5.251.203-7.613 1.576-.057.036-.123.057-.243.11-.267-.428-.505-.82-.792-1.289.287-.184.539-.383.819-.521 2.453-1.208 5.048-1.587 7.751-1.331 2.888.273 5.441 1.331 7.598 3.299 2.35 2.146 3.665 4.864 4.175 7.972.516 3.151.302 6.257-.992 9.206-1.873 4.262-5.149 6.668-9.755 7.243ZM57.204 3.477c-.712-.861-.584-2.379.28-3.076.525-.425 1.123-.525 1.731-.221.76.379 1.027 1.075 1.049 1.629.003 1.19-.446 1.934-1.157 2.19-.709.256-1.42.062-1.903-.522Zm-7.435 32.702c-.07-1.561-.136-3.799-.208-5.376-.814 1.234-1.707 2.329-2.835 3.227-3.148 2.512-7.939 2.88-11.253.828-1.991-1.232-3.148-3.11-3.682-5.321-.359-1.488-.603-3.037-.626-4.563l-.026-16.053h1.747v.608c.001 5.065-.014 10.128.017 15.192.011 1.769.297 3.505.89 5.19 1.683 4.761 6.152 5.6 9.591 4.272 3.611-1.391 6.147-5.091 6.099-9.02-.06-5.199-.016-10.402-.016-15.602v-.646h1.802c0 8.85-.009 18.371-.009 27.264h-1.491Zm-26.32-7.913c-2.293 4.254-5.886 6.69-10.537 7.627-.534.108-1.077.171-1.664.266v7.833c-.459 0-.835.004-1.209 0-.133 0-.268-.014-.46-.021v-7.732c-3.316-.084-6.535-.408-9.58-1.822l.599-1.162c1.219.38 2.37.826 3.56 1.101 3.407.78 6.813.75 10.145-.37 4.058-1.368 6.898-4.117 8.355-8.155 1.96-5.428 1.848-10.882-.518-16.158-1.993-4.451-5.562-7.03-10.266-7.966-3.356-.67-6.685-.532-9.917.72-.35.134-.692.297-1.085.467-.21-.443-.411-.873-.68-1.43C1.297 1.127 2.303.727 3.347.517c3.685-.744 7.364-.746 10.97.439 5.348 1.761 8.716 5.505 10.396 10.85.984 3.132 1.139 6.346.763 9.599-.278 2.41-.872 4.721-2.027 6.861Zm35.898 7.886H57.66V8.925h1.687v27.227Z"/></svg>