<svg xmlns="http://www.w3.org/2000/svg" viewBox="0 0 120.3 33.1"><path class="svg-src" d="M117.1 15c.3-1.1-.2-2-1.6-1.9-1.4 0-2.3.9-2.6 1.8-.2 1.1.6 1.7 2.1 2.1 2 .6 4.3 1.2 3.5 4.3-.7 2.8-3.5 4.7-6.4 4.7-2.3 0-4.8-1.3-4-4.6h2.7c-.4 1.7.9 2.3 1.9 2.3 1.3 0 2.6-.9 2.9-2.1.4-1.4-.6-1.9-2.9-2.7-1.8-.6-3.2-1.5-2.6-3.7.8-2.7 3.4-4.3 6-4.3 2 0 4.3 1 3.6 4.1h-2.6zM104.5 25.5h-2.8l.7-2.5c-.7.9-1.7 1.7-2.7 2.2-1.1.5-2.2.8-3.4.8-4.6 0-6.4-3.6-5.3-7.6 1.2-4.4 5.2-7.6 9.4-7.6 2.9 0 4.2 1.6 4.5 3l.7-2.5h2.8l-3.9 14.2zm-10.8-7.1c-.5 2.1.2 5 3.7 5 2.2 0 4.1-1.2 5.2-2.8.5-.7.8-1.4 1.1-2.1.2-.7.3-1.4.2-2.1-.2-1.7-1.5-3-3.8-3-3-.1-5.6 2.2-6.4 5zM61.1 25.5h-2.8L59 23c-.7.9-1.7 1.7-2.7 2.2-1.1.5-2.2.8-3.4.8-4.6 0-6.4-3.6-5.3-7.6 1.2-4.4 5.2-7.6 9.4-7.6 2.9 0 4.2 1.6 4.5 3l.7-2.5H65l-3.9 14.2zm-10.7-7.1c-.5 2.1.2 5 3.7 5 2.2 0 4.1-1.2 5.2-2.8.5-.7.8-1.4 1.1-2.1.2-.7.3-1.4.2-2.1-.2-1.7-1.5-3-3.8-3-3.1-.1-5.7 2.2-6.4 5zM76.8 19.2c-.6 2.9 1.5 4.4 3.6 4.4 1.9 0 3.6-.9 4.8-2.4h2.9c-1 1.5-2.3 2.7-3.9 3.6-1.4.8-2.9 1.2-4.4 1.2-4.7 0-6.6-3.8-5.6-7.5 1.1-4.1 5.3-7.6 9.6-7.6 2.1 0 3.7.8 4.7 2.1 1.2 1.7 1.4 3.9.5 6.3l-12.2-.1zm10.1-2.1c.4-1.9-.9-4-3.7-4-2.8 0-5.2 2-5.8 4h9.5zM68.5 11.4h2.6l-.6 2.1c.6-.8 1.3-1.4 2.2-1.9.9-.4 1.8-.7 2.8-.7l-.7 2.7h-.2c-2.6 0-4.3 1.4-5.1 4.3l-2.1 7.7h-2.8l3.9-14.2z"/><linearGradient id="areas-logo" x1="24.586" x2="13.968" y1="32.302" y2="2.958" gradientTransform="matrix(1 0 0 -1 0 34.03)" gradientUnits="userSpaceOnUse"><stop offset="0" stop-color="#ff8024"/><stop offset="1" stop-color="#fff396"/></linearGradient><path fill="url(#areas-logo)" d="M36.6 5.2c-9.4-.6-16.4 3-20.8 6.3C7.3 18 5.1 28.5 4.7 30.6c-.2 1.2-1.3 2-2.5 1.8-1.2-.2-2-1.3-1.8-2.5.4-2.4 3-14.4 12.9-21.9 5.3-4 14-8.4 25.8-7h.3L37 5.1h-.4zm1.8-3.9z"/><path fill="#ff8024" d="M39.3 1h.3c.5 0 1 .1 1.4.5.7.5 1 1.4.8 2.3l-7.4 27c-.2.7-.8 1.3-1.5 1.5-.2.1-.4.1-.6.1-.6 0-1.1-.2-1.5-.6L19 20.1c-.8-.8-.8-2.2 0-3.1.8-.8 2.2-.8 3.1 0l9 9.1 5.7-20.9"/></svg>