<svg xmlns="http://www.w3.org/2000/svg" viewBox="0 0 550 550"><path d="M271.219 120.914l1.46 13.652q.075.755-.679.805l-2.076.113q-.717.038-.717-.679 0-6.845 1.271-13.928.466-2.592.742.038zm-23.063-8.845a.642.642 0 0 1 .629-.642l2.441-.025a4.127 4.089 89.6 0 1 4.127 4.102l.076 11.877a4.127 4.089 89.6 0 1-4.051 4.152l-2.441.025a.642.642 0 0 1-.654-.642zm-70.221-.415h.176a3.69 3.69 0 0 1 3.699 3.699v34.374a3.69 3.69 0 0 1-3.699 3.699h-.176a3.69 3.69 0 0 1-3.699-3.699v-34.374a3.69 3.69 0 0 1 3.699-3.699zm110.458 5.901c.742-7.398-8.115-7.914-8.128-2.063q-.013 5.863.126 11.437a3.347 3.347 0 0 0 1.912 2.944c3.473 1.636 7.335 2.466 7.298 7.65q-.038 6.291-.138 12.582c-.113 6.555-12.179 6.719-10.342-3.687q.088-.528.629-.579.403-.025.516.893.038.277.038.566c.038 2.416.164 4.907 2.403 5.901 2.378 1.044 5.41-.856 5.36-3.397q-.138-7.147-.138-13.727a3.435 3.447 8.3 0 0-2.454-3.297c-8.87-2.655-6.731-10.154-6.367-17.263.415-7.964 11.701-6.241 10.292 2.869q-.101.629-.742.604-.302-.013-.503-.327-.365-.604.239-1.107zm-16.218 18.974l-2.617.176q-.881.063-.956.944l-1.485 16.545a.617.617 0 0 1-.617.566l-.466-.013a.39.39 0 0 1-.39-.44q1.988-20.899 4.328-41.76.025-.226-.025-.994-.075-.856.73-1.007a.642.642 0 0 1 .755.566l4.58 43.32q.025.302-.277.302l-.516.013q-.554.013-.617-.541l-1.661-17.024q-.075-.692-.768-.654zm-10.28-25.894h.05a.63.63 0 0 1 .629.629v42.829a.63.63 0 0 1-.629.629h-.05a.63.63 0 0 1-.629-.629v-42.829a.63.63 0 0 1 .629-.629zm-13.614 23.705l.088 19.829q0 .554-.566.591l-.491.038q-.34.025-.34-.315l.025-40.804q0-4.127 4.064-3.41l1.422.252q4.492.793 4.592 5.36c.126 6.115.994 12.884-2.189 15.69q-.491.428-.113.956l1.799 2.428a1.799 1.774 26.8 0 1 .34 1.007l.05 18.169a.629.629 0 0 1-.629.629l-.466-.013a.352.352 0 0 1-.352-.352v-18.106q0-2.479-2.403-3.095l-2.516-.654q-2.328-.604-2.315 1.799zm-32.449-23.755h.05c.425 0 .768.342.768.767v42.603c0 .425-.342.768-.768.768h-.05c-.425 0-.768-.342-.768-.768v-42.603c0-.425.342-.767.768-.767zm18.156 22.233l-.025 20.458a.289.289 0 0 0 .289.289l7.7-.151a.289.289 0 0 1 .264.164l.428.843a.289.289 0 0 1-.252.415l-9.663.252a.289.289 0 0 1-.302-.289l.025-44.302a.289.289 0 0 1 .289-.289l9.223.113a.289.289 0 0 1 .289.277l.013.579a.289.289 0 0 1-.289.302l-7.864.038a.289.289 0 0 0-.289.289l.176 19.263a.289.289 0 0 0 .289.289l6.618.063a.289.289 0 0 1 .289.277l.038.818a.289.289 0 0 1-.302.302l-6.643-.289a.289.289 0 0 0-.302.289zm-8.782-20.194l.101 41.282q0 .843-.843.856h-.327a.377.377 0 0 1-.39-.377v-41.773a1.233 1.233 0 0 0-1.321-1.233l-2.164.151q-.491.025-.453-.453l.05-.541q.025-.34.365-.34l8.719.038a.403.403 0 0 1 .39.289q.063.226-.063.478-.088.164-.302.264-1.22.503-2.428.264a1.12 1.107 5.3 0 0-1.334 1.095zm-20.974 18.961l6.379-.038a.315.315 0 0 1 .315.302l.025 1.271a.315.315 0 0 1-.315.315l-6.53-.176a.315.315 0 0 0-.327.315l.076 20.874a.315.315 0 0 1-.315.315h-.944a.315.315 0 0 1-.315-.315l-.113-43.937a.315.315 0 0 1 .315-.315l9.223.025a.315.315 0 0 1 .315.315l.013.604a.315.315 0 0 1-.315.315l-7.763.076a.315.315 0 0 0-.315.315l.277 19.427a.315.315 0 0 0 .315.315zm-14.734-11.236q-1.246-1.585-.818.39.39 1.774.403 5.461.038 14.117 0 28.108a.403.403 0 0 1-.34.403l-.39.063q-.705.101-.717-.617-.189-21.138 0-42.427.013-1.22.918-1.208a.554.554 0 0 1 .528.44l6.367 30.562q1.334 6.417 1.321-.138l-.05-30.562q-.013-.73.692-.503l.528.176q.252.088.252.352l-.063 42.402a1.535 1.019 89.8 0 1-1.007 1.535q-.365.013-.591-1.12-2.554-12.708-5.335-25.378c-.491-2.202-.39-6.278-1.699-7.939zm-6.329 29.367a5.071 5.071 0 0 1-5.071 5.071h-.252a5.071 5.071 0 0 1-5.071-5.071v-34.399a5.071 5.071 0 0 1 5.071-5.071h.252a5.071 5.071 0 0 1 5.071 5.071zm-24.246-34.525c-.013-7.461 12.934-6.077 10.066 3.687a.289.289 0 0 1-.377.189l-.466-.176q-.315-.101-.239-.428c1.673-7.776-7.562-9.374-7.625-2.63q-.164 17.137-.025 34.286c.025 2.177 2.906 3.951 5.008 3.108 3.07-1.246 2.806-4.202 2.856-6.958q0-.264.252-.302.189-.038.352-.076.226-.038.289.176c2.755 9.839-10.078 12.255-10.078 2.605q0-16.747-.013-33.481zm104.784-9.437q-1.145 1.46-3.12 3.221-.151.138-.352.038a.34.34 0 0 1-.138-.478q1.573-2.693 3.297-3.234.881-.277.315.453z" fill="#776045" fill-opacity=".792" fill-rule="evenodd"/><g fill="#5b3713"><path d="M125.484 162.748c-8.738.076-17.178 3.826-20.726 12.658-1.862 4.639-2.798 8.368-2.806 11.186l.14 141.549c.038 7.977 1.999 16.382 8.252 21.49 8.921 7.298 28.449 6.53 34.979-3.674 6.216-9.701 5.31-22.333 5.033-33.972-.017-.503-.276-.754-.779-.754l-6.657-.013c-.445 0-.666.221-.666.666.126 10.607 2.894 30.335-10.053 35.67-2.709 1.116-5.675 1.393-8.896.831-12.343-2.139-13.59-13.513-13.59-23.704l-.199-131.168c-.025-9.588.981-21.1 12.28-24.019 4.11-1.065 7.904-.755 11.385.931 11.362 5.524 9.173 21.993 9.11 33.795a.654.654 0 0 0 .666.654l6.871-.061c.352-.009.528-.188.528-.541.214-15.149 1.899-35.634-16.207-40.427-2.809-.739-5.752-1.121-8.665-1.096zm115.765 1.676l-7.198.15c-.226 0-.339.117-.339.351l.052 160.422c0 12.205 2.981 25.116 16.72 28.224 11.676 2.63 25.202-.416 29.467-12.973 2.529-7.461 2.265-13.149 2.278-23.365V164.75c0-.193-.097-.29-.29-.29h-7.549c-.193 0-.29.097-.29.29l-.013 165.592c0 6.329-2.981 13.804-9.046 16.622-6.304 2.919-16.445 1.862-20.208-5.008-3.523-6.455-3.283-12.356-3.283-21.466l.024-155.74c0-.218-.109-.327-.327-.327zm-61.438.061c-4.639-.017-9.293.013-13.966.088-.411.009-.617.218-.617.629v187.146a.315.302 0 0 0 .315.302l7.498-.013c.193 0 .29-.097.29-.29l-.037-102.266c0-.487.243-.73.73-.73 5.142.017 10.392.159 15.752.428 15.149.742 16.041 10.404 16.079 23.641l.039 78.876c0 .21.109.315.327.315l6.869.039c.21 0 .315-.105.315-.315l-.013-84.01c-.025-10.305-2.553-17.227-12.002-23.203-.327-.21-.312-.378.049-.504 8.644-3.02 11.815-11.751 11.928-20.281a870.49 870.49 0 0 0-.364-37.734c-.185-5.922-1.113-10.438-2.782-13.55-2.655-4.97-10.519-8.229-16.546-8.38l-13.865-.189zm117.478.039a.554.554 0 0 0-.553.553l-.024 5.537a.554.554 0 0 0 .553.553l40.88-.024a.554.554 0 0 1 .541.678l-42.703 180.113a.554.554 0 0 0 .541.678l50.719-.074a.554.554 0 0 0 .553-.555l-.013-5.018a.554.554 0 0 0-.553-.555l-40.791-.013a.554.554 0 0 1-.543-.678l42.453-180.491a.554.554 0 0 0-.541-.678zm-123.543 6.542h16.937a15.3 15.489 0 0 1 15.3 15.489v40.11a15.3 15.489 0 0 1-15.3 15.489h-16.937a.453.453 0 0 1-.452-.452v-70.185a.453.453 0 0 1 .452-.452z"/><path d="M60.62 257.442l4.152-29.077q.591-4.14 1.17 0l4.077 29.077q.05.365-.315.365l-8.745.025q-.39 0-.34-.39zm-30.952 45.22l18.609-.013a.667.667 0 0 1 .667.679l-.05 1.585a.667.667 0 0 1-.654.642l-22.572.164a.667.667 0 0 1-.667-.667l.013-92.705a.667.667 0 0 1 .654-.667l2.667-.025a.667.667 0 0 1 .679.667l-.013 89.673a.667.667 0 0 0 .667.667zm40.326-41.395l-9.499.075q-.44.013-.503.44l-6.19 43.056a1.17 1.158 5.2 0 1-1.195.994l-1.195-.038q-1.208-.025-1.032-1.22l13.199-91.937q.164-1.107 1.271-1.158 2.051-.101 2.24 1.233 6.643 46.038 13.337 91.887.176 1.246-1.069 1.22l-1.485-.038q-1.17-.013-1.321-1.17l-5.914-42.792q-.075-.554-.642-.554z" fill-rule="evenodd"/></g><rect fill="#f37d01" x="352.293" y="273.364" transform="rotate(359.9)" width="65.679" height="65.578" rx="10.619"/><g fill="#5b3713"><rect x="427.155" y="288.298" transform="rotate(0.1)" width="49.196" height="49.271" rx="10.531"/><rect x="368.711" y="347.072" transform="rotate(359.9)" width="49.095" height="49.297" rx="10.431"/></g><rect fill="#f37d01" x="426.633" y="346.41" width="98.367" height="98.367" rx="10.544"/><path d="M271.264 389.038h.277c2.028.004 3.659 1.639 3.655 3.668l-.026 14.948c-.004 2.028-1.639 3.659-3.668 3.655h-.277c-2.028-.004-3.659-1.639-3.655-3.668l.026-14.948c.004-2.028 1.639-3.659 3.668-3.655zm-.092-19.451l.352-.002a3.64 3.64 0 0 1 3.668 3.63l.057 10.846a3.64 3.64 0 0 1-3.63 3.668l-.352.002a3.64 3.64 0 0 1-3.668-3.63l-.057-10.846a3.64 3.64 0 0 1 3.63-3.668zm-14.83-.077l.302.001a3.68 3.68 0 0 1 3.68 3.693l-.027 15.325a3.68 3.68 0 0 1-3.693 3.68h-.302a3.68 3.68 0 0 1-3.68-3.693l.027-15.325a3.68 3.68 0 0 1 3.693-3.68zm-46.423 2.617l.013 36.337a2.038 2.038 0 0 1-1.158 1.837l-3.007 1.46a2.038 2.038 0 0 1-2.932-1.837l.164-38.489a2.038 2.038 0 0 1 2.516-1.975l2.844.679a2.038 2.038 0 0 1 1.56 1.988zm-49.737-1.9a.843.843 0 0 1 .843-.83h1.711a4.819 4.983.1 0 1 4.806 4.995l-.05 32.311a4.819 4.983.1 0 1-4.832 4.97h-1.711a.843.843 0 0 1-.843-.856zm99.16 22.258q-.642.679-1.56 1.057a1.912 1.963 35.6 0 1-.78.138c-3.85-.126-5.473-2.466-5.586-6.241q-.214-7.373.176-15.312a3.875 3.875 0 0 1 4.077-3.687l1.145.063q4.857.252 4.882 5.108.075 16.394.126 30.939c.013 4.001-.327 7.411-4.555 8.128-5.159.868-6.87-5.008-5.662-9.021a.277.277 0 0 1 .39-.164q.164.088.34.176.201.113.214.34c.088 1.824-.088 3.989.742 5.511 2.189 4.001 6.882 1.321 6.87-2.869q-.013-6.895.164-13.765.038-1.497-.981-.403zm-14.092-20.572q-1.56 1.875-2.416 4.165-.05.126-.189.126h-.528q-.591 0-.302-.528l3.334-6.002q1.711-3.108 1.724.44l.151 41.672q0 .34-.302.453l-.604.226a.315.327 80.3 0 1-.428-.302l.151-40.036q.013-.944-.591-.214zm38.061 39.533l7.373.025q.277.013.302.289l.05.503a.327.34 86.9 0 1-.327.352l-8.405.239a1.082 1.082 0 0 1-1.107-1.069q-.05-8.543.063-17.124c.101-8.317 8.833-4.316 8.908-11.387q.063-5.473 0-10.506a2.504 2.504 0 0 0-.918-1.912q-3.284-2.667-5.75-.025c-1.774 1.912-.34 5.134-1.183 5.989q-.138.138-.315.189-.415.101-.554-.302c-3.007-9.185 9.764-12.217 10.015-2.73q.214 7.952-.05 11.097c-.226 2.743-4.404 4.29-6.555 5.083a3.561 3.561 0 0 0-2.34 3.359l.025 17.149a.768.78 0 0 0 .768.78zm-8.732-22.434c3.271 2.516 2.089 14.117 1.812 19.779a3.963 3.963 0 0 1-4.014 3.762l-1.132-.025q-4.769-.063-4.92-4.844-.365-12.469-.05-15.665.151-1.434 2.076-3.108a.642.642 0 0 0 0-.969c-3.12-2.667-2.315-9.059-1.988-14.872q.252-4.655 4.92-4.706l1.346-.013a3.926 3.926 0 0 1 3.963 3.926l.025 12.016q0 .554-.214 1.057-.642 1.485-1.85 2.529-.679.579.025 1.132zm-57.186 22.446l8.027.025a.289.289 0 0 1 .289.264l.063.554a.289.289 0 0 1-.289.315l-9.286.176a.289.289 0 0 1-.289-.289v-44.176a.289.289 0 0 1 .289-.289l9.411.038a.289.289 0 0 1 .289.34l-.176.918a.289.289 0 0 1-.277.239l-7.99.05a.289.289 0 0 0-.289.289l-.013 19.125a.289.289 0 0 0 .289.289l6.643-.025a.289.289 0 0 1 .289.302l-.025.629a.289.289 0 0 1-.289.277l-6.593-.05a.289.289 0 0 0-.289.289l-.076 20.421a.289.289 0 0 0 .289.289zm-15.979-42.288a1.183 1.183 0 0 1 1.183-1.183h2.932a5.976 6.266 0 0 1 5.976 6.266v32.286a5.976 6.266 0 0 1-5.976 6.266h-2.932a1.183 1.183 0 0 1-1.183-1.183zm-13.01 40.099c2.755 4.416 7.272 1.371 7.26-2.881q-.013-5.939.038-11.89c.038-4.957-9.034-3.938-9.109-10.053q-.063-5.976.038-11.953c.113-6.153 12.846-6.228 10.066 4.253q-.088.315-.39.214l-.415-.126a.415.428 14.4 0 1-.277-.491c1.648-7.386-7.398-9.751-7.549-2.139q-.101 5.435-.063 10.821a3.032 3.045 12.5 0 0 1.699 2.693c3.473 1.699 7.21 2.177 7.285 7.134.05 3.926 1.334 14.985-2.403 17.086-2.479 1.397-5.247.944-6.958-1.309-1.246-1.636-1.044-3.913-1.107-5.951a.604.617 84 0 1 .516-.629l.44-.05a.478.466 87.6 0 1 .541.503q-.252 3.749.39 4.769zm-13.576 2.164l7.977-.025a.315.315 0 0 1 .315.315v.679a.315.315 0 0 1-.315.315l-9.21.151a.315.315 0 0 1-.315-.315l-.113-44.201a.315.315 0 0 1 .315-.315l9.437.063a.315.315 0 0 1 .277.453l-.415.83a.315.315 0 0 1-.277.164l-7.549.088a.315.315 0 0 0-.315.315V388.9a.315.315 0 0 0 .315.315l6.555.088a.315.315 0 0 1 .302.327l-.038.667a.315.315 0 0 1-.327.289l-6.492-.063a.315.315 0 0 0-.315.315l-.126 20.282a.315.315 0 0 0 .315.315zm-5.888-37.809l-.101 33.745q-.012 3.787-3.674 4.781l-2.466.679q-3.737 1.019-3.749-2.856l-.013-39.369q-.013-3.687 3.548-2.68l2.755.78q3.712 1.057 3.699 4.92z" fill="#776045" fill-rule="evenodd"/></svg>