<svg xmlns="http://www.w3.org/2000/svg" viewBox="0 0 512 140"><path fill="#93d30a" d="M163.2 86.9a32 32 0 0 1-23-45.6c11.3-23 46.3-24.2 59-2 13.9 24.3-8 53.1-36 47.6zM177 70.4c15-7.7 9.6-31.4-7.2-31.4-12.7 0-19.6 14-12.8 25.7a15.7 15.7 0 0 0 20 5.7zm83.7 16.4c-8.8-1.9-17.4-9-20.1-16.6l-.6-1.5h-10.6v8.7l.2 8.8h-17.5V24.4l17 .2 16.8.2 3.7 1.2a21.5 21.5 0 0 1 8.8 35.6l-2.6 2.6L257 66c1.5 2.3 4.3 4 7.5 4.6l3.1.6c.4.1.5 2.7.6 8.3v8H266c-1.1 0-3.6-.3-5.3-.7zM243 53.9c9.8-5.4 3.7-15.4-9.1-15l-4.2.1v16.1c0 1 11.3 0 13.3-1.2zm236.8 33c-7.2-1.1-14.2-3.9-19.4-7.7-3-2.2-3.2-1.4 2.4-8.2l4.5-5.5 2.2 1.6c8.6 6.3 23.4 7.9 24.7 2.7.8-3.4-1.4-4.8-11.3-7.3-19.4-5-26-13.4-20.8-26.7 5.4-13.6 30-16.7 45.9-5.8 2.5 1.8 2.6 1.3-2.4 8.2l-4 5.6-3.3-1.8c-8.9-4.9-18.3-5.5-19.8-1.3-1.1 3.3 1 4.7 11 7.3 17.6 4.4 23 9.6 22.2 21-1 13.1-14.2 20.5-31.9 17.9zm-204-31.6V24.5h49.6v14.7h-32.6v9.2h29.4v13.3l-1.2.3c-.6.1-7.2.2-14.6.2H293l-.2 4.6v4.6l16.4.2h16.5V79l.2 7.3h-50.2zm58.8 0V24.5h16l12.6 16.2 12.6 16.1.2-16.1V24.5h17.1l-.1 30.7-.1 30.7-7.7.2-7.6.1-12.9-16.5L352 53.2l-.1 4.2-.2 16.3-.2 12.2-8.4.2h-8.4zm69 0V24.5h49.8v14.7h-32.7v9.2h29.5v13.9l-14.8-.2h-14.7v4.6c0 4.2.1 4.7.8 4.8h32.3v14.7h-50.1Z"/><path fill="#70b024" d="M31 88.4C.8 85.4-11.2 54.9 12.8 42l2.8-1.5 1.2 2.6c.6 1.4 1.3 2.4 1.5 2.3l3.7-1.2 3.4-.9-1.9 2.1c-9.8 11.1-2.3 26.1 15.3 30.7l4 1 1 3 1.9 5c.6 1.6.7 2.1.3 2.4-1.4.8-10 1.3-15 .8zm33.3-10.6L63 74.7c-.1-.4 1-1.5 3.3-3a65.4 65.4 0 0 0 15.2-15.5 57.1 57.1 0 0 0 9.4-23.6C91.7 19.1 80.3 9 67.7 12.2l-3 .8c-.1 0-2-4.4-2-4.8C62.6 8 74.5 3 78 1.7c8.3-2.9 18.5-.4 24.9 6 18 18-1.6 57.5-35.9 71.8l-1.7.7z"/><path fill="#019241" d="M89.4 109.4c.2-.1-.1-1.2-.6-2.2-1.2-2.7-1.2-2.8 1.5-4.4 10.7-6 11-18.7.7-33.8L89 65.9l3.4-3.5c1.8-1.9 4.6-5.1 6.1-7.3l2.8-3.9 2.5 2.7c10 10.4 15.5 25.4 13 35-2 8-6.4 11.9-19.8 17.5-7.4 3.2-7.8 3.4-7.5 3zm-13-54.6a68.6 68.6 0 0 0-54.7-10.4L18 45.5l-.7-1.3c-1.9-3.6-2.2-3.2 5.5-6.5 20.9-9 39.7-8.6 60 1 7 3.4 6.7 2.8 4.2 8-1.9 4-6 11-6.4 11l-4-2.9z"/><path fill="#006639" d="M389.1 139.1c-11-2.3-14.4-16.8-5.5-23.5 6.7-5.1 21.8-3 17.2 2.5l-1.5 1.7-2.5-1.1c-9.6-4.5-17.4 7-9.5 13.9 3.8 3.3 10.9 2.3 10.9-1.5V129h-6v-4.6h11.5v10.9l-1.8 1.1a18.1 18.1 0 0 1-12.8 2.7zm56 .4c-10 0-11.2-4.6-11.4-17.3l-.2-9.3h5.6l.1 9.2c0 4.1-.8 12.5 5.8 12.5 7.6 0 5.6-8.6 5.6-13V113h5.5v8.4c0 13.3-1.3 18.2-11 18.2zm49.2-.7c-15-4.1-12-25.9 3.6-26 17.8-.3 19.2 24.8 1.5 26.5-1.6.2-3.5 0-5-.5zm6.8-4.8c5.4-2 7-9.6 3-14a8 8 0 0 0-13.9 5.7c0 6.3 5.4 10.4 11 8.3zm-92.8-8v-13.2l7.5.2c10.7.2 13.6 1.8 14 7.7.3 4.2-2.2 8.7-4.8 8.7-.8 0-.8.5 0 1.4l3.3 4.5 2.6 3.8h-6.4l-2.8-4.1-2.9-4.2h-5v8.3h-5.5zm14.9-1.2c.9-.7 1.2-1.4 1.2-2.5 0-3.4-1.5-4.4-6.9-4.4h-3.7v7.9h4c3.5 0 4.4-.2 5.4-1zm38.5 1.1v-13.1l6.8.1c17.6.5 20 17 2.6 18.2l-4 .3V139.1h-5.4zm13.6-.8c3.6-3 1.2-6.8-4.4-7.1l-3.7-.2v8.4h3.4c3 0 3.6-.1 4.7-1zM76 110.3c-24.3-5.2-39.4-32.7-35.8-64.7l.4-3 2.6.2c3.2.2 9 1.3 12.6 2.3l2.5.7.3 6.3c1 25.8 14.3 44.8 33.2 47.7 2.6.4 2.3 1-1.4 3-2.8 1.6-2.8 1.7-1.6 4.4 1 2.3 1 2.5-3 3.3-3.2.7-6.1.6-9.8-.2zM51 31.5l-7.8-.1.3-1c2.4-8.1 9.6-17.1 16.6-20.8l2.3-1.3 1.1 2.5 1.2 2.5 1.6-.5 3.2-.9 1.6-.3-1.4 1.5c-4 4.2-6.5 9-8.5 15.4-.7 2.5-1.2 3.3-1.7 3.3l-8.5-.3z"/></svg>