<svg xmlns="http://www.w3.org/2000/svg" viewBox="0 0 512 136"><path d="M2.2 110.2c-.6-.7-.7-9.7-.6-38.7l.1-37.9 15.4-.2c23.4-.6 36.2 1 46.2 22.8 5.2 12 5.6 45.8-24.9 53.3-5.9 1.5-35.1 2-36.2.7zm43.2-27.7c.1-.2 9.7-34.1-19-34.1H20v47.1c10.7.3 20.8-2.2 25.3-13ZM70 110.6c-.2-.2-.4-17.7-.4-38.9V33.3H88c18.5 0 25.4.7 31 3 8.2 3.4 16.7 19 10 30.7a24 24 0 0 1-9.1 9.9c-3 1.7 1.2 8.3 5 16.3a54.2 54.2 0 0 1 3.8 10.2c3.7 8 4 7.6-6.5 7.6-10 0-9 .6-12.1-7.5l-7.8-20.9-1-1.8-7 .2-7 .2-.4 14.7-.3 14.8-8.1.1c-4.5.1-8.4 0-8.6-.2zm38.4-46.3c11.4-6.8 3.9-16.1-12.8-15.8l-8.3.2-.1 7.2c-.1 4 0 7.9.1 8.6l.4 1.5 9.4-.3c7.7-.2 9.8-.5 11.3-1.4zm27.8 46.3c-.2-.2-.4-17.7-.4-38.9V33.3l8.9.1 8.9.2.1 37.3c.1 20.6 0 38-.1 38.7-.4 1.4-16.1 2.2-17.4 1zm25-.4c-.5-.6-.7-10.8-.6-38.7l.2-37.9h18.5l1.2 2.1c.7 1.2 1.5 2.7 2 3.3a2116.7 2116.7 0 0 0 13 22c.3.3 6.2 10.4 7.7 13.1 2.4 4.6 2.4 4.4 2.4-18.8v-22l7.4.1 7.4.2.2 37.3c.2 45.5 1.3 40-8.3 40h-7.8l-1.7-2.5c-2.1-3.2-2.1-3.2-8.4-14l-6.5-10.8-9.3-15.8c-.5-1-1-1.8-1.4-1.9-.2 0-.5-.6-.6-1.2l-.5 22.5-.3 23.5-7 .2c-5.3 0-7 0-7.6-.7zm65-38V33.3h17.4v32.8l1.3-1.7L248 60l10.7-14.7 9-12h18.6l-.7 1.2c-.4.8-1.3 1.9-1.9 2.6-.6.6-1 1.4-1 1.6 0 .2-.4.8-.8 1.3a6363.6 6363.6 0 0 1-9 12.4c-5.4 7.4-5.4 7.4-4.6 9.3l2.6 6 1.6 4-1.6 4.5a29.6 29.6 0 0 0 6.4 30.8c3.8 4 3.8 3.9-2.5 3.9-6.6 0-4.8 2.7-14.7-21.7a342.4 342.4 0 0 0-4.6-11c-.8-2.3-1.1-2.2-4.8 2.7l-5 6.8-2 2.4-.2 10.2-.3 10.3-8.6.1-8.6.2zm132.8 38.4a78 78 0 0 1-.4-10.9V89.3l-2.3.3-3.9.7c-2 .4-2 .3-.2-3.3a70 70 0 0 0 7.4-25.5c.3-2.4.2-2.5-4.6-3.2-1.5-.2-3.5-.7-4.4-1l-1.7-.6V33.3h51.9l-.2 7.7-.2 7.7-16.7.1-16.7.2v14.4h12.8c15.6 0 14.4-.7 14.2 8.2l-.2 7.2-13.4.1-13.4.2v15.6h33.7l-.1 8-.2 8-20.5.1c-11.3.1-20.7 0-21-.2zm43.3-.2c-.2-.3.4-2.8 1.4-5.6 1-2.9 1.8-5.5 1.8-5.9a520.4 520.4 0 0 0 7-20.8 613.2 613.2 0 0 1 7.7-23.4l3.7-11.1 2.5-7.6c.6-2.6.8-2.7 10.9-2.7h9.1l.9 1.7c.5.9 1.2 2.8 1.5 4.3l1.3 4a1717.4 1717.4 0 0 1 15.7 46.3c.6 1.7 1.1 3.4 1.1 3.8 0 .5.4 1.7 1 2.7l1.4 4 1.5 4.6 1.2 4.3.5 2h-18.2l-1.1-2.6c-.6-1.4-2-5.3-3-8.7l-2-6.2h-24.6l-.8 2-1.6 5c-.4 1.6-1 3.2-1.2 3.6-.3.3-.7 1.5-1 2.6-.8 4.2-1 4.3-9 4.3-4.1 0-7.6-.3-7.7-.6zm39.7-35a90.3 90.3 0 0 0-3.3-10.2c-.3-.5-.7-1.8-1-3-.2-1-.8-3-1.3-4.1l-.9-2.1-2.7 8.4-3.2 9.6c-1.7 4-2 3.9 6 3.9h7.2zm32.6 35.2c-.3-.2-.4-14-.4-30.7 0-27-.1-30.2-1-30.6-.5-.2-4.8-.3-9.6-.3h-8.7V33.3H512V49l-9.5.2-9.5.2-.3 30.7-.4 30.8c-.4.4-17.5.1-17.8-.2z"/><path d="M2.8 119.4h507.9v16.5H2.8z"/><path fill="#006aa4" d="M3.8 18.7C-2.4 14.5-.6 1.5 6.4.4c3.8-.6 8.3 1.8 8.3 4.6 0 1.7-2.3 2-3.4.3C8.5 1 3.7 4.1 3.7 10.2c0 6.5 5.5 9.3 7.9 4 .6-1.3.5-1.4-1.4-1.4S8 12.7 8 11.3s.1-1.5 3.6-1.5h3.6v4.9c0 4.7-1.1 6.7-2.2 3.9-.3-.8-.6-.8-2.3.3-2.6 1.5-4.5 1.5-7-.2zm70.6.4c-2.6-1.3-3.2-3.8-3-12l.2-6.6h3l.3 7.4c.3 8 .6 8.5 3.6 8.5 2.7 0 3-.9 3-8 0-7 .4-8.6 2-8 1.5.5 1.5 14.8 0 17-1.6 2.5-5.7 3.3-9 1.7zm69.3.1c-5.6-2.5-6.5-12.2-1.6-17 5-5 12.9-.1 12.9 7.8 0 7-5.8 11.7-11.3 9.2zm5.6-3.6c1.8-1.8 2.2-9.2.5-10.8-2.4-2.4-5.8-1.6-6.9 1.8-2.2 6.6 2.3 13 6.4 9zM36.5 10l.2-9.5 3-.2c9.3-.6 14.7 4.8 9.7 9.8L48 11.5l1 3c2.1 5.3 2.1 5 0 4.9-1.6-.2-2-.6-2.7-2.3-2-5.4-2-5.5-4.2-5.5h-2l-.3 3.8c-.1 3.6-.2 3.8-1.8 4l-1.7.1ZM46.7 8c1.5-2.3.3-3.8-3.3-4L40 3.8V6c0 3.2 5 4.5 6.7 1.8zm58.9 1.9V0l5.4.3C118.5.8 121.5 4 119 9c-1.1 2.4-1.7 2.7-6.4 3.1l-3.4.4-.2 3.4c-.2 3.2-.3 3.4-1.9 3.6l-1.6.1zm9.7-1.7c2.4-2 .8-4.3-3-4.3h-3v5.4h2.2c1.4 0 3-.4 3.8-1.1zm182.4 103.1A28.7 28.7 0 0 1 277.8 97c-2.6-5.2-3.7-14.4-1.1-19.9 1.6-3.5 5.8-9.7 15.5-14l-2-4.3c-10.4-21 15.3-28.8 24.8-26.1 11.3 3.1 21.5 13.7 12 28.7a21.7 21.7 0 0 1-7 6.2c-1.8 1-1.7 1.4 2.6 6.2 7.4 8.5 7.4 8.6 8.5 6.6a59.5 59.5 0 0 0 6-17.2c.4-1.9 1-2 8.1-.4l5 1c2.5.3 2.7.8 1.6 5.5-2 8.4-5.1 16.5-10.6 23.1-1.9 2.1 2.3 4.8 7 4.6l4-.2.3 15c-7.7-.3-15.5.3-21.6-5-1.9-1.9-3.4-2.3-4-1.3-2.3 3.7-20.8 7.3-29.2 5.7zm15-15.6c6.5-2 6.2-2.7-7.3-16.8l-3.4-3.6-2.4 1.6c-12.5 8.3-2.2 23.1 13 18.8zm-.8-40.3c2.5-2 4-3.6 2.7-6.8-2.1-5-11-1.5-9.4 3.6 1.4 4.4 3.7 5.4 6.7 3.2z"/></svg>