<svg xmlns="http://www.w3.org/2000/svg" viewBox="0 0 1196 1196"><path fill="#12022f" d="M0 0h1196v1196H0z"/><path d="M1162.002 566.63L628.922 33.75q-1.53-1.54-1.31-3.57c.013-.121.094-.223.211-.264s.248-.012.339.074l533.6 532.82q.78.79.8 1.9l.03 1.67c.007.14-.074.267-.204.323s-.283.026-.386-.073zm-594.9-533.14L34.282 566.24c-.142.137-.35.183-.534.116s-.311-.232-.326-.426q-.17-2.07 1.47-3.72 42.42-42.72 85.05-85.23 223.79-223.22 447.36-446.63a.43.43 0 0 1 .73.34l-.11 1.07q-.1 1.01-.82 1.73z" fill="#f1e4ec"/><g fill="#f4e5d7" fill-rule="evenodd"><path d="M671.822 386.21a.3.3 0 0 1 .28.23q.89 4.37-2.07 6.8c-5.08 4.19-9.19-3.39-5.4-5.97 1.8-1.23 4.87-1.08 7.19-1.06zm-52.51.08q.55.06.74.59 1.71 4.98-3.29 7.36c-5.46 2.6-9.66-9.31 2.55-7.95zm-115.75 4.42c.49 3.95 4.22 4.89 7.06 2.17q.3-.29.53.06l.2.29q.28.43-.07.81c-2.72 2.96-8.01 3.48-10.52.27-2.53-3.23-1.16-7.25 2.8-8.47q2.12-.65 7.92-.12.16.01.16.17h0q-.01.16-.16.17c-3.04.21-8.5-.05-7.92 4.65zm27.89-11.08c1.52-3.55 4.64-3.7 8.01-3.23q.61.09.61.7v5.56a.6.6 0 0 1-1.16.23l-1.59-3.8q-.16-.36-.5-.56c-3.22-1.82-5.88 2.62-5.98 5.33q-.18 4.88-.17 9.77c.002.383.285.705.66.75l3.86.51c.139.018.246.125.26.26l.02.3q.05.53-.49.53l-10.8-.06a.4.4 0 0 1-.13-.78l2.37-.79c.354-.12.591-.45.59-.82v-14.54c-.001-.372-.221-.706-.56-.85l-1.84-.81a.45.45 0 0 1 .19-.86l5.33.11q.65.01.59.66-.11 1.18.15 2.33c.03.132.142.231.275.245s.257-.061.305-.185zm140.19 13.17c-2.84 5.45-12.65 4.97-12.32-2.21.28-6 8.24-5.35 12.27-4.74q.61.09.66-.53c.24-3.4.53-8.68-4.58-8.55-4.49.1-3.73 4.68-6.63 6.1q-.48.23-.48-.3l-.01-4.62q0-.55.52-.7c5.82-1.72 14.78-2.95 14.78 6.12q0 4.91.01 9.73a1.53 1.53 0 0 0 1.91 1.48l1.13-.29q2.18-.56.45.87-2.91 2.43-6.06.28a1.05 1.05 0 0 1-.45-.82q-.04-1.03-.6-1.85-.33-.48-.6.03zm-31.6-14.03c2.46-3.72 9.91-3.85 11.63.74 1.5 3.98.86 9.86.77 14.1q-.01.5.45.7.81.34 1.69.3c.434-.021.814.285.88.71l.05.32a.32.32 0 0 1-.32.37l-8.8-.04c-.255-.001-.471-.183-.51-.43l-.05-.33q-.05-.31.25-.38l2.3-.51q.42-.1.41-.53l-.24-12.33c-.018-.92-.419-1.792-1.108-2.404s-1.602-.912-2.522-.826l-1.34.13c-2.83.268-4.992 2.642-4.99 5.48v9.88q0 .59.58.69l1.81.31a.61.61 0 0 1 .5.5l.05.31c.021.102-.006.208-.074.29s-.169.129-.276.13l-8.36.07q-2.06.02-.5-1.21.35-.28 1.61-.37a1.03 1.03 0 0 0 .95-1.03v-14.34q0-.58-.52-.86-1.1-.58-2.28-.82-.34-.06-.45-.24-.12-.19-.06-.43.07-.29.37-.28l6.11.08q.57 0 .54.57l-.06 1.27q-.13 2.89 1.51.41zm-19.66 6.32l-.08-5.63c-.012-.635-.351-1.223-.9-1.56q-2.55-1.56-5.48-.77-.45.13-.7.51l-2.96 4.52q-.77 1.19-1.17-.17-.54-1.83.13-4.28.11-.43.54-.55c5.58-1.64 14.26-2.51 14.29 5.45q.02 5.26 0 10.38c-.007.774.455 1.51 1.138 1.815s1.43.109 1.842-.485q.27-.38.67-.61.5-.27.67.27.1.29-.13.58-2.1 2.8-5.43 1.57c-1.3-.48-1.75-1.63-2.35-2.78a.21.21 0 0 0-.34-.05q-4.2 4.22-9.18 2.68c-3.21-.99-4.21-4.95-2.68-7.72 2.03-3.65 7.85-2.7 11.51-2.57q.62.02.61-.6zm-32.27 10.13q-.47.56-1.17.95a.43.43 0 0 1-.64-.37v-6.65q-.01-2.19 1.22-.38c1.16 1.69 1.84 4.25 3.53 5.43 2.05 1.42 6.46 2 7.54-1.04 2.36-6.61-11.05-4.23-12.24-10.78-1.24-6.81 8.09-7.05 12.58-5.27a.92.92 0 0 0 .87-.09l1.14-.76c.118-.08.271-.087.398-.019s.208.202.212.349l.03 6.04q.01 2.49-1.31.37c-1.42-2.26-2.16-5.91-5.68-6.26-4.43-.44-7.5 4.88-2.81 6.63 3.86 1.44 11.72 2.52 10.42 8.53-1.22 5.66-9.42 5.12-13.2 3.15q-.51-.27-.89.17zm-10.74-12.07l-.96-3.21q-.79-2.65-3.54-3.02c-6.97-.92-8.12 5.89-7.3 10.93 1.26 7.72 10.81 8.38 14.53 1.61q.33-.61.43.08c.46 3.19-4.53 6.19-6.83 6.67-7.42 1.55-13.53-4.58-12.32-12.26.89-5.63 6.3-8.28 11.6-7.81q7.47.68 8.14 9.59.03.44-.41.45l-15.06.06q-.15 0-.14-.15l.01-.33q.01-.33.34-.32l9.63.19q2.65.06 1.88-2.48zm-72.04-5.58q-1.68 2.16-3 4.55-.32.58-.78.73a.53.53 0 0 1-.7-.51l.15-4.66a.55.55 0 0 1 .39-.5c4.09-1.19 11.45-2.4 13.89 2.1 1.55 2.87.82 9.94.95 13.78.028.744.565 1.373 1.3 1.52 1.47.28 2.11-.98 2.82-.91q.14.02.25.12.1.09.02.2c-2.76 4.19-6.66 2.86-8.44-1.22q-.18-.42-.14-.88.24-2.59.44-10.02c.12-4.29-2.61-5.84-6.39-4.81-.299.085-.565.263-.76.51zm46-1.16l5.72.12q.16.01.17.16l.03.32q.01.18-.16.18l-5.74-.05a.52.52 0 0 0-.53.52q-.01 6.17-.03 12.45c-.01 1.33.19 2.76 1.3 3.61 2.56 1.97 3.86-.37 5.3-2.04a.29.29 0 0 1 .5.23c-.96 6.53-10.63 5.99-10.76-1.06q-.12-6.49-.05-12.92a.73.73 0 0 0-.69-.74l-2.27-.11c-.124-.002-.228-.088-.254-.21s.033-.249.144-.31q.98-.5 2.01-.18a1.13 1.13 0 0 0 1.38-.62l2.26-5.11a.61.61 0 0 1 1.16.25l-.01 4.97q-.01.53.52.54zm134.88-41.53c.6 3.65-.86 7.83-5.39 7.64q-2.79-.11-3.17-2.68c-.89-5.99 4.21-4.9 7.98-5.39q.49-.06.58.43zm-160.44-.42a.24.24 0 0 1 .26.22c.14 1.63.25 3.71-.48 5.14-1.7 3.35-7.89 4.35-8.4-.65-.5-4.94 5.36-4.49 8.62-4.71zm73.195 8.41c-1.761-.003-3.448-.89-4.691-2.466s-1.938-3.711-1.934-5.936c.008-4.634 2.987-8.385 6.655-8.378 1.761.003 3.448.89 4.691 2.466s1.938 3.711 1.934 5.936c-.008 4.634-2.987 8.385-6.655 8.378zm-100.988-.02c-1.745-.015-3.411-.912-4.631-2.492s-1.895-3.715-1.876-5.935c.04-4.622 3.019-8.344 6.653-8.312 1.745.015 3.411.912 4.631 2.492s1.895 3.715 1.876 5.935c-.04 4.622-3.019 8.344-6.653 8.312zm122.603-9.34a.85.85 0 0 1-.85-.85v-.18c.01-1.96.627-3.837 1.715-5.217s2.557-2.151 4.085-2.143h.62c3.181.018 5.741 3.339 5.72 7.42v.18a.85.85 0 0 1-.85.85zm42-7.04l-2.84-.75a.15.15 0 0 1-.12-.15l.03-.7a.15.15 0 0 1 .15-.15l6.59.04a.15.15 0 0 1 .15.15l.01 17.43a.15.15 0 0 0 .1.15l2.8.98a.15.15 0 0 1 .08.21l-.23.47a.15.15 0 0 1-.13.08l-9.55-.12a.15.15 0 0 1-.13-.22l.14-.26a.15.15 0 0 1 .07-.07l2.83-1.19a.15.15 0 0 0 .09-.14l.07-15.61a.15.15 0 0 0-.11-.15zm-16.31 2.15a.17.17 0 0 0 .32.03c1.64-3.93 4.25-4.79 8.14-4.23q.59.08.61.69l.17 5.55q.06 1.93-1.16.44c-1.09-1.35-1.07-3.79-2.57-4.62-3.15-1.75-5.48 4.2-5.6 6.41q-.24 4.5-.02 9 .02.46.46.57l4.07 1.06a.37.37 0 0 1-.1.73l-11.06-.13a.33.33 0 0 1-.11-.64l2.4-.9q.5-.19.5-.73v-14.91q0-.45-.43-.57l-2.62-.73a.43.43 0 0 1 .1-.85l6.12-.16c.2-.005.393.078.524.227s.189.348.156.543q-.26 1.62.1 3.22zm-26.38 6.32c.08 5.67 5.79 9.01 10.84 6.88 1.61-.69 2.75-2.31 3.72-3.67q1.02-1.42.6.27c-.65 2.57-2.89 4.74-5.45 5.61-11.91 4.08-19.2-11.57-9.46-18.11 6.75-4.52 15.48-.21 15.36 8.2q0 .46-.47.46l-14.73-.05q-.41 0-.41.41zm-43.25 5.63a.56.56 0 0 1 .78.76q-1.47 2.35-3.89 2.91-1.79.41-3.88.25c-5.84-.45-6.5-8.76-.84-10.22q3.85-.99 6.89-.48 2.23.37 2.16-1.88l-.11-3.37q-.09-2.67-2.72-3.12c-5.21-.88-5.59 2.12-7.43 5.3a.7.7 0 0 1-1.31-.35l-.01-3.83q0-.51.45-.73c4.93-2.45 14.27-2.94 14.53 4.86q.17 5.27.33 10.9a1.54 1.54 0 0 0 2.3 1.29l1.26-.72q.35-.2.51.18l.13.32c.059.138.022.297-.09.39q-2.65 2.35-6.06 1.16a1.48 1.48 0 0 1-.86-.79l-1.42-3.08q-.23-.5-.05-1.01.71-2.01.49-4.16-.04-.47-.51-.51c-3.79-.31-9.61-.04-8.17 5.73.67 2.68 4.13 2.58 6.07 1.7q.51-.23.74-.73.19-.42.71-.77zm-31.57-12.71q1.66-3.16 6.27-3.53c8.85-.7 6.69 12.33 6.66 17.51a.68.68 0 0 0 .56.68q1.25.23 2.28.95.96.67-.21.67l-8.83.02a.36.36 0 0 1-.19-.66q.93-.58 1.99-.81.61-.14.63-.76.36-9.61-.18-12.3c-.62-3.14-4.19-4.06-6.73-2.33-4.24 2.89-2.95 8.72-3.16 14.2q-.02.54.44.8 1.07.61 2.18 1.02.29.1.38.28.07.15.04.29-.04.22-.26.22l-8.66.11q-2.54.03-.19-.91l2.01-.8c.321-.128.531-.441.53-.79l-.07-14.63c-.005-.413-.306-.761-.71-.82q-1.31-.18-2.48-.8a.4.4 0 0 1 .18-.76l5.98-.1q.51 0 .6.5c.16.9-.18 2.01.37 2.79q.31.46.57-.04zm-19.13 13.64c-3.65 4.37-14.39 4.6-12.62-3.63.95-4.36 8.07-4.62 11.23-4.09q1.62.27 1.59-1.37l-.07-4.16a2.58 2.58 0 0 0-1.74-2.4c-5.82-2.01-6.83 1.82-8.75 5.58a.31.31 0 0 1-.57-.05q-.72-2.42-.34-4.92.08-.49.53-.72c4.46-2.2 13.86-2.72 14.24 4.12q.29 5.38.12 10.75-.07 2.35 2.24 2.15.77-.06 1.52-.21.43-.08.44.36.01.55-.37.78-2.97 1.75-6.14-.03-.37-.2-.45-.61l-.27-1.4q-.13-.7-.59-.15zm-33.03-.03a.74.74 0 0 0-1.4.34l.07 6.35q.01.58.53.82 1.14.53 2.44.47.19-.01.2.19v.42q0 .52-.52.51l-9.2-.05q-.43 0-.52-.42-.04-.19.04-.4.06-.15.21-.17l2.46-.44c.307-.058.53-.322.53-.63v-21.4a.76.76 0 0 0-.75-.76q-1.4-.04-2.43-.9a.41.41 0 0 1 .26-.73l6.22.02q.67 0 .56.66-.27 1.54.25 3 .22.63.56.05 3.04-5.13 8.67-4.06c6.04 1.15 7.9 6.09 7.31 11.74q-.92 8.81-9.83 8.36-4.24-.21-5.66-2.97zm192.73-1.08q-.15.05-.21.21-.02.09.02.21c1.39 4.42-14.11 6.47-11.98-2.76 1.09-4.72 7.8-4.57 11.16-4.23q1.88.2 1.76-1.69l-.28-4.1a2.62 2.62 0 0 0-2.14-2.41c-5.96-1.13-6.04 2.17-8.3 5.83a.35.35 0 0 1-.62-.07q-.84-2.42-.27-4.93.12-.53.61-.76c4.52-2.03 9.55-2.31 13.35 1a1.58 1.58 0 0 1 .48.78c1.19 4.51.69 9.73.83 14.42.007.363.249.682.6.79q1.55.46 2.96-.35.47-.26.42.27c-.21 2.39-4.89 2.08-6.4 1.25-.2-.11-.359-.286-.45-.5l-1.18-2.8q-.11-.26-.36-.16zm-80.53-.14q-3.81 5.73-10.79 3.85c-8.46-2.27-7.89-17.45 1.08-19.53q5.7-1.32 9.59 4 .7.94.69-.23l-.07-8.13a.73.73 0 0 0-.47-.68l-2.49-.94a.41.41 0 0 1 .15-.8l6.05.1q.5.01.49.5l-.03 23.38q0 .46.43.62l2.74 1.01a.4.4 0 0 1-.14.77l-6.08.03q-.65 0-.64-.65l.02-3.14q.01-.96-.53-.16zm65.65-23.67l-6.91 4.81q-3.05 2.12-.91-.91c2.13-3.02 3.27-5.81 7.78-4.17a.15.15 0 0 1 .04.27z"/><path d="M1025.942 610.78l15.45-35.6a.4.4 0 0 1 .73-.01l16.88 35.62a.4.4 0 0 1-.36.57l-32.33-.02a.4.4 0 0 1-.37-.56zm-170.98-.17l15.18-35.26a.52.52 0 0 1 .94-.02l16.73 35.29a.52.52 0 0 1-.47.74l-31.9-.03a.52.52 0 0 1-.48-.72zm-430.71.05l15.22-35.39a.48.48 0 0 1 .88-.01l16.81 35.39a.48.48 0 0 1-.43.69l-32.04-.01a.48.48 0 0 1-.44-.67zm-226.24-.01l15.25-35.32a.49.49 0 0 1 .89-.01l16.78 35.33a.49.49 0 0 1-.45.7l-32.03-.02a.49.49 0 0 1-.44-.68zm755.23-47.33a.78.78 0 0 1 .78-.77l10.46.01c7.92.015 15.51 3.492 21.098 9.668s8.719 14.543 8.702 23.262v5.44c-.036 18.152-13.431 32.84-29.92 32.81l-10.46-.01a.78.78 0 0 1-.78-.79zm-346.03.02a.71.71 0 0 1 .71-.71l12.6-.03c4.803-.008 9.413 1.791 12.815 5.001s5.317 7.57 5.325 12.119v1.68c.016 9.471-8.079 17.163-18.08 17.18l-12.6.03a.71.71 0 0 1-.71-.71zm-84.57-.04a.84.84 0 0 1 .85-.83l10.38.05c16.534.091 29.857 14.936 29.76 33.16l-.02 5.2c-.046 8.753-3.246 17.131-8.895 23.289s-13.284 9.594-21.225 9.551l-10.38-.05a.84.84 0 0 1-.83-.85zm496.3 66.93c2.13.69 7.04 2.07 8.61 3.77a1.01 1.01 0 0 1-.74 1.7l-19.48-.02c-.324 0-.608-.222-.69-.54q-.42-1.58 1.23-2.3 3.32-1.45 6.08-2.64a2.54 2.54 0 0 0 1.34-1.34l29.48-67.78c.19-.428.609-.711 1.08-.73l2.6-.08c.664-.025 1.282.342 1.58.94l32.55 66.11a5.44 5.44 0 0 0 1.86 2.14l4.8 3.22q4.55 3.05-.92 3.04l-27.71-.03a.79.79 0 0 1-.76-.99c.55-2.08 5.16-4.25 6.89-5.21a1.17 1.17 0 0 0 .49-1.52l-6.34-13.41c-.292-.611-.907-.999-1.58-1l-33.94.04a1.16 1.16 0 0 0-1.07.7l-6.12 14.28q-.53 1.24.76 1.65zm-288.6-63.83l-8.23-3.68a1.03 1.03 0 0 1-.61-1q.07-1.24 1.32-1.26 9.37-.17 18.65-.12c.363.004.664.284.7.65q.17 1.89-1.78 2.61-3.35 1.22-6.6 2.72c-.294.142-.48.437-.48.76q.01 18.67-.09 37.27c-.06 13.18-4.28 25.01-16.99 30.39-8.06 3.4-18.22 3.32-26.41.1-11.14-4.38-17.17-16.09-17.2-27.98q-.04-19.94.06-39.34c.007-.656-.395-1.249-1.01-1.49q-3.8-1.49-7.14-3.02-1.23-.57-1.3-.94-.28-1.71 1.49-1.71l29.84-.04c.3-.001.582.144.756.39s.221.562.124.85c-.2.56-.58 1.09-1.18 1.39q-3.49 1.74-6.98 3.14a1.22 1.22 0 0 0-.77 1.14q-.12 20.13.03 40.38c.25 32.38 44.4 32.16 44.18-1.25q-.13-19.71.02-39.34a.68.68 0 0 0-.4-.62zm-107.01 34.84c10.05 3.57 16.77 15.14 22.86 23.26 2.66 3.55 10.11 6.34 14.13 8.35q1.53.76 1.21 2.44c-.039.219-.232.379-.46.38l-23.35.06a.87.87 0 0 1-.72-.38l-22.9-33.96q-.35-.52-.98-.52l-5.3-.01q-.49 0-.49.5l.04 27.74a.9.9 0 0 0 .58.84q3.48 1.32 7.19 3 1.39.63 1.22 2.05a.82.82 0 0 1-.81.73l-30.26-.02q-.53 0-.78-.48-.63-1.21.61-1.84 3.91-1.98 7.44-3.21.95-.33.95-1.34l.02-61.39a1.45 1.45 0 0 0-.87-1.33l-7.23-3.14q-.56-.24-.84-.79-.29-.57-.25-1.2.03-.62.65-.62 22.3-.07 44.58.01 3.17.01 9.23 1.81c17.41 5.14 20.08 26.92 3.66 34.98-6.76 3.32-11.95 3.19-19.07 3.67q-1.04.07-.06.41zm-115.04-34.88q-3.47-1.68-7.2-3.2-.61-.25-.95-.67-.54-.66-.48-1.25.09-.86.96-.87 18.64-.16 37.14.26 14.02.31 24.98 7.55c15.03 9.92 19.53 29.91 12.01 45.92-5.15 10.98-16.38 17.99-28.08 20.52q-4.72 1.02-15.26 1.06-15.11.05-30.21 0-.47 0-.9-.21-1.18-.58-.15-1.91a.77.77 0 0 1 .28-.22l7.3-3.27a1.76 1.76 0 0 0 1.03-1.6v-61.36a.82.82 0 0 0-.47-.75zm-50.24 47.23l-34.61.01c-.347 0-.661.209-.8.53l-6.56 15.1a.49.49 0 0 0 .28.66l8.51 3.24c.378.139.673.445.8.83q.6 1.88-1.35 1.86-9.39-.09-18.71-.19a1 1 0 0 1-.82-1.56c1.1-1.6 6.05-3.3 7.96-4.28.291-.148.52-.392.65-.69q14.35-33.22 28.88-66.34c.53-1.19.56-2.34 2.12-2.51 2.05-.21 3.23-.21 4.23 1.81q16.15 32.73 32.24 65.48c.82 1.67 4.55 3.84 5.78 4.7q4.95 3.43-1.07 3.44l-26.75.03q-.55 0-.57-.54c-.08-2.48 5.16-4.77 7.03-5.87a.74.74 0 0 0 .3-.95l-6.78-14.28q-.22-.48-.76-.48zm-86.72-42.19q0-1.22-.61-.16l-26.27 45.75c-.665 1.153-2.12 1.567-3.27.93q-.65-.36-1.27-1.41-13.14-22.48-26.88-44.6a.35.35 0 0 0-.64.19v56.86q0 .61.55.88c2.06 1.04 6.71 2.46 7.96 4.24a1.04 1.04 0 0 1-.86 1.64l-17.93-.01a.82.82 0 0 1-.76-.51q-.5-1.15.71-1.8 3.54-1.91 6.83-3.42a1.33 1.33 0 0 0 .77-1.2V568.2a1.85 1.85 0 0 0-1.02-1.66q-3.07-1.53-6.48-3.6-1.26-.76-.79-2.09a.76.76 0 0 1 .72-.51h19.92c.571-.001 1.102.299 1.4.79l25.2 41.75c.086.144.242.23.411.225s.325-.098.409-.245l24.14-42.35a.34.34 0 0 1 .29-.17l18.96-.01c.318 0 .623.131.845.365s.343.549.335.875q-.01.28-.27.68-.19.29-.55.47-3.88 1.97-7.82 3.63a.58.58 0 0 0-.35.53l-.01 62.17q0 .57.53.81l7.35 3.31a1.34 1.34 0 0 1 .67.7q.81 1.99-.77 1.87-.86-.07-.94-.07-14.14.09-28.3-.03c-.343-.002-.657-.191-.819-.495s-.147-.673.039-.965c1.18-1.82 5.97-3.45 7.91-4.17.385-.146.64-.512.64-.92zm-131.94 56.96l-6.85-14.42a.66.66 0 0 0-.6-.38l-34.37.06a1.5 1.5 0 0 0-1.38.91l-6.3 14.82a.44.44 0 0 0 .25.59q3.45 1.21 6.99 2.53 1.32.5 1.44.6 2.99 2.66-1 2.65l-18.27-.06a.91.91 0 0 1-.86-1.18q.31-.97 1.46-1.54 2.76-1.39 5.62-2.58c1.53-.64 1.77-1.53 2.39-2.94q14.42-33.4 28.49-65.49a3.24 3.24 0 0 1 5.87-.13q15.54 31.48 31.67 64.21c1.63 3.32 4.26 4.8 7.29 6.69q1.47.93 1.17 2.37-.14.64-.79.64h-28.81a.93.93 0 0 1-.86-1.27c.78-1.94 5.35-4.13 7.18-5.2q.54-.31.27-.88zm-110.82 5.27l26.24-.03q.91 0 1.34-.79 5.49-10.07 11.34-20.08.79-1.36 1.89-1.09.8.2.8 1.02l-.01 22.47q0 .62-.62.62l-63.7-.05c-.267.001-.489-.199-.51-.46q-.14-1.52 1.37-2.22 3.73-1.73 7.2-3.18.5-.21.5-.76l-.01-61.99c0-.322-.188-.613-.48-.74q-3.81-1.63-7.75-3.43-.53-.24-.69-.62-.17-.41-.12-.89.09-1.07 1.16-1.07l29.46-.01q1.08 0 1.1 1.09.03 1.53-2.09 2.1-1.57.43-6.5 2.9-.43.21-.43.7l-.02 65.98q0 .53.53.53zm809.91-3.56c.641-.261 1.061-.882 1.06-1.57l-.01-61.15c0-.595-.37-1.128-.93-1.34q-3.73-1.41-7.05-3.04c-.87-.42-1.33-1.17-1.14-2.06q.11-.54.66-.55 29.3-.13 37.49.07c17.1.43 33.85 9.87 38.88 26.82 4.72 15.92-1.14 32.81-15.58 41.68q-11.21 6.89-25.79 6.85-17.52-.05-35.04-.13a.63.63 0 0 1-.63-.64q.01-1.48 1.46-2.12 3.59-1.58 6.62-2.82zm-49.71-16.49l-34.42.03a1.29 1.29 0 0 0-1.19.79l-6.19 14.46c-.105.241-.104.516.005.757s.313.427.565.513q3.55 1.18 7.26 2.77 1.68.72 1.74 2.05.04.7-.67.7l-19.79.02q-.51 0-.64-.49-.34-1.25.68-1.8 3.15-1.71 6.04-2.81a3.94 3.94 0 0 0 2.19-2.09l28.95-66.6a3.25 3.25 0 0 1 5.9-.14q15.6 31.76 31.67 64.55c1.78 3.62 5.14 4.42 7.52 6.83q2.55 2.56-1.07 2.57l-27.69.04c-.179 0-.352-.076-.48-.21q-.82-.84.15-1.67 3.08-2.64 6.51-4.46.78-.42.41-1.22l-6.68-14.1q-.23-.49-.77-.49zm-77.47-8.91q-5.31-1.85-10.78-3.16-1.98-.47-1.68-2.35a.77.77 0 0 1 .76-.64l32.18-.04a.68.68 0 0 1 .62.41c.44.96.04 1.87-.91 2.35q-3.03 1.56-6.12 2.96a1.56 1.56 0 0 0-.91 1.41l.08 19.23q0 .46-.27.82-1 1.34-2.38 2.3c-14.8 10.22-37.47 12.87-53.41 3.74-24.31-13.92-25.77-47.93-3.35-64.43 13.93-10.26 34.09-11.43 48.87-1.5q.46.31.89-.03l5.9-4.65a1.3 1.3 0 0 1 2.11 1.01l.1 28.52a.74.74 0 0 1-.49.7q-1.63.55-2.31-.88c-3.57-7.55-8-19.41-13.4-24.12-8.97-7.82-23.51-4.37-31.84 2.94-12.7 11.13-12.92 31.13-6.21 45.46 5.57 11.86 17.42 21.1 31.06 18.93 3.02-.48 11.96-4.21 12-8.25q.1-10 .01-20.01-.01-.54-.52-.72z"/></g><path d="M1161.362 633.55l-532.87 532.4c-.148.154-.376.195-.569.103a.52.52 0 0 1-.291-.513l.12-1.43c.071-.782.414-1.514.97-2.07l533.31-532.46q.4-.4.48.16c.23 1.54.02 2.65-1.15 3.81zm-1127.33-3.74l533.88 533.49a.35.35 0 0 1 .1.27l-.1 2.1a.35.35 0 0 1-.6.23L33.582 632.62a.35.35 0 0 1-.1-.24l-.04-2.31a.35.35 0 0 1 .59-.26z" fill="#f1e4ec"/><path d="M718.402 882.42q-2.23 4.84-6.56 6.33c-6.66 2.28-4.54-9.13-3.64-11.94 1.62-5.09 2.81-8.41 8.45-8.9a1.8 1.8 0 0 1 1.84 2.43q-1.07 2.79.24 5.76c1.22 2.78.82 3.8-.33 6.32zm-118.39 1.45c-2.76 4.01-10.19 9.52-10.68-.26q-.14-2.76 1.38-7.15c1.74-5.03 2.71-7.97 8.18-8.52a1.8 1.8 0 0 1 1.74 2.7c-.64 1.11-.45 2.91.14 4.24q2.12 4.81-.76 8.99zm55.04-18.45c.243-.008.479.084.652.256s.27.408.268.654c-.05 4.39-5.39 7.87-9.13 8.98a.37.37 0 0 1-.47-.42c.77-4.49 3.53-9.3 8.68-9.47zm-128.01 9.31q3.2-7.18 9.47-12.54a.61.61 0 0 1 1 .48q-.3 10.09-8.59 15.55-1.43.95-2.25-.56-.51-.95.37-2.93zm-19.18-20.32c4.86 8.62-1.96 18.79-10.33 21.75a1.28 1.28 0 0 1-1.49-.5c-2.77-4.13 8.06-18.11 10.71-21.35.145-.172.364-.263.586-.243s.418.148.524.343zm161.71 17.35q-.28-1.86-1.41-.36c-4.41 5.87-8.36 10.69-14.96 13.86-4.14 1.98-11.2 1.77-10.85-4.38q.17-2.86-1.67-.66c-3.58 4.28-8.75 11.05-15.32 8.83-3.08-1.05-1.63-6.8-.45-8.82q1.39-2.38 2.93-5.17c.341-.629.368-1.382.074-2.033s-.878-1.124-1.574-1.277l-4.76-1.04q-.47-.1-.72.3-3.08 4.94-7.44 8.66c-3.67 3.14-6.44 2.8-10.03-.06q-.47-.38-.61.21-1.6 7.19-8.3 10.08c-5.82 2.51-9.17-5.24-8.19-9.31q.75-3.15 1.86-6.47a.44.44 0 0 0-.64-.51q-.36.22-.74.73c-4.04 5.4-15.19 17.34-20.36 4.67-4.49-11.03-11.32-22.02-25.06-19.25a1.5 1.5 0 0 0-1.2 1.46q-.11 11.35-9.71 17.71-4.48 2.97-4.38-2.15.03-1.61.59-3.13 3.06-8.35 10.21-14.1.39-.32.28-.82c-3.12-14.19-18.61-15.85-28-6.71q-.37.37-.14.84c4.22 8.71-.44 17.14-7.29 22.63q-2.31 1.84-4.51 2.58a1.52 1.52 0 0 1-1.04-.04c-8.54-3.46 5.46-22.81 8.46-26.32q.36-.43-.09-.76c-6.99-5.1-17.35-3.12-24.72-.08-15.1 6.23-30.06 18.67-34.51 34.98q-.04.14-.19.11h0q-.14-.03-.12-.18c3.83-20.5 25.06-37.8 45.57-40.15q8.35-.96 15.48 3.86a.67.67 0 0 0 .84-.08q6.4-6.23 13.67-6.77c9.52-.71 17.65 5.5 19.22 14.91.023.125.098.233.206.297s.237.076.354.033c11.17-3.92 21.12 4.1 25.06 13.99 2.18 5.48 3.94 14.68 11.56 10.38 8.15-4.62 11.34-15.77 22.62-15.28q2.26.09 2.65 1.87a1.42 1.42 0 0 0 .54.85c4.08 3.13-2.46 8.73 5.32 10.84 3.65 1 7.57-4.75 9.82-7.59 2.67-3.36 1.45-4.15 1.2-7.84q-.08-1.13 1.03-1.32l1.51-.25a.8.8 0 0 1 .92.64c.47 2.33-.12 4.84 3.03 5.69q2.89.79 5.93.76.55 0 .62.55c.65 5.79-8.33 10.61-4.82 16.21a1.65 1.65 0 0 0 1.86.7c4.4-1.31 8.65-6.03 11.51-9.48q1.18-1.43 2.47-4.47c2.06-4.83 6.42-10.52 12.39-9.3q1.56.32 2.11 2c1.04 3.23-6.01 7.41-9.32 9.14q-.4.21-1.59.12c-.342-.024-.654.203-.74.54-2.12 8.42 4.8 9.78 10.33 5.79q6.81-4.93 10.91-12.25c.56-.99 1.38-1.82 2.2-2.47q.92-.73 1.74.11c2.8 2.87 1.25 8.26.52 11.61q-.36 1.63.96.6c3.34-2.61 12.97-14.06 17.69-10.13q.39.33.42.84c.28 4.25-1.31 8.45-3.15 12.12-.157.315-.23.666-.21 1.02q.23 3.89 3.65 2.29c3.07-1.44 4.82-3.09 7.02-6.07q4.43-6.01 10.3-10.66 4.68-3.71 10.45-2.07.49.14.71.6c1.01 2.16 3 3.18 2.21 5.88q-1.48 5.09 3.81 6.71c3.35 1.03 5.54-2.27 7.38-4.4q.07-.08.15-.03l.3.17a.39.39 0 0 1 .13.56c-3.08 4.6-7.87 7.17-12.15 2.79-.116-.124-.291-.173-.456-.13s-.297.173-.344.34q-2.1 7.88-9.75 10.45c-4.35 1.47-7.41-5.24-7-8.2q.55-3.96.88-4.93 2.04-5.93-1.9-1.05-2.74 3.38-6.69 7.8c-1.97 2.21-7.72 6.56-10.67 3.78-2.99-2.82.38-9.35 1.78-12.66q1.03-2.44-1.53-3.09-.58-.15-2.4.56c-3.87 1.51-9.54 7.94-12.9 11.19-1 .96-1.72 2.18-2.59 3.28-.393.496-1.063.682-1.66.46q-.67-.24-.82-.99-.09-.5.26-1.15c2.45-4.47 4.67-9 3.98-13.54zm-107.53-49.99a.36.36 0 0 1 .49.44c-.57 1.59-1.44 2.86-1.87 4.53q-1.75 6.69-7.5 11.32c-.304.247-.698.353-1.083.29s-.723-.289-.927-.62c-1.31-2.08-.33-4.09.79-6.32q3.22-6.36 10.1-9.64zm20.73-11.52c1.63-4.01 9.39-14.51 14.05-7.77.536.772.483 1.811-.13 2.53-3.54 4.14-6.96 8.72-11.82 11.59-.474.281-1.055.317-1.562.095s-.878-.674-.998-1.215q-.59-2.66.46-5.23zm-89.15-9.52q.55 5.03-.45 6.66-4.06 6.65-10.66 11.42a1.74 1.74 0 0 1-2.62-.73c-2.52-6.01 2.07-13.04 6.5-16.91q3.24-2.82 7.23-.44zm174.01 5.87c.49-3.92 4.13-10.66 8.98-9.31q.54.15.54.71c-.03 4.25-5.67 7.9-8.98 9.04q-.62.22-.54-.44zm-145.36-7.3q-2.68 5.64-8.76 7.46-1.03.31-.78-.74c.75-3.17 4.31-10.01 8.54-8.88a1.55 1.55 0 0 1 1 2.16zm134.2-13l1.66 1.47a1.03 1.03 0 0 1 .24 1.22l-.69 1.41a1.03 1.03 0 0 1-1.45.44l-.66-.39a1.03 1.03 0 0 1-.49-.76l-.31-2.49a1.03 1.03 0 0 1 1.7-.9zm-148.87-6.58c-2.32 7.47-5.92 14.72-9.79 21.49q-.25.44-.4-.04c-.93-3.13 3.78-14.11 5.55-17.58q1.52-2.97 2.98-6.19a.85.85 0 0 1 1.48-.11q.64.95.18 2.43zm-13.98 21.01q-3.99-2.38-7.23.44c-4.43 3.87-9.02 10.9-6.5 16.91a1.74 1.74 0 0 0 2.62.73q6.6-4.77 10.66-11.42 1-1.63.45-6.66l.49-.62q.31-.38.43-.85c2-7.72 4.36-19.21 11.41-24.02.391-.263.885-.32 1.323-.153s.766.538.877.993q.63 2.54-.1 5.57-2.54 10.44-9 18.86-1.9 2.48-2.21 4.47c-.49 3.15-.5 7.77 2.57 9.75q.51.32 1.08.16c4.37-1.2 8.49-6.65 9.83-10.39q2.08-5.88 7.53-7.79c1.57-.55 4.91-.65 5.87 1.18 2.03 3.86-6.05 7.78-8.45 9.32q-.44.28-.95.35-.45.07-.87-.08c-.328-.112-.687.061-.81.39-1.71 4.51.43 10.24 6.16 8.16q5.11-1.85 10.38-7.79.16-.19.34-.01l.27.28q.18.18.01.37c-3.59 4.07-10.54 9.73-16.14 9.19q-4.89-.48-5.03-6.7a.68.68 0 0 0-1.22-.4c-2.17 2.77-8.45 8.58-12.01 4.89-1.29-1.33-1.86-3.73-1.75-5.54q.13-2.19-1.1-.37-3.48 5.14-8.27 9.37c-3.29 2.88-7.23 1.62-7.88-2.71q-.57-3.73.72-7.22c2.29-6.22 9.44-14.59 16.28-9.38q.31.24.22.72zm102.75 8q.46-2.41-1.11-.52c-3.31 3.97-8.07 9.7-13.44 10.93q-.42.1-.81-.09c-3.08-1.51-2.35-4.15-2.24-6.73a.34.34 0 0 0-.54-.29c-2.45 1.72-4.91 3.73-7.72 4.87q-1.87.75-2.28 1.88-3.48 9.58-10.22 17.16c-1.43 1.61-5.94 5.16-7.73 2.18-1.02-1.71-1.02-3.36-.26-5.28 2.68-6.84 6.93-9.61 13.26-13.01q.46-.25.65-.74c4.47-11.26 8.56-22.58 12.66-33.98q1.81-5.02-1.52-9.35-.32-.42-.84-.46c-3.14-.28-8.28 3.77-10.07 6.11-5.39 7.03-6.57 16.62-5.41 25.18q.06.45-.38.54l-.27.06q-.18.04-.23-.14c-1.22-4.15-2.53-8.44-2.17-12.66q1.15-13.6 14.41-18.87 3.19-1.27 5.48-.9c2.38.4 4.06 6.43 4.25 8.5q.2 2.21-1.51 7.36-4.16 12.5-8.32 24.09-.87 2.43 1.32 1.05c3.13-1.99 6.8-4.77 9.06-8.01 3.61-5.17 12.32-14.03 17.58-5.26.096.16.264.264.448.276s.362-.069.472-.216l1.98-2.58a.63.63 0 0 1 1.03.04l.26.4a1.62 1.62 0 0 1 .13 1.52c-1.62 3.9-4.68 9.47-4.01 13.67a1.45 1.45 0 0 0 2.13 1.05c5.25-2.88 9.08-8.36 13.1-12.67.97-1.04 2.38-4 4.33-3.97 2.69.04 3.06 2.46 2.72 4.72-.63 4.23-.08 9.32-1.4 13.28a.62.62 0 0 0 .8.78q.34-.12.81-.6 5.38-5.45 10.11-11.46c1.34-1.7 1.35-3.12.5-4.97q-.22-.47.03-.93l1.78-3.25a.94.94 0 0 1 .611-.468.98.98 0 0 1 .769.138c2.45 1.62 1.25 4-.05 5.88q-.29.42-.26.93.19 3.92 3.33 6.19.45.32.99.24 1.62-.26 2.59-1.4c3.31-3.9 6.38-8.54 11.03-9.97a1.56 1.56 0 0 1 1.95 1.95l-4.89 15.92c-.108.346-.044.723.174 1.015s.561.465.926.465c3.82.01 8.78-5.45 11.32-8.13q1.42-1.5 2.44-3.81c2.58-5.88 5.73-10.69 12.96-9.76.721.09 1.3.641 1.43 1.36q.5 2.76-1.22 4.33-4.12 3.77-9.35 5.6-.44.15-.54.6c-.76 3.24-.38 7.43 3.67 7.84 5.87.6 14.23-9.14 16.95-13.3q1.61-2.46.25-5.33-.2-.42-.07-.86.47-1.59 2.2-1.76 1.39-.13 1.44 1.26c.21 6.04 3.9 5.46 8.65 5.76a1.12 1.12 0 0 1 1.01 1.38c-1.29 5.32-6.77 9.18-5.55 14.84a1.58 1.58 0 0 0 1.29 1.23c4.39.69 11.97-8.42 14.18-11.71a.63.63 0 0 1 .8-.21l.25.13c.098.046.169.134.194.241s.002.22-.064.309c-3.17 4.41-9.81 12.94-15.77 12.87-5.27-.06-5.08-5.71-2.99-8.97q2-3.14 3.21-6.7a1.35 1.35 0 0 0-.89-1.73l-5.21-1.56q-.51-.15-.8.29c-3.69 5.41-15.56 18.26-23.14 15.23q-3.45-1.38-3.34-6.21.04-1.92-1.29-.54-3.64 3.77-8.38 7.52c-1.72 1.36-6.29 2.7-7.39-.14-1.43-3.72 4.78-16.42 3.99-17.53a.5.5 0 0 0-.76-.07q-4.2 4.15-7.86 8.95-1.61 2.12-4.08 1.53c-2.2-.52-3.65-2.68-4.6-4.66-.086-.18-.258-.304-.458-.328s-.4.054-.532.208l-12.25 14.43q-3.17 3.73-3.47-1.15-.53-8.39.28-16.71.21-2.13-1.09-.43-5.27 6.9-12.37 13.31c-1.83 1.66-7.44 4.61-8.42-.03-.59-2.78.95-5.02 1.38-7.19zm-102.75-8q-3.99-2.38-7.23.44c-4.43 3.87-9.02 10.9-6.5 16.91a1.74 1.74 0 0 0 2.62.73q6.6-4.77 10.66-11.42 1-1.63.45-6.66" fill="#f4e5d7" fill-rule="evenodd"/></svg>