<svg xmlns="http://www.w3.org/2000/svg" viewBox="0 0 250 250" fill="#bd4b51"><path d="M113.06 54.48q-.861 2.101.771.525 6.661-6.426 13.913-12.673 4.492-3.855 10.158-3.934c5.498-.078 6.057 3.911 3.811 7.879q-6.962 12.259-13.902 24.519-1.71 3.04-2.548 6.593a.682.771 48.6 0 0-.022.179q-.224 2.414 2.291 2.123 2.716-.302 4.962-1.877c9.857-6.895 16.07-15.433 22.921-25.927 4.56-6.996 11.812-12.583 20.596-12.773q10.482-.224 19.467-.235 4.828-.011 1.319 3.297-.19.179-1.229.436c-1.341.335-3.151 2.202-3.811 3.107-2.704 3.666-21.747 31.827-14.774 34.599q.548.212 1.095-.022c7.096-3.096 12.405-8.706 16.998-14.763q.313-.425.659-.503.525-.123.872.279a1.274 1.274 0 0 1 .168 1.386c-5.163 10.561-16.081 22.474-29.156 20.361a2.783 2.783 0 0 1-2.246-2.045c-.883-3.353 1.095-7.99 2.324-11.041q.749-1.866-.793-.559-6.012 5.096-12.673 10.46c-3.241 2.615-13.042 7.61-13.165-.961q-.056-3.666.939-7.197a.212.212 0 0 0-.201-.268q-.156 0-.313 0-.123 0-.212.089c-4.303 4.56-13.712 12.282-20.294 11.98-7.901-.369-5.387-8.884-3.33-13.22q6.739-14.159 12.539-25.692 2.514-5.007-1.632-1.24-5.398 4.895-10.84 10.371-9.544 9.6-12.148 14.964-4.034 8.314-5.197 10.427c-1.71 3.073-5.319 3.04-6.672-.335-3.073-7.655 10.952-26.955 13.69-35.973a.458.447 83.4 0 0-.659-.525c-7.644 4.459-12.55 11.142-18.305 17.556-5.297 5.912-7.968 12.896-11.119 20.35q-1.609 3.811-5.655 4.738l-2.067.469q-4.012.905-2.425-2.894L80.71 54.224q1.173-2.783-.782-.481L67.811 68.036q-1.207 1.419-1.196-.447l.011-3.14a1.363 1.386 63.2 0 1 .279-.827l16.729-22.217a4.358 4.37 8.9 0 1 2.034-1.486l12.148-4.325q1.643-.581.816.961L89.368 53.91q-1.05 1.978.525.391c3.442-3.442 22.272-21.501 27.447-15.455 3.118 3.643-2.883 12.203-4.28 15.634zm46.311 20.306c6.102-5.789 22.675-22.708 22.161-31.302q-.034-.559-.57-.726c-5.398-1.687-10.024 1.576-13.88 5.387-7.823 7.722-14.774 19.434-15.69 30.52a.849.861 78.8 0 0 1.24.827q3.878-1.989 6.739-4.705zm-56.838 50.221c6.035-14.595 17.188-26.765 32.274-31.973 5.286-1.833 11.667-1.341 12.494 5.543q1.196 9.879-4.638 18.73c-8.113 12.293-16.797 21.792-31.95 24.239-12.751 2.056-11.354-8.873-8.18-16.54zm9.664 11.072a7.666 23.424 32.6 0 0 19.078-15.603 7.666 23.424 32.6 0 0 6.161-23.864 7.666 23.424 32.6 0 0-19.078 15.603 7.666 23.424 32.6 0 0-6.161 23.864zm-25.679-13.407q-1.654 1.777-3.621 4.146c-5.163 6.213-16.26 15.031-24.843 14.159q-.525-.045-.916-.413c-4.124-3.878 1.274-18.73 3.867-23.301q7.521-13.287 18.149-20.518c7.286-4.973 22.619-3.565 31.548-3.397a.849.861 82.2 0 1 .805.603q.335 1.062-.291 2.045a1.408 1.386 8.1 0 1-.771.57q-2.727.782-3.565 1.956-4.884 6.828-10.728 19.758c-9.477 20.943-15.679 36.767-28.81 51.384-9.264 10.292-24.34 16.718-37.873 13.835-11.332-2.414-16.763-15.299-15.388-26.195q.268-2.123 2.403-1.945l.313.022a1.419 1.408 2 0 1 1.308 1.397q.056 3.263.268 6.001c.939 12.405 11.019 14.785 21.378 12.449 27-6.068 38.063-28.832 47.272-52.234q.581-1.498-.503-.324zm-21.356 11.209a.581.57 6.4 0 0 .525.648c1.989.179 5.565-2.939 6.962-4.224q12.215-11.276 20.954-25.39 1.408-2.269 1.956-5.219a1.9 1.9 0 0 0-1.755-2.246c-7.275-.469-10.684 3.453-15.467 9.186-6.895 8.27-11.622 16.126-13.176 27.245zm84.642 21.836a.324.313 48.4 0 0-.503-.034c-7.242 8.761-16.003 19.166-28.43 19.803a1.442 1.486 64.1 0 1-.983-.324c-3.096-2.47-1.397-10.516-.257-13.645 4.861-13.343 17.635-33.805 33.895-34.197q9.667-.235 18.138-.279 4.917-.022 1.442 3.442-.257.257-1.587.525a3.029 3.062 11.4 0 0-1.945 1.308c-9.164 13.947-15.936 29.559-22.306 44.936-8.761 21.133-24.999 42.265-50.468 40.455q-16.014-1.14-19.758-17.299-.581-2.492.201-9.063.156-1.352 1.497-1.129l.458.078a.983.995 7.7 0 1 .827 1.095c-1.084 9.13 4.694 17.344 13.645 19.467 16.752 3.99 37.616-17.098 44.299-29.592q6.504-12.17 11.857-24.899.168-.38-.022-.648zm7.264-23.803c-2.336-2.134-8.449.738-10.36 2.57-9.443 9.119-16.964 19.423-18.741 32.8q-.078.559.078.827a.782.771 63.4 0 0 .995.335c9.968-4.571 19.993-18.383 25.971-27.335q1.855-2.771 2.906-6.012.603-1.866-.849-3.185zm31.995 29.547q-5.766 4.56-11.254 9.421c-4.202 3.733-16.271 10.181-15.076-1.732q.771-7.711 4.18-13.612 8.314-14.394 17.422-23.39 4.973-4.928 13.332-4.962 10.36-.056 21.2.034a1.006 1.006 0 0 1 .995.894c.257 2.358-2.492 2.503-3.733 3.408q-1.844 1.363-3.207 3.241-8.851 12.192-14.662 26.094-1.274 3.04-1.162 5.755a2.179 2.179 0 0 0 3.118 1.866c7.353-3.543 12.896-9.454 17.702-16.081a.715.715 0 0 1 1.095-.089l.224.224q.861.861.279 1.922c-5.532 10.013-15.556 21.568-28.262 21.166-8.046-.268-2.883-10.136-1.721-13.835q.279-.916-.469-.324zm14.494-29.291a1.084 1.084 0 0 0-.771-1.185c-5.141-1.498-9.376 1.308-12.963 4.694-8.247 7.812-15.791 19.825-16.528 31.492a.693.693 0 0 0 .995.659c10.583-5.241 20.663-19.043 26.921-28.832q1.81-2.839 2.347-6.828z"/></svg>