<svg xmlns="http://www.w3.org/2000/svg" viewBox="0 0 512 180"><defs class="svg-src"><linearGradient id="a" x1="-22.1" x2="113.3" y1="100.1" y2="39.9" gradientUnits="userSpaceOnUse"><stop offset="0%" stop-color="#21a2d3"/><stop offset=".3" stop-color="#234a7c"/><stop offset=".7" stop-color="#23497b"/><stop offset="100%" stop-color="#21a2d3"/></linearGradient><linearGradient href="#a" id="b" x1="-57.2" x2="215.6" y1="233" y2="95.6" gradientTransform="matrix(.56 0 0 .56 -1.9 -2.5)" gradientUnits="userSpaceOnUse"/></defs><path d="M229.4 80a32.5 32.5 0 1 1-65 0 32.5 32.5 0 0 1 65 0zM220.4 80a23.4 23.4 0 1 0-46.8 0 23.4 23.4 0 0 0 46.8 0zM376.6 112a32.5 32.5 0 0 1-25.2-20.4 37.2 37.2 0 0 1-.3-22.3 35 35 0 0 1 18.4-19.5 52 52 0 0 1 12.3-2.6c4.8 0 12.9 2.5 17.5 5.4l3 2-2.9 3.3c-1.6 1.8-3 3.2-3.2 3.2-.3-.1-2.2-1-4.3-2.2-3.7-1.9-4.1-2-10-2s-6.4.2-9.8 1.9a23.6 23.6 0 0 0-13.2 18.4 27 27 0 0 0 2.2 13.7c4.7 9 15.2 14.1 24.9 12.2a31 31 0 0 0 7-2.6l3.5-1.8 1.9 2.3c3.8 4.8 3.7 4.3 2.2 5.6-3 2.4-9.2 4.8-14 5.4-5.1.7-5 .7-10 0zM115.8 111a780 780 0 0 1-.3-31.2v-31h11.9c13.2 0 15 .4 20.3 3.7 3.3 2.2 6 5.3 7.8 9.5 1 2.5 1.4 4 1.4 8s-.3 5.2-1.7 8.2c-1.7 4-5.5 8-9 9.9-1.2.6-2.2 1.4-2.2 1.8 0 .3 3 5.2 6.7 10.6A73.9 73.9 0 0 1 157 111c-.3.2-2.7.2-5.4 0l-5-.2-6.7-10-6.6-9.9h-8.9V101l-.2 10.2-4 .1c-2.2 0-4.2 0-4.4-.3zm25.4-30.7c2-1 3.6-2.3 4.7-4 1.5-2 1.7-2.8 1.7-6.3 0-3.6-.2-4.5-1.5-6.5a15 15 0 0 0-4.5-4c-2.8-1.6-3.1-1.7-10-1.7h-7.2v24h7c6.2 0 7 0 9.8-1.5zM239.4 111.1a629 629 0 0 1-.4-31.3v-31H276v9h-27.4l.1 8.9.2 8.7 10.8.2 10.8.1-.2 4.4-.1 4.3-10.8.2h-10.8l.1 8.6.2 8.5 13.4.3 13.4.3v8.9l-17.9.2c-9.8 0-18 0-18.3-.3zM285.4 80.4c0-34.2-.3-31.7 3.1-28.4l14.6 13.4 8 7.6A178 178 0 0 0 330 89.7c.5 0 .7-4.5.7-20.4V48.9h8.9v62.8l-3-2.8-10-9.4L315.2 89A329.7 329.7 0 0 0 295 70.7c-.3 0-.5 8-.5 20 0 22.9.5 20.8-5.4 20.8h-3.6zM408.6 110.8c-.3-.5.4-2.2 4-10.4l2.8-6.4 2.5-5.7 7-16 4.3-10 3.2-7.3c1-2.4 2-4.7 2.4-5.2.8-1.1.6-1.6 7.1 13.6l5 11.4a71 71 0 0 1 3 7.2l3.4 7.4 5.3 12.1c1.9 4.3 3.5 8.2 3.6 8.7.1.8-.4 1-3.5 1.2-5.4.3-5.8 0-7.5-4l-2.7-5.9-1-2.3-12.2.1-12 .2-.8 1.4-2.8 5.8-2 4.5h-4.4c-2.5 0-4.6-.2-4.7-.4zm34.7-20c.6-.9-7-18.4-8-18.4-.4 0-.8.4-1 1l-1.4 3.2c-4 9.3-5.5 12.9-5.5 13.8 0 1 .6 1 7.8 1 4.3 0 8-.3 8.1-.5zM470.2 111.1c-.1-.2-.3-14.3-.3-31.3v-31H482c10.6 0 12.5.2 15.1 1.2A21 21 0 0 1 509.6 61c1.8 3.1 1.9 3.7 1.9 9 0 5.2-.1 5.8-1.8 8.9-1 1.8-2.3 3.8-2.8 4.5a25.2 25.2 0 0 1-6.1 4.7c-.3 0-1 .5-1.5 1-.9 1-.6 1.5 4.6 9.4l6 8.9c1.3 1.6 2.4 3.6 2 3.8-.7.4-7.5.4-9 .1-1.3-.3-2.7-2-6.6-8l-6.8-10-1.7-2.4h-4.2c-2.3 0-4.3 0-4.3.2l-.4 10.2-.4 10-4 .1a17 17 0 0 1-4.3-.2zM494.8 81a11.8 11.8 0 0 0 4-19.6c-3-3-5.2-3.6-12.7-3.6-5.5 0-6.7.2-7 1-.4 1.1-.4 22.2.1 22.7.2.2 3.3.4 6.9.4 4.7 0 7.1-.3 8.7-1z"/><path fill="#004694" d="m73.6 125.4.8-2.3c1.8-4.4.5-10.9-3.3-16-2.3-3.2-3.1-3.5-3.1-1.6 0 1.1-.2 1-1.5-.7l-4-4.3c-1.3-1.2-3-3.5-3.7-5-.7-1.5-2.8-4.3-4.6-6.3-5.7-6-7.2-10.7-4.5-14.6 1.3-1.9 3.8-3.5 18.2-11 7.5-4 8-4.1 11.6-4.1 4.2 0 6.6 1 8.3 3.9 1 1.7 1 3 1 17.6.1 13.3 0 16.4-1 20.2a40.3 40.3 0 0 1-14.2 24.2zM5.4 119.8C1.1 117.5 1 117 .2 105c-1-18 1.2-31.8 6.4-40.3a54.3 54.3 0 0 1 9.2-10.7c.1.1-.2 1.1-.6 2.2-.5 1.1-.9 3.7-.9 5.6 0 3 .4 4.3 2 7.4 2.2 4.4 6 9.2 5.7 7.2 0-.6.2-1.2.4-1.1 1 0 6.7 6.5 8.2 9.4a45 45 0 0 0 5.1 6.6c5.9 6.1 6.9 11.4 2.8 15.2-.9.8-5 3.2-9 5.4-18 9.6-19.6 10-24 7.8z"/><path fill="url(#b)" d="M88.3.3C78 7.6 67.8 15 57.7 22.5c-8 6.3-16.4 11.8-24.2 18.1-6.1 4.3-12.2 8.5-17.9 13.5-4.6 2.6-2.7 8.2-2.3 12.5 2.1 9.4 11.4 14.2 18.4 19.8-4.3-5.9-4-15.2 2-19.8 7.4-6.5 16.6-10 24.9-15.2 7.4-4.6 15.6-8 22.4-13.6 5.9-4.9 7.9-12.6 7.6-20 0-5.8.2-11.7-.3-17.5Zm-30.2 94a14.3 14.3 0 0 1-3.5 19.8c-6.6 5.2-14.2 8.6-21.4 12.8-5.4 3.2-10.9 5.8-16 9.2a29.4 29.4 0 0 0-16 16.9l-.4 26.7c10.7-7.9 21.4-15.4 32-23.6 3.3-1.8 7.6-5.5 11.3-7.9 9.2-7.1 19.4-13.8 28.4-21.5 3.3-2.5 6.2-5.7 4-10.2-2-9.8-8.5-19.2-18.4-22.3z"/></svg>