<svg xmlns="http://www.w3.org/2000/svg" viewBox="0 0 1536 1536"><path fill="#00acc8" d="M1536 768A768 768 0 1 1 0 768 768 768 0 0 1 768 0a768 768 0 0 1 768 768z"/><path fill="#f9fbfb" d="M1482.911 766.916a714.911 714.911 0 0 1-1429.822 0 714.911 714.911 0 0 1 1429.822 0z"/><path d="M776.287 275.293c-13.246-.111-26.496.316-39.709 1.293-275.232 20.334-479.892 258.411-458.496 533.74 12.313 158.399 102.937 303.207 239.258 384.477 76.754 45.769 160.221 69.151 250.4 70.149 194.775 2.168 375.34-113.016 455.244-290.48 101.56-225.557 22.933-486.992-183.84-620.928-77.627-50.275-170.133-77.472-262.857-78.25zm.363 18.176c66.291.554 130.403 14.687 192.336 42.396 87.47 39.128 163.114 106.925 212.225 189.084 69.867 116.854 87.512 260.404 45.295 390.514-25.688 79.174-69.102 147.206-130.24 204.096-150.097 139.67-371.957 166.312-551.221 70.301-129.405-69.304-221.948-198.936-244.623-344.209-24.583-157.445 29.189-315.054 145.393-423.703 72.252-67.559 165.521-112.171 263.818-124.506 22.581-2.833 44.921-4.157 67.018-3.973z" fill="#00acc8"/><path fill="#1a191a" d="M507.986 640.079l-.033-51.777q0-.488.499-.488l25.374.011a.466.466 0 0 1 .466.466l-.011 137.773q0 .477-.466.477H508.42q-.585 0-.585-.585.011-22.805.108-45.599.033-7.858-1.409-12.075c-3.674-10.741-14.08-18.318-25.493-18.6-23.683-.585-37.372 26.685-21.938 45.079 7.88 9.386 19.25 11.977 31.552 7.977q.564-.173.835.336l9.365 16.995a.629.65 57.5 0 1-.195.824c-19.217 13.798-46.759 6.85-61.63-8.975-32.397-34.457-4.151-89.518 42.532-85.562q16.215 1.377 25.71 13.96.715.954.715-.238z"/><path d="M762.331 652.252c27.281 21.504 18.534 63.819-14.806 72.794q-5.528 1.485-16.107 1.485-11.749 0-23.401 0a1.03 1.041 75.9 0 1-.91-.542l-12.53-23.314a.271.271 0 0 1 .238-.401q21.494.033 43.106.011c6.384-.011 12.15-8.541 12.638-13.679.683-7.132-3.338-14.6-10.297-17.006q-2.2-.759-7.479-.748-22.87.043-45.675 0a.412.412 0 0 0-.412.412V726q0 .531-.531.531h-26.859q-.564 0-.564-.564V588.085a.271.271 0 0 1 .271-.271q30.739.011 61.467 0 11.717 0 17.396 1.539c27.26 7.435 38.792 37.969 24.301 62.042q-.303.499.152.856zm56.33 19.011v54.736q0 .531-.531.531h-26.794q-.618 0-.618-.618l-.011-137.708a.39.39 0 0 1 .39-.39q29.72.011 59.527 0 13.234 0 18.361 1.268c27.422 6.763 40.169 38.261 25.016 62.226q-.314.509.152.878c27.477 21.45 18.589 63.613-14.351 72.772q-5.571 1.55-16.193 1.572-11.847.022-23.694-.011-.574 0-.845-.509l-12.638-23.51a.141.152 76.4 0 1 .141-.217q20.724.011 41.491 0 5.333 0 8.79-3.403 10.427-10.275 2.439-22.079c-3.425-5.073-8.487-5.972-14.849-5.951q-22.653.054-45.361 0a.423.412 0 0 0-.423.412z" fill="#00acc8"/><path d="M143.691 621.393c-8.01-.596-12.064 10.351-7.62 15.727 4.281 5.181 14.286 6.048 20.605 4.314 9.311-2.547 18.133-9.722 26.133-15.077q21.559-14.437 45.556-3.945 17.028 7.446 16.161 26.057c-.444 9.321-4.574 20.041-12.248 25.471-10.34 7.316-22.881 4.422-34.121 1.507q-.325-.087-.249-.401l4.195-17.678a.347.358 14.6 0 1 .434-.26c7.522 1.918 18.99 6.547 22.469-4.097 4.823-14.719-14.177-16.41-23.043-13.375q-4.444 1.517-9.376 4.726c-20.149 13.137-36.375 25.32-61.587 13.343-15.89-7.555-18.426-22.935-12.085-38.413 7.067-17.277 22.762-19.152 39.139-14.394q.574.173.434.759l-4.151 17.386a.401.39 15.1 0 1-.499.282q-5.018-1.539-10.145-1.929zm1172.191-2.163l71.421-19.807c5.266-1.46 10.68 1.603 12.141 6.869l.266.961c1.46 5.266-1.603 10.68-6.869 12.141l-71.421 19.807c-5.265 1.46-10.68-1.603-12.14-6.869l-.266-.961c-1.46-5.266 1.603-10.68 6.869-12.141zm101.952-13.825c3.696 18.719-7.11 29.915-24.127 34.598q-32.994 9.083-65.998 18.155c-12.757 3.501-25.916-.748-32.419-12.595-6.189-11.262-7.869-25.862.889-36.31 5.04-6.016 12.606-8.747 21.19-11.153q30.403-8.519 60.86-16.887c20.691-5.69 35.421 2.981 39.605 24.192zM146.653 534.514l118.527 44.788c.152.057.228.226.17.377l-6.858 18.149c-.057.152-.226.228-.377.17L139.588 553.21c-.152-.057-.228-.226-.17-.377l6.858-18.149c.057-.152.226-.228.377-.17zm1197.12-7.614q-.065-.13.065-.195 5.051-2.244 10.026-4.65c7.88-3.815 13.765-7.761 8.541-17.039-3.263-5.81-9.018-5.463-14.47-2.948q-31.563 14.557-63.093 29.189c-6.872 3.197-10.568 8.823-5.875 16.052 4.151 6.395 9.17 5.105 15.554 2.298q7.62-3.349 15.164-7.034a.553.553 0 0 1 .748.271l7.501 16.074q.228.488-.249.726c-10.438 5.17-22.577 12.02-34.294 11.132-13.505-1.041-22.014-13.614-24.908-25.797-3.403-14.34 4.91-25.547 17.342-31.411q31.454-14.817 62.996-29.438c14.069-6.514 28.149-5.04 37.329 8.465 5.354 7.869 8.639 18.665 5.517 27.867-4.401 12.985-18.426 18.166-29.384 23.217q-.574.26-.845-.314zM213.927 472.836c-7.24-3.956-15.359-8.595-20.193 1.366-2.482 5.127-.997 8.66 3.382 11.999 13.592 10.351 30.262 1.734 43.995-2.97q25.341-8.693 45.827 7.891c13.332 10.806 12.215 27.715 2.786 40.397-12.909 17.342-29.991 12.692-45.718 3.078q-.499-.303-.228-.824l8.4-15.771a.347.358 29.2 0 1 .488-.141c4.336 2.482 11.804 7.284 16.844 6.243 5.94-1.225 10.329-9.82 6.839-15.099q-1.897-2.851-4.845-4.607c-14.026-8.313-28.43.054-42.001 4.086-13.744 4.097-25.298 4.715-37.839-2.189-18.318-10.08-24.008-26.122-11.749-44.472 11.045-16.518 27.834-14.719 43.117-5.484a.293.271 29.8 0 1 .108.369l-8.476 15.911q-.249.488-.737.217zm1009.791 8.996l106.862-67.555c.208-.132.482-.07.613.138l10.205 16.143c.132.208.07.482-.138.613l-106.862 67.555c-.208.132-.482.07-.613-.138l-10.205-16.143c-.131-.208-.07-.482.138-.613zm-981.22-84.706l-12.064 16.063a.412.412 0 0 1-.574.076l-13.895-10.405a.412.412 0 0 1-.076-.574l36.646-48.775a.412.412 0 0 1 .574-.076l13.885 10.416a.412.412 0 0 1 .076.574l-12.075 16.063a.412.412 0 0 0 .076.574l86.614 65.044a.412.412 0 0 1 .076.574l-11.511 15.326a.412.412 0 0 1-.574.076l-86.603-65.033a.412.412 0 0 0-.574.076zm1036.956-22.642l-83.795 68.892a.325.325 0 0 1-.455-.043l-12.281-14.947a.325.325 0 0 1 .043-.455l83.795-68.892a.325.325 0 0 0 .043-.455l-12.877-15.641a.325.325 0 0 1 .043-.455l13.538-11.142a.325.325 0 0 1 .455.043l38.868 47.247a.325.325 0 0 1-.043.455l-13.549 11.132a.325.325 0 0 1-.455-.043l-12.877-15.651a.325.325 0 0 0-.455-.043zm-112.453-22.252q-.423.65-.997.13l-13.408-12.075a.412.412 0 0 1 .011-.618l48.558-39.995q1.366-1.127.39.347zm-830.931-9.159l19.12-18.556a.423.423 0 0 1 .596.011l12.075 12.454a.423.423 0 0 1-.011.596l-19.109 18.513a.423.423 0 0 0-.011.596l25.385 26.176a.423.423 0 0 0 .596.011l24.182-23.488a.423.423 0 0 1 .596.011l12.096 12.421a.423.423 0 0 1-.011.596l-38.543 37.416a.423.423 0 0 1-.596-.011l-88.098-90.732a.423.423 0 0 1 .011-.596l38.554-37.383a.423.423 0 0 1 .596.011l12.085 12.432a.423.423 0 0 1-.011.596l-24.203 23.455a.423.423 0 0 0-.011.596l24.117 24.864a.423.423 0 0 0 .596.011zm820.764 24.268l-17.819-16.052a.336.336 0 0 0-.444-.011l-17.57 14.481a.336.336 0 0 1-.444-.011l-13.148-11.814a.336.336 0 0 1 .011-.509l99.804-80.533a.336.336 0 0 1 .444.011l21.32 19.196a.336.336 0 0 1 .065.434l-69.672 107.641a.336.336 0 0 1-.509.065l-14.502-13.039a.336.336 0 0 1-.054-.434l12.573-18.99a.336.336 0 0 0-.054-.434zm94.602-90.494l-26.36 2.515a.336.336 0 0 1-.26-.087l-9.408-8.487a.336.336 0 0 1 .13-.574l21.916-6.503a.336.336 0 0 1 .325.076l13.852 12.476a.336.336 0 0 1-.195.585zm-801.752 65.228l-14.405 9.538a.087.087 0 0 1-.119-.033l-70.128-106.004a.087.087 0 0 1 .033-.119l23.065-15.261a.087.087 0 0 1 .119.011l61.76 66.854a.09.09 0 0 0 .152-.098l-38.261-82.397a.087.087 0 0 1 .033-.108l23.065-15.25a.087.087 0 0 1 .119.032l70.128 106.015a.087.087 0 0 1-.033.119l-15.619 10.329a.087.087 0 0 1-.119-.033l-49.154-74.301a.087.087 0 0 0-.108-.022l-.141.065a.087.087 0 0 0-.033.119l37.914 81.79a.087.087 0 0 1-.033.108l-15.651 10.329a.087.087 0 0 1-.119-.011l-61.37-66.074a.087.087 0 0 0-.13.108l49.068 74.17a.087.087 0 0 1-.033.119zm665.518-91.968l-58.064 70.366a.087.087 0 0 1-.108.011l-16.096-9.625a.087.087 0 0 1-.043-.098l32.766-83.113a.087.087 0 0 0-.043-.108l-.119-.065a.087.087 0 0 0-.119.032l-45.274 75.569a.087.087 0 0 1-.119.033l-14.817-8.877a.087.087 0 0 1-.033-.119l65.337-109.028a.087.087 0 0 1 .119-.032l23.716 14.199a.087.087 0 0 1 .033.098l-33.59 84.576a.087.087 0 0 0 .141.087l57.793-70.084a.087.087 0 0 1 .108-.011l23.726 14.21a.087.087 0 0 1 .033.119l-65.337 109.028a.087.087 0 0 1-.119.033l-16.063-9.625a.087.087 0 0 1-.033-.119l46.347-77.357a.087.087 0 0 0-.141-.097zm-561.227-10.861l-16.486 6.872a.683.683 0 0 1-.921-.455l-15.174-60.535q-.499-1.962.542-.228l32.3 53.544q.336.553-.26.802zm439.699-71.823l1.059.387a9.79 9.79 0 0 1 5.841 12.583l-25.486 69.643a9.79 9.79 0 0 1-12.583 5.841l-1.059-.387a9.79 9.79 0 0 1-5.841-12.583l25.486-69.643a9.79 9.79 0 0 1 12.583-5.841zM563.416 254.02l-22.079 9.17a.379.379 0 0 0-.228.444l5.528 22.025a.379.379 0 0 1-.228.444l-16.226 6.742a.379.379 0 0 1-.52-.26L499.77 167.992a.379.379 0 0 1 .228-.434l26.414-10.991a.379.379 0 0 1 .477.152l67.288 109.05a.379.379 0 0 1-.173.553l-17.917 7.435a.379.379 0 0 1-.477-.152l-11.717-19.434a.379.379 0 0 0-.477-.152zm432.829-3.533q-2.916 7.977-6.156 12.866c-9.636 14.535-26.718 14.405-40.733 6.525-15.185-8.53-16.258-23.358-10.763-38.478q10.796-29.72 21.656-59.419c3.067-8.389 7.262-16.367 15.023-20.811 11.229-6.427 27.39-1.908 36.787 5.875 9.235 7.663 10.503 20.355 6.417 31.834q-10.98 30.847-22.231 61.608zM680.931 141.361l17.732 60.297a.347.347 0 0 1-.293.444l-18.144 2.515a.477.477 0 0 1-.542-.477l.618-62.681q.022-2.157.629-.098zm182.483-6.828l3.295-17.06a.39.39 0 0 1 .455-.303l59.939 11.587a.39.39 0 0 1 .303.455l-3.306 17.071a.39.39 0 0 1-.455.303l-19.77-3.837a.39.39 0 0 0-.455.303l-20.594 106.373a.39.39 0 0 1-.455.303l-18.849-3.631a.39.39 0 0 1-.303-.455l20.572-106.373a.39.39 0 0 0-.303-.455l-19.77-3.826a.39.39 0 0 1-.303-.455zm-183.936 87.882l-.271 22.762a.347.347 0 0 1-.293.347l-17.451 2.395a.347.347 0 0 1-.39-.347l2.731-128.148a.347.347 0 0 1 .303-.336l28.398-3.913a.347.347 0 0 1 .379.238l37.405 122.599a.347.347 0 0 1-.282.444l-19.293 2.666a.347.347 0 0 1-.379-.238l-6.406-21.84a.347.347 0 0 0-.379-.238l-23.781 3.262a.347.347 0 0 0-.293.347zm97.994-18.578c-.238 6.959-1.268 16.421 8.173 17.96 7.468 1.214 12.28-3.349 12.519-10.926q1.561-49.274 3.035-98.775a.401.401 0 0 1 .412-.39l18.155.639a.358.358 0 0 1 .336.369q-1.517 48.374-3.057 96.813c-.705 22.22-14.611 33.601-36.31 30.175-17.906-2.818-23.954-16.985-23.379-33.427q1.658-47.81 3.197-95.469a.423.423 0 0 1 .434-.412l19.174.683q.347.022.336.358-1.474 46.163-3.024 92.401z" fill-rule="evenodd" fill="#286181"/><path d="M686.665 612.484a.618.618 0 0 1 .629-.618l37.925.065a15.5 15.521.1 0 1 15.467 15.543v.542a15.5 15.521.1 0 1-15.532 15.5l-37.925-.065a.618.618 0 0 1-.607-.618zm131.823.303a.975.975 0 0 1 .986-.976l37.817.065a15.38 15.727.1 0 1 15.348 15.749v.26a15.38 15.727.1 0 1-15.413 15.706l-37.817-.065a.975.975 0 0 1-.965-.976z" fill="#f9fbfb"/><path d="M596.074 625.762a51.485 51.257 0 0 0-51.484 51.256 51.485 51.257 0 0 0 51.484 51.258 51.485 51.257 0 0 0 51.484-51.258 51.485 51.257 0 0 0-51.484-51.256zm-.098 23.617a23.997 27.596 0 0 1 23.996 27.596 23.997 27.596 0 0 1-23.996 27.596 23.997 27.596 0 0 1-23.998-27.596 23.997 27.596 0 0 1 23.998-27.596zm371.43-23.477a51.116 51.636 89.7 0 0-51.367 51.387 51.116 51.636 89.7 0 0 51.902 50.846 51.116 51.636 89.7 0 0 51.369-51.387 51.116 51.636 89.7 0 0-51.904-50.846zm.17 23.498a23.997 27.585 0 0 1 23.998 27.586 23.997 27.585 0 0 1-23.998 27.584 23.997 27.585 0 0 1-23.998-27.584 23.997 27.585 0 0 1 23.998-27.586zm95.144 11.382a.26.26 0 0 0 .444 0l19.868-32.907a.737.748 15.4 0 1 .639-.369l31.747-.022q.488 0 .195.401l-35.953 49.1q-.369.499.011.997l36.245 48.363a.119.119 0 0 1-.098.195h-31.877q-.629 0-.997-.499l-72.36-98.059a.314.314 0 0 1 .249-.499l31.129.022a1.517 1.507 74.1 0 1 1.29.726zm-52.081 65.185l26.208-35.302a.358.358 0 0 1 .434-.108l23.694 10.806a.358.358 0 0 1 .141.542l-18.198 24.496a.358.358 0 0 1-.293.141h-31.693a.358.358 0 0 1-.293-.574z" fill="#1a191a"/><path d="M899.151 865.962a2.493 2.493 0 1 1-4.986 0 2.493 2.493 0 1 1 4.986 0zm-266.637 0a2.493 2.493 0 1 1-4.986 0 2.493 2.493 0 1 1 4.986 0zm334.989-.142a10.243 11.132.6 0 1-10.126-11.238 10.243 11.132.6 0 1 10.359-11.024 10.243 11.132.6 0 1 10.126 11.238 10.243 11.132.6 0 1-10.359 11.024zm-134.402 0a10.243 11.132.6 0 1-10.126-11.238 10.243 11.132.6 0 1 10.359-11.024 10.243 11.132.6 0 1 10.126 11.238 10.243 11.132.6 0 1-10.359 11.024zm-128.983-.011a10.243 11.121.6 0 1-10.126-11.227 10.243 11.121.6 0 1 10.359-11.013 10.243 11.121.6 0 1 10.126 11.227 10.243 11.121.6 0 1-10.359 11.013zm87.3 0a10.297 11.11.3 0 1-10.239-11.164 10.297 11.11.3 0 1 10.355-11.056 10.297 11.11.3 0 1 10.239 11.164 10.297 11.11.3 0 1-10.355 11.056zm-43.375 0a10.297 11.11.4 0 1-10.219-11.181 10.297 11.11.4 0 1 10.374-11.038 10.297 11.11.4 0 1 10.219 11.181 10.297 11.11.4 0 1-10.374 11.038zm-86.994.01a11.121 10.275 89.4 0 1-10.391-11.012 11.121 10.275 89.4 0 1 10.158-11.228 11.121 10.275 89.4 0 1 10.391 11.012 11.121 10.275 89.4 0 1-10.158 11.228zm210.516-14.296l6.384-10.189a.412.412 0 0 1 .347-.195l2.482.033a.412.412 0 0 1 .336.639l-8.118 12.497a.412.412 0 0 0 0 .455l8.248 12.866a.412.412 0 0 1-.347.629h-2.829a.412.412 0 0 1-.347-.195l-6.59-10.275a.412.412 0 0 0-.694 0l-6.406 10.286a.412.412 0 0 1-.347.195l-2.525-.033a.412.412 0 0 1-.347-.639l8.216-12.66a.412.412 0 0 0 0-.444l-8.086-12.692a.412.412 0 0 1 .347-.629l2.84-.011a.412.412 0 0 1 .347.195l6.395 10.167a.412.412 0 0 0 .694 0zm-284.521 12.129l7.056-21.819q.217-.672.91-.672h2.049q.607 0 .791.585l7.034 22.166q.336 1.084.65 0l6.243-21.992a1.041 1.062 8.7 0 1 1.019-.759l1.767.022q.726 0 .509.705l-8.118 25.829q-.173.553-.748.553l-2.32-.022q-.466 0-.618-.444l-7.034-21.494q-.369-1.127-.737 0l-6.926 21.288q-.217.661-.921.661h-2.038q-.705-.011-.921-.683l-8.151-26.1a.228.217 80.6 0 1 .206-.293l2.861-.022q.238 0 .303.228l6.341 22.252q.369 1.312.791.011zm-50.954 0l7.067-21.819q.217-.672.921-.672h2.038q.618 0 .802.585l7.024 22.166q.336 1.084.65 0l6.254-21.992a1.03 1.041 8.3 0 1 1.008-.759l1.767.011q.726.011.509.705l-8.107 25.84q-.184.553-.759.553l-2.32-.022q-.466 0-.607-.444l-7.045-21.494q-.369-1.127-.737 0l-6.926 21.288q-.217.661-.921.661h-2.038q-.715 0-.921-.683l-8.151-26.089a.228.238 80 0 1 .217-.303l2.851-.022q.238 0 .303.228l6.341 22.252q.369 1.29.78.011zm-49.859 0l7.067-21.819q.217-.672.921-.672h2.038q.618 0 .802.585l7.034 22.198q.325 1.051.629-.011l6.265-22.014a1.03 1.041 8.3 0 1 1.008-.759l1.767.011q.726.011.509.705l-8.118 25.84q-.173.553-.748.553l-2.32-.022q-.466 0-.607-.444l-7.045-21.494q-.369-1.138-.737 0l-6.926 21.288q-.217.661-.921.661h-2.038q-.715 0-.921-.683l-8.151-26.089a.228.238 80 0 1 .217-.303l2.851-.022q.238 0 .303.228l6.341 22.252q.369 1.29.78.011zm480.61 5.037a13.679 14.026 3.4 0 1-12.823-14.812 13.679 14.026 3.4 0 1 14.486-13.19 13.679 14.026 3.4 0 1 12.823 14.812 13.679 14.026 3.4 0 1-14.486 13.19zm-42.632-24.959c-7.295.954-9.018 9.928-7.11 15.771 2.612 7.945 15.738 8.725 17.559.531q.152-.683.856-.694l2.32-.011q.715-.011.52.672c-1.843 6.547-8.259 9.549-14.643 8.422-16.811-2.992-13.397-31.086 5.788-27.314q6.85 1.344 8.834 8.129.249.856-.65.856l-1.94-.022q-.759 0-1.019-.715-2.417-6.677-10.514-5.625zm-91.795 24.958a13.679 14.026 3.5 0 1-12.797-14.834 13.679 14.026 3.5 0 1 14.509-13.164 13.679 14.026 3.5 0 1 12.797 14.834 13.679 14.026 3.5 0 1-14.509 13.164zm-128.983 0a13.679 14.026 3.5 0 1-12.797-14.834 13.679 14.026 3.5 0 1 14.509-13.164 13.679 14.026 3.5 0 1 12.797 14.834 13.679 14.026 3.5 0 1-14.509 13.164zm297.603-23.841c4.997-6.525 14.286-5.235 18.101 1.756q.293.542.574-.022c3.783-7.674 15.478-7.923 18.925-.564 2.309 4.91 1.355 15.5 1.312 21.754q-.011.488-.488.488l-2.363-.011q-.531-.011-.52-.542.065-6.59.022-13.354c-.033-5.539-1.149-10.427-7.36-10.752-5.116-.26-9.007 3.208-8.996 8.411q.022 8.053.011 15.771 0 .488-.488.477l-2.699-.011q-.303 0-.303-.303c-.033-5.56.986-15.879-.9-20.334-2.276-5.365-11.944-5.409-14.481.228q-.856 1.886-.878 6.287-.033 6.948 0 13.635 0 .509-.499.499l-2.493-.011a.52.531 0 0 1-.52-.531v-26.024q0-.531.531-.531h2.699q.26 0 .26.271l.033 3.241q.011.845.52.173zm-219.466 1.886c.889-.954 1.561-2.309 2.536-3.089q6.839-5.43 14.557-1.214c8.303 4.541 8.498 18.675.672 24.084-5.582 3.837-13.95 2.493-17.635-3.696q-.509-.845-.509.141l.022 4.791q0 .509-.509.509l-2.124-.011q-.531 0-.531-.52v-35.79q0-.542.531-.531l2.146.022a.499.509 0 0 1 .499.509l-.054 14.643q0 .585.401.152zm-43.366.011q.585-.585 1.03-1.29c2.58-4 7.902-5.365 12.345-4.411 15.575 3.36 12.616 29.688-4.726 27.433q-5.55-.726-8.519-5.647-.499-.824-.499.13l.022 4.791q0 .509-.509.509l-2.124-.011q-.531 0-.531-.52v-35.79q0-.542.531-.531l2.146.022a.499.509 0 0 1 .499.509l-.054 14.643q0 .553.39.163zm-67.786 16.464c-4.867 7.923-16.551 6.839-21.19-.9-2.807-4.661-2.265-12.096.91-16.508 4.672-6.482 15.706-6.991 20.149.163q.694 1.127.694-.195l.022-14.091a.26.271 0 0 1 .26-.271l2.97.011a.26.249 0 0 1 .26.249v36.061q0 .531-.531.531h-2.428q-.542.011-.542-.542l-.011-4.346q0-1.084-.564-.163z" fill="#286181" fill-rule="evenodd"/><path fill="#00acc8" d="M723.701 1037.433l-5.116-18.621c-.511-1.896.658-3.835 2.569-4.26l1.344-.303c2.919-.658 4.751.462 5.495 3.36l6.373 23.791c.596 2.146 1.214 3.273 3.263 4.422l24.073 13.787c.361.21.542.105.542-.314l-.043-29.959a.89.89 0 0 0-.26-.629l-20.29-20.29c-1.85-1.85-1.796-3.645.163-5.387l.867-.78c1.929-1.713 3.833-1.687 5.712.076l6.091 6.189c1.908 2.125 4.715 4.119 6.471 6.872.954 1.51 1.413 1.373 1.377-.412-.076-4.206-1.203-16.681 1.019-20.377.203-.33.558-.535.943-.542l5.474-.076c.47 0 .701.235.694.705l-.022.9a1.36 1.36 0 0 0 .314.9c.578.665.885 1.46.921 2.385.184 4.791.878 11.706-.802 16.183-.542 1.46-.267 1.637.824.531l13.354-13.581a3.41 3.41 0 0 1 4.845-.022l.921.921c2.37 2.377 2.37 4.758 0 7.143l-18.697 18.74c-.246.246-.369.546-.369.9l.011 25.2c-.025 3.311-.249 5.018-.249 5.018 3.541-2.298 7.266-4.534 11.175-6.709 6.156-3.425 10.658-6.084 13.505-7.977 1.077-.708 1.814-1.933 2.211-3.674 1.814-7.963 4.018-15.814 6.612-23.553.629-1.886 1.792-3.277 3.49-4.173.311-.166.632-.192.965-.076 2.818.943 5.344 2.742 4.682 6.005-1.228 6.084-2.977 12.01-5.246 17.776-.166.426-.054.52.336.282a263.3 263.3 0 0 1 16.009-9.029c2.851-1.474 5.69 1.322 6.623 3.468 1.973 4.52-14.773 11.944-17.884 13.278-.289.13-.278.235.033.314l19.022 4.943c.831.215 1.449.918 1.561 1.778.943 7.414-2.385 8.259-8.649 6.644a354.16 354.16 0 0 1-21.732-6.33 1.4 1.4 0 0 0-1.041.054c-5.755 2.525-12.215 6.666-16.453 8.975-3.447 1.879-6.767 3.801-9.961 5.766-1.452.889.379 1.442.379 1.442 1.856 1.072 4.873 2.128 23.109 12.855a4.95 4.95 0 0 0 3.772.585c7.732-1.814 16.457-4.079 26.176-6.796 2.101-.591 4.224.863 4.433 3.035l.141 1.507c.296 3.049-1.044 4.935-4.021 5.658l-16.193 3.935c-.528.13-.556.329-.087.596l16.063 9.137c1.739.994 2.123 3.337.791 4.834l-.791.878c-2.03 2.284-4.364 2.652-7.002 1.106l-14.351-8.4c-.65-.383-.802-.238-.455.434 2.309 4.531 3.23 8.953 4.531 13.841 1.268 4.791 1.398 8.552-3.837 10.254a1.25 1.25 0 0 1-.921-.065c-1.821-.889-2.977-2.142-3.468-3.761-1.301-4.285-3.494-12.461-6.579-24.528-.462-1.792-1.781-3.292-3.956-4.498-7.732-4.307-15.167-8.668-22.306-13.082 0 0-.415 1.394-.412 2.688l-.033 27.986c0 .368.144.721.401.986l19.25 19.261c1.597 1.597 1.582 3.183-.043 4.758l-1.431 1.387c-1.655 1.597-3.295 1.582-4.921-.043l-13.635-13.917c-.159-.166-.307-.253-.444-.26-.101-.014-.195 0-.282.043-.188.101-.235.249-.141.444 2.287 4.737 1.333 12.324 1.268 17.581-.008.315-.127.615-.336.845-.621.672-.983 1.46-1.084 2.363a.72.72 0 0 1-.726.65l-6.644-.043a.76.76 0 0 1-.759-.759l.033-19.803c0-1.799-.394-1.893-1.181-.282-2.027 4.151-7.078 8.194-11.392 12.335-2.262 2.168-4.664 2.338-7.208.509l-.954-.694a3.22 3.22 0 0 1-.39-4.888l20.312-20.29c.486-.493.759-1.155.759-1.843l.022-29.254c-.004-.259-.288-.415-.509-.282-6.843 4.3-13.845 8.397-21.006 12.291-3.284 1.778-5.192 2.861-6.222 6.753l-6.406 23.163c-.564 1.814-1.872 3.252-3.924 4.314a1.15 1.15 0 0 1-1.051 0c-1.965-1.019-3.476-2.5-4.531-4.444-.18-.34-.215-.742-.098-1.116 1.951-6.243 3.122-12.411 5.463-18.48.397-1.033.166-1.2-.694-.499-1.051.856-1.821 1.886-3.122 2.493-3.353 1.546-6.735 3.483-10.145 5.81-2.645 1.806-5.101 1.575-7.37-.694l-.249-.249c-2.247-2.255-2.049-4.271.596-6.048 5.029-3.374 10.272-6.388 15.727-9.04.184-.081.154-.351-.043-.39l-17.971-4.444c-2.094-.514-3.388-2.614-2.905-4.715l.293-1.279c.715-3.114 2.619-4.267 5.712-3.458l24.973 6.655c2.2.596 4.845-1.106 6.991-2.385a467.87 467.87 0 0 1 20.616-11.652c.374-.198.38-.733.011-.954l-25.255-14.643c-.311-.181-.643-.224-.997-.13l-23.629 6.33c-2.03.535-4.122.625-6.276.271-.865-.146-1.567-.78-1.799-1.626a11.32 11.32 0 0 1-.141-5.365c.072-.354.264-.621.574-.802 1.481-.838 3.038-1.467 4.672-1.886l14.578-3.761c1.149-.296 1.178-.676.087-1.138-5.672-2.414-10.973-5.47-15.901-9.17-1.908-1.431-2.059-3.031-.455-4.802l1.073-1.192c1.662-1.843 3.57-2.142 5.723-.9l14.936 8.639c.145.087.195.043.152-.13z"/><path d="M784.703 1332.37l1.116 99.913a.444.444 0 0 1-.444.444l-17.461.184a.444.444 0 0 1-.444-.444l-1.149-99.935a.444.444 0 0 0-.444-.444l-18.339.087a.444.444 0 0 1-.444-.434l-.282-15.868a.444.444 0 0 1 .444-.455l56.037-.303a.444.444 0 0 1 .444.444l.13 15.879a.444.444 0 0 1-.444.444l-18.274.043a.444.444 0 0 0-.444.444zm61.229 79.828l30.761-3.685a.39.39 0 0 1 .434.347l1.994 15.89a.39.39 0 0 1-.336.434l-49.003 5.853a.39.39 0 0 1-.434-.347l-14.535-115.987a.39.39 0 0 1 .347-.434l49.024-5.864a.39.39 0 0 1 .434.347l1.951 15.879a.39.39 0 0 1-.347.434l-30.75 3.674a.39.39 0 0 0-.347.434l3.989 31.79a.39.39 0 0 0 .434.336l24.312-2.883a.39.39 0 0 1 .423.336l2.005 15.857a.39.39 0 0 1-.336.434l-24.322 2.937a.39.39 0 0 0-.336.434l4.205 33.438a.39.39 0 0 0 .434.347zM596.908 1304.85c8.92 2.45 19.272 3.36 15.51 16.204q-8.595 29.406-17.234 58.812c-3.826 13.072-12.671 8.379-21.591 5.452q-.618-.206-.434-.824l23.325-79.417q.087-.325.423-.228zm90.418 54.931l-2.623 15.836a.358.358 0 0 1-.412.293l-24.225-4.227a.358.358 0 0 0-.412.293l-5.55 33.243a.358.358 0 0 0 .293.412l30.674 5.365a.358.358 0 0 1 .293.412l-2.634 15.814a.358.358 0 0 1-.412.293l-48.797-8.508a.358.358 0 0 1-.293-.412l19.196-115.141a.358.358 0 0 1 .412-.293l48.786 8.508a.358.358 0 0 1 .293.412l-2.645 15.836a.358.358 0 0 1-.412.293l-30.652-5.365a.358.358 0 0 0-.412.293l-5.279 31.617a.358.358 0 0 0 .293.412l24.225 4.206a.358.358 0 0 1 .293.412zm214.393-22.241l20.854 78.82a.076.076 0 0 1-.054.098l-15.348 4a.076.076 0 0 1-.098-.054l-30.089-113.711a.076.076 0 0 1 .054-.098l24.583-6.384a.076.076 0 0 1 .087.043l34.305 76.989a.076.076 0 0 0 .141-.043l-9.213-83.535a.076.076 0 0 1 .054-.087l24.583-6.362a.076.076 0 0 1 .098.054l30.089 113.689a.076.076 0 0 1-.054.098l-16.649 4.325a.076.076 0 0 1-.097-.054l-20.984-79.319a.076.076 0 0 0-.087-.054l-.228.043a.076.076 0 0 0-.054.076l9.05 82.473a.076.076 0 0 1-.054.087l-16.67 4.336a.076.076 0 0 1-.087-.043l-33.828-75.439a.076.076 0 0 0-.076-.043h-.152a.076.076 0 0 0-.076.098zm86.744-45.393a1.062 1.062 0 0 1 .585-1.387l7.977-3.306a9.083 8.248 67.5 0 1 11.099 5.235l8.346 20.16a9.083 8.248 67.5 0 1-4.14 11.554l-7.977 3.306a1.062 1.062 0 0 1-1.387-.574zm-376.424 94.992c-3.349 11.077-11.132 18.437-22.003 18.838q-5.289.195-17.711-3.544-10.741-3.23-21.407-6.46-.303-.087-.217-.401l32.842-111.847a.423.423 0 0 1 .52-.282q14.708 4.368 29.482 8.931c15.272 4.726 20.908 17.83 16.605 32.972q-8.812 30.967-18.112 61.792zm398.318-43.876a.466.455 68.7 0 0-.26.607l16.562 39.941q.238.585-.336.824l-16.096 6.623a.314.325 67.7 0 1-.423-.173l-44.786-107.966a.585.585 0 0 1 .314-.759q14.134-6.026 28.181-11.186c23.033-8.465 31.433 13.115 37.806 29.742q3.88 10.102 4.162 15.131c.889 16.074-11.912 22.393-25.125 27.216zm-514.489 12.627l-7.175 14.286a.369.369 0 0 1-.499.163l-42.835-21.949a.369.369 0 0 1-.163-.488l52.33-104.01a.369.369 0 0 1 .488-.162l15.781 8.086a.369.369 0 0 1 .163.488l-44.83 89.074a.369.369 0 0 0 .163.488l26.414 13.538a.369.369 0 0 1 .163.488zm578.645-50.021l16.388 29.352a.455.455 0 0 0 .618.184l26.924-15.034a.455.455 0 0 1 .618.184l7.75 13.895a.455.455 0 0 1-.184.618l-42.944 23.954a.455.455 0 0 1-.618-.184l-56.98-102.081a.455.455 0 0 1 .184-.618l42.933-23.965a.455.455 0 0 1 .618.184l7.771 13.885a.455.455 0 0 1-.184.618l-26.913 15.023a.455.455 0 0 0-.184.618l15.575 27.889a.455.455 0 0 0 .618.173l21.212-11.858a.455.455 0 0 1 .618.184l7.772 13.885a.455.455 0 0 1-.184.618l-21.223 11.858a.455.455 0 0 0-.184.618zm-622.651-72.875l.76.501c4.221 2.783 5.378 8.422 2.595 12.643l-37.47 56.827c-2.783 4.221-8.422 5.378-12.643 2.595l-.76-.501c-4.221-2.783-5.378-8.422-2.595-12.643l37.47-56.826c2.783-4.221 8.422-5.379 12.643-2.595zm654.04-5.284a.91.91 0 0 1 .195-1.279l6.438-4.65a9.842 9.441 54.1 0 1 13.418 2.428l9.723 13.44a9.842 9.441 54.1 0 1-1.875 13.505l-6.438 4.661a.91.91 0 0 1-1.268-.206zm-715.941 86.863c-9.43-9.408-10.308-21.494-2.959-32.874q17.516-27.119 35.346-54.032c6.872-10.384 18.068-17.212 30.425-12.746 17.396 6.297 28.203 22.285 18.307 40.527q-.564 1.019-6.666 10.308-22.371 34.045-30.349 45.989c-11.446 17.136-30.165 16.735-44.103 2.829zm761.453-67.071c11.478-1.843 19.261 6.254 25.244 14.741q5.983 8.487 12.205 16.8 2.883 3.859 6.709 6.471.564.379.011.78l-14.015 10.221q-.477.358-.976.011-3.208-2.298-4.867-4.411-5.495-7.045-16.529-22.447-1.312-1.843-3.588-3.685c-7.273-5.907-12.638-.726-18.448 3.534q-.531.39-.141.921l27.607 37.925a.423.423 0 0 1-.098.596l-14.231 10.416a.303.314 54.6 0 1-.423-.065l-68.925-94.71a.39.39 0 0 1 .087-.542q11.587-8.519 23.293-17.017 7.435-5.387 14.025-6.026c14.069-1.387 21.699 11.207 28.658 20.941 5.354 7.479 8.4 16.313 4.119 25.168a.26.271 8.3 0 0 .282.379zm-762.83-61.186a.683.683 0 0 1 .965-.076l6.503 5.615a9.202 10.08 40.8 0 1 .379 13.635l-10.362 11.999a9.202 10.08 40.8 0 1-13.549 1.615l-6.503-5.604a.683.683 0 0 1-.065-.965zm814.976 41.947l-32.994-47.507q-1.106-1.593.423-.39l45.361 35.833a.423.423 0 0 1 .033.639l-12.183 11.489a.423.423 0 0 1-.639-.065zm-823.538 7.305c3.815 9.213-.206 17.635-6.156 24.658q-7.457 8.801-14.925 17.581-3.523 4.151-5.647 9.148-.206.488-.607.141l-13.505-11.684a.737.726 34.8 0 1-.163-.878c4.856-9.289 14.275-18.654 21.407-26.946 8.227-9.571 2.07-15.456-5.43-21.483a.39.39 0 0 0-.542.054l-30.446 35.454a.488.466 40.4 0 1-.672.043l-13.364-11.576a.336.336 0 0 1-.033-.466l75.71-88.207a.423.434 41.3 0 1 .596-.043q11.608 9.983 23.076 20.052c11.37 9.983 11.706 22.859 2.536 34.392-8.021 10.091-16.724 21.819-31.487 19.326q-.564-.097-.347.434zm833.239 6.601l12.009 17.277a.358.358 0 0 1-.054.466l-11.728 11.066a.358.358 0 0 1-.542-.054l-66.681-98.092a.358.358 0 0 1 .043-.455l19.098-18.058a.358.358 0 0 1 .466-.022l93.68 72.491a.358.358 0 0 1 .022.542l-12.909 12.259a.358.358 0 0 1-.466.022l-16.464-12.996a.358.358 0 0 0-.466.022l-15.955 15.066a.358.358 0 0 0-.054.466zm-935.678-24.301l-11.912-13.126a.39.39 0 0 1 .033-.553l73.563-66.974a.39.39 0 0 0 .033-.553l-12.486-13.765a.39.39 0 0 1 .033-.553l11.782-10.72a.39.39 0 0 1 .553.033l37.849 41.849a.39.39 0 0 1-.033.553l-11.771 10.72a.39.39 0 0 1-.553-.033l-12.443-13.787a.39.39 0 0 0-.553-.033l-73.542 66.974a.39.39 0 0 1-.553-.033zm926.833-80.425l-11.944 14.156a.358.358 0 0 1-.499.033l-12.237-10.438a.358.358 0 0 1-.043-.499l36.169-42.9a.358.358 0 0 1 .499-.033l12.259 10.449a.358.358 0 0 1 .043.499l-11.944 14.145a.358.358 0 0 0 .043.499l76.284 65.001a.358.358 0 0 1 .043.499l-11.392 13.505a.358.358 0 0 1-.499.033l-76.284-64.979a.358.358 0 0 0-.499.033zm-922.259-48.071a.238.238 0 0 0-.325-.347l-67.721 47.409a.271.282 55.7 0 1-.379-.065l-9.159-13.093q-.228-.336.098-.564l95.111-66.583q.336-.238.574.108l12.844 18.383a.488.499 46.7 0 1-.022.596l-45.036 54.053q-1.192 1.42.325.358l55.343-38.738a.607.607 0 0 1 .845.152l8.866 12.671a.412.423 55.3 0 1-.108.574l-95.176 66.627a.336.325 54.8 0 1-.466-.087l-10.449-14.958q-.238-.347.032-.672zm1039.416 34.955c4.737-4.997 3.49-10.785-1.984-14.47q-38.012-25.569-76.382-51.084a.585.574 34 0 1-.163-.802l9.007-13.744a.325.325 0 0 1 .455-.087q38.153 25.298 76.338 50.704c5.864 3.902 11.478 10.915 12.736 18.318 1.973 11.652-7.609 27.628-18.643 31.433-8.964 3.089-17.884.206-25.45-4.802q-37.383-24.767-74.745-49.577-.564-.379-.195-.954l9.451-14.416a.455.466 34.1 0 1 .639-.13q37.481 24.875 74.951 49.794c4.845 3.23 9.354 4.704 13.982-.184zm-1128.451-70.617l60.448-31.199c4.466-2.305 9.917-.565 12.223 3.901l.477.925c2.305 4.466.565 9.917-3.901 12.223l-60.448 31.2c-4.466 2.305-9.917.565-12.223-3.901l-.477-.925c-2.305-4.466-.565-9.918 3.901-12.223zm1089.561-31.387a.78.78 0 0 1-.347-1.041l3.739-7.468a10.004 9.213 26.6 0 1 13.072-3.75l14.459 7.24a10.004 9.213 26.6 0 1 4.823 12.714l-3.739 7.457a.78.78 0 0 1-1.051.358zm-1024.058 39.974q-23.499 12.183-47.127 24.106-9.159 4.617-17.96 3.284c-14.643-2.222-25.656-22.155-22.166-35.92 2.103-8.303 8.671-14.036 16.226-17.982q24.344-12.736 48.829-25.211 12.4-6.33 17.765-7.067c12.053-1.68 21.808 5.322 27.097 16.508 5.972 12.638 4.541 24.507-6.926 33.427-4.314 3.349-10.969 6.384-15.738 8.855zm1071.521-16.432l41.686 20.659q.574.282.293.856l-7.544 15.478q-.238.477-.715.238l-104.53-51.788a.303.293 25.6 0 1-.141-.39q4.574-9.744 9.387-19.369 6.72-13.451 10.795-17.05c12.194-10.752 28.029-1.517 40.765 5.831q10.459 6.026 11.706 17.982.065.596.542.228c7.349-5.517 15.565-4.379 23.466-.737q10.59 4.878 20.962 10.199 5.755 2.948 11.977 3.859a.412.401 16.6 0 1 .314.574l-7.674 15.76q-.26.553-.867.444-4.119-.694-7.945-2.504-11.511-5.452-22.935-11.099c-11.565-5.723-15.825.206-19.835 10.048a.607.629 23.8 0 0 .293.78zm45.09-84.001l-5.322 15.814q-.228.683-.856.347l-50.704-26.36q-2.059-1.073.217-.65l56.406 10.405a.347.336 15.1 0 1 .26.444zM163.45 980.431c-4.357 1.593-7.923 5.441-6.828 10.308q2.525 11.207 13.82 7.349 8.021-2.731 15.998-5.517.553-.195.759.358l5.615 15.38q.13.369-.238.52c-17.57 6.926-36.755 15.424-48.623-5.213-5.799-10.113-7.457-22.502.466-31.921 5.083-6.037 12.031-8.368 21.255-11.739q40.689-14.871 52.525-19.076c20.908-7.435 35.313 5.69 37.535 25.482 2.168 19.347-15.933 25.905-30.511 30.587a.434.434 0 0 1-.531-.26l-5.647-15.445q-.206-.553.358-.748 6.915-2.33 13.484-5.192 8.4-3.653 5.029-12.421c-2.536-6.601-8.834-6.438-14.502-4.368q-29.97 10.98-59.961 21.916zm1227.644-15.836l-6.98 20.876a.379.379 0 0 0 .184.455l18.545 9.625a.379.379 0 0 1 .195.455l-5.127 15.315a.379.379 0 0 1-.542.217l-104.4-55.625a.379.379 0 0 1-.184-.455l8.357-24.951a.379.379 0 0 1 .434-.26l116.258 20.258a.379.379 0 0 1 .293.499l-5.669 16.876a.379.379 0 0 1-.434.249l-20.496-3.783a.379.379 0 0 0-.434.249z" fill-rule="evenodd" fill="#286181"/></svg>